G75*
%MOIN*%
%OFA0B0*%
%FSLAX26Y26*%
%IPPOS*%
%LPD*%
%AMOC8*
5,1,8,0,0,1.08239X$1,22.5*
%
%ADD10C,0.003000*%
%ADD11C,0.006000*%
%ADD12C,0.002000*%
%ADD13C,0.016000*%
%ADD14C,0.008000*%
%ADD15C,0.010000*%
%ADD16R,0.007874X0.047244*%
%ADD17R,0.047244X0.007874*%
%ADD18C,0.002496*%
%ADD19C,0.009843*%
%ADD20C,0.005000*%
%ADD21C,0.001000*%
%ADD22C,0.007000*%
%ADD23R,0.730000X0.030000*%
%ADD24R,1.220000X0.020000*%
%ADD25R,0.032000X0.285000*%
%ADD26R,0.032000X0.185000*%
D10*
X-00000634Y00003098D02*
X01396709Y00003098D01*
X01396709Y02690106D01*
X-00000634Y02690106D01*
X-00000634Y00003098D01*
X00170564Y00790122D02*
X00176236Y00790122D01*
X00179071Y00792958D01*
X00186144Y00792958D02*
X00188980Y00790122D01*
X00194651Y00790122D01*
X00197487Y00792958D01*
X00197487Y00795794D01*
X00194651Y00798629D01*
X00191816Y00798629D01*
X00194651Y00798629D02*
X00197487Y00801465D01*
X00197487Y00804301D01*
X00194651Y00807137D01*
X00188980Y00807137D01*
X00186144Y00804301D01*
X00179071Y00804301D02*
X00176236Y00807137D01*
X00170564Y00807137D01*
X00167728Y00804301D01*
X00167728Y00792958D01*
X00170564Y00790122D01*
X00250084Y00985949D02*
X00250084Y00991620D01*
X00250084Y00988785D02*
X00267098Y00988785D01*
X00267098Y00991620D02*
X00267098Y00985949D01*
X00264263Y00998226D02*
X00267098Y01001062D01*
X00267098Y01006733D01*
X00264263Y01009569D01*
X00267098Y01016642D02*
X00267098Y01027985D01*
X00267098Y01022313D02*
X00250084Y01022313D01*
X00255755Y01016642D01*
X00252920Y01009569D02*
X00250084Y01006733D01*
X00250084Y01001062D01*
X00252920Y00998226D01*
X00264263Y00998226D01*
X00305753Y00998741D02*
X00308589Y00998741D01*
X00319932Y00987398D01*
X00322768Y00987398D01*
X00322768Y00980325D02*
X00322768Y00968982D01*
X00322768Y00974653D02*
X00305753Y00974653D01*
X00311425Y00968982D01*
X00322768Y00961909D02*
X00322768Y00950566D01*
X00322768Y00956238D02*
X00305753Y00956238D01*
X00311425Y00950566D01*
X00322768Y00943493D02*
X00322768Y00932150D01*
X00322768Y00937822D02*
X00305753Y00937822D01*
X00311425Y00932150D01*
X00305753Y00925078D02*
X00322768Y00925078D01*
X00322768Y00913735D02*
X00305753Y00913735D01*
X00311425Y00919406D01*
X00305753Y00925078D01*
X00322768Y00906662D02*
X00322768Y00895319D01*
X00305753Y00895319D01*
X00305753Y00987398D02*
X00305753Y00998741D01*
X00305753Y01005813D02*
X00311425Y01011485D01*
X00305753Y01017156D01*
X00322768Y01017156D01*
X00322768Y01024229D02*
X00305753Y01024229D01*
X00305753Y01032736D01*
X00308589Y01035572D01*
X00314260Y01035572D01*
X00317096Y01032736D01*
X00317096Y01024229D01*
X00322768Y01042645D02*
X00305753Y01053988D01*
X00314260Y01061060D02*
X00314260Y01072403D01*
X00308589Y01079476D02*
X00305753Y01082312D01*
X00305753Y01087983D01*
X00308589Y01090819D01*
X00311425Y01090819D01*
X00314260Y01087983D01*
X00317096Y01090819D01*
X00319932Y01090819D01*
X00322768Y01087983D01*
X00322768Y01082312D01*
X00319932Y01079476D01*
X00314260Y01085148D02*
X00314260Y01087983D01*
X00319932Y01097892D02*
X00319932Y01100728D01*
X00322768Y01100728D01*
X00322768Y01097892D01*
X00319932Y01097892D01*
X00319932Y01107100D02*
X00322768Y01109935D01*
X00322768Y01115607D01*
X00319932Y01118443D01*
X00317096Y01118443D01*
X00314260Y01115607D01*
X00314260Y01112771D01*
X00314260Y01115607D02*
X00311425Y01118443D01*
X00308589Y01118443D01*
X00305753Y01115607D01*
X00305753Y01109935D01*
X00308589Y01107100D01*
X00322768Y01053988D02*
X00305753Y01042645D01*
X00305753Y01005813D02*
X00322768Y01005813D01*
X00350880Y00808932D02*
X00350880Y00791917D01*
X00345209Y00791917D02*
X00356552Y00791917D01*
X00363624Y00794753D02*
X00363624Y00806096D01*
X00366460Y00808932D01*
X00372132Y00808932D01*
X00374967Y00806096D01*
X00363624Y00794753D01*
X00366460Y00791917D01*
X00372132Y00791917D01*
X00374967Y00794753D01*
X00374967Y00806096D01*
X00382040Y00803260D02*
X00382040Y00794753D01*
X00384876Y00791917D01*
X00393383Y00791917D01*
X00393383Y00803260D01*
X00350880Y00808932D02*
X00345209Y00803260D01*
X00248143Y01282138D02*
X00242471Y01282138D01*
X00239635Y01284974D01*
X00232563Y01282138D02*
X00221220Y01282138D01*
X00226891Y01282138D02*
X00226891Y01299152D01*
X00221220Y01293481D01*
X00214147Y01296317D02*
X00211311Y01299152D01*
X00205640Y01299152D01*
X00202804Y01296317D01*
X00202804Y01284974D01*
X00205640Y01282138D01*
X00211311Y01282138D01*
X00214147Y01284974D01*
X00239635Y01296317D02*
X00242471Y01299152D01*
X00248143Y01299152D01*
X00250978Y01296317D01*
X00250978Y01293481D01*
X00248143Y01290645D01*
X00250978Y01287809D01*
X00250978Y01284974D01*
X00248143Y01282138D01*
X00248143Y01290645D02*
X00245307Y01290645D01*
X00311229Y01286657D02*
X00322572Y01286657D01*
X00316901Y01286657D02*
X00316901Y01303672D01*
X00311229Y01298000D01*
X00329645Y01300836D02*
X00332481Y01303672D01*
X00338152Y01303672D01*
X00340988Y01300836D01*
X00329645Y01289493D01*
X00332481Y01286657D01*
X00338152Y01286657D01*
X00340988Y01289493D01*
X00340988Y01300836D01*
X00348061Y01298000D02*
X00348061Y01289493D01*
X00350896Y01286657D01*
X00359404Y01286657D01*
X00359404Y01298000D01*
X00329645Y01300836D02*
X00329645Y01289493D01*
X00510892Y01465900D02*
X00525071Y01465900D01*
X00527907Y01468735D01*
X00527907Y01474407D01*
X00525071Y01477243D01*
X00510892Y01477243D01*
X00516564Y01484315D02*
X00510892Y01489987D01*
X00527907Y01489987D01*
X00527907Y01495658D02*
X00527907Y01484315D01*
X00677211Y01559476D02*
X00680047Y01556640D01*
X00682883Y01556640D01*
X00685719Y01559476D01*
X00685719Y01565147D01*
X00688554Y01567983D01*
X00691390Y01567983D01*
X00694226Y01565147D01*
X00694226Y01559476D01*
X00691390Y01556640D01*
X00677211Y01559476D02*
X00677211Y01565147D01*
X00680047Y01567983D01*
X00677211Y01575056D02*
X00677211Y01586399D01*
X00677211Y01580727D02*
X00694226Y01580727D01*
X00694226Y01593471D02*
X00677211Y01593471D01*
X00682883Y01599143D01*
X00677211Y01604814D01*
X00694226Y01604814D01*
X00691390Y01611887D02*
X00694226Y01614723D01*
X00694226Y01620394D01*
X00691390Y01623230D01*
X00688554Y01623230D01*
X00685719Y01620394D01*
X00685719Y01617559D01*
X00685719Y01620394D02*
X00682883Y01623230D01*
X00680047Y01623230D01*
X00677211Y01620394D01*
X00677211Y01614723D01*
X00680047Y01611887D01*
X00680047Y01630303D02*
X00677211Y01633139D01*
X00677211Y01638810D01*
X00680047Y01641646D01*
X00682883Y01641646D01*
X00694226Y01630303D01*
X00694226Y01641646D01*
X00694226Y01648719D02*
X00677211Y01648719D01*
X00677211Y01660062D01*
X00682883Y01667134D02*
X00677211Y01672806D01*
X00694226Y01672806D01*
X00694226Y01678477D02*
X00694226Y01667134D01*
X00685719Y01654390D02*
X00685719Y01648719D01*
X00691390Y01685550D02*
X00680047Y01696893D01*
X00691390Y01696893D01*
X00694226Y01694057D01*
X00694226Y01688386D01*
X00691390Y01685550D01*
X00680047Y01685550D01*
X00677211Y01688386D01*
X00677211Y01694057D01*
X00680047Y01696893D01*
X00677211Y01703966D02*
X00694226Y01715309D01*
X00694226Y01722381D02*
X00677211Y01722381D01*
X00677211Y01730889D01*
X00680047Y01733724D01*
X00685719Y01733724D01*
X00688554Y01730889D01*
X00688554Y01722381D01*
X00688554Y01728053D02*
X00694226Y01733724D01*
X00694226Y01740797D02*
X00677211Y01752140D01*
X00677211Y01759213D02*
X00677211Y01770556D01*
X00677211Y01764884D02*
X00694226Y01764884D01*
X00694226Y01752140D02*
X00677211Y01740797D01*
X00677211Y01715309D02*
X00694226Y01703966D01*
X00691390Y01777629D02*
X00685719Y01777629D01*
X00685719Y01786136D01*
X00688554Y01788972D01*
X00691390Y01788972D01*
X00694226Y01786136D01*
X00694226Y01780464D01*
X00691390Y01777629D01*
X00685719Y01777629D02*
X00680047Y01783300D01*
X00677211Y01788972D01*
X00769604Y01089681D02*
X00775276Y01089681D01*
X00778111Y01086845D01*
X00778111Y01075502D01*
X00775276Y01072666D01*
X00769604Y01072666D01*
X00766768Y01075502D01*
X00766768Y01086845D01*
X00769604Y01089681D01*
X00772440Y01078338D02*
X00778111Y01072666D01*
X00785184Y01072666D02*
X00796527Y01072666D01*
X00790856Y01072666D02*
X00790856Y01089681D01*
X00785184Y01084009D01*
X01286526Y02281465D02*
X01280354Y02287637D01*
X01280354Y02299981D01*
X01286526Y02306153D01*
X01292698Y02306153D01*
X01317385Y02281465D01*
X01317385Y02306153D01*
X01317385Y02318297D02*
X01311214Y02318297D01*
X01286526Y02342984D01*
X01280354Y02342984D01*
X01280354Y02318297D01*
X01317385Y02355128D02*
X01280354Y02379816D01*
X01286526Y02391960D02*
X01292698Y02391960D01*
X01298870Y02398131D01*
X01298870Y02410475D01*
X01305042Y02416647D01*
X01311214Y02416647D01*
X01317385Y02410475D01*
X01317385Y02398131D01*
X01311214Y02391960D01*
X01305042Y02391960D01*
X01298870Y02398131D01*
X01298870Y02410475D02*
X01292698Y02416647D01*
X01286526Y02416647D01*
X01280354Y02410475D01*
X01280354Y02398131D01*
X01286526Y02391960D01*
X01317385Y02428791D02*
X01280354Y02453479D01*
X01286526Y02465622D02*
X01280354Y02471794D01*
X01280354Y02484138D01*
X01286526Y02490310D01*
X01292698Y02490310D01*
X01317385Y02465622D01*
X01317385Y02490310D01*
X01311214Y02502454D02*
X01286526Y02527142D01*
X01311214Y02527142D01*
X01317385Y02520970D01*
X01317385Y02508626D01*
X01311214Y02502454D01*
X01286526Y02502454D01*
X01280354Y02508626D01*
X01280354Y02520970D01*
X01286526Y02527142D01*
X01286526Y02539285D02*
X01280354Y02545457D01*
X01280354Y02557801D01*
X01286526Y02563973D01*
X01292698Y02563973D01*
X01317385Y02539285D01*
X01317385Y02563973D01*
X01317385Y02576117D02*
X01292698Y02600805D01*
X01286526Y02600805D01*
X01280354Y02594633D01*
X01280354Y02582289D01*
X01286526Y02576117D01*
X01317385Y02576117D02*
X01317385Y02600805D01*
X01206810Y02406767D02*
X01209646Y02403931D01*
X01209646Y02398259D01*
X01206810Y02395424D01*
X01209646Y02388351D02*
X01203974Y02382679D01*
X01203974Y02385515D02*
X01203974Y02377008D01*
X01209646Y02377008D02*
X01192631Y02377008D01*
X01192631Y02385515D01*
X01195467Y02388351D01*
X01201138Y02388351D01*
X01203974Y02385515D01*
X01195467Y02395424D02*
X01192631Y02398259D01*
X01192631Y02403931D01*
X01195467Y02406767D01*
X01198303Y02406767D01*
X01201138Y02403931D01*
X01203974Y02406767D01*
X01206810Y02406767D01*
X01201138Y02403931D02*
X01201138Y02401095D01*
X01155362Y02492228D02*
X01138348Y02492228D01*
X01138348Y02500736D01*
X01141183Y02503571D01*
X01146855Y02503571D01*
X01149691Y02500736D01*
X01149691Y02492228D01*
X01152526Y02510644D02*
X01155362Y02513480D01*
X01155362Y02519151D01*
X01152526Y02521987D01*
X01141183Y02521987D01*
X01138348Y02519151D01*
X01138348Y02513480D01*
X01141183Y02510644D01*
X01152526Y02510644D01*
X01155362Y02529060D02*
X01138348Y02529060D01*
X01138348Y02540403D02*
X01155362Y02540403D01*
X01149691Y02534731D01*
X01155362Y02529060D01*
X01155362Y02547476D02*
X01138348Y02547476D01*
X01138348Y02558819D01*
X01138348Y02565891D02*
X01138348Y02574399D01*
X01141183Y02577234D01*
X01146855Y02577234D01*
X01149691Y02574399D01*
X01149691Y02565891D01*
X01155362Y02565891D02*
X01138348Y02565891D01*
X01149691Y02571563D02*
X01155362Y02577234D01*
X01155362Y02558819D02*
X01155362Y02547476D01*
X01146855Y02547476D02*
X01146855Y02553147D01*
X01092165Y02400236D02*
X01086494Y02391729D01*
X01080822Y02400236D01*
X01075151Y02391729D02*
X01092165Y02391729D01*
X01089330Y02384656D02*
X01092165Y02381821D01*
X01092165Y02376149D01*
X01089330Y02373313D01*
X01077987Y02384656D01*
X01089330Y02384656D01*
X01089330Y02373313D02*
X01077987Y02373313D01*
X01075151Y02376149D01*
X01075151Y02381821D01*
X01077987Y02384656D01*
X01092165Y02366241D02*
X01092165Y02354898D01*
X01092165Y02360569D02*
X01075151Y02360569D01*
X01080822Y02354898D01*
X00255110Y02359375D02*
X00249439Y02353703D01*
X00249439Y02356539D02*
X00249439Y02348031D01*
X00255110Y02348031D02*
X00238096Y02348031D01*
X00238096Y02356539D01*
X00240931Y02359375D01*
X00246603Y02359375D01*
X00249439Y02356539D01*
X00246603Y02366447D02*
X00238096Y02374954D01*
X00255110Y02374954D01*
X00246603Y02377790D02*
X00246603Y02366447D01*
X00168778Y02483397D02*
X00171614Y02486233D01*
X00171614Y02491904D01*
X00168778Y02494740D01*
X00168778Y02501813D02*
X00171614Y02504648D01*
X00171614Y02510320D01*
X00168778Y02513156D01*
X00157435Y02513156D01*
X00154600Y02510320D01*
X00154600Y02504648D01*
X00157435Y02501813D01*
X00168778Y02501813D01*
X00157435Y02494740D02*
X00154600Y02491904D01*
X00154600Y02486233D01*
X00157435Y02483397D01*
X00168778Y02483397D01*
X00171614Y02520228D02*
X00154600Y02520228D01*
X00171614Y02531571D01*
X00154600Y02531571D01*
X00154600Y02538644D02*
X00171614Y02549987D01*
X00154600Y02549987D01*
X00154600Y02557060D02*
X00171614Y02557060D01*
X00171614Y02568403D01*
X00168778Y02575476D02*
X00157435Y02575476D01*
X00154600Y02578311D01*
X00154600Y02583983D01*
X00157435Y02586819D01*
X00154600Y02593891D02*
X00154600Y02605234D01*
X00154600Y02599563D02*
X00171614Y02599563D01*
X00168778Y02586819D02*
X00171614Y02583983D01*
X00171614Y02578311D01*
X00168778Y02575476D01*
X00163107Y02562731D02*
X00163107Y02557060D01*
X00154600Y02557060D02*
X00154600Y02568403D01*
X00154600Y02538644D02*
X00171614Y02538644D01*
X00147315Y02387480D02*
X00141643Y02378973D01*
X00135972Y02387480D01*
X00130300Y02378973D02*
X00147315Y02378973D01*
X00144479Y02371900D02*
X00147315Y02369065D01*
X00147315Y02363393D01*
X00144479Y02360557D01*
X00133136Y02371900D01*
X00144479Y02371900D01*
X00144479Y02360557D02*
X00133136Y02360557D01*
X00130300Y02363393D01*
X00130300Y02369065D01*
X00133136Y02371900D01*
X00147315Y02353485D02*
X00147315Y02342142D01*
X00147315Y02347813D02*
X00130300Y02347813D01*
X00135972Y02342142D01*
D11*
X00208434Y02104523D02*
X00208434Y02040468D01*
X00208434Y02061820D02*
X00240462Y02083171D01*
X00208434Y02061820D02*
X00240462Y02040468D01*
X00262147Y02051144D02*
X00272822Y02040468D01*
X00304850Y02040468D01*
X00304850Y02083171D01*
X00326602Y02104523D02*
X00337277Y02104523D01*
X00337277Y02040468D01*
X00326602Y02040468D02*
X00347953Y02040468D01*
X00369572Y02051144D02*
X00380247Y02061820D01*
X00412275Y02061820D01*
X00412275Y02072495D02*
X00412275Y02040468D01*
X00380247Y02040468D01*
X00369572Y02051144D01*
X00380247Y02083171D02*
X00401599Y02083171D01*
X00412275Y02072495D01*
X00434027Y02083171D02*
X00434027Y02040468D01*
X00455378Y02040468D02*
X00455378Y02072495D01*
X00466054Y02083171D01*
X00476730Y02072495D01*
X00476730Y02040468D01*
X00498482Y02051144D02*
X00509157Y02061820D01*
X00541185Y02061820D01*
X00541185Y02072495D02*
X00541185Y02040468D01*
X00509157Y02040468D01*
X00498482Y02051144D01*
X00509157Y02083171D02*
X00530509Y02083171D01*
X00541185Y02072495D01*
X00562937Y02061820D02*
X00584288Y02083171D01*
X00594964Y02083171D01*
X00616649Y02083171D02*
X00627325Y02083171D01*
X00627325Y02040468D01*
X00616649Y02040468D02*
X00638001Y02040468D01*
X00659619Y02051144D02*
X00659619Y02072495D01*
X00670295Y02083171D01*
X00691646Y02083171D01*
X00702322Y02072495D01*
X00702322Y02051144D01*
X00691646Y02040468D01*
X00670295Y02040468D01*
X00659619Y02051144D01*
X00627325Y02104523D02*
X00627325Y02115198D01*
X00562937Y02083171D02*
X00562937Y02040468D01*
X00455378Y02072495D02*
X00444702Y02083171D01*
X00434027Y02083171D01*
X00262147Y02083171D02*
X00262147Y02051144D01*
X00479287Y02448768D02*
X00529287Y02679083D01*
X00579287Y02679083D01*
X00629287Y02448768D01*
X00729287Y02448768D02*
X00779287Y02679083D01*
X00829287Y02679083D01*
X00879287Y02448768D01*
X00917439Y02104523D02*
X00917439Y02040468D01*
X00895687Y02040468D02*
X00895687Y02072495D01*
X00885011Y02083171D01*
X00863660Y02083171D01*
X00863660Y02061820D02*
X00852984Y02051144D01*
X00863660Y02040468D01*
X00895687Y02040468D01*
X00895687Y02061820D02*
X00863660Y02061820D01*
X00831232Y02083171D02*
X00831232Y02029792D01*
X00820556Y02019117D01*
X00809881Y02019117D01*
X00799205Y02040468D02*
X00831232Y02040468D01*
X00799205Y02040468D02*
X00788529Y02051144D01*
X00788529Y02083171D01*
X00766777Y02093847D02*
X00766777Y02072495D01*
X00756101Y02061820D01*
X00756101Y02083171D01*
X00734750Y02083171D01*
X00734750Y02061820D01*
X00756101Y02061820D01*
X00766777Y02051144D02*
X00756101Y02040468D01*
X00734750Y02040468D01*
X00724074Y02051144D01*
X00724074Y02093847D01*
X00734750Y02104523D01*
X00756101Y02104523D01*
X00766777Y02093847D01*
X00917439Y02072495D02*
X00928115Y02083171D01*
X00949466Y02083171D01*
X00960142Y02072495D01*
X00960142Y02040468D01*
X00981894Y02051144D02*
X00992570Y02040468D01*
X01013921Y02040468D01*
X01024597Y02051144D01*
X01024597Y02072495D01*
X01013921Y02083171D01*
X00992570Y02083171D01*
X00981894Y02072495D01*
X00981894Y02051144D01*
X01046349Y02051144D02*
X01057025Y02040468D01*
X01078376Y02040468D01*
X01089052Y02051144D01*
X01089052Y02072495D01*
X01078376Y02083171D01*
X01057025Y02083171D01*
X01046349Y02072495D01*
X01046349Y02051144D01*
X01110804Y02051144D02*
X01121480Y02051144D01*
X01121480Y02040468D01*
X01110804Y02040468D01*
X01110804Y02051144D01*
X01143031Y02040468D02*
X01164383Y02040468D01*
X01153707Y02040468D02*
X01153707Y02083171D01*
X01143031Y02083171D01*
X01153707Y02104523D02*
X01153707Y02115198D01*
X01186001Y02072495D02*
X01186001Y02051144D01*
X01196677Y02040468D01*
X01218029Y02040468D01*
X01228704Y02061820D02*
X01228704Y02072495D01*
X01218029Y02083171D01*
X01196677Y02083171D01*
X01186001Y02072495D01*
X01186001Y02061820D02*
X01228704Y02061820D01*
X01247358Y01818846D02*
X01262358Y01803846D01*
X01262358Y01733846D01*
X01247358Y01718846D01*
X01262358Y01703846D01*
X01262358Y01633846D01*
X01247358Y01618846D01*
X01262358Y01603846D01*
X01262358Y01533846D01*
X01247358Y01518846D01*
X01077358Y01518846D01*
X01062358Y01533846D01*
X01062358Y01603846D01*
X01077358Y01618846D01*
X01062358Y01633846D01*
X01062358Y01703846D01*
X01077358Y01718846D01*
X01062358Y01733846D01*
X01062358Y01803846D01*
X01077358Y01818846D01*
X01247358Y01818846D01*
X00904730Y01263796D02*
X00664730Y01263796D01*
X00663147Y01263777D01*
X00661565Y01263719D01*
X00659985Y01263623D01*
X00658408Y01263488D01*
X00656835Y01263315D01*
X00655266Y01263103D01*
X00653703Y01262854D01*
X00652146Y01262566D01*
X00650597Y01262241D01*
X00649056Y01261878D01*
X00647525Y01261478D01*
X00646004Y01261040D01*
X00644493Y01260566D01*
X00642995Y01260054D01*
X00641510Y01259507D01*
X00640039Y01258924D01*
X00638582Y01258305D01*
X00637140Y01257650D01*
X00635715Y01256961D01*
X00634308Y01256237D01*
X00632918Y01255479D01*
X00631547Y01254688D01*
X00630196Y01253863D01*
X00628865Y01253006D01*
X00627556Y01252116D01*
X00626268Y01251195D01*
X00625004Y01250243D01*
X00623763Y01249261D01*
X00622546Y01248248D01*
X00621354Y01247206D01*
X00620188Y01246136D01*
X00619049Y01245037D01*
X00617936Y01243911D01*
X00616852Y01242758D01*
X00615795Y01241579D01*
X00614768Y01240375D01*
X00613770Y01239146D01*
X00612803Y01237893D01*
X00611866Y01236617D01*
X00610961Y01235318D01*
X00610087Y01233998D01*
X00609246Y01232657D01*
X00608438Y01231296D01*
X00607664Y01229916D01*
X00606923Y01228517D01*
X00606216Y01227100D01*
X00605544Y01225667D01*
X00604907Y01224218D01*
X00604306Y01222754D01*
X00603741Y01221275D01*
X00603211Y01219783D01*
X00602719Y01218279D01*
X00602263Y01216763D01*
X00601844Y01215237D01*
X00601462Y01213700D01*
X00601118Y01212155D01*
X00600811Y01210602D01*
X00600543Y01209042D01*
X00600312Y01207476D01*
X00600120Y01205905D01*
X00599966Y01204330D01*
X00599850Y01202751D01*
X00599773Y01201170D01*
X00599735Y01199587D01*
X00599735Y01198005D01*
X00599773Y01196422D01*
X00599850Y01194841D01*
X00599966Y01193262D01*
X00600120Y01191687D01*
X00600312Y01190116D01*
X00600543Y01188550D01*
X00600811Y01186990D01*
X00601118Y01185437D01*
X00601462Y01183892D01*
X00601844Y01182355D01*
X00602263Y01180829D01*
X00602719Y01179313D01*
X00603211Y01177809D01*
X00603741Y01176317D01*
X00604306Y01174838D01*
X00604907Y01173374D01*
X00605544Y01171925D01*
X00606216Y01170492D01*
X00606923Y01169075D01*
X00607664Y01167676D01*
X00608438Y01166296D01*
X00609246Y01164935D01*
X00610087Y01163594D01*
X00610961Y01162274D01*
X00611866Y01160975D01*
X00612803Y01159699D01*
X00613770Y01158446D01*
X00614768Y01157217D01*
X00615795Y01156013D01*
X00616852Y01154834D01*
X00617936Y01153681D01*
X00619049Y01152555D01*
X00620188Y01151456D01*
X00621354Y01150386D01*
X00622546Y01149344D01*
X00623763Y01148331D01*
X00625004Y01147349D01*
X00626268Y01146397D01*
X00627556Y01145476D01*
X00628865Y01144586D01*
X00630196Y01143729D01*
X00631547Y01142904D01*
X00632918Y01142113D01*
X00634308Y01141355D01*
X00635715Y01140631D01*
X00637140Y01139942D01*
X00638582Y01139287D01*
X00640039Y01138668D01*
X00641510Y01138085D01*
X00642995Y01137538D01*
X00644493Y01137026D01*
X00646004Y01136552D01*
X00647525Y01136114D01*
X00649056Y01135714D01*
X00650597Y01135351D01*
X00652146Y01135026D01*
X00653703Y01134738D01*
X00655266Y01134489D01*
X00656835Y01134277D01*
X00658408Y01134104D01*
X00659985Y01133969D01*
X00661565Y01133873D01*
X00663147Y01133815D01*
X00664730Y01133796D01*
X00904730Y01133796D01*
X00906313Y01133815D01*
X00907895Y01133873D01*
X00909475Y01133969D01*
X00911052Y01134104D01*
X00912625Y01134277D01*
X00914194Y01134489D01*
X00915757Y01134738D01*
X00917314Y01135026D01*
X00918863Y01135351D01*
X00920404Y01135714D01*
X00921935Y01136114D01*
X00923456Y01136552D01*
X00924967Y01137026D01*
X00926465Y01137538D01*
X00927950Y01138085D01*
X00929421Y01138668D01*
X00930878Y01139287D01*
X00932320Y01139942D01*
X00933745Y01140631D01*
X00935152Y01141355D01*
X00936542Y01142113D01*
X00937913Y01142904D01*
X00939264Y01143729D01*
X00940595Y01144586D01*
X00941904Y01145476D01*
X00943192Y01146397D01*
X00944456Y01147349D01*
X00945697Y01148331D01*
X00946914Y01149344D01*
X00948106Y01150386D01*
X00949272Y01151456D01*
X00950411Y01152555D01*
X00951524Y01153681D01*
X00952608Y01154834D01*
X00953665Y01156013D01*
X00954692Y01157217D01*
X00955690Y01158446D01*
X00956657Y01159699D01*
X00957594Y01160975D01*
X00958499Y01162274D01*
X00959373Y01163594D01*
X00960214Y01164935D01*
X00961022Y01166296D01*
X00961796Y01167676D01*
X00962537Y01169075D01*
X00963244Y01170492D01*
X00963916Y01171925D01*
X00964553Y01173374D01*
X00965154Y01174838D01*
X00965719Y01176317D01*
X00966249Y01177809D01*
X00966741Y01179313D01*
X00967197Y01180829D01*
X00967616Y01182355D01*
X00967998Y01183892D01*
X00968342Y01185437D01*
X00968649Y01186990D01*
X00968917Y01188550D01*
X00969148Y01190116D01*
X00969340Y01191687D01*
X00969494Y01193262D01*
X00969610Y01194841D01*
X00969687Y01196422D01*
X00969725Y01198005D01*
X00969725Y01199587D01*
X00969687Y01201170D01*
X00969610Y01202751D01*
X00969494Y01204330D01*
X00969340Y01205905D01*
X00969148Y01207476D01*
X00968917Y01209042D01*
X00968649Y01210602D01*
X00968342Y01212155D01*
X00967998Y01213700D01*
X00967616Y01215237D01*
X00967197Y01216763D01*
X00966741Y01218279D01*
X00966249Y01219783D01*
X00965719Y01221275D01*
X00965154Y01222754D01*
X00964553Y01224218D01*
X00963916Y01225667D01*
X00963244Y01227100D01*
X00962537Y01228517D01*
X00961796Y01229916D01*
X00961022Y01231296D01*
X00960214Y01232657D01*
X00959373Y01233998D01*
X00958499Y01235318D01*
X00957594Y01236617D01*
X00956657Y01237893D01*
X00955690Y01239146D01*
X00954692Y01240375D01*
X00953665Y01241579D01*
X00952608Y01242758D01*
X00951524Y01243911D01*
X00950411Y01245037D01*
X00949272Y01246136D01*
X00948106Y01247206D01*
X00946914Y01248248D01*
X00945697Y01249261D01*
X00944456Y01250243D01*
X00943192Y01251195D01*
X00941904Y01252116D01*
X00940595Y01253006D01*
X00939264Y01253863D01*
X00937913Y01254688D01*
X00936542Y01255479D01*
X00935152Y01256237D01*
X00933745Y01256961D01*
X00932320Y01257650D01*
X00930878Y01258305D01*
X00929421Y01258924D01*
X00927950Y01259507D01*
X00926465Y01260054D01*
X00924967Y01260566D01*
X00923456Y01261040D01*
X00921935Y01261478D01*
X00920404Y01261878D01*
X00918863Y01262241D01*
X00917314Y01262566D01*
X00915757Y01262854D01*
X00914194Y01263103D01*
X00912625Y01263315D01*
X00911052Y01263488D01*
X00909475Y01263623D01*
X00907895Y01263719D01*
X00906313Y01263777D01*
X00904730Y01263796D01*
X00834730Y01198796D02*
X00809730Y01198796D01*
X00809730Y01228796D01*
X00794730Y01228796D02*
X00794730Y01168796D01*
X00774730Y01168796D01*
X00774730Y01228796D01*
X00794730Y01228796D01*
X00809730Y01198796D02*
X00809730Y01168796D01*
X00759730Y01168796D02*
X00759730Y01198796D01*
X00734730Y01198796D01*
X00759730Y01198796D02*
X00759730Y01228796D01*
X01093516Y00597632D02*
X01073516Y00577632D01*
X01073516Y00172632D01*
X01063516Y00172632D01*
X00333516Y00172632D01*
X00323516Y00172632D01*
X00323516Y00577632D01*
X00303516Y00597632D01*
X00108516Y00597632D01*
X00088516Y00577632D01*
X00088516Y00177632D01*
X00088516Y00172632D01*
X00288516Y00172632D01*
X00323516Y00172632D01*
X00333516Y00172632D02*
X00333516Y00202632D01*
X01063516Y00202632D01*
X01063516Y00172632D01*
X01073516Y00172632D02*
X01108516Y00172632D01*
X01308516Y00172632D01*
X01308516Y00177632D01*
X01308516Y00572632D01*
X01283516Y00597632D01*
X01093516Y00597632D01*
X01126516Y00472632D02*
X01126536Y00474227D01*
X01126594Y00475821D01*
X01126692Y00477414D01*
X01126829Y00479003D01*
X01127005Y00480589D01*
X01127220Y00482169D01*
X01127473Y00483745D01*
X01127765Y00485313D01*
X01128095Y00486874D01*
X01128464Y00488426D01*
X01128871Y00489968D01*
X01129315Y00491501D01*
X01129797Y00493021D01*
X01130316Y00494530D01*
X01130871Y00496025D01*
X01131464Y00497506D01*
X01132092Y00498973D01*
X01132757Y00500423D01*
X01133456Y00501857D01*
X01134191Y00503273D01*
X01134960Y00504670D01*
X01135764Y00506049D01*
X01136601Y00507407D01*
X01137470Y00508744D01*
X01138373Y00510060D01*
X01139308Y00511352D01*
X01140273Y00512622D01*
X01141270Y00513868D01*
X01142297Y00515088D01*
X01143354Y00516283D01*
X01144440Y00517452D01*
X01145554Y00518594D01*
X01146696Y00519708D01*
X01147865Y00520794D01*
X01149060Y00521851D01*
X01150280Y00522878D01*
X01151526Y00523875D01*
X01152796Y00524840D01*
X01154088Y00525775D01*
X01155404Y00526678D01*
X01156741Y00527547D01*
X01158099Y00528384D01*
X01159478Y00529188D01*
X01160875Y00529957D01*
X01162291Y00530692D01*
X01163725Y00531391D01*
X01165175Y00532056D01*
X01166642Y00532684D01*
X01168123Y00533277D01*
X01169618Y00533832D01*
X01171127Y00534351D01*
X01172647Y00534833D01*
X01174180Y00535277D01*
X01175722Y00535684D01*
X01177274Y00536053D01*
X01178835Y00536383D01*
X01180403Y00536675D01*
X01181979Y00536928D01*
X01183559Y00537143D01*
X01185145Y00537319D01*
X01186734Y00537456D01*
X01188327Y00537554D01*
X01189921Y00537612D01*
X01191516Y00537632D01*
X01193111Y00537612D01*
X01194705Y00537554D01*
X01196298Y00537456D01*
X01197887Y00537319D01*
X01199473Y00537143D01*
X01201053Y00536928D01*
X01202629Y00536675D01*
X01204197Y00536383D01*
X01205758Y00536053D01*
X01207310Y00535684D01*
X01208852Y00535277D01*
X01210385Y00534833D01*
X01211905Y00534351D01*
X01213414Y00533832D01*
X01214909Y00533277D01*
X01216390Y00532684D01*
X01217857Y00532056D01*
X01219307Y00531391D01*
X01220741Y00530692D01*
X01222157Y00529957D01*
X01223554Y00529188D01*
X01224933Y00528384D01*
X01226291Y00527547D01*
X01227628Y00526678D01*
X01228944Y00525775D01*
X01230236Y00524840D01*
X01231506Y00523875D01*
X01232752Y00522878D01*
X01233972Y00521851D01*
X01235167Y00520794D01*
X01236336Y00519708D01*
X01237478Y00518594D01*
X01238592Y00517452D01*
X01239678Y00516283D01*
X01240735Y00515088D01*
X01241762Y00513868D01*
X01242759Y00512622D01*
X01243724Y00511352D01*
X01244659Y00510060D01*
X01245562Y00508744D01*
X01246431Y00507407D01*
X01247268Y00506049D01*
X01248072Y00504670D01*
X01248841Y00503273D01*
X01249576Y00501857D01*
X01250275Y00500423D01*
X01250940Y00498973D01*
X01251568Y00497506D01*
X01252161Y00496025D01*
X01252716Y00494530D01*
X01253235Y00493021D01*
X01253717Y00491501D01*
X01254161Y00489968D01*
X01254568Y00488426D01*
X01254937Y00486874D01*
X01255267Y00485313D01*
X01255559Y00483745D01*
X01255812Y00482169D01*
X01256027Y00480589D01*
X01256203Y00479003D01*
X01256340Y00477414D01*
X01256438Y00475821D01*
X01256496Y00474227D01*
X01256516Y00472632D01*
X01256496Y00471037D01*
X01256438Y00469443D01*
X01256340Y00467850D01*
X01256203Y00466261D01*
X01256027Y00464675D01*
X01255812Y00463095D01*
X01255559Y00461519D01*
X01255267Y00459951D01*
X01254937Y00458390D01*
X01254568Y00456838D01*
X01254161Y00455296D01*
X01253717Y00453763D01*
X01253235Y00452243D01*
X01252716Y00450734D01*
X01252161Y00449239D01*
X01251568Y00447758D01*
X01250940Y00446291D01*
X01250275Y00444841D01*
X01249576Y00443407D01*
X01248841Y00441991D01*
X01248072Y00440594D01*
X01247268Y00439215D01*
X01246431Y00437857D01*
X01245562Y00436520D01*
X01244659Y00435204D01*
X01243724Y00433912D01*
X01242759Y00432642D01*
X01241762Y00431396D01*
X01240735Y00430176D01*
X01239678Y00428981D01*
X01238592Y00427812D01*
X01237478Y00426670D01*
X01236336Y00425556D01*
X01235167Y00424470D01*
X01233972Y00423413D01*
X01232752Y00422386D01*
X01231506Y00421389D01*
X01230236Y00420424D01*
X01228944Y00419489D01*
X01227628Y00418586D01*
X01226291Y00417717D01*
X01224933Y00416880D01*
X01223554Y00416076D01*
X01222157Y00415307D01*
X01220741Y00414572D01*
X01219307Y00413873D01*
X01217857Y00413208D01*
X01216390Y00412580D01*
X01214909Y00411987D01*
X01213414Y00411432D01*
X01211905Y00410913D01*
X01210385Y00410431D01*
X01208852Y00409987D01*
X01207310Y00409580D01*
X01205758Y00409211D01*
X01204197Y00408881D01*
X01202629Y00408589D01*
X01201053Y00408336D01*
X01199473Y00408121D01*
X01197887Y00407945D01*
X01196298Y00407808D01*
X01194705Y00407710D01*
X01193111Y00407652D01*
X01191516Y00407632D01*
X01189921Y00407652D01*
X01188327Y00407710D01*
X01186734Y00407808D01*
X01185145Y00407945D01*
X01183559Y00408121D01*
X01181979Y00408336D01*
X01180403Y00408589D01*
X01178835Y00408881D01*
X01177274Y00409211D01*
X01175722Y00409580D01*
X01174180Y00409987D01*
X01172647Y00410431D01*
X01171127Y00410913D01*
X01169618Y00411432D01*
X01168123Y00411987D01*
X01166642Y00412580D01*
X01165175Y00413208D01*
X01163725Y00413873D01*
X01162291Y00414572D01*
X01160875Y00415307D01*
X01159478Y00416076D01*
X01158099Y00416880D01*
X01156741Y00417717D01*
X01155404Y00418586D01*
X01154088Y00419489D01*
X01152796Y00420424D01*
X01151526Y00421389D01*
X01150280Y00422386D01*
X01149060Y00423413D01*
X01147865Y00424470D01*
X01146696Y00425556D01*
X01145554Y00426670D01*
X01144440Y00427812D01*
X01143354Y00428981D01*
X01142297Y00430176D01*
X01141270Y00431396D01*
X01140273Y00432642D01*
X01139308Y00433912D01*
X01138373Y00435204D01*
X01137470Y00436520D01*
X01136601Y00437857D01*
X01135764Y00439215D01*
X01134960Y00440594D01*
X01134191Y00441991D01*
X01133456Y00443407D01*
X01132757Y00444841D01*
X01132092Y00446291D01*
X01131464Y00447758D01*
X01130871Y00449239D01*
X01130316Y00450734D01*
X01129797Y00452243D01*
X01129315Y00453763D01*
X01128871Y00455296D01*
X01128464Y00456838D01*
X01128095Y00458390D01*
X01127765Y00459951D01*
X01127473Y00461519D01*
X01127220Y00463095D01*
X01127005Y00464675D01*
X01126829Y00466261D01*
X01126692Y00467850D01*
X01126594Y00469443D01*
X01126536Y00471037D01*
X01126516Y00472632D01*
X01103516Y00147632D02*
X01103516Y00052632D01*
X01108516Y00052632D01*
X01108516Y00032632D01*
X00288516Y00032632D01*
X00288516Y00052632D01*
X00293516Y00052632D01*
X00293516Y00147632D01*
X00293523Y00148236D01*
X00293545Y00148840D01*
X00293582Y00149443D01*
X00293633Y00150045D01*
X00293698Y00150645D01*
X00293778Y00151244D01*
X00293873Y00151841D01*
X00293982Y00152435D01*
X00294105Y00153027D01*
X00294242Y00153615D01*
X00294394Y00154200D01*
X00294560Y00154781D01*
X00294740Y00155357D01*
X00294933Y00155930D01*
X00295141Y00156497D01*
X00295362Y00157059D01*
X00295596Y00157616D01*
X00295844Y00158167D01*
X00296105Y00158712D01*
X00296380Y00159250D01*
X00296667Y00159782D01*
X00296967Y00160306D01*
X00297279Y00160823D01*
X00297604Y00161332D01*
X00297941Y00161834D01*
X00298291Y00162327D01*
X00298652Y00162811D01*
X00299024Y00163287D01*
X00299408Y00163753D01*
X00299803Y00164210D01*
X00300209Y00164657D01*
X00300626Y00165095D01*
X00301053Y00165522D01*
X00301491Y00165939D01*
X00301938Y00166345D01*
X00302395Y00166740D01*
X00302861Y00167124D01*
X00303337Y00167496D01*
X00303821Y00167857D01*
X00304314Y00168207D01*
X00304816Y00168544D01*
X00305325Y00168869D01*
X00305842Y00169181D01*
X00306366Y00169481D01*
X00306898Y00169768D01*
X00307436Y00170043D01*
X00307981Y00170304D01*
X00308532Y00170552D01*
X00309089Y00170786D01*
X00309651Y00171007D01*
X00310218Y00171215D01*
X00310791Y00171408D01*
X00311367Y00171588D01*
X00311948Y00171754D01*
X00312533Y00171906D01*
X00313121Y00172043D01*
X00313713Y00172166D01*
X00314307Y00172275D01*
X00314904Y00172370D01*
X00315503Y00172450D01*
X00316103Y00172515D01*
X00316705Y00172566D01*
X00317308Y00172603D01*
X00317912Y00172625D01*
X00318516Y00172632D01*
X00288516Y00032632D02*
X00188516Y00032632D01*
X00088516Y00032632D01*
X00088516Y00052632D01*
X00088516Y00172632D01*
X00088516Y00032632D02*
X00088516Y00012632D01*
X00393516Y00012632D01*
X01003516Y00012632D01*
X01308516Y00012632D01*
X01308516Y00032632D01*
X01208516Y00032632D01*
X01108516Y00032632D01*
X01103516Y00147632D02*
X01103509Y00148236D01*
X01103487Y00148840D01*
X01103450Y00149443D01*
X01103399Y00150045D01*
X01103334Y00150645D01*
X01103254Y00151244D01*
X01103159Y00151841D01*
X01103050Y00152435D01*
X01102927Y00153027D01*
X01102790Y00153615D01*
X01102638Y00154200D01*
X01102472Y00154781D01*
X01102292Y00155357D01*
X01102099Y00155930D01*
X01101891Y00156497D01*
X01101670Y00157059D01*
X01101436Y00157616D01*
X01101188Y00158167D01*
X01100927Y00158712D01*
X01100652Y00159250D01*
X01100365Y00159782D01*
X01100065Y00160306D01*
X01099753Y00160823D01*
X01099428Y00161332D01*
X01099091Y00161834D01*
X01098741Y00162327D01*
X01098380Y00162811D01*
X01098008Y00163287D01*
X01097624Y00163753D01*
X01097229Y00164210D01*
X01096823Y00164657D01*
X01096406Y00165095D01*
X01095979Y00165522D01*
X01095541Y00165939D01*
X01095094Y00166345D01*
X01094637Y00166740D01*
X01094171Y00167124D01*
X01093695Y00167496D01*
X01093211Y00167857D01*
X01092718Y00168207D01*
X01092216Y00168544D01*
X01091707Y00168869D01*
X01091190Y00169181D01*
X01090666Y00169481D01*
X01090134Y00169768D01*
X01089596Y00170043D01*
X01089051Y00170304D01*
X01088500Y00170552D01*
X01087943Y00170786D01*
X01087381Y00171007D01*
X01086814Y00171215D01*
X01086241Y00171408D01*
X01085665Y00171588D01*
X01085084Y00171754D01*
X01084499Y00171906D01*
X01083911Y00172043D01*
X01083319Y00172166D01*
X01082725Y00172275D01*
X01082128Y00172370D01*
X01081529Y00172450D01*
X01080929Y00172515D01*
X01080327Y00172566D01*
X01079724Y00172603D01*
X01079120Y00172625D01*
X01078516Y00172632D01*
X01043516Y00012632D02*
X01042912Y00012625D01*
X01042308Y00012603D01*
X01041705Y00012566D01*
X01041103Y00012515D01*
X01040503Y00012450D01*
X01039904Y00012370D01*
X01039307Y00012275D01*
X01038713Y00012166D01*
X01038121Y00012043D01*
X01037533Y00011906D01*
X01036948Y00011754D01*
X01036367Y00011588D01*
X01035791Y00011408D01*
X01035218Y00011215D01*
X01034651Y00011007D01*
X01034089Y00010786D01*
X01033532Y00010552D01*
X01032981Y00010304D01*
X01032436Y00010043D01*
X01031898Y00009768D01*
X01031366Y00009481D01*
X01030842Y00009181D01*
X01030325Y00008869D01*
X01029816Y00008544D01*
X01029314Y00008207D01*
X01028821Y00007857D01*
X01028337Y00007496D01*
X01027861Y00007124D01*
X01027395Y00006740D01*
X01026938Y00006345D01*
X01026491Y00005939D01*
X01026053Y00005522D01*
X01025626Y00005095D01*
X01025209Y00004657D01*
X01024803Y00004210D01*
X01024408Y00003753D01*
X01024024Y00003287D01*
X01023652Y00002811D01*
X01023291Y00002327D01*
X01022941Y00001834D01*
X01022604Y00001332D01*
X01022279Y00000823D01*
X01021967Y00000306D01*
X01021667Y-00000218D01*
X01021380Y-00000750D01*
X01021105Y-00001288D01*
X01020844Y-00001833D01*
X01020596Y-00002384D01*
X01020362Y-00002941D01*
X01020141Y-00003503D01*
X01019933Y-00004070D01*
X01019740Y-00004643D01*
X01019560Y-00005219D01*
X01019394Y-00005800D01*
X01019242Y-00006385D01*
X01019105Y-00006973D01*
X01018982Y-00007565D01*
X01018873Y-00008159D01*
X01018778Y-00008756D01*
X01018698Y-00009355D01*
X01018633Y-00009955D01*
X01018582Y-00010557D01*
X01018545Y-00011160D01*
X01018523Y-00011764D01*
X01018516Y-00012368D01*
X01018516Y-00212368D01*
X01018510Y-00212851D01*
X01018493Y-00213334D01*
X01018463Y-00213817D01*
X01018423Y-00214298D01*
X01018370Y-00214779D01*
X01018306Y-00215258D01*
X01018231Y-00215735D01*
X01018143Y-00216211D01*
X01018045Y-00216684D01*
X01017935Y-00217154D01*
X01017814Y-00217622D01*
X01017681Y-00218087D01*
X01017537Y-00218548D01*
X01017382Y-00219006D01*
X01017216Y-00219460D01*
X01017039Y-00219910D01*
X01016852Y-00220355D01*
X01016653Y-00220796D01*
X01016445Y-00221232D01*
X01016225Y-00221662D01*
X01015995Y-00222088D01*
X01015755Y-00222507D01*
X01015505Y-00222921D01*
X01015245Y-00223328D01*
X01014976Y-00223729D01*
X01014696Y-00224124D01*
X01014408Y-00224511D01*
X01014109Y-00224892D01*
X01013802Y-00225265D01*
X01013486Y-00225630D01*
X01013161Y-00225988D01*
X01012828Y-00226338D01*
X01012486Y-00226680D01*
X01012136Y-00227013D01*
X01011778Y-00227338D01*
X01011413Y-00227654D01*
X01011040Y-00227961D01*
X01010659Y-00228260D01*
X01010272Y-00228548D01*
X01009877Y-00228828D01*
X01009476Y-00229097D01*
X01009069Y-00229357D01*
X01008655Y-00229607D01*
X01008236Y-00229847D01*
X01007810Y-00230077D01*
X01007380Y-00230297D01*
X01006944Y-00230505D01*
X01006503Y-00230704D01*
X01006058Y-00230891D01*
X01005608Y-00231068D01*
X01005154Y-00231234D01*
X01004696Y-00231389D01*
X01004235Y-00231533D01*
X01003770Y-00231666D01*
X01003302Y-00231787D01*
X01002832Y-00231897D01*
X01002359Y-00231995D01*
X01001883Y-00232083D01*
X01001406Y-00232158D01*
X01000927Y-00232222D01*
X01000446Y-00232275D01*
X00999965Y-00232315D01*
X00999482Y-00232345D01*
X00998999Y-00232362D01*
X00998516Y-00232368D01*
X00988516Y-00232368D01*
X00408516Y-00232368D01*
X00398516Y-00232368D01*
X00398033Y-00232362D01*
X00397550Y-00232345D01*
X00397067Y-00232315D01*
X00396586Y-00232275D01*
X00396105Y-00232222D01*
X00395626Y-00232158D01*
X00395149Y-00232083D01*
X00394673Y-00231995D01*
X00394200Y-00231897D01*
X00393730Y-00231787D01*
X00393262Y-00231666D01*
X00392797Y-00231533D01*
X00392336Y-00231389D01*
X00391878Y-00231234D01*
X00391424Y-00231068D01*
X00390974Y-00230891D01*
X00390529Y-00230704D01*
X00390088Y-00230505D01*
X00389652Y-00230297D01*
X00389222Y-00230077D01*
X00388796Y-00229847D01*
X00388377Y-00229607D01*
X00387963Y-00229357D01*
X00387556Y-00229097D01*
X00387155Y-00228828D01*
X00386760Y-00228548D01*
X00386373Y-00228260D01*
X00385992Y-00227961D01*
X00385619Y-00227654D01*
X00385254Y-00227338D01*
X00384896Y-00227013D01*
X00384546Y-00226680D01*
X00384204Y-00226338D01*
X00383871Y-00225988D01*
X00383546Y-00225630D01*
X00383230Y-00225265D01*
X00382923Y-00224892D01*
X00382624Y-00224511D01*
X00382336Y-00224124D01*
X00382056Y-00223729D01*
X00381787Y-00223328D01*
X00381527Y-00222921D01*
X00381277Y-00222507D01*
X00381037Y-00222088D01*
X00380807Y-00221662D01*
X00380587Y-00221232D01*
X00380379Y-00220796D01*
X00380180Y-00220355D01*
X00379993Y-00219910D01*
X00379816Y-00219460D01*
X00379650Y-00219006D01*
X00379495Y-00218548D01*
X00379351Y-00218087D01*
X00379218Y-00217622D01*
X00379097Y-00217154D01*
X00378987Y-00216684D01*
X00378889Y-00216211D01*
X00378801Y-00215735D01*
X00378726Y-00215258D01*
X00378662Y-00214779D01*
X00378609Y-00214298D01*
X00378569Y-00213817D01*
X00378539Y-00213334D01*
X00378522Y-00212851D01*
X00378516Y-00212368D01*
X00378516Y-00012368D01*
X00378509Y-00011764D01*
X00378487Y-00011160D01*
X00378450Y-00010557D01*
X00378399Y-00009955D01*
X00378334Y-00009355D01*
X00378254Y-00008756D01*
X00378159Y-00008159D01*
X00378050Y-00007565D01*
X00377927Y-00006973D01*
X00377790Y-00006385D01*
X00377638Y-00005800D01*
X00377472Y-00005219D01*
X00377292Y-00004643D01*
X00377099Y-00004070D01*
X00376891Y-00003503D01*
X00376670Y-00002941D01*
X00376436Y-00002384D01*
X00376188Y-00001833D01*
X00375927Y-00001288D01*
X00375652Y-00000750D01*
X00375365Y-00000218D01*
X00375065Y00000306D01*
X00374753Y00000823D01*
X00374428Y00001332D01*
X00374091Y00001834D01*
X00373741Y00002327D01*
X00373380Y00002811D01*
X00373008Y00003287D01*
X00372624Y00003753D01*
X00372229Y00004210D01*
X00371823Y00004657D01*
X00371406Y00005095D01*
X00370979Y00005522D01*
X00370541Y00005939D01*
X00370094Y00006345D01*
X00369637Y00006740D01*
X00369171Y00007124D01*
X00368695Y00007496D01*
X00368211Y00007857D01*
X00367718Y00008207D01*
X00367216Y00008544D01*
X00366707Y00008869D01*
X00366190Y00009181D01*
X00365666Y00009481D01*
X00365134Y00009768D01*
X00364596Y00010043D01*
X00364051Y00010304D01*
X00363500Y00010552D01*
X00362943Y00010786D01*
X00362381Y00011007D01*
X00361814Y00011215D01*
X00361241Y00011408D01*
X00360665Y00011588D01*
X00360084Y00011754D01*
X00359499Y00011906D01*
X00358911Y00012043D01*
X00358319Y00012166D01*
X00357725Y00012275D01*
X00357128Y00012370D01*
X00356529Y00012450D01*
X00355929Y00012515D01*
X00355327Y00012566D01*
X00354724Y00012603D01*
X00354120Y00012625D01*
X00353516Y00012632D01*
X00140516Y00472632D02*
X00140536Y00474227D01*
X00140594Y00475821D01*
X00140692Y00477414D01*
X00140829Y00479003D01*
X00141005Y00480589D01*
X00141220Y00482169D01*
X00141473Y00483745D01*
X00141765Y00485313D01*
X00142095Y00486874D01*
X00142464Y00488426D01*
X00142871Y00489968D01*
X00143315Y00491501D01*
X00143797Y00493021D01*
X00144316Y00494530D01*
X00144871Y00496025D01*
X00145464Y00497506D01*
X00146092Y00498973D01*
X00146757Y00500423D01*
X00147456Y00501857D01*
X00148191Y00503273D01*
X00148960Y00504670D01*
X00149764Y00506049D01*
X00150601Y00507407D01*
X00151470Y00508744D01*
X00152373Y00510060D01*
X00153308Y00511352D01*
X00154273Y00512622D01*
X00155270Y00513868D01*
X00156297Y00515088D01*
X00157354Y00516283D01*
X00158440Y00517452D01*
X00159554Y00518594D01*
X00160696Y00519708D01*
X00161865Y00520794D01*
X00163060Y00521851D01*
X00164280Y00522878D01*
X00165526Y00523875D01*
X00166796Y00524840D01*
X00168088Y00525775D01*
X00169404Y00526678D01*
X00170741Y00527547D01*
X00172099Y00528384D01*
X00173478Y00529188D01*
X00174875Y00529957D01*
X00176291Y00530692D01*
X00177725Y00531391D01*
X00179175Y00532056D01*
X00180642Y00532684D01*
X00182123Y00533277D01*
X00183618Y00533832D01*
X00185127Y00534351D01*
X00186647Y00534833D01*
X00188180Y00535277D01*
X00189722Y00535684D01*
X00191274Y00536053D01*
X00192835Y00536383D01*
X00194403Y00536675D01*
X00195979Y00536928D01*
X00197559Y00537143D01*
X00199145Y00537319D01*
X00200734Y00537456D01*
X00202327Y00537554D01*
X00203921Y00537612D01*
X00205516Y00537632D01*
X00207111Y00537612D01*
X00208705Y00537554D01*
X00210298Y00537456D01*
X00211887Y00537319D01*
X00213473Y00537143D01*
X00215053Y00536928D01*
X00216629Y00536675D01*
X00218197Y00536383D01*
X00219758Y00536053D01*
X00221310Y00535684D01*
X00222852Y00535277D01*
X00224385Y00534833D01*
X00225905Y00534351D01*
X00227414Y00533832D01*
X00228909Y00533277D01*
X00230390Y00532684D01*
X00231857Y00532056D01*
X00233307Y00531391D01*
X00234741Y00530692D01*
X00236157Y00529957D01*
X00237554Y00529188D01*
X00238933Y00528384D01*
X00240291Y00527547D01*
X00241628Y00526678D01*
X00242944Y00525775D01*
X00244236Y00524840D01*
X00245506Y00523875D01*
X00246752Y00522878D01*
X00247972Y00521851D01*
X00249167Y00520794D01*
X00250336Y00519708D01*
X00251478Y00518594D01*
X00252592Y00517452D01*
X00253678Y00516283D01*
X00254735Y00515088D01*
X00255762Y00513868D01*
X00256759Y00512622D01*
X00257724Y00511352D01*
X00258659Y00510060D01*
X00259562Y00508744D01*
X00260431Y00507407D01*
X00261268Y00506049D01*
X00262072Y00504670D01*
X00262841Y00503273D01*
X00263576Y00501857D01*
X00264275Y00500423D01*
X00264940Y00498973D01*
X00265568Y00497506D01*
X00266161Y00496025D01*
X00266716Y00494530D01*
X00267235Y00493021D01*
X00267717Y00491501D01*
X00268161Y00489968D01*
X00268568Y00488426D01*
X00268937Y00486874D01*
X00269267Y00485313D01*
X00269559Y00483745D01*
X00269812Y00482169D01*
X00270027Y00480589D01*
X00270203Y00479003D01*
X00270340Y00477414D01*
X00270438Y00475821D01*
X00270496Y00474227D01*
X00270516Y00472632D01*
X00270496Y00471037D01*
X00270438Y00469443D01*
X00270340Y00467850D01*
X00270203Y00466261D01*
X00270027Y00464675D01*
X00269812Y00463095D01*
X00269559Y00461519D01*
X00269267Y00459951D01*
X00268937Y00458390D01*
X00268568Y00456838D01*
X00268161Y00455296D01*
X00267717Y00453763D01*
X00267235Y00452243D01*
X00266716Y00450734D01*
X00266161Y00449239D01*
X00265568Y00447758D01*
X00264940Y00446291D01*
X00264275Y00444841D01*
X00263576Y00443407D01*
X00262841Y00441991D01*
X00262072Y00440594D01*
X00261268Y00439215D01*
X00260431Y00437857D01*
X00259562Y00436520D01*
X00258659Y00435204D01*
X00257724Y00433912D01*
X00256759Y00432642D01*
X00255762Y00431396D01*
X00254735Y00430176D01*
X00253678Y00428981D01*
X00252592Y00427812D01*
X00251478Y00426670D01*
X00250336Y00425556D01*
X00249167Y00424470D01*
X00247972Y00423413D01*
X00246752Y00422386D01*
X00245506Y00421389D01*
X00244236Y00420424D01*
X00242944Y00419489D01*
X00241628Y00418586D01*
X00240291Y00417717D01*
X00238933Y00416880D01*
X00237554Y00416076D01*
X00236157Y00415307D01*
X00234741Y00414572D01*
X00233307Y00413873D01*
X00231857Y00413208D01*
X00230390Y00412580D01*
X00228909Y00411987D01*
X00227414Y00411432D01*
X00225905Y00410913D01*
X00224385Y00410431D01*
X00222852Y00409987D01*
X00221310Y00409580D01*
X00219758Y00409211D01*
X00218197Y00408881D01*
X00216629Y00408589D01*
X00215053Y00408336D01*
X00213473Y00408121D01*
X00211887Y00407945D01*
X00210298Y00407808D01*
X00208705Y00407710D01*
X00207111Y00407652D01*
X00205516Y00407632D01*
X00203921Y00407652D01*
X00202327Y00407710D01*
X00200734Y00407808D01*
X00199145Y00407945D01*
X00197559Y00408121D01*
X00195979Y00408336D01*
X00194403Y00408589D01*
X00192835Y00408881D01*
X00191274Y00409211D01*
X00189722Y00409580D01*
X00188180Y00409987D01*
X00186647Y00410431D01*
X00185127Y00410913D01*
X00183618Y00411432D01*
X00182123Y00411987D01*
X00180642Y00412580D01*
X00179175Y00413208D01*
X00177725Y00413873D01*
X00176291Y00414572D01*
X00174875Y00415307D01*
X00173478Y00416076D01*
X00172099Y00416880D01*
X00170741Y00417717D01*
X00169404Y00418586D01*
X00168088Y00419489D01*
X00166796Y00420424D01*
X00165526Y00421389D01*
X00164280Y00422386D01*
X00163060Y00423413D01*
X00161865Y00424470D01*
X00160696Y00425556D01*
X00159554Y00426670D01*
X00158440Y00427812D01*
X00157354Y00428981D01*
X00156297Y00430176D01*
X00155270Y00431396D01*
X00154273Y00432642D01*
X00153308Y00433912D01*
X00152373Y00435204D01*
X00151470Y00436520D01*
X00150601Y00437857D01*
X00149764Y00439215D01*
X00148960Y00440594D01*
X00148191Y00441991D01*
X00147456Y00443407D01*
X00146757Y00444841D01*
X00146092Y00446291D01*
X00145464Y00447758D01*
X00144871Y00449239D01*
X00144316Y00450734D01*
X00143797Y00452243D01*
X00143315Y00453763D01*
X00142871Y00455296D01*
X00142464Y00456838D01*
X00142095Y00458390D01*
X00141765Y00459951D01*
X00141473Y00461519D01*
X00141220Y00463095D01*
X00141005Y00464675D01*
X00140829Y00466261D01*
X00140692Y00467850D01*
X00140594Y00469443D01*
X00140536Y00471037D01*
X00140516Y00472632D01*
X01308516Y00172632D02*
X01308516Y00052632D01*
X01308516Y00032632D01*
D12*
X01262707Y01487000D02*
X01255367Y01487000D01*
X01251698Y01490670D01*
X01251698Y01505349D01*
X01255367Y01509019D01*
X01262707Y01509019D01*
X01266377Y01505349D01*
X01266377Y01490670D02*
X01262707Y01487000D01*
X01244278Y01490670D02*
X01240608Y01487000D01*
X01233269Y01487000D01*
X01229599Y01490670D01*
X01229599Y01505349D01*
X01233269Y01509019D01*
X01240608Y01509019D01*
X01244278Y01505349D01*
X01222179Y01509019D02*
X01222179Y01494340D01*
X01214840Y01487000D01*
X01207500Y01494340D01*
X01207500Y01509019D01*
X01172858Y01592346D02*
X01154843Y01592346D01*
X01154843Y01601354D01*
X01157845Y01604357D01*
X01163851Y01604357D01*
X01166853Y01601354D01*
X01166853Y01592346D01*
X01166853Y01610762D02*
X01166853Y01619770D01*
X01163851Y01622772D01*
X01157845Y01622772D01*
X01154843Y01619770D01*
X01154843Y01610762D01*
X01172858Y01610762D01*
X01166853Y01616767D02*
X01172858Y01622772D01*
X01169856Y01629178D02*
X01172858Y01632180D01*
X01172858Y01638186D01*
X01169856Y01641188D01*
X01157845Y01641188D01*
X01154843Y01638186D01*
X01154843Y01632180D01*
X01157845Y01629178D01*
X01169856Y01629178D01*
X01169856Y01647594D02*
X01157845Y01647594D01*
X01154843Y01650596D01*
X01154843Y01656601D01*
X01157845Y01659604D01*
X01163851Y01659604D02*
X01163851Y01653599D01*
X01163851Y01659604D02*
X01169856Y01659604D01*
X01172858Y01656601D01*
X01172858Y01650596D01*
X01169856Y01647594D01*
X01166853Y01666009D02*
X01166853Y01675017D01*
X01163851Y01678020D01*
X01157845Y01678020D01*
X01154843Y01675017D01*
X01154843Y01666009D01*
X01172858Y01666009D01*
X01166853Y01672014D02*
X01172858Y01678020D01*
X01172858Y01684425D02*
X01160848Y01684425D01*
X01154843Y01690430D01*
X01160848Y01696435D01*
X01172858Y01696435D01*
X01172858Y01702841D02*
X01154843Y01702841D01*
X01160848Y01708846D01*
X01154843Y01714851D01*
X01172858Y01714851D01*
X01172858Y01721257D02*
X01172858Y01733267D01*
X01172858Y01739672D02*
X01154843Y01739672D01*
X01154843Y01748680D01*
X01157845Y01751682D01*
X01163851Y01751682D01*
X01166853Y01748680D01*
X01166853Y01739672D01*
X01166853Y01745677D02*
X01172858Y01751682D01*
X01154843Y01733267D02*
X01154843Y01721257D01*
X01172858Y01721257D01*
X01163851Y01721257D02*
X01163851Y01727262D01*
X01163851Y01696435D02*
X01163851Y01684425D01*
X01125330Y01839500D02*
X01129000Y01843170D01*
X01129000Y01850509D01*
X01125330Y01854179D01*
X01121660Y01854179D01*
X01117991Y01850509D01*
X01117991Y01843170D01*
X01114321Y01839500D01*
X01110651Y01839500D01*
X01106981Y01843170D01*
X01106981Y01850509D01*
X01110651Y01854179D01*
X01106981Y01861599D02*
X01129000Y01861599D01*
X01121660Y01868938D01*
X01129000Y01876278D01*
X01106981Y01876278D01*
X01106981Y01883698D02*
X01106981Y01894707D01*
X01110651Y01898377D01*
X01125330Y01898377D01*
X01129000Y01894707D01*
X01129000Y01883698D01*
X01106981Y01883698D01*
X01106981Y01905796D02*
X01106981Y01913136D01*
X01106981Y01909466D02*
X01129000Y01909466D01*
X01129000Y01905796D02*
X01129000Y01913136D01*
X01125330Y01920529D02*
X01129000Y01924199D01*
X01129000Y01931538D01*
X01125330Y01935208D01*
X01110651Y01935208D01*
X01106981Y01931538D01*
X01106981Y01924199D01*
X01110651Y01920529D01*
X01125330Y01920529D01*
X01194981Y01913296D02*
X01217000Y01913296D01*
X01217000Y01927976D01*
X01217000Y01935395D02*
X01194981Y01935395D01*
X01205991Y01939065D02*
X01217000Y01950074D01*
X01209660Y01935395D02*
X01194981Y01950074D01*
X01198651Y01905877D02*
X01194981Y01902207D01*
X01194981Y01894867D01*
X01198651Y01891198D01*
X01213330Y01891198D01*
X01217000Y01894867D01*
X01217000Y01902207D01*
X01213330Y01905877D01*
X01217000Y01883778D02*
X01194981Y01883778D01*
X01194981Y01869099D02*
X01217000Y01869099D01*
X01209660Y01876438D01*
X01217000Y01883778D01*
X01213330Y01861679D02*
X01217000Y01858009D01*
X01217000Y01850670D01*
X01213330Y01847000D01*
X01205991Y01850670D02*
X01205991Y01858009D01*
X01209660Y01861679D01*
X01213330Y01861679D01*
X01205991Y01850670D02*
X01202321Y01847000D01*
X01198651Y01847000D01*
X01194981Y01850670D01*
X01194981Y01858009D01*
X01198651Y01861679D01*
X01043500Y01620636D02*
X01021481Y01620636D01*
X01021481Y01613296D02*
X01021481Y01627976D01*
X01025151Y01605877D02*
X01021481Y01602207D01*
X01021481Y01594867D01*
X01025151Y01591198D01*
X01028821Y01591198D01*
X01032491Y01594867D01*
X01032491Y01602207D01*
X01036160Y01605877D01*
X01039830Y01605877D01*
X01043500Y01602207D01*
X01043500Y01594867D01*
X01039830Y01591198D01*
X01043500Y01583778D02*
X01036160Y01576438D01*
X01036160Y01580108D02*
X01036160Y01569099D01*
X01043500Y01569099D02*
X01021481Y01569099D01*
X01021481Y01580108D01*
X01025151Y01583778D01*
X01032491Y01583778D01*
X01036160Y01580108D01*
X01043500Y01561679D02*
X01021481Y01561679D01*
X01021481Y01547000D02*
X01043500Y01561679D01*
X01043500Y01547000D02*
X01021481Y01547000D01*
X01079000Y01508349D02*
X01079000Y01493670D01*
X01082670Y01490000D01*
X01090009Y01490000D01*
X01093679Y01493670D01*
X01093679Y01501009D01*
X01086340Y01501009D01*
X01093679Y01508349D02*
X01090009Y01512019D01*
X01082670Y01512019D01*
X01079000Y01508349D01*
X01101099Y01512019D02*
X01101099Y01490000D01*
X01115778Y01490000D02*
X01101099Y01512019D01*
X01115778Y01512019D02*
X01115778Y01490000D01*
X01123198Y01490000D02*
X01123198Y01512019D01*
X01134207Y01512019D01*
X01137877Y01508349D01*
X01137877Y01493670D01*
X01134207Y01490000D01*
X01123198Y01490000D01*
X00830272Y02300343D02*
X00805665Y02300343D01*
X00776138Y02300343D01*
X00775659Y02300349D01*
X00775180Y02300366D01*
X00774701Y02300396D01*
X00774223Y02300436D01*
X00773747Y02300489D01*
X00773272Y02300553D01*
X00772798Y02300628D01*
X00772327Y02300715D01*
X00771858Y02300814D01*
X00771391Y02300924D01*
X00770927Y02301045D01*
X00770467Y02301178D01*
X00770009Y02301321D01*
X00769556Y02301476D01*
X00769106Y02301642D01*
X00768660Y02301819D01*
X00768219Y02302006D01*
X00767783Y02302204D01*
X00767351Y02302413D01*
X00766925Y02302632D01*
X00766504Y02302862D01*
X00766089Y02303101D01*
X00765679Y02303351D01*
X00765276Y02303611D01*
X00764880Y02303880D01*
X00764490Y02304159D01*
X00764107Y02304447D01*
X00763731Y02304745D01*
X00763363Y02305052D01*
X00763002Y02305367D01*
X00762649Y02305691D01*
X00762304Y02306024D01*
X00761967Y02306365D01*
X00761638Y02306714D01*
X00761318Y02307071D01*
X00761007Y02307436D01*
X00760705Y02307808D01*
X00760412Y02308188D01*
X00760128Y02308574D01*
X00759854Y02308967D01*
X00759590Y02309367D01*
X00759335Y02309773D01*
X00759090Y02310186D01*
X00758856Y02310604D01*
X00758631Y02311027D01*
X00758417Y02311456D01*
X00758214Y02311890D01*
X00758021Y02312329D01*
X00757839Y02312773D01*
X00757668Y02313220D01*
X00757507Y02313672D01*
X00757358Y02314128D01*
X00757220Y02314587D01*
X00757093Y02315049D01*
X00756977Y02315514D01*
X00756873Y02315982D01*
X00756780Y02316452D01*
X00756699Y02316925D01*
X00756629Y02317399D01*
X00756571Y02317875D01*
X00756524Y02318352D01*
X00756489Y02318830D01*
X00756466Y02319309D01*
X00756454Y02319788D01*
X00756454Y02320268D01*
X00756466Y02320747D01*
X00756489Y02321226D01*
X00756524Y02321704D01*
X00756571Y02322181D01*
X00756629Y02322657D01*
X00756699Y02323131D01*
X00756780Y02323604D01*
X00756873Y02324074D01*
X00756977Y02324542D01*
X00757093Y02325007D01*
X00757220Y02325469D01*
X00757358Y02325928D01*
X00757507Y02326384D01*
X00757668Y02326836D01*
X00757839Y02327283D01*
X00758021Y02327727D01*
X00758214Y02328166D01*
X00758417Y02328600D01*
X00758631Y02329029D01*
X00758856Y02329452D01*
X00759090Y02329871D01*
X00759335Y02330283D01*
X00759590Y02330689D01*
X00759854Y02331089D01*
X00760128Y02331482D01*
X00760412Y02331868D01*
X00760705Y02332248D01*
X00761007Y02332620D01*
X00761318Y02332985D01*
X00761638Y02333342D01*
X00761967Y02333691D01*
X00762304Y02334032D01*
X00762649Y02334365D01*
X00763002Y02334689D01*
X00763363Y02335004D01*
X00763731Y02335311D01*
X00764107Y02335609D01*
X00764490Y02335897D01*
X00764880Y02336176D01*
X00765276Y02336445D01*
X00765679Y02336705D01*
X00766089Y02336955D01*
X00766504Y02337194D01*
X00766925Y02337424D01*
X00767351Y02337643D01*
X00767783Y02337852D01*
X00768219Y02338050D01*
X00768660Y02338237D01*
X00769106Y02338414D01*
X00769556Y02338580D01*
X00770009Y02338735D01*
X00770467Y02338878D01*
X00770927Y02339011D01*
X00771391Y02339132D01*
X00771858Y02339242D01*
X00772327Y02339341D01*
X00772798Y02339428D01*
X00773272Y02339503D01*
X00773747Y02339567D01*
X00774223Y02339620D01*
X00774701Y02339660D01*
X00775180Y02339690D01*
X00775659Y02339707D01*
X00776138Y02339713D01*
X00775659Y02339719D01*
X00775180Y02339736D01*
X00774701Y02339766D01*
X00774223Y02339806D01*
X00773747Y02339859D01*
X00773272Y02339923D01*
X00772798Y02339998D01*
X00772327Y02340085D01*
X00771858Y02340184D01*
X00771391Y02340294D01*
X00770927Y02340415D01*
X00770467Y02340548D01*
X00770009Y02340691D01*
X00769556Y02340846D01*
X00769106Y02341012D01*
X00768660Y02341189D01*
X00768219Y02341376D01*
X00767783Y02341574D01*
X00767351Y02341783D01*
X00766925Y02342002D01*
X00766504Y02342232D01*
X00766089Y02342471D01*
X00765679Y02342721D01*
X00765276Y02342981D01*
X00764880Y02343250D01*
X00764490Y02343529D01*
X00764107Y02343817D01*
X00763731Y02344115D01*
X00763363Y02344422D01*
X00763002Y02344737D01*
X00762649Y02345061D01*
X00762304Y02345394D01*
X00761967Y02345735D01*
X00761638Y02346084D01*
X00761318Y02346441D01*
X00761007Y02346806D01*
X00760705Y02347178D01*
X00760412Y02347558D01*
X00760128Y02347944D01*
X00759854Y02348337D01*
X00759590Y02348737D01*
X00759335Y02349143D01*
X00759090Y02349556D01*
X00758856Y02349974D01*
X00758631Y02350397D01*
X00758417Y02350826D01*
X00758214Y02351260D01*
X00758021Y02351699D01*
X00757839Y02352143D01*
X00757668Y02352590D01*
X00757507Y02353042D01*
X00757358Y02353498D01*
X00757220Y02353957D01*
X00757093Y02354419D01*
X00756977Y02354884D01*
X00756873Y02355352D01*
X00756780Y02355822D01*
X00756699Y02356295D01*
X00756629Y02356769D01*
X00756571Y02357245D01*
X00756524Y02357722D01*
X00756489Y02358200D01*
X00756466Y02358679D01*
X00756454Y02359158D01*
X00756454Y02359638D01*
X00756466Y02360117D01*
X00756489Y02360596D01*
X00756524Y02361074D01*
X00756571Y02361551D01*
X00756629Y02362027D01*
X00756699Y02362501D01*
X00756780Y02362974D01*
X00756873Y02363444D01*
X00756977Y02363912D01*
X00757093Y02364377D01*
X00757220Y02364839D01*
X00757358Y02365298D01*
X00757507Y02365754D01*
X00757668Y02366206D01*
X00757839Y02366653D01*
X00758021Y02367097D01*
X00758214Y02367536D01*
X00758417Y02367970D01*
X00758631Y02368399D01*
X00758856Y02368822D01*
X00759090Y02369241D01*
X00759335Y02369653D01*
X00759590Y02370059D01*
X00759854Y02370459D01*
X00760128Y02370852D01*
X00760412Y02371238D01*
X00760705Y02371618D01*
X00761007Y02371990D01*
X00761318Y02372355D01*
X00761638Y02372712D01*
X00761967Y02373061D01*
X00762304Y02373402D01*
X00762649Y02373735D01*
X00763002Y02374059D01*
X00763363Y02374374D01*
X00763731Y02374681D01*
X00764107Y02374979D01*
X00764490Y02375267D01*
X00764880Y02375546D01*
X00765276Y02375815D01*
X00765679Y02376075D01*
X00766089Y02376325D01*
X00766504Y02376564D01*
X00766925Y02376794D01*
X00767351Y02377013D01*
X00767783Y02377222D01*
X00768219Y02377420D01*
X00768660Y02377607D01*
X00769106Y02377784D01*
X00769556Y02377950D01*
X00770009Y02378105D01*
X00770467Y02378248D01*
X00770927Y02378381D01*
X00771391Y02378502D01*
X00771858Y02378612D01*
X00772327Y02378711D01*
X00772798Y02378798D01*
X00773272Y02378873D01*
X00773747Y02378937D01*
X00774223Y02378990D01*
X00774701Y02379030D01*
X00775180Y02379060D01*
X00775659Y02379077D01*
X00776138Y02379083D01*
X00805665Y02379083D01*
X00776138Y02359398D01*
X00805665Y02339713D01*
X00776138Y02320028D01*
X00805665Y02300343D01*
X00805665Y02339713D01*
X00805665Y02379083D01*
X00830272Y02379083D01*
X00830272Y02300343D01*
X00746610Y02300343D02*
X00677713Y02300343D01*
X00677713Y02320028D01*
X00722004Y02320028D01*
X00722004Y02329870D01*
X00677713Y02329870D01*
X00677713Y02349555D01*
X00722004Y02349555D01*
X00722004Y02359398D01*
X00677713Y02359398D01*
X00677713Y02379083D01*
X00746610Y02379083D01*
X00746610Y02300343D01*
X00667870Y02300343D02*
X00613736Y02300343D01*
X00613137Y02300350D01*
X00612538Y02300372D01*
X00611940Y02300409D01*
X00611343Y02300460D01*
X00610747Y02300525D01*
X00610153Y02300605D01*
X00609562Y02300700D01*
X00608972Y02300809D01*
X00608386Y02300932D01*
X00607803Y02301069D01*
X00607223Y02301221D01*
X00606647Y02301386D01*
X00606075Y02301566D01*
X00605508Y02301759D01*
X00604946Y02301967D01*
X00604389Y02302187D01*
X00603837Y02302422D01*
X00603292Y02302670D01*
X00602752Y02302930D01*
X00602219Y02303204D01*
X00601693Y02303491D01*
X00601174Y02303791D01*
X00600663Y02304103D01*
X00600159Y02304428D01*
X00599664Y02304764D01*
X00599176Y02305113D01*
X00598697Y02305473D01*
X00598228Y02305845D01*
X00597767Y02306229D01*
X00597316Y02306623D01*
X00596875Y02307028D01*
X00596443Y02307444D01*
X00596022Y02307871D01*
X00595611Y02308307D01*
X00595212Y02308753D01*
X00594823Y02309209D01*
X00594445Y02309674D01*
X00594079Y02310149D01*
X00593724Y02310632D01*
X00593381Y02311123D01*
X00593051Y02311623D01*
X00592732Y02312131D01*
X00592427Y02312646D01*
X00592133Y02313169D01*
X00591853Y02313698D01*
X00591585Y02314234D01*
X00591331Y02314777D01*
X00591090Y02315325D01*
X00590862Y02315880D01*
X00590648Y02316439D01*
X00590448Y02317004D01*
X00590261Y02317574D01*
X00590089Y02318147D01*
X00589930Y02318725D01*
X00589786Y02319307D01*
X00589655Y02319892D01*
X00589539Y02320480D01*
X00589438Y02321070D01*
X00589350Y02321663D01*
X00589278Y02322258D01*
X00589219Y02322854D01*
X00589176Y02323452D01*
X00589146Y02324050D01*
X00589132Y02324649D01*
X00589132Y02325249D01*
X00589146Y02325848D01*
X00589176Y02326446D01*
X00589219Y02327044D01*
X00589278Y02327640D01*
X00589350Y02328235D01*
X00589438Y02328828D01*
X00589539Y02329418D01*
X00589655Y02330006D01*
X00589786Y02330591D01*
X00589930Y02331173D01*
X00590089Y02331751D01*
X00590261Y02332324D01*
X00590448Y02332894D01*
X00590648Y02333459D01*
X00590862Y02334018D01*
X00591090Y02334573D01*
X00591331Y02335121D01*
X00591585Y02335664D01*
X00591853Y02336200D01*
X00592133Y02336729D01*
X00592427Y02337252D01*
X00592732Y02337767D01*
X00593051Y02338275D01*
X00593381Y02338775D01*
X00593724Y02339266D01*
X00594079Y02339749D01*
X00594445Y02340224D01*
X00594823Y02340689D01*
X00595212Y02341145D01*
X00595611Y02341591D01*
X00596022Y02342027D01*
X00596443Y02342454D01*
X00596875Y02342870D01*
X00597316Y02343275D01*
X00597767Y02343669D01*
X00598228Y02344053D01*
X00598697Y02344425D01*
X00599176Y02344785D01*
X00599664Y02345134D01*
X00600159Y02345470D01*
X00600663Y02345795D01*
X00601174Y02346107D01*
X00601693Y02346407D01*
X00602219Y02346694D01*
X00602752Y02346968D01*
X00603292Y02347228D01*
X00603837Y02347476D01*
X00604389Y02347711D01*
X00604946Y02347931D01*
X00605508Y02348139D01*
X00606075Y02348332D01*
X00606647Y02348512D01*
X00607223Y02348677D01*
X00607803Y02348829D01*
X00608386Y02348966D01*
X00608972Y02349089D01*
X00609562Y02349198D01*
X00610153Y02349293D01*
X00610747Y02349373D01*
X00611343Y02349438D01*
X00611940Y02349489D01*
X00612538Y02349526D01*
X00613137Y02349548D01*
X00613736Y02349555D01*
X00594051Y02379083D01*
X00623579Y02379083D01*
X00643264Y02349555D01*
X00643264Y02379083D01*
X00667870Y02379083D01*
X00667870Y02300343D01*
X00643264Y02320028D02*
X00643264Y02334791D01*
X00628500Y02334791D01*
X00628320Y02334789D01*
X00628141Y02334782D01*
X00627961Y02334771D01*
X00627782Y02334756D01*
X00627603Y02334736D01*
X00627425Y02334712D01*
X00627248Y02334684D01*
X00627071Y02334651D01*
X00626895Y02334614D01*
X00626720Y02334573D01*
X00626546Y02334528D01*
X00626373Y02334478D01*
X00626202Y02334424D01*
X00626032Y02334366D01*
X00625863Y02334304D01*
X00625696Y02334238D01*
X00625530Y02334167D01*
X00625367Y02334093D01*
X00625205Y02334015D01*
X00625045Y02333933D01*
X00624887Y02333846D01*
X00624731Y02333757D01*
X00624578Y02333663D01*
X00624427Y02333566D01*
X00624278Y02333465D01*
X00624132Y02333360D01*
X00623988Y02333252D01*
X00623847Y02333140D01*
X00623709Y02333025D01*
X00623574Y02332907D01*
X00623441Y02332785D01*
X00623312Y02332661D01*
X00623186Y02332533D01*
X00623062Y02332402D01*
X00622943Y02332268D01*
X00622826Y02332131D01*
X00622713Y02331991D01*
X00622603Y02331849D01*
X00622496Y02331704D01*
X00622393Y02331557D01*
X00622294Y02331407D01*
X00622199Y02331255D01*
X00622107Y02331100D01*
X00622019Y02330943D01*
X00621935Y02330784D01*
X00621855Y02330623D01*
X00621778Y02330461D01*
X00621706Y02330296D01*
X00621638Y02330130D01*
X00621573Y02329962D01*
X00621513Y02329793D01*
X00621457Y02329622D01*
X00621406Y02329450D01*
X00621358Y02329276D01*
X00621315Y02329102D01*
X00621276Y02328926D01*
X00621241Y02328750D01*
X00621210Y02328573D01*
X00621184Y02328395D01*
X00621162Y02328216D01*
X00621145Y02328037D01*
X00621132Y02327858D01*
X00621123Y02327679D01*
X00621119Y02327499D01*
X00621119Y02327319D01*
X00621123Y02327139D01*
X00621132Y02326960D01*
X00621145Y02326781D01*
X00621162Y02326602D01*
X00621184Y02326423D01*
X00621210Y02326245D01*
X00621241Y02326068D01*
X00621276Y02325892D01*
X00621315Y02325716D01*
X00621358Y02325542D01*
X00621406Y02325368D01*
X00621457Y02325196D01*
X00621513Y02325025D01*
X00621573Y02324856D01*
X00621638Y02324688D01*
X00621706Y02324522D01*
X00621778Y02324357D01*
X00621855Y02324195D01*
X00621935Y02324034D01*
X00622019Y02323875D01*
X00622107Y02323718D01*
X00622199Y02323563D01*
X00622294Y02323411D01*
X00622393Y02323261D01*
X00622496Y02323114D01*
X00622603Y02322969D01*
X00622713Y02322827D01*
X00622826Y02322687D01*
X00622943Y02322550D01*
X00623062Y02322416D01*
X00623186Y02322285D01*
X00623312Y02322157D01*
X00623441Y02322033D01*
X00623574Y02321911D01*
X00623709Y02321793D01*
X00623847Y02321678D01*
X00623988Y02321566D01*
X00624132Y02321458D01*
X00624278Y02321353D01*
X00624427Y02321252D01*
X00624578Y02321155D01*
X00624731Y02321061D01*
X00624887Y02320972D01*
X00625045Y02320885D01*
X00625205Y02320803D01*
X00625367Y02320725D01*
X00625530Y02320651D01*
X00625696Y02320580D01*
X00625863Y02320514D01*
X00626032Y02320452D01*
X00626202Y02320394D01*
X00626373Y02320340D01*
X00626546Y02320290D01*
X00626720Y02320245D01*
X00626895Y02320204D01*
X00627071Y02320167D01*
X00627248Y02320134D01*
X00627425Y02320106D01*
X00627603Y02320082D01*
X00627782Y02320062D01*
X00627961Y02320047D01*
X00628141Y02320036D01*
X00628320Y02320029D01*
X00628500Y02320027D01*
X00628500Y02320028D02*
X00643264Y02320028D01*
X00544839Y02300343D02*
X00545798Y02300355D01*
X00546756Y02300390D01*
X00547713Y02300448D01*
X00548668Y02300530D01*
X00549621Y02300635D01*
X00550571Y02300763D01*
X00551518Y02300914D01*
X00552461Y02301088D01*
X00553399Y02301285D01*
X00554332Y02301505D01*
X00555260Y02301747D01*
X00556181Y02302012D01*
X00557096Y02302300D01*
X00558004Y02302609D01*
X00558903Y02302941D01*
X00559794Y02303294D01*
X00560677Y02303669D01*
X00561550Y02304066D01*
X00562413Y02304483D01*
X00563266Y02304921D01*
X00564107Y02305380D01*
X00564938Y02305860D01*
X00565756Y02306359D01*
X00566562Y02306879D01*
X00567355Y02307417D01*
X00568135Y02307975D01*
X00568901Y02308552D01*
X00569653Y02309147D01*
X00570390Y02309760D01*
X00571111Y02310391D01*
X00571818Y02311040D01*
X00572508Y02311705D01*
X00573182Y02312387D01*
X00573839Y02313086D01*
X00574478Y02313800D01*
X00575101Y02314529D01*
X00575705Y02315273D01*
X00576291Y02316032D01*
X00576858Y02316805D01*
X00577407Y02317592D01*
X00577936Y02318391D01*
X00578445Y02319204D01*
X00578934Y02320028D01*
X00579404Y02320864D01*
X00579852Y02321711D01*
X00580280Y02322569D01*
X00580687Y02323437D01*
X00581073Y02324315D01*
X00581437Y02325202D01*
X00581780Y02326098D01*
X00582100Y02327001D01*
X00582399Y02327912D01*
X00582675Y02328830D01*
X00582929Y02329755D01*
X00583160Y02330685D01*
X00583368Y02331621D01*
X00583554Y02332562D01*
X00583717Y02333507D01*
X00583856Y02334455D01*
X00583973Y02335407D01*
X00584066Y02336361D01*
X00584136Y02337317D01*
X00584183Y02338275D01*
X00584206Y02339234D01*
X00584206Y02340192D01*
X00584183Y02341151D01*
X00584136Y02342109D01*
X00584066Y02343065D01*
X00583973Y02344019D01*
X00583856Y02344971D01*
X00583717Y02345919D01*
X00583554Y02346864D01*
X00583368Y02347805D01*
X00583160Y02348741D01*
X00582929Y02349671D01*
X00582675Y02350596D01*
X00582399Y02351514D01*
X00582100Y02352425D01*
X00581780Y02353328D01*
X00581437Y02354224D01*
X00581073Y02355111D01*
X00580687Y02355989D01*
X00580280Y02356857D01*
X00579852Y02357715D01*
X00579404Y02358562D01*
X00578934Y02359398D01*
X00578445Y02360222D01*
X00577936Y02361035D01*
X00577407Y02361834D01*
X00576858Y02362621D01*
X00576291Y02363394D01*
X00575705Y02364153D01*
X00575101Y02364897D01*
X00574478Y02365626D01*
X00573839Y02366340D01*
X00573182Y02367039D01*
X00572508Y02367721D01*
X00571818Y02368386D01*
X00571111Y02369035D01*
X00570390Y02369666D01*
X00569653Y02370279D01*
X00568901Y02370874D01*
X00568135Y02371451D01*
X00567355Y02372009D01*
X00566562Y02372547D01*
X00565756Y02373067D01*
X00564938Y02373566D01*
X00564107Y02374046D01*
X00563266Y02374505D01*
X00562413Y02374943D01*
X00561550Y02375360D01*
X00560677Y02375757D01*
X00559794Y02376132D01*
X00558903Y02376485D01*
X00558004Y02376817D01*
X00557096Y02377126D01*
X00556181Y02377414D01*
X00555260Y02377679D01*
X00554332Y02377921D01*
X00553399Y02378141D01*
X00552461Y02378338D01*
X00551518Y02378512D01*
X00550571Y02378663D01*
X00549621Y02378791D01*
X00548668Y02378896D01*
X00547713Y02378978D01*
X00546756Y02379036D01*
X00545798Y02379071D01*
X00544839Y02379083D01*
X00534996Y02359398D02*
X00534996Y02339713D01*
X00534996Y02320028D02*
X00535475Y02320034D01*
X00535954Y02320051D01*
X00536433Y02320081D01*
X00536911Y02320121D01*
X00537387Y02320174D01*
X00537862Y02320238D01*
X00538336Y02320313D01*
X00538807Y02320400D01*
X00539276Y02320499D01*
X00539743Y02320609D01*
X00540207Y02320730D01*
X00540667Y02320863D01*
X00541125Y02321006D01*
X00541578Y02321161D01*
X00542028Y02321327D01*
X00542474Y02321504D01*
X00542915Y02321691D01*
X00543351Y02321889D01*
X00543783Y02322098D01*
X00544209Y02322317D01*
X00544630Y02322547D01*
X00545045Y02322786D01*
X00545455Y02323036D01*
X00545858Y02323296D01*
X00546254Y02323565D01*
X00546644Y02323844D01*
X00547027Y02324132D01*
X00547403Y02324430D01*
X00547771Y02324737D01*
X00548132Y02325052D01*
X00548485Y02325376D01*
X00548830Y02325709D01*
X00549167Y02326050D01*
X00549496Y02326399D01*
X00549816Y02326756D01*
X00550127Y02327121D01*
X00550429Y02327493D01*
X00550722Y02327873D01*
X00551006Y02328259D01*
X00551280Y02328652D01*
X00551544Y02329052D01*
X00551799Y02329458D01*
X00552044Y02329871D01*
X00552278Y02330289D01*
X00552503Y02330712D01*
X00552717Y02331141D01*
X00552920Y02331575D01*
X00553113Y02332014D01*
X00553295Y02332458D01*
X00553466Y02332905D01*
X00553627Y02333357D01*
X00553776Y02333813D01*
X00553914Y02334272D01*
X00554041Y02334734D01*
X00554157Y02335199D01*
X00554261Y02335667D01*
X00554354Y02336137D01*
X00554435Y02336610D01*
X00554505Y02337084D01*
X00554563Y02337560D01*
X00554610Y02338037D01*
X00554645Y02338515D01*
X00554668Y02338994D01*
X00554680Y02339473D01*
X00554680Y02339953D01*
X00554668Y02340432D01*
X00554645Y02340911D01*
X00554610Y02341389D01*
X00554563Y02341866D01*
X00554505Y02342342D01*
X00554435Y02342816D01*
X00554354Y02343289D01*
X00554261Y02343759D01*
X00554157Y02344227D01*
X00554041Y02344692D01*
X00553914Y02345154D01*
X00553776Y02345613D01*
X00553627Y02346069D01*
X00553466Y02346521D01*
X00553295Y02346968D01*
X00553113Y02347412D01*
X00552920Y02347851D01*
X00552717Y02348285D01*
X00552503Y02348714D01*
X00552278Y02349137D01*
X00552044Y02349556D01*
X00551799Y02349968D01*
X00551544Y02350374D01*
X00551280Y02350774D01*
X00551006Y02351167D01*
X00550722Y02351553D01*
X00550429Y02351933D01*
X00550127Y02352305D01*
X00549816Y02352670D01*
X00549496Y02353027D01*
X00549167Y02353376D01*
X00548830Y02353717D01*
X00548485Y02354050D01*
X00548132Y02354374D01*
X00547771Y02354689D01*
X00547403Y02354996D01*
X00547027Y02355294D01*
X00546644Y02355582D01*
X00546254Y02355861D01*
X00545858Y02356130D01*
X00545455Y02356390D01*
X00545045Y02356640D01*
X00544630Y02356879D01*
X00544209Y02357109D01*
X00543783Y02357328D01*
X00543351Y02357537D01*
X00542915Y02357735D01*
X00542474Y02357922D01*
X00542028Y02358099D01*
X00541578Y02358265D01*
X00541125Y02358420D01*
X00540667Y02358563D01*
X00540207Y02358696D01*
X00539743Y02358817D01*
X00539276Y02358927D01*
X00538807Y02359026D01*
X00538336Y02359113D01*
X00537862Y02359188D01*
X00537387Y02359252D01*
X00536911Y02359305D01*
X00536433Y02359345D01*
X00535954Y02359375D01*
X00535475Y02359392D01*
X00534996Y02359398D01*
X00534996Y02339713D02*
X00515311Y02339713D01*
X00515311Y02374161D01*
X00515312Y02320027D02*
X00517093Y02319812D01*
X00518880Y02319639D01*
X00520670Y02319509D01*
X00522462Y02319423D01*
X00524257Y02319379D01*
X00526051Y02319379D01*
X00527846Y02319423D01*
X00529638Y02319509D01*
X00531428Y02319639D01*
X00533215Y02319812D01*
X00534996Y02320027D01*
X00515311Y02374162D02*
X00517353Y02374826D01*
X00519410Y02375443D01*
X00521480Y02376013D01*
X00523563Y02376535D01*
X00525658Y02377009D01*
X00527763Y02377434D01*
X00529877Y02377812D01*
X00531999Y02378141D01*
X00534128Y02378420D01*
X00536263Y02378651D01*
X00538402Y02378833D01*
X00540546Y02378966D01*
X00542691Y02379049D01*
X00544839Y02379083D01*
X00544839Y02300343D02*
X00541500Y02300272D01*
X00538161Y02300279D01*
X00534823Y02300364D01*
X00531487Y02300527D01*
X00528157Y02300768D01*
X00524832Y02301087D01*
X00521517Y02301483D01*
X00518211Y02301957D01*
X00514918Y02302508D01*
X00515508Y02302508D02*
X00515508Y02320028D01*
D13*
X00664730Y01283796D02*
X00904730Y01283796D01*
X00906800Y01283771D01*
X00908868Y01283695D01*
X00910935Y01283569D01*
X00912997Y01283393D01*
X00915055Y01283167D01*
X00917106Y01282890D01*
X00919150Y01282564D01*
X00921186Y01282188D01*
X00923212Y01281762D01*
X00925226Y01281288D01*
X00927229Y01280764D01*
X00929218Y01280192D01*
X00931193Y01279572D01*
X00933152Y01278903D01*
X00935095Y01278187D01*
X00937019Y01277424D01*
X00938924Y01276615D01*
X00940809Y01275759D01*
X00942672Y01274858D01*
X00944513Y01273911D01*
X00946331Y01272920D01*
X00948123Y01271885D01*
X00949890Y01270807D01*
X00951630Y01269686D01*
X00953343Y01268523D01*
X00955026Y01267318D01*
X00956680Y01266073D01*
X00958303Y01264788D01*
X00959894Y01263464D01*
X00961452Y01262102D01*
X00962977Y01260702D01*
X00964467Y01259265D01*
X00965922Y01257792D01*
X00967340Y01256285D01*
X00968722Y01254743D01*
X00970065Y01253168D01*
X00971370Y01251561D01*
X00972635Y01249923D01*
X00973860Y01248254D01*
X00975043Y01246556D01*
X00976186Y01244830D01*
X00977285Y01243076D01*
X00978342Y01241296D01*
X00979355Y01239491D01*
X00980324Y01237662D01*
X00981248Y01235809D01*
X00982127Y01233935D01*
X00982959Y01232040D01*
X00983746Y01230125D01*
X00984485Y01228192D01*
X00985177Y01226241D01*
X00985822Y01224274D01*
X00986418Y01222291D01*
X00986966Y01220295D01*
X00987465Y01218286D01*
X00987915Y01216266D01*
X00988316Y01214235D01*
X00988667Y01212195D01*
X00988969Y01210147D01*
X00989220Y01208093D01*
X00989421Y01206032D01*
X00989573Y01203968D01*
X00989673Y01201900D01*
X00989724Y01199831D01*
X00989724Y01197761D01*
X00989673Y01195692D01*
X00989573Y01193624D01*
X00989421Y01191560D01*
X00989220Y01189499D01*
X00988969Y01187445D01*
X00988667Y01185397D01*
X00988316Y01183357D01*
X00987915Y01181326D01*
X00987465Y01179306D01*
X00986966Y01177297D01*
X00986418Y01175301D01*
X00985822Y01173318D01*
X00985177Y01171351D01*
X00984485Y01169400D01*
X00983746Y01167467D01*
X00982959Y01165552D01*
X00982127Y01163657D01*
X00981248Y01161783D01*
X00980324Y01159930D01*
X00979355Y01158101D01*
X00978342Y01156296D01*
X00977285Y01154516D01*
X00976186Y01152762D01*
X00975043Y01151036D01*
X00973860Y01149338D01*
X00972635Y01147669D01*
X00971370Y01146031D01*
X00970065Y01144424D01*
X00968722Y01142849D01*
X00967340Y01141307D01*
X00965922Y01139800D01*
X00964467Y01138327D01*
X00962977Y01136890D01*
X00961452Y01135490D01*
X00959894Y01134128D01*
X00958303Y01132804D01*
X00956680Y01131519D01*
X00955026Y01130274D01*
X00953343Y01129069D01*
X00951630Y01127906D01*
X00949890Y01126785D01*
X00948123Y01125707D01*
X00946331Y01124672D01*
X00944513Y01123681D01*
X00942672Y01122734D01*
X00940809Y01121833D01*
X00938924Y01120977D01*
X00937019Y01120168D01*
X00935095Y01119405D01*
X00933152Y01118689D01*
X00931193Y01118020D01*
X00929218Y01117400D01*
X00927229Y01116828D01*
X00925226Y01116304D01*
X00923212Y01115830D01*
X00921186Y01115404D01*
X00919150Y01115028D01*
X00917106Y01114702D01*
X00915055Y01114425D01*
X00912997Y01114199D01*
X00910935Y01114023D01*
X00908868Y01113897D01*
X00906800Y01113821D01*
X00904730Y01113796D01*
X00664730Y01113796D01*
X00662660Y01113821D01*
X00660592Y01113897D01*
X00658525Y01114023D01*
X00656463Y01114199D01*
X00654405Y01114425D01*
X00652354Y01114702D01*
X00650310Y01115028D01*
X00648274Y01115404D01*
X00646248Y01115830D01*
X00644234Y01116304D01*
X00642231Y01116828D01*
X00640242Y01117400D01*
X00638267Y01118020D01*
X00636308Y01118689D01*
X00634365Y01119405D01*
X00632441Y01120168D01*
X00630536Y01120977D01*
X00628651Y01121833D01*
X00626788Y01122734D01*
X00624947Y01123681D01*
X00623129Y01124672D01*
X00621337Y01125707D01*
X00619570Y01126785D01*
X00617830Y01127906D01*
X00616117Y01129069D01*
X00614434Y01130274D01*
X00612780Y01131519D01*
X00611157Y01132804D01*
X00609566Y01134128D01*
X00608008Y01135490D01*
X00606483Y01136890D01*
X00604993Y01138327D01*
X00603538Y01139800D01*
X00602120Y01141307D01*
X00600738Y01142849D01*
X00599395Y01144424D01*
X00598090Y01146031D01*
X00596825Y01147669D01*
X00595600Y01149338D01*
X00594417Y01151036D01*
X00593274Y01152762D01*
X00592175Y01154516D01*
X00591118Y01156296D01*
X00590105Y01158101D01*
X00589136Y01159930D01*
X00588212Y01161783D01*
X00587333Y01163657D01*
X00586501Y01165552D01*
X00585714Y01167467D01*
X00584975Y01169400D01*
X00584283Y01171351D01*
X00583638Y01173318D01*
X00583042Y01175301D01*
X00582494Y01177297D01*
X00581995Y01179306D01*
X00581545Y01181326D01*
X00581144Y01183357D01*
X00580793Y01185397D01*
X00580491Y01187445D01*
X00580240Y01189499D01*
X00580039Y01191560D01*
X00579887Y01193624D01*
X00579787Y01195692D01*
X00579736Y01197761D01*
X00579736Y01199831D01*
X00579787Y01201900D01*
X00579887Y01203968D01*
X00580039Y01206032D01*
X00580240Y01208093D01*
X00580491Y01210147D01*
X00580793Y01212195D01*
X00581144Y01214235D01*
X00581545Y01216266D01*
X00581995Y01218286D01*
X00582494Y01220295D01*
X00583042Y01222291D01*
X00583638Y01224274D01*
X00584283Y01226241D01*
X00584975Y01228192D01*
X00585714Y01230125D01*
X00586501Y01232040D01*
X00587333Y01233935D01*
X00588212Y01235809D01*
X00589136Y01237662D01*
X00590105Y01239491D01*
X00591118Y01241296D01*
X00592175Y01243076D01*
X00593274Y01244830D01*
X00594417Y01246556D01*
X00595600Y01248254D01*
X00596825Y01249923D01*
X00598090Y01251561D01*
X00599395Y01253168D01*
X00600738Y01254743D01*
X00602120Y01256285D01*
X00603538Y01257792D01*
X00604993Y01259265D01*
X00606483Y01260702D01*
X00608008Y01262102D01*
X00609566Y01263464D01*
X00611157Y01264788D01*
X00612780Y01266073D01*
X00614434Y01267318D01*
X00616117Y01268523D01*
X00617830Y01269686D01*
X00619570Y01270807D01*
X00621337Y01271885D01*
X00623129Y01272920D01*
X00624947Y01273911D01*
X00626788Y01274858D01*
X00628651Y01275759D01*
X00630536Y01276615D01*
X00632441Y01277424D01*
X00634365Y01278187D01*
X00636308Y01278903D01*
X00638267Y01279572D01*
X00640242Y01280192D01*
X00642231Y01280764D01*
X00644234Y01281288D01*
X00646248Y01281762D01*
X00648274Y01282188D01*
X00650310Y01282564D01*
X00652354Y01282890D01*
X00654405Y01283167D01*
X00656463Y01283393D01*
X00658525Y01283569D01*
X00660592Y01283695D01*
X00662660Y01283771D01*
X00664730Y01283796D01*
D14*
X00576808Y01484479D02*
X00923265Y01484479D01*
X00939013Y01500227D01*
X00939013Y01846683D01*
X00923265Y01862431D01*
X00576808Y01862431D01*
X00561060Y01846683D01*
X00561060Y01500227D01*
X00576808Y01484479D01*
X00362969Y01133787D02*
X00362969Y00875756D01*
X00222969Y00875756D01*
X00222969Y01133787D01*
X00362969Y01133787D01*
D15*
X00581426Y01515975D02*
X00581429Y01516248D01*
X00581439Y01516521D01*
X00581456Y01516794D01*
X00581480Y01517066D01*
X00581510Y01517337D01*
X00581546Y01517608D01*
X00581590Y01517878D01*
X00581640Y01518146D01*
X00581696Y01518414D01*
X00581760Y01518679D01*
X00581829Y01518944D01*
X00581905Y01519206D01*
X00581988Y01519466D01*
X00582077Y01519725D01*
X00582172Y01519981D01*
X00582273Y01520234D01*
X00582381Y01520485D01*
X00582495Y01520734D01*
X00582614Y01520979D01*
X00582740Y01521222D01*
X00582872Y01521461D01*
X00583009Y01521697D01*
X00583153Y01521930D01*
X00583302Y01522158D01*
X00583456Y01522384D01*
X00583616Y01522605D01*
X00583782Y01522823D01*
X00583952Y01523036D01*
X00584128Y01523245D01*
X00584309Y01523449D01*
X00584495Y01523650D01*
X00584686Y01523845D01*
X00584881Y01524036D01*
X00585082Y01524222D01*
X00585286Y01524403D01*
X00585495Y01524579D01*
X00585708Y01524749D01*
X00585926Y01524915D01*
X00586147Y01525075D01*
X00586373Y01525229D01*
X00586601Y01525378D01*
X00586834Y01525522D01*
X00587070Y01525659D01*
X00587309Y01525791D01*
X00587552Y01525917D01*
X00587797Y01526036D01*
X00588046Y01526150D01*
X00588297Y01526258D01*
X00588550Y01526359D01*
X00588806Y01526454D01*
X00589065Y01526543D01*
X00589325Y01526626D01*
X00589587Y01526702D01*
X00589852Y01526771D01*
X00590117Y01526835D01*
X00590385Y01526891D01*
X00590653Y01526941D01*
X00590923Y01526985D01*
X00591194Y01527021D01*
X00591465Y01527051D01*
X00591737Y01527075D01*
X00592010Y01527092D01*
X00592283Y01527102D01*
X00592556Y01527105D01*
X00592829Y01527102D01*
X00593102Y01527092D01*
X00593375Y01527075D01*
X00593647Y01527051D01*
X00593918Y01527021D01*
X00594189Y01526985D01*
X00594459Y01526941D01*
X00594727Y01526891D01*
X00594995Y01526835D01*
X00595260Y01526771D01*
X00595525Y01526702D01*
X00595787Y01526626D01*
X00596047Y01526543D01*
X00596306Y01526454D01*
X00596562Y01526359D01*
X00596815Y01526258D01*
X00597066Y01526150D01*
X00597315Y01526036D01*
X00597560Y01525917D01*
X00597803Y01525791D01*
X00598042Y01525659D01*
X00598278Y01525522D01*
X00598511Y01525378D01*
X00598739Y01525229D01*
X00598965Y01525075D01*
X00599186Y01524915D01*
X00599404Y01524749D01*
X00599617Y01524579D01*
X00599826Y01524403D01*
X00600030Y01524222D01*
X00600231Y01524036D01*
X00600426Y01523845D01*
X00600617Y01523650D01*
X00600803Y01523449D01*
X00600984Y01523245D01*
X00601160Y01523036D01*
X00601330Y01522823D01*
X00601496Y01522605D01*
X00601656Y01522384D01*
X00601810Y01522158D01*
X00601959Y01521930D01*
X00602103Y01521697D01*
X00602240Y01521461D01*
X00602372Y01521222D01*
X00602498Y01520979D01*
X00602617Y01520734D01*
X00602731Y01520485D01*
X00602839Y01520234D01*
X00602940Y01519981D01*
X00603035Y01519725D01*
X00603124Y01519466D01*
X00603207Y01519206D01*
X00603283Y01518944D01*
X00603352Y01518679D01*
X00603416Y01518414D01*
X00603472Y01518146D01*
X00603522Y01517878D01*
X00603566Y01517608D01*
X00603602Y01517337D01*
X00603632Y01517066D01*
X00603656Y01516794D01*
X00603673Y01516521D01*
X00603683Y01516248D01*
X00603686Y01515975D01*
X00603683Y01515702D01*
X00603673Y01515429D01*
X00603656Y01515156D01*
X00603632Y01514884D01*
X00603602Y01514613D01*
X00603566Y01514342D01*
X00603522Y01514072D01*
X00603472Y01513804D01*
X00603416Y01513536D01*
X00603352Y01513271D01*
X00603283Y01513006D01*
X00603207Y01512744D01*
X00603124Y01512484D01*
X00603035Y01512225D01*
X00602940Y01511969D01*
X00602839Y01511716D01*
X00602731Y01511465D01*
X00602617Y01511216D01*
X00602498Y01510971D01*
X00602372Y01510728D01*
X00602240Y01510489D01*
X00602103Y01510253D01*
X00601959Y01510020D01*
X00601810Y01509792D01*
X00601656Y01509566D01*
X00601496Y01509345D01*
X00601330Y01509127D01*
X00601160Y01508914D01*
X00600984Y01508705D01*
X00600803Y01508501D01*
X00600617Y01508300D01*
X00600426Y01508105D01*
X00600231Y01507914D01*
X00600030Y01507728D01*
X00599826Y01507547D01*
X00599617Y01507371D01*
X00599404Y01507201D01*
X00599186Y01507035D01*
X00598965Y01506875D01*
X00598739Y01506721D01*
X00598511Y01506572D01*
X00598278Y01506428D01*
X00598042Y01506291D01*
X00597803Y01506159D01*
X00597560Y01506033D01*
X00597315Y01505914D01*
X00597066Y01505800D01*
X00596815Y01505692D01*
X00596562Y01505591D01*
X00596306Y01505496D01*
X00596047Y01505407D01*
X00595787Y01505324D01*
X00595525Y01505248D01*
X00595260Y01505179D01*
X00594995Y01505115D01*
X00594727Y01505059D01*
X00594459Y01505009D01*
X00594189Y01504965D01*
X00593918Y01504929D01*
X00593647Y01504899D01*
X00593375Y01504875D01*
X00593102Y01504858D01*
X00592829Y01504848D01*
X00592556Y01504845D01*
X00592283Y01504848D01*
X00592010Y01504858D01*
X00591737Y01504875D01*
X00591465Y01504899D01*
X00591194Y01504929D01*
X00590923Y01504965D01*
X00590653Y01505009D01*
X00590385Y01505059D01*
X00590117Y01505115D01*
X00589852Y01505179D01*
X00589587Y01505248D01*
X00589325Y01505324D01*
X00589065Y01505407D01*
X00588806Y01505496D01*
X00588550Y01505591D01*
X00588297Y01505692D01*
X00588046Y01505800D01*
X00587797Y01505914D01*
X00587552Y01506033D01*
X00587309Y01506159D01*
X00587070Y01506291D01*
X00586834Y01506428D01*
X00586601Y01506572D01*
X00586373Y01506721D01*
X00586147Y01506875D01*
X00585926Y01507035D01*
X00585708Y01507201D01*
X00585495Y01507371D01*
X00585286Y01507547D01*
X00585082Y01507728D01*
X00584881Y01507914D01*
X00584686Y01508105D01*
X00584495Y01508300D01*
X00584309Y01508501D01*
X00584128Y01508705D01*
X00583952Y01508914D01*
X00583782Y01509127D01*
X00583616Y01509345D01*
X00583456Y01509566D01*
X00583302Y01509792D01*
X00583153Y01510020D01*
X00583009Y01510253D01*
X00582872Y01510489D01*
X00582740Y01510728D01*
X00582614Y01510971D01*
X00582495Y01511216D01*
X00582381Y01511465D01*
X00582273Y01511716D01*
X00582172Y01511969D01*
X00582077Y01512225D01*
X00581988Y01512484D01*
X00581905Y01512744D01*
X00581829Y01513006D01*
X00581760Y01513271D01*
X00581696Y01513536D01*
X00581640Y01513804D01*
X00581590Y01514072D01*
X00581546Y01514342D01*
X00581510Y01514613D01*
X00581480Y01514884D01*
X00581456Y01515156D01*
X00581439Y01515429D01*
X00581429Y01515702D01*
X00581426Y01515975D01*
X00387949Y02173965D02*
X00970626Y02173965D01*
X00970626Y02736957D01*
X00387949Y02736957D01*
X00387949Y02173965D01*
D16*
X00602399Y01886053D03*
X00622084Y01886053D03*
X00641769Y01886053D03*
X00661454Y01886053D03*
X00681139Y01886053D03*
X00700824Y01886053D03*
X00720509Y01886053D03*
X00740194Y01886053D03*
X00759879Y01886053D03*
X00779564Y01886053D03*
X00799249Y01886053D03*
X00818934Y01886053D03*
X00838619Y01886053D03*
X00858305Y01886053D03*
X00877990Y01886053D03*
X00897675Y01886053D03*
X00897675Y01460857D03*
X00877990Y01460857D03*
X00858305Y01460857D03*
X00838619Y01460857D03*
X00818934Y01460857D03*
X00799249Y01460857D03*
X00779564Y01460857D03*
X00759879Y01460857D03*
X00740194Y01460857D03*
X00720509Y01460857D03*
X00700824Y01460857D03*
X00681139Y01460857D03*
X00661454Y01460857D03*
X00641769Y01460857D03*
X00622084Y01460857D03*
X00602399Y01460857D03*
D17*
X00537438Y01525817D03*
X00537438Y01545502D03*
X00537438Y01565187D03*
X00537438Y01584872D03*
X00537438Y01604557D03*
X00537438Y01624242D03*
X00537438Y01643927D03*
X00537438Y01663612D03*
X00537438Y01683297D03*
X00537438Y01702983D03*
X00537438Y01722668D03*
X00537438Y01742353D03*
X00537438Y01762038D03*
X00537438Y01781723D03*
X00537438Y01801408D03*
X00537438Y01821093D03*
X00962635Y01821093D03*
X00962635Y01801408D03*
X00962635Y01781723D03*
X00962635Y01762038D03*
X00962635Y01742353D03*
X00962635Y01722668D03*
X00962635Y01702983D03*
X00962635Y01683297D03*
X00962635Y01663612D03*
X00962635Y01643927D03*
X00962635Y01624242D03*
X00962635Y01604557D03*
X00962635Y01584872D03*
X00962635Y01565187D03*
X00962635Y01545502D03*
X00962635Y01525817D03*
D18*
X01099067Y02537531D02*
X01092177Y02544421D01*
X01098083Y02550327D01*
X01104972Y02543437D01*
X01099067Y02537531D01*
X00224075Y02543437D02*
X00218169Y02537531D01*
X00211280Y02544421D01*
X00217185Y02550327D01*
X00224075Y02543437D01*
D19*
X00233917Y02554264D03*
X01114815Y02554264D03*
D20*
X01287326Y01781372D02*
X01294833Y01781372D01*
X01302339Y01773866D01*
X01309845Y01781372D01*
X01317352Y01781372D01*
X01324858Y01773866D01*
X01324858Y01758853D01*
X01317352Y01751346D01*
X01302339Y01766359D02*
X01302339Y01773866D01*
X01287326Y01781372D02*
X01279820Y01773866D01*
X01279820Y01758853D01*
X01287326Y01751346D01*
X01287326Y01681372D02*
X01279820Y01673866D01*
X01279820Y01658853D01*
X01287326Y01651346D01*
X01287326Y01681372D02*
X01294833Y01681372D01*
X01324858Y01651346D01*
X01324858Y01681372D01*
X01324858Y01581372D02*
X01324858Y01551346D01*
X01324858Y01566359D02*
X01279820Y01566359D01*
X01294833Y01551346D01*
X00969990Y00545170D02*
X00969990Y00500132D01*
X00985002Y00500132D02*
X00954977Y00500132D01*
X00954977Y00530157D02*
X00969990Y00545170D01*
X00985002Y00445170D02*
X00969990Y00437664D01*
X00954977Y00422651D01*
X00977496Y00422651D01*
X00985002Y00415145D01*
X00985002Y00407638D01*
X00977496Y00400132D01*
X00962483Y00400132D01*
X00954977Y00407638D01*
X00954977Y00422651D01*
X00962483Y00135170D02*
X00954977Y00127664D01*
X00954977Y00120157D01*
X00962483Y00112651D01*
X00985002Y00112651D01*
X00985002Y00097638D02*
X00985002Y00127664D01*
X00977496Y00135170D01*
X00962483Y00135170D01*
X00954977Y00097638D02*
X00962483Y00090132D01*
X00977496Y00090132D01*
X00985002Y00097638D01*
X00938963Y00097638D02*
X00931456Y00090132D01*
X00916444Y00090132D01*
X00908937Y00097638D01*
X00938963Y00127664D01*
X00938963Y00097638D01*
X00938963Y00127664D02*
X00931456Y00135170D01*
X00916444Y00135170D01*
X00908937Y00127664D01*
X00908937Y00097638D01*
X00892924Y00135170D02*
X00862898Y00135170D01*
X00862898Y00090132D01*
X00862898Y00112651D02*
X00877911Y00112651D01*
X00410002Y00407638D02*
X00410002Y00437664D01*
X00402496Y00445170D01*
X00387483Y00445170D01*
X00379977Y00437664D01*
X00379977Y00430157D01*
X00387483Y00422651D01*
X00410002Y00422651D01*
X00410002Y00407638D02*
X00402496Y00400132D01*
X00387483Y00400132D01*
X00379977Y00407638D01*
X00387483Y00500132D02*
X00379977Y00507638D01*
X00387483Y00500132D02*
X00402496Y00500132D01*
X00410002Y00507638D01*
X00410002Y00522651D01*
X00402496Y00530157D01*
X00394990Y00530157D01*
X00379977Y00522651D01*
X00379977Y00545170D01*
X00410002Y00545170D01*
X00156016Y00267373D02*
X00171029Y00252360D01*
X00156016Y00259867D02*
X00156016Y00267373D01*
X00148510Y00267373D01*
X00148510Y00259867D01*
X00156016Y00259867D01*
X00156016Y00236347D02*
X00156016Y00206321D01*
X00125990Y00236347D01*
X00118484Y00236347D01*
X00110978Y00228840D01*
X00110978Y00213827D01*
X00118484Y00206321D01*
X00110978Y00283053D02*
X00133497Y00283053D01*
X00125990Y00298066D01*
X00125990Y00305572D01*
X00133497Y00313079D01*
X00148510Y00313079D01*
X00156016Y00305572D01*
X00156016Y00290559D01*
X00148510Y00283053D01*
X00133497Y00329092D02*
X00133497Y00359118D01*
X00156016Y00351611D02*
X00110978Y00351611D01*
X00133497Y00329092D01*
X00110978Y00313079D02*
X00110978Y00283053D01*
D21*
X00525314Y02400591D02*
X00535322Y02400591D01*
X00530318Y02408097D02*
X00525314Y02408097D01*
X00525314Y02415603D02*
X00525314Y02400591D01*
X00525314Y02415603D02*
X00535322Y02415603D01*
X00554779Y02415603D02*
X00554779Y02400591D01*
X00564787Y02400591D01*
X00584244Y02400591D02*
X00594252Y02400591D01*
X00589248Y02408097D02*
X00584244Y02408097D01*
X00584244Y02415603D02*
X00584244Y02400591D01*
X00584244Y02415603D02*
X00594252Y02415603D01*
X00613709Y02413101D02*
X00613709Y02403093D01*
X00616211Y02400591D01*
X00621215Y02400591D01*
X00623718Y02403093D01*
X00623718Y02413101D02*
X00621215Y02415603D01*
X00616211Y02415603D01*
X00613709Y02413101D01*
X00643174Y02415603D02*
X00653183Y02415603D01*
X00648178Y02415603D02*
X00648178Y02400591D01*
X00672639Y02400591D02*
X00672639Y02415603D01*
X00680146Y02415603D01*
X00682648Y02413101D01*
X00682648Y02408097D01*
X00680146Y02405595D01*
X00672639Y02405595D01*
X00677643Y02405595D02*
X00682648Y02400591D01*
X00702104Y02403093D02*
X00704606Y02400591D01*
X00709611Y02400591D01*
X00712113Y02403093D01*
X00712113Y02413101D01*
X00709611Y02415603D01*
X00704606Y02415603D01*
X00702104Y02413101D01*
X00702104Y02403093D01*
X00731569Y02400591D02*
X00731569Y02415603D01*
X00741578Y02400591D01*
X00741578Y02415603D01*
X00761034Y02415603D02*
X00766039Y02415603D01*
X00763536Y02415603D02*
X00763536Y02400591D01*
X00761034Y02400591D02*
X00766039Y02400591D01*
X00785589Y02403093D02*
X00788091Y02400591D01*
X00793095Y02400591D01*
X00795597Y02403093D01*
X00795597Y02413101D02*
X00793095Y02415603D01*
X00788091Y02415603D01*
X00785589Y02413101D01*
X00785589Y02403093D01*
X00815054Y02403093D02*
X00817556Y02400591D01*
X00822560Y02400591D01*
X00825062Y02403093D01*
X00825062Y02405595D01*
X00822560Y02408097D01*
X00817556Y02408097D01*
X00815054Y02410599D01*
X00815054Y02413101D01*
X00817556Y02415603D01*
X00822560Y02415603D01*
X00825062Y02413101D01*
D22*
X01173106Y00719186D02*
X01215142Y00656132D01*
X01237561Y00656132D02*
X01279597Y00698168D01*
X01279597Y00708677D01*
X01269088Y00719186D01*
X01248070Y00719186D01*
X01237561Y00708677D01*
X01237561Y00656132D02*
X01279597Y00656132D01*
X01215142Y00719186D02*
X01173106Y00656132D01*
D23*
X00698516Y00187632D03*
D24*
X00698516Y00022632D03*
D25*
X00699516Y00345132D03*
X00590516Y00345132D03*
X00482516Y00345132D03*
X00806516Y00345132D03*
X00914516Y00345132D03*
D26*
X00860516Y00295132D03*
X00752516Y00295132D03*
X00645516Y00295132D03*
X00536516Y00295132D03*
M02*
