G75*
%MOIN*%
%OFA0B0*%
%FSLAX26Y26*%
%IPPOS*%
%LPD*%
%AMOC8*
5,1,8,0,0,1.08239X$1,22.5*
%
%ADD10C,0.006000*%
%ADD11C,0.003000*%
%ADD12C,0.002000*%
%ADD13C,0.052000*%
%ADD14R,0.011811X0.047244*%
%ADD15R,0.047244X0.011811*%
%ADD16R,0.087992X0.047992*%
%ADD17R,0.086614X0.141732*%
%ADD18R,0.062992X0.070866*%
%ADD19R,0.047244X0.047244*%
%ADD20R,0.043307X0.039370*%
%ADD21OC8,0.056000*%
%ADD22C,0.057402*%
%ADD23C,0.130551*%
%ADD24OC8,0.060000*%
%ADD25C,0.200000*%
%ADD26C,0.010000*%
%ADD27C,0.035685*%
%ADD28C,0.012000*%
%ADD29C,0.016000*%
%ADD30C,0.024000*%
%ADD31C,0.039622*%
D10*
X00809881Y02019117D02*
X00820556Y02019117D01*
X00831232Y02029792D01*
X00831232Y02083171D01*
X00831232Y02040468D02*
X00799205Y02040468D01*
X00788529Y02051144D01*
X00788529Y02083171D01*
X00766777Y02093847D02*
X00766777Y02072495D01*
X00756101Y02061820D01*
X00756101Y02083171D01*
X00734750Y02083171D01*
X00734750Y02061820D01*
X00756101Y02061820D01*
X00766777Y02051144D02*
X00756101Y02040468D01*
X00734750Y02040468D01*
X00724074Y02051144D01*
X00724074Y02093847D01*
X00734750Y02104523D01*
X00756101Y02104523D01*
X00766777Y02093847D01*
X00702322Y02072495D02*
X00702322Y02051144D01*
X00691646Y02040468D01*
X00670295Y02040468D01*
X00659619Y02051144D01*
X00659619Y02072495D01*
X00670295Y02083171D01*
X00691646Y02083171D01*
X00702322Y02072495D01*
X00638001Y02040468D02*
X00616649Y02040468D01*
X00627325Y02040468D02*
X00627325Y02083171D01*
X00616649Y02083171D01*
X00594964Y02083171D02*
X00584288Y02083171D01*
X00562937Y02061820D01*
X00562937Y02083171D02*
X00562937Y02040468D01*
X00541185Y02040468D02*
X00509157Y02040468D01*
X00498482Y02051144D01*
X00509157Y02061820D01*
X00541185Y02061820D01*
X00541185Y02072495D02*
X00541185Y02040468D01*
X00541185Y02072495D02*
X00530509Y02083171D01*
X00509157Y02083171D01*
X00476730Y02072495D02*
X00476730Y02040468D01*
X00476730Y02072495D02*
X00466054Y02083171D01*
X00455378Y02072495D01*
X00455378Y02040468D01*
X00434027Y02040468D02*
X00434027Y02083171D01*
X00444702Y02083171D01*
X00455378Y02072495D01*
X00412275Y02072495D02*
X00412275Y02040468D01*
X00380247Y02040468D01*
X00369572Y02051144D01*
X00380247Y02061820D01*
X00412275Y02061820D01*
X00412275Y02072495D02*
X00401599Y02083171D01*
X00380247Y02083171D01*
X00347953Y02040468D02*
X00326602Y02040468D01*
X00337277Y02040468D02*
X00337277Y02104523D01*
X00326602Y02104523D01*
X00304850Y02083171D02*
X00304850Y02040468D01*
X00272822Y02040468D01*
X00262147Y02051144D01*
X00262147Y02083171D01*
X00240462Y02083171D02*
X00208434Y02061820D01*
X00240462Y02040468D01*
X00208434Y02040468D02*
X00208434Y02104523D01*
X00627325Y02104523D02*
X00627325Y02115198D01*
X00852984Y02051144D02*
X00863660Y02061820D01*
X00895687Y02061820D01*
X00895687Y02072495D02*
X00895687Y02040468D01*
X00863660Y02040468D01*
X00852984Y02051144D01*
X00863660Y02083171D02*
X00885011Y02083171D01*
X00895687Y02072495D01*
X00917439Y02072495D02*
X00928115Y02083171D01*
X00949466Y02083171D01*
X00960142Y02072495D01*
X00960142Y02040468D01*
X00981894Y02051144D02*
X00992570Y02040468D01*
X01013921Y02040468D01*
X01024597Y02051144D01*
X01024597Y02072495D01*
X01013921Y02083171D01*
X00992570Y02083171D01*
X00981894Y02072495D01*
X00981894Y02051144D01*
X01046349Y02051144D02*
X01057025Y02040468D01*
X01078376Y02040468D01*
X01089052Y02051144D01*
X01089052Y02072495D01*
X01078376Y02083171D01*
X01057025Y02083171D01*
X01046349Y02072495D01*
X01046349Y02051144D01*
X01110804Y02051144D02*
X01121480Y02051144D01*
X01121480Y02040468D01*
X01110804Y02040468D01*
X01110804Y02051144D01*
X01143031Y02040468D02*
X01164383Y02040468D01*
X01153707Y02040468D02*
X01153707Y02083171D01*
X01143031Y02083171D01*
X01153707Y02104523D02*
X01153707Y02115198D01*
X01186001Y02072495D02*
X01186001Y02051144D01*
X01196677Y02040468D01*
X01218029Y02040468D01*
X01228704Y02061820D02*
X01228704Y02072495D01*
X01218029Y02083171D01*
X01196677Y02083171D01*
X01186001Y02072495D01*
X01186001Y02061820D02*
X01228704Y02061820D01*
X00917439Y02040468D02*
X00917439Y02104523D01*
D11*
X01080822Y02354898D02*
X01075151Y02360569D01*
X01092165Y02360569D01*
X01092165Y02354898D02*
X01092165Y02366241D01*
X01089330Y02373313D02*
X01092165Y02376149D01*
X01092165Y02381821D01*
X01089330Y02384656D01*
X01077987Y02384656D01*
X01089330Y02373313D01*
X01077987Y02373313D01*
X01075151Y02376149D01*
X01075151Y02381821D01*
X01077987Y02384656D01*
X01075151Y02391729D02*
X01092165Y02391729D01*
X01086494Y02391729D02*
X01080822Y02400236D01*
X01086494Y02391729D02*
X01092165Y02400236D01*
X01280354Y02398131D02*
X01286526Y02391960D01*
X01292698Y02391960D01*
X01298870Y02398131D01*
X01298870Y02410475D01*
X01305042Y02416647D01*
X01311214Y02416647D01*
X01317385Y02410475D01*
X01317385Y02398131D01*
X01311214Y02391960D01*
X01305042Y02391960D01*
X01298870Y02398131D01*
X01298870Y02410475D02*
X01292698Y02416647D01*
X01286526Y02416647D01*
X01280354Y02410475D01*
X01280354Y02398131D01*
X01280354Y02379816D02*
X01317385Y02355128D01*
X01286526Y02342984D02*
X01311214Y02318297D01*
X01317385Y02318297D01*
X01317385Y02306153D02*
X01317385Y02281465D01*
X01292698Y02306153D01*
X01286526Y02306153D01*
X01280354Y02299981D01*
X01280354Y02287637D01*
X01286526Y02281465D01*
X01280354Y02318297D02*
X01280354Y02342984D01*
X01286526Y02342984D01*
X01317385Y02428791D02*
X01280354Y02453479D01*
X01286526Y02465622D02*
X01280354Y02471794D01*
X01280354Y02484138D01*
X01286526Y02490310D01*
X01292698Y02490310D01*
X01317385Y02465622D01*
X01317385Y02490310D01*
X01311214Y02502454D02*
X01286526Y02527142D01*
X01311214Y02527142D01*
X01317385Y02520970D01*
X01317385Y02508626D01*
X01311214Y02502454D01*
X01286526Y02502454D01*
X01280354Y02508626D01*
X01280354Y02520970D01*
X01286526Y02527142D01*
X01286526Y02539285D02*
X01280354Y02545457D01*
X01280354Y02557801D01*
X01286526Y02563973D01*
X01292698Y02563973D01*
X01317385Y02539285D01*
X01317385Y02563973D01*
X01317385Y02576117D02*
X01292698Y02600805D01*
X01286526Y02600805D01*
X01280354Y02594633D01*
X01280354Y02582289D01*
X01286526Y02576117D01*
X01317385Y02576117D02*
X01317385Y02600805D01*
X00691390Y01788972D02*
X00688554Y01788972D01*
X00685719Y01786136D01*
X00685719Y01777629D01*
X00691390Y01777629D01*
X00694226Y01780464D01*
X00694226Y01786136D01*
X00691390Y01788972D01*
X00685719Y01777629D02*
X00680047Y01783300D01*
X00677211Y01788972D01*
X00677211Y01770556D02*
X00677211Y01759213D01*
X00677211Y01764884D02*
X00694226Y01764884D01*
X00694226Y01752140D02*
X00677211Y01740797D01*
X00680047Y01733724D02*
X00685719Y01733724D01*
X00688554Y01730889D01*
X00688554Y01722381D01*
X00694226Y01722381D02*
X00677211Y01722381D01*
X00677211Y01730889D01*
X00680047Y01733724D01*
X00688554Y01728053D02*
X00694226Y01733724D01*
X00694226Y01740797D02*
X00677211Y01752140D01*
X00677211Y01715309D02*
X00694226Y01703966D01*
X00691390Y01696893D02*
X00680047Y01696893D01*
X00691390Y01685550D01*
X00694226Y01688386D01*
X00694226Y01694057D01*
X00691390Y01696893D01*
X00691390Y01685550D02*
X00680047Y01685550D01*
X00677211Y01688386D01*
X00677211Y01694057D01*
X00680047Y01696893D01*
X00677211Y01703966D02*
X00694226Y01715309D01*
X00694226Y01678477D02*
X00694226Y01667134D01*
X00694226Y01672806D02*
X00677211Y01672806D01*
X00682883Y01667134D01*
X00677211Y01660062D02*
X00677211Y01648719D01*
X00694226Y01648719D01*
X00694226Y01641646D02*
X00694226Y01630303D01*
X00682883Y01641646D01*
X00680047Y01641646D01*
X00677211Y01638810D01*
X00677211Y01633139D01*
X00680047Y01630303D01*
X00680047Y01623230D02*
X00682883Y01623230D01*
X00685719Y01620394D01*
X00688554Y01623230D01*
X00691390Y01623230D01*
X00694226Y01620394D01*
X00694226Y01614723D01*
X00691390Y01611887D01*
X00694226Y01604814D02*
X00677211Y01604814D01*
X00682883Y01599143D01*
X00677211Y01593471D01*
X00694226Y01593471D01*
X00694226Y01580727D02*
X00677211Y01580727D01*
X00677211Y01575056D02*
X00677211Y01586399D01*
X00680047Y01567983D02*
X00677211Y01565147D01*
X00677211Y01559476D01*
X00680047Y01556640D01*
X00682883Y01556640D01*
X00685719Y01559476D01*
X00685719Y01565147D01*
X00688554Y01567983D01*
X00691390Y01567983D01*
X00694226Y01565147D01*
X00694226Y01559476D01*
X00691390Y01556640D01*
X00680047Y01611887D02*
X00677211Y01614723D01*
X00677211Y01620394D01*
X00680047Y01623230D01*
X00685719Y01620394D02*
X00685719Y01617559D01*
X00685719Y01648719D02*
X00685719Y01654390D01*
X00359404Y01298000D02*
X00359404Y01286657D01*
X00350896Y01286657D01*
X00348061Y01289493D01*
X00348061Y01298000D01*
X00340988Y01300836D02*
X00329645Y01289493D01*
X00332481Y01286657D01*
X00338152Y01286657D01*
X00340988Y01289493D01*
X00340988Y01300836D01*
X00338152Y01303672D01*
X00332481Y01303672D01*
X00329645Y01300836D01*
X00329645Y01289493D01*
X00322572Y01286657D02*
X00311229Y01286657D01*
X00316901Y01286657D02*
X00316901Y01303672D01*
X00311229Y01298000D01*
X00311425Y01118443D02*
X00314260Y01115607D01*
X00317096Y01118443D01*
X00319932Y01118443D01*
X00322768Y01115607D01*
X00322768Y01109935D01*
X00319932Y01107100D01*
X00319932Y01100728D02*
X00322768Y01100728D01*
X00322768Y01097892D01*
X00319932Y01097892D01*
X00319932Y01100728D01*
X00319932Y01090819D02*
X00322768Y01087983D01*
X00322768Y01082312D01*
X00319932Y01079476D01*
X00314260Y01085148D02*
X00314260Y01087983D01*
X00317096Y01090819D01*
X00319932Y01090819D01*
X00314260Y01087983D02*
X00311425Y01090819D01*
X00308589Y01090819D01*
X00305753Y01087983D01*
X00305753Y01082312D01*
X00308589Y01079476D01*
X00314260Y01072403D02*
X00314260Y01061060D01*
X00305753Y01053988D02*
X00322768Y01042645D01*
X00314260Y01035572D02*
X00317096Y01032736D01*
X00317096Y01024229D01*
X00322768Y01024229D02*
X00305753Y01024229D01*
X00305753Y01032736D01*
X00308589Y01035572D01*
X00314260Y01035572D01*
X00305753Y01042645D02*
X00322768Y01053988D01*
X00322768Y01017156D02*
X00305753Y01017156D01*
X00311425Y01011485D01*
X00305753Y01005813D01*
X00322768Y01005813D01*
X00308589Y00998741D02*
X00319932Y00987398D01*
X00322768Y00987398D01*
X00322768Y00980325D02*
X00322768Y00968982D01*
X00322768Y00974653D02*
X00305753Y00974653D01*
X00311425Y00968982D01*
X00322768Y00961909D02*
X00322768Y00950566D01*
X00322768Y00956238D02*
X00305753Y00956238D01*
X00311425Y00950566D01*
X00322768Y00943493D02*
X00322768Y00932150D01*
X00322768Y00937822D02*
X00305753Y00937822D01*
X00311425Y00932150D01*
X00305753Y00925078D02*
X00322768Y00925078D01*
X00322768Y00913735D02*
X00305753Y00913735D01*
X00311425Y00919406D01*
X00305753Y00925078D01*
X00322768Y00906662D02*
X00322768Y00895319D01*
X00305753Y00895319D01*
X00305753Y00987398D02*
X00305753Y00998741D01*
X00308589Y00998741D01*
X00308589Y01107100D02*
X00305753Y01109935D01*
X00305753Y01115607D01*
X00308589Y01118443D01*
X00311425Y01118443D01*
X00314260Y01115607D02*
X00314260Y01112771D01*
X00350880Y00808932D02*
X00350880Y00791917D01*
X00345209Y00791917D02*
X00356552Y00791917D01*
X00363624Y00794753D02*
X00363624Y00806096D01*
X00366460Y00808932D01*
X00372132Y00808932D01*
X00374967Y00806096D01*
X00363624Y00794753D01*
X00366460Y00791917D01*
X00372132Y00791917D01*
X00374967Y00794753D01*
X00374967Y00806096D01*
X00382040Y00803260D02*
X00382040Y00794753D01*
X00384876Y00791917D01*
X00393383Y00791917D01*
X00393383Y00803260D01*
X00350880Y00808932D02*
X00345209Y00803260D01*
X00147315Y02342142D02*
X00147315Y02353485D01*
X00147315Y02347813D02*
X00130300Y02347813D01*
X00135972Y02342142D01*
X00133136Y02360557D02*
X00130300Y02363393D01*
X00130300Y02369065D01*
X00133136Y02371900D01*
X00144479Y02360557D01*
X00147315Y02363393D01*
X00147315Y02369065D01*
X00144479Y02371900D01*
X00133136Y02371900D01*
X00130300Y02378973D02*
X00147315Y02378973D01*
X00141643Y02378973D02*
X00147315Y02387480D01*
X00141643Y02378973D02*
X00135972Y02387480D01*
X00133136Y02360557D02*
X00144479Y02360557D01*
D12*
X01021481Y01627976D02*
X01021481Y01613296D01*
X01021481Y01620636D02*
X01043500Y01620636D01*
X01039830Y01605877D02*
X01043500Y01602207D01*
X01043500Y01594867D01*
X01039830Y01591198D01*
X01032491Y01594867D02*
X01032491Y01602207D01*
X01036160Y01605877D01*
X01039830Y01605877D01*
X01032491Y01594867D02*
X01028821Y01591198D01*
X01025151Y01591198D01*
X01021481Y01594867D01*
X01021481Y01602207D01*
X01025151Y01605877D01*
X01025151Y01583778D02*
X01032491Y01583778D01*
X01036160Y01580108D01*
X01036160Y01569099D01*
X01036160Y01576438D02*
X01043500Y01583778D01*
X01043500Y01569099D02*
X01021481Y01569099D01*
X01021481Y01580108D01*
X01025151Y01583778D01*
X01021481Y01561679D02*
X01043500Y01561679D01*
X01021481Y01547000D01*
X01043500Y01547000D01*
X01079000Y01508349D02*
X01079000Y01493670D01*
X01082670Y01490000D01*
X01090009Y01490000D01*
X01093679Y01493670D01*
X01093679Y01501009D01*
X01086340Y01501009D01*
X01093679Y01508349D02*
X01090009Y01512019D01*
X01082670Y01512019D01*
X01079000Y01508349D01*
X01101099Y01512019D02*
X01101099Y01490000D01*
X01115778Y01490000D02*
X01101099Y01512019D01*
X01115778Y01512019D02*
X01115778Y01490000D01*
X01123198Y01490000D02*
X01123198Y01512019D01*
X01134207Y01512019D01*
X01137877Y01508349D01*
X01137877Y01493670D01*
X01134207Y01490000D01*
X01123198Y01490000D01*
X01207500Y01494340D02*
X01214840Y01487000D01*
X01222179Y01494340D01*
X01222179Y01509019D01*
X01229599Y01505349D02*
X01229599Y01490670D01*
X01233269Y01487000D01*
X01240608Y01487000D01*
X01244278Y01490670D01*
X01251698Y01490670D02*
X01251698Y01505349D01*
X01255367Y01509019D01*
X01262707Y01509019D01*
X01266377Y01505349D01*
X01266377Y01490670D02*
X01262707Y01487000D01*
X01255367Y01487000D01*
X01251698Y01490670D01*
X01244278Y01505349D02*
X01240608Y01509019D01*
X01233269Y01509019D01*
X01229599Y01505349D01*
X01207500Y01509019D02*
X01207500Y01494340D01*
X01202321Y01847000D02*
X01205991Y01850670D01*
X01205991Y01858009D01*
X01209660Y01861679D01*
X01213330Y01861679D01*
X01217000Y01858009D01*
X01217000Y01850670D01*
X01213330Y01847000D01*
X01202321Y01847000D02*
X01198651Y01847000D01*
X01194981Y01850670D01*
X01194981Y01858009D01*
X01198651Y01861679D01*
X01194981Y01869099D02*
X01217000Y01869099D01*
X01209660Y01876438D01*
X01217000Y01883778D01*
X01194981Y01883778D01*
X01198651Y01891198D02*
X01213330Y01891198D01*
X01217000Y01894867D01*
X01217000Y01902207D01*
X01213330Y01905877D01*
X01217000Y01913296D02*
X01194981Y01913296D01*
X01198651Y01905877D02*
X01194981Y01902207D01*
X01194981Y01894867D01*
X01198651Y01891198D01*
X01217000Y01913296D02*
X01217000Y01927976D01*
X01217000Y01935395D02*
X01194981Y01935395D01*
X01205991Y01939065D02*
X01217000Y01950074D01*
X01209660Y01935395D02*
X01194981Y01950074D01*
X01129000Y01931538D02*
X01125330Y01935208D01*
X01110651Y01935208D01*
X01106981Y01931538D01*
X01106981Y01924199D01*
X01110651Y01920529D01*
X01125330Y01920529D01*
X01129000Y01924199D01*
X01129000Y01931538D01*
X01129000Y01913136D02*
X01129000Y01905796D01*
X01129000Y01909466D02*
X01106981Y01909466D01*
X01106981Y01905796D02*
X01106981Y01913136D01*
X01110651Y01898377D02*
X01106981Y01894707D01*
X01106981Y01883698D01*
X01129000Y01883698D01*
X01129000Y01894707D01*
X01125330Y01898377D01*
X01110651Y01898377D01*
X01106981Y01876278D02*
X01129000Y01876278D01*
X01121660Y01868938D01*
X01129000Y01861599D01*
X01106981Y01861599D01*
X01110651Y01854179D02*
X01106981Y01850509D01*
X01106981Y01843170D01*
X01110651Y01839500D01*
X01114321Y01839500D01*
X01117991Y01843170D01*
X01117991Y01850509D01*
X01121660Y01854179D01*
X01125330Y01854179D01*
X01129000Y01850509D01*
X01129000Y01843170D01*
X01125330Y01839500D01*
D13*
X00879730Y01198796D03*
X00689730Y01198796D03*
D14*
X00681139Y01449046D03*
X00661454Y01449046D03*
X00641769Y01449046D03*
X00622084Y01449046D03*
X00602399Y01449046D03*
X00700824Y01449046D03*
X00720509Y01449046D03*
X00740194Y01449046D03*
X00759879Y01449046D03*
X00779564Y01449046D03*
X00799249Y01449046D03*
X00818934Y01449046D03*
X00838619Y01449046D03*
X00858305Y01449046D03*
X00877990Y01449046D03*
X00897675Y01449046D03*
X00897675Y01897864D03*
X00877990Y01897864D03*
X00858305Y01897864D03*
X00838619Y01897864D03*
X00818934Y01897864D03*
X00799249Y01897864D03*
X00779564Y01897864D03*
X00759879Y01897864D03*
X00740194Y01897864D03*
X00720509Y01897864D03*
X00700824Y01897864D03*
X00681139Y01897864D03*
X00661454Y01897864D03*
X00641769Y01897864D03*
X00622084Y01897864D03*
X00602399Y01897864D03*
D15*
X00525627Y01821093D03*
X00525627Y01801408D03*
X00525627Y01781723D03*
X00525627Y01762038D03*
X00525627Y01742353D03*
X00525627Y01722668D03*
X00525627Y01702983D03*
X00525627Y01683297D03*
X00525627Y01663612D03*
X00525627Y01643927D03*
X00525627Y01624242D03*
X00525627Y01604557D03*
X00525627Y01584872D03*
X00525627Y01565187D03*
X00525627Y01545502D03*
X00525627Y01525817D03*
X00974446Y01525817D03*
X00974446Y01545502D03*
X00974446Y01565187D03*
X00974446Y01584872D03*
X00974446Y01604557D03*
X00974446Y01624242D03*
X00974446Y01643927D03*
X00974446Y01663612D03*
X00974446Y01683297D03*
X00974446Y01702983D03*
X00974446Y01722668D03*
X00974446Y01742353D03*
X00974446Y01762038D03*
X00974446Y01781723D03*
X00974446Y01801408D03*
X00974446Y01821093D03*
D16*
X00170961Y01095756D03*
X00170961Y01004772D03*
X00170961Y00913787D03*
D17*
X00414976Y01004772D03*
D18*
X00340409Y01232528D03*
X00230173Y01232528D03*
X00226480Y00732622D03*
X00336717Y00732622D03*
D19*
X00218169Y02502098D03*
X00218169Y02584776D03*
X01099067Y02584776D03*
X01099067Y02502098D03*
D20*
X01143035Y02404232D03*
X01143035Y02337303D03*
X00196610Y02324752D03*
X00196610Y02391681D03*
D21*
X01112358Y01768846D03*
X01112358Y01668846D03*
X01112358Y01568846D03*
X01212358Y01568846D03*
X01212358Y01668846D03*
X01212358Y01768846D03*
D22*
X00817083Y02200382D02*
X00817083Y02257783D01*
X00718657Y02257783D02*
X00718657Y02200382D01*
X00639917Y02200382D02*
X00639917Y02257783D01*
X00541492Y02257783D02*
X00541492Y02200382D01*
D23*
X00420626Y02335776D03*
X00937949Y02335776D03*
D24*
X00914516Y00522632D03*
X00860516Y00422632D03*
X00806516Y00522632D03*
X00752516Y00422632D03*
X00698516Y00522632D03*
X00644516Y00422632D03*
X00590516Y00522632D03*
X00536516Y00422632D03*
X00482516Y00522632D03*
D25*
X00205516Y00472632D03*
X01191516Y00472632D03*
D26*
X00045866Y00356279D02*
X00045866Y00049598D01*
X01350209Y00049598D01*
X01350209Y02643606D01*
X00779249Y02643606D01*
X00838277Y02584579D01*
X00842083Y02575390D01*
X00842083Y02296894D01*
X00842970Y02296527D01*
X00855826Y02283671D01*
X00862783Y02266874D01*
X00862783Y02254083D01*
X00920177Y02254083D01*
X00891343Y02266026D01*
X00868199Y02289170D01*
X00855673Y02319410D01*
X00855673Y02352141D01*
X00868199Y02382381D01*
X00891343Y02405525D01*
X00921583Y02418051D01*
X00954314Y02418051D01*
X00984554Y02405525D01*
X01007699Y02382381D01*
X01020224Y02352141D01*
X01020224Y02319410D01*
X01007699Y02289170D01*
X00984554Y02266026D01*
X00955721Y02254083D01*
X01082390Y02254083D01*
X01091579Y02250277D01*
X01098611Y02243244D01*
X01187194Y02154661D01*
X01191000Y02145473D01*
X01191000Y01811127D01*
X01193719Y01813846D01*
X01230998Y01813846D01*
X01243000Y01801844D01*
X01243000Y02204812D01*
X01147194Y02300618D01*
X01114340Y02300618D01*
X01104382Y02310576D01*
X01104382Y02364030D01*
X01111120Y02370768D01*
X01104382Y02377506D01*
X01104382Y02411773D01*
X01077067Y02439088D01*
X01077067Y02461476D01*
X01068403Y02461476D01*
X01058445Y02471435D01*
X01058445Y02532762D01*
X01068403Y02542720D01*
X01129731Y02542720D01*
X01139689Y02532762D01*
X01139689Y02471435D01*
X01129731Y02461476D01*
X01121067Y02461476D01*
X01121067Y02457313D01*
X01137463Y02440917D01*
X01171731Y02440917D01*
X01181689Y02430959D01*
X01181689Y02377506D01*
X01174951Y02370768D01*
X01181689Y02364030D01*
X01181689Y02331176D01*
X01275527Y02237338D01*
X01289000Y02223865D01*
X01289000Y01690473D01*
X01257846Y01659320D01*
X01257358Y01658831D01*
X01257358Y01650207D01*
X01230998Y01623846D01*
X01193719Y01623846D01*
X01191000Y01626565D01*
X01191000Y01625560D01*
X01202713Y01613846D01*
X01230998Y01613846D01*
X01257358Y01587486D01*
X01257358Y01550207D01*
X01230998Y01523846D01*
X01193719Y01523846D01*
X01167358Y01550207D01*
X01167358Y01578491D01*
X01151839Y01594011D01*
X01144806Y01601043D01*
X01141000Y01610232D01*
X01141000Y01633849D01*
X01130998Y01623846D01*
X01093719Y01623846D01*
X01070908Y01646657D01*
X01070538Y01645763D01*
X01060737Y01635962D01*
X01047931Y01630657D01*
X01034069Y01630657D01*
X01021263Y01635962D01*
X01015068Y01642157D01*
X01015068Y01552240D01*
X01013068Y01550240D01*
X01013068Y01545503D01*
X01008331Y01545503D01*
X01008330Y01545502D01*
X01008331Y01545501D01*
X01013068Y01545501D01*
X01013068Y01540764D01*
X01015068Y01538764D01*
X01015068Y01512870D01*
X01005110Y01502912D01*
X00943782Y01502912D01*
X00933824Y01512870D01*
X00933824Y01538764D01*
X00935824Y01540764D01*
X00935824Y01542187D01*
X00899714Y01542187D01*
X00861619Y01504093D01*
X00861619Y01489667D01*
X00890937Y01489667D01*
X00892937Y01487667D01*
X00897674Y01487667D01*
X00897674Y01482930D01*
X00897675Y01482929D01*
X00897675Y01487667D01*
X00905555Y01487667D01*
X00909370Y01486645D01*
X00912790Y01484670D01*
X00915583Y01481878D01*
X00917558Y01478457D01*
X00918580Y01474642D01*
X00918580Y01449046D01*
X00900895Y01449046D01*
X00900895Y01449045D01*
X00918580Y01449045D01*
X00918580Y01423449D01*
X00917558Y01419634D01*
X00915583Y01416213D01*
X00912790Y01413421D01*
X00909370Y01411446D01*
X00905555Y01410423D01*
X00897675Y01410423D01*
X00897675Y01415162D01*
X00897674Y01415161D01*
X00897674Y01410423D01*
X00892937Y01410423D01*
X00892449Y01409935D01*
X00898237Y01407538D01*
X00908038Y01397737D01*
X00913342Y01384931D01*
X00913342Y01371069D01*
X00908038Y01358263D01*
X00898237Y01348462D01*
X00885431Y01343157D01*
X00871569Y01343157D01*
X00858763Y01348462D01*
X00848962Y01358263D01*
X00843657Y01371069D01*
X00843657Y01381730D01*
X00816619Y01408768D01*
X00816619Y01410423D01*
X00814196Y01410423D01*
X00812196Y01408423D01*
X00742509Y01408423D01*
X00742509Y01395103D01*
X00800113Y01337500D01*
X01019387Y01337500D01*
X01031500Y01349613D01*
X01031500Y01445242D01*
X01031157Y01446069D01*
X01031157Y01459931D01*
X01036462Y01472737D01*
X01046263Y01482538D01*
X01059069Y01487842D01*
X01072931Y01487842D01*
X01085737Y01482538D01*
X01095538Y01472737D01*
X01100842Y01459931D01*
X01100842Y01446069D01*
X01095538Y01433263D01*
X01085737Y01423462D01*
X01075500Y01419222D01*
X01075500Y01331387D01*
X01062613Y01318500D01*
X01037613Y01293500D01*
X00781887Y01293500D01*
X00769000Y01306387D01*
X00722824Y01352563D01*
X00722824Y01292043D01*
X00854216Y01234094D01*
X00855372Y01235250D01*
X00871177Y01241796D01*
X00888283Y01241796D01*
X00904087Y01235250D01*
X00916183Y01223154D01*
X00922730Y01207349D01*
X00922730Y01190243D01*
X00916183Y01174439D01*
X00904087Y01162343D01*
X00888283Y01155796D01*
X00871177Y01155796D01*
X00855372Y01162343D01*
X00843276Y01174439D01*
X00836730Y01190243D01*
X00836730Y01193717D01*
X00703139Y01252636D01*
X00703139Y01239785D01*
X00714087Y01235250D01*
X00726183Y01223154D01*
X00732730Y01207349D01*
X00732730Y01190243D01*
X00726183Y01174439D01*
X00714087Y01162343D01*
X00698283Y01155796D01*
X00681177Y01155796D01*
X00665372Y01162343D01*
X00653276Y01174439D01*
X00646730Y01190243D01*
X00646730Y01207349D01*
X00653276Y01223154D01*
X00659139Y01229017D01*
X00659139Y01408423D01*
X00589452Y01408423D01*
X00579493Y01418382D01*
X00579493Y01420876D01*
X00572931Y01418157D01*
X00559069Y01418157D01*
X00548627Y01422483D01*
X00548627Y01408219D01*
X00535154Y01394745D01*
X00388905Y01248497D01*
X00388905Y01190053D01*
X00378947Y01180094D01*
X00366000Y01180094D01*
X00366000Y01092638D01*
X00465325Y01092638D01*
X00475283Y01082679D01*
X00475283Y00926864D01*
X00465325Y00916906D01*
X00364628Y00916906D01*
X00354669Y00926864D01*
X00354669Y00979772D01*
X00231957Y00979772D01*
X00231957Y00973734D01*
X00221998Y00963776D01*
X00119923Y00963776D01*
X00109965Y00973734D01*
X00109965Y01035809D01*
X00119923Y01045768D01*
X00221998Y01045768D01*
X00231957Y01035809D01*
X00231957Y01029772D01*
X00316000Y01029772D01*
X00316000Y01180094D01*
X00301872Y01180094D01*
X00291913Y01190053D01*
X00291913Y01275002D01*
X00301872Y01284961D01*
X00360316Y01284961D01*
X00502627Y01427272D01*
X00502627Y01502912D01*
X00494964Y01502912D01*
X00485005Y01512870D01*
X00485005Y01538764D01*
X00487005Y01540764D01*
X00487005Y01545501D01*
X00491742Y01545501D01*
X00491743Y01545502D01*
X00491743Y01545503D01*
X00487005Y01545503D01*
X00487005Y01550240D01*
X00485005Y01552240D01*
X00485005Y01597819D01*
X00487005Y01599819D01*
X00487005Y01602242D01*
X00458355Y01602242D01*
X00434500Y01578387D01*
X00434500Y01505059D01*
X00443707Y01495852D01*
X00449311Y01482322D01*
X00449311Y01467678D01*
X00443707Y01454148D01*
X00433352Y01443793D01*
X00419822Y01438189D01*
X00405178Y01438189D01*
X00391648Y01443793D01*
X00381293Y01454148D01*
X00381250Y01454252D01*
X00381207Y01454148D01*
X00370852Y01443793D01*
X00357322Y01438189D01*
X00342678Y01438189D01*
X00329148Y01443793D01*
X00325000Y01447941D01*
X00320852Y01443793D01*
X00307322Y01438189D01*
X00292678Y01438189D01*
X00279148Y01443793D01*
X00275000Y01447941D01*
X00270852Y01443793D01*
X00257322Y01438189D01*
X00242678Y01438189D01*
X00229148Y01443793D01*
X00225000Y01447941D01*
X00220852Y01443793D01*
X00207322Y01438189D01*
X00192678Y01438189D01*
X00179148Y01443793D01*
X00175000Y01447941D01*
X00170852Y01443793D01*
X00157322Y01438189D01*
X00142678Y01438189D01*
X00129148Y01443793D01*
X00125000Y01447941D01*
X00120852Y01443793D01*
X00107322Y01438189D01*
X00092678Y01438189D01*
X00087500Y01440334D01*
X00087500Y00960355D01*
X00109068Y00938787D01*
X00109965Y00938787D01*
X00109965Y00944825D01*
X00119923Y00954783D01*
X00221998Y00954783D01*
X00231957Y00944825D01*
X00231957Y00942787D01*
X00232249Y00942787D01*
X00242907Y00938372D01*
X00251065Y00930215D01*
X00255480Y00919556D01*
X00255480Y00785055D01*
X00265018Y00785055D01*
X00274976Y00775097D01*
X00274976Y00690147D01*
X00265018Y00680189D01*
X00187943Y00680189D01*
X00177984Y00690147D01*
X00177984Y00707622D01*
X00155477Y00707622D01*
X00087500Y00639645D01*
X00087500Y00385355D01*
X00185355Y00287500D01*
X00702145Y00287500D01*
X00725000Y00310355D01*
X00725000Y00383680D01*
X00705516Y00403164D01*
X00705516Y00442100D01*
X00733048Y00469632D01*
X00771984Y00469632D01*
X00799516Y00442100D01*
X00799516Y00403164D01*
X00775000Y00378648D01*
X00775000Y00295027D01*
X00771194Y00285839D01*
X00764161Y00278806D01*
X00726661Y00241306D01*
X00717473Y00237500D01*
X00170027Y00237500D01*
X00160839Y00241306D01*
X00048339Y00353806D01*
X00045866Y00356279D01*
X00045866Y00349948D02*
X00052196Y00349948D01*
X00045866Y00339950D02*
X00062195Y00339950D01*
X00072193Y00329951D02*
X00045866Y00329951D01*
X00045866Y00319953D02*
X00082192Y00319953D01*
X00092190Y00309954D02*
X00045866Y00309954D01*
X00045866Y00299956D02*
X00102189Y00299956D01*
X00112187Y00289957D02*
X00045866Y00289957D01*
X00045866Y00279959D02*
X00122186Y00279959D01*
X00132184Y00269960D02*
X00045866Y00269960D01*
X00045866Y00259962D02*
X00142183Y00259962D01*
X00152181Y00249963D02*
X00045866Y00249963D01*
X00045866Y00239965D02*
X00164077Y00239965D01*
X00182898Y00289957D02*
X00300909Y00289957D01*
X00305178Y00288189D02*
X00291648Y00293793D01*
X00281293Y00304148D01*
X00275689Y00317678D01*
X00275689Y00332322D01*
X00281293Y00345852D01*
X00291648Y00356207D01*
X00305178Y00361811D01*
X00318198Y00361811D01*
X00401019Y00444632D01*
X00492048Y00444632D01*
X00517048Y00469632D01*
X00555984Y00469632D01*
X00583516Y00442100D01*
X00583516Y00403164D01*
X00555984Y00375632D01*
X00517048Y00375632D01*
X00492048Y00400632D01*
X00419245Y00400632D01*
X00349311Y00330698D01*
X00349311Y00317678D01*
X00343707Y00304148D01*
X00333352Y00293793D01*
X00319822Y00288189D01*
X00305178Y00288189D01*
X00324091Y00289957D02*
X00704602Y00289957D01*
X00714600Y00299956D02*
X00339514Y00299956D01*
X00346112Y00309954D02*
X00724599Y00309954D01*
X00725000Y00319953D02*
X00349311Y00319953D01*
X00349311Y00329951D02*
X00725000Y00329951D01*
X00725000Y00339950D02*
X00358563Y00339950D01*
X00368561Y00349948D02*
X00725000Y00349948D01*
X00725000Y00359947D02*
X00378560Y00359947D01*
X00388558Y00369945D02*
X00725000Y00369945D01*
X00725000Y00379944D02*
X00665468Y00379944D01*
X00663156Y00377632D02*
X00689516Y00403992D01*
X00689516Y00417632D01*
X00649516Y00417632D01*
X00649516Y00427632D01*
X00639516Y00427632D01*
X00639516Y00467632D01*
X00625876Y00467632D01*
X00599516Y00441271D01*
X00599516Y00427632D01*
X00639515Y00427632D01*
X00639515Y00417632D01*
X00599516Y00417632D01*
X00599516Y00403992D01*
X00625876Y00377632D01*
X00639516Y00377632D01*
X00639516Y00417631D01*
X00649516Y00417631D01*
X00649516Y00377632D01*
X00663156Y00377632D01*
X00649516Y00379944D02*
X00639516Y00379944D01*
X00639516Y00389942D02*
X00649516Y00389942D01*
X00649516Y00399941D02*
X00639516Y00399941D01*
X00639516Y00409939D02*
X00649516Y00409939D01*
X00649516Y00419938D02*
X00705516Y00419938D01*
X00705516Y00429937D02*
X00689516Y00429937D01*
X00689516Y00427632D02*
X00689516Y00441271D01*
X00663156Y00467632D01*
X00649516Y00467632D01*
X00649516Y00427632D01*
X00689516Y00427632D01*
X00689516Y00439935D02*
X00705516Y00439935D01*
X00713350Y00449934D02*
X00680854Y00449934D01*
X00670855Y00459932D02*
X00723348Y00459932D01*
X00717984Y00475632D02*
X00745516Y00503164D01*
X00745516Y00542100D01*
X00717984Y00569632D01*
X00679048Y00569632D01*
X00651516Y00542100D01*
X00651516Y00503164D01*
X00679048Y00475632D01*
X00717984Y00475632D01*
X00722281Y00479929D02*
X00782751Y00479929D01*
X00787048Y00475632D02*
X00825984Y00475632D01*
X00853516Y00503164D01*
X00853516Y00542100D01*
X00825984Y00569632D01*
X00787048Y00569632D01*
X00759516Y00542100D01*
X00759516Y00503164D01*
X00787048Y00475632D01*
X00781684Y00459932D02*
X00831348Y00459932D01*
X00841048Y00469632D02*
X00813516Y00442100D01*
X00813516Y00403164D01*
X00841048Y00375632D01*
X00879984Y00375632D01*
X00907516Y00403164D01*
X00907516Y00442100D01*
X00879984Y00469632D01*
X00841048Y00469632D01*
X00830281Y00479929D02*
X00890751Y00479929D01*
X00895048Y00475632D02*
X00933984Y00475632D01*
X00961516Y00503164D01*
X00961516Y00542100D01*
X00933984Y00569632D01*
X00895048Y00569632D01*
X00867516Y00542100D01*
X00867516Y00503164D01*
X00895048Y00475632D01*
X00889684Y00459932D02*
X01074516Y00459932D01*
X01074516Y00457228D02*
X01082489Y00427471D01*
X01097893Y00400792D01*
X01119676Y00379009D01*
X01146356Y00363605D01*
X01176113Y00355632D01*
X01206919Y00355632D01*
X01236676Y00363605D01*
X01263356Y00379009D01*
X01285139Y00400792D01*
X01300543Y00427471D01*
X01308516Y00457228D01*
X01308516Y00488035D01*
X01300543Y00517792D01*
X01285139Y00544471D01*
X01263356Y00566255D01*
X01236676Y00581658D01*
X01206919Y00589632D01*
X01176113Y00589632D01*
X01146356Y00581658D01*
X01119676Y00566255D01*
X01097893Y00544471D01*
X01082489Y00517792D01*
X01074516Y00488035D01*
X01074516Y00457228D01*
X01076471Y00449934D02*
X00899682Y00449934D01*
X00907516Y00439935D02*
X01079150Y00439935D01*
X01081829Y00429937D02*
X00907516Y00429937D01*
X00907516Y00419938D02*
X01086839Y00419938D01*
X01092611Y00409939D02*
X00907516Y00409939D01*
X00904293Y00399941D02*
X01098744Y00399941D01*
X01108742Y00389942D02*
X00894294Y00389942D01*
X00884296Y00379944D02*
X01118741Y00379944D01*
X01135374Y00369945D02*
X00775000Y00369945D01*
X00775000Y00359947D02*
X01160009Y00359947D01*
X01223023Y00359947D02*
X01350209Y00359947D01*
X01350209Y00369945D02*
X01247658Y00369945D01*
X01264291Y00379944D02*
X01350209Y00379944D01*
X01350209Y00389942D02*
X01274289Y00389942D01*
X01284288Y00399941D02*
X01350209Y00399941D01*
X01350209Y00409939D02*
X01290420Y00409939D01*
X01296193Y00419938D02*
X01350209Y00419938D01*
X01350209Y00429937D02*
X01301203Y00429937D01*
X01303882Y00439935D02*
X01350209Y00439935D01*
X01350209Y00449934D02*
X01306561Y00449934D01*
X01308516Y00459932D02*
X01350209Y00459932D01*
X01350209Y00469931D02*
X01308516Y00469931D01*
X01308516Y00479929D02*
X01350209Y00479929D01*
X01350209Y00489928D02*
X01308009Y00489928D01*
X01305330Y00499926D02*
X01350209Y00499926D01*
X01350209Y00509925D02*
X01302651Y00509925D01*
X01299312Y00519923D02*
X01350209Y00519923D01*
X01350209Y00529922D02*
X01293540Y00529922D01*
X01287767Y00539920D02*
X01350209Y00539920D01*
X01350209Y00549919D02*
X01279692Y00549919D01*
X01269693Y00559917D02*
X01350209Y00559917D01*
X01350209Y00569916D02*
X01257015Y00569916D01*
X01239697Y00579914D02*
X01350209Y00579914D01*
X01350209Y00589913D02*
X00087500Y00589913D01*
X00087500Y00599911D02*
X01350209Y00599911D01*
X01350209Y00609910D02*
X00087500Y00609910D01*
X00087500Y00619908D02*
X01350209Y00619908D01*
X01350209Y00629907D02*
X00087500Y00629907D01*
X00087761Y00639906D02*
X01350209Y00639906D01*
X01350209Y00649904D02*
X00097759Y00649904D01*
X00107758Y00659903D02*
X01350209Y00659903D01*
X01350209Y00669901D02*
X00117756Y00669901D01*
X00127755Y00679900D02*
X01350209Y00679900D01*
X01350209Y00689898D02*
X00381324Y00689898D01*
X00382190Y00691399D02*
X00383212Y00695214D01*
X00383212Y00727622D01*
X00341717Y00727622D01*
X00341717Y00737622D01*
X00383212Y00737622D01*
X00383212Y00770030D01*
X00382190Y00773845D01*
X00380215Y00777265D01*
X00377423Y00780058D01*
X00374002Y00782033D01*
X00370187Y00783055D01*
X00341716Y00783055D01*
X00341716Y00737622D01*
X00331717Y00737622D01*
X00331717Y00783055D01*
X00303246Y00783055D01*
X00299431Y00782033D01*
X00296010Y00780058D01*
X00293218Y00777265D01*
X00291243Y00773845D01*
X00290220Y00770030D01*
X00290220Y00737622D01*
X00331716Y00737622D01*
X00331716Y00727622D01*
X00290220Y00727622D01*
X00290220Y00695214D01*
X00291243Y00691399D01*
X00293218Y00687979D01*
X00296010Y00685186D01*
X00299431Y00683211D01*
X00303246Y00682189D01*
X00331717Y00682189D01*
X00331717Y00727622D01*
X00341716Y00727622D01*
X00341716Y00682189D01*
X00370187Y00682189D01*
X00374002Y00683211D01*
X00377423Y00685186D01*
X00380215Y00687979D01*
X00382190Y00691399D01*
X00383212Y00699897D02*
X01350209Y00699897D01*
X01350209Y00709895D02*
X00383212Y00709895D01*
X00383212Y00719894D02*
X01350209Y00719894D01*
X01350209Y00729892D02*
X00341717Y00729892D01*
X00341716Y00719894D02*
X00331717Y00719894D01*
X00331716Y00729892D02*
X00274976Y00729892D01*
X00274976Y00719894D02*
X00290220Y00719894D01*
X00290220Y00709895D02*
X00274976Y00709895D01*
X00274976Y00699897D02*
X00290220Y00699897D01*
X00292109Y00689898D02*
X00274727Y00689898D01*
X00274976Y00739891D02*
X00290220Y00739891D01*
X00290220Y00749889D02*
X00274976Y00749889D01*
X00274976Y00759888D02*
X00290220Y00759888D01*
X00290220Y00769886D02*
X00274976Y00769886D01*
X00270188Y00779885D02*
X00295837Y00779885D01*
X00331717Y00779885D02*
X00341716Y00779885D01*
X00341716Y00769886D02*
X00331717Y00769886D01*
X00331717Y00759888D02*
X00341716Y00759888D01*
X00341716Y00749889D02*
X00331717Y00749889D01*
X00331717Y00739891D02*
X00341716Y00739891D01*
X00341716Y00709895D02*
X00331717Y00709895D01*
X00331717Y00699897D02*
X00341716Y00699897D01*
X00341716Y00689898D02*
X00331717Y00689898D01*
X00383212Y00739891D02*
X01350209Y00739891D01*
X01350209Y00749889D02*
X00383212Y00749889D01*
X00383212Y00759888D02*
X01350209Y00759888D01*
X01350209Y00769886D02*
X00383212Y00769886D01*
X00377596Y00779885D02*
X01350209Y00779885D01*
X01350209Y00789883D02*
X00255480Y00789883D01*
X00255480Y00799882D02*
X01350209Y00799882D01*
X01350209Y00809880D02*
X00255480Y00809880D01*
X00255480Y00819879D02*
X01350209Y00819879D01*
X01350209Y00829877D02*
X00255480Y00829877D01*
X00255480Y00839876D02*
X01350209Y00839876D01*
X01350209Y00849875D02*
X00255480Y00849875D01*
X00255480Y00859873D02*
X01350209Y00859873D01*
X01350209Y00869872D02*
X00255480Y00869872D01*
X00255480Y00879870D02*
X01350209Y00879870D01*
X01350209Y00889869D02*
X00255480Y00889869D01*
X00255480Y00899867D02*
X01350209Y00899867D01*
X01350209Y00909866D02*
X00255480Y00909866D01*
X00255352Y00919864D02*
X00361669Y00919864D01*
X00354669Y00929863D02*
X00251211Y00929863D01*
X00239313Y00939861D02*
X00354669Y00939861D01*
X00354669Y00949860D02*
X00226922Y00949860D01*
X00228079Y00969857D02*
X00354669Y00969857D01*
X00354669Y00959858D02*
X00087997Y00959858D01*
X00087500Y00969857D02*
X00113842Y00969857D01*
X00109965Y00979855D02*
X00087500Y00979855D01*
X00087500Y00989854D02*
X00109965Y00989854D01*
X00109965Y00999852D02*
X00087500Y00999852D01*
X00087500Y01009851D02*
X00109965Y01009851D01*
X00109965Y01019849D02*
X00087500Y01019849D01*
X00087500Y01029848D02*
X00109965Y01029848D01*
X00114002Y01039846D02*
X00087500Y01039846D01*
X00087500Y01049845D02*
X00316000Y01049845D01*
X00316000Y01059844D02*
X00224253Y01059844D01*
X00224167Y01059757D02*
X00226960Y01062550D01*
X00228934Y01065970D01*
X00229957Y01069785D01*
X00229957Y01090756D01*
X00175961Y01090756D01*
X00175961Y01100756D01*
X00229957Y01100756D01*
X00229957Y01121727D01*
X00228934Y01125542D01*
X00226960Y01128962D01*
X00224167Y01131755D01*
X00220746Y01133730D01*
X00216931Y01134752D01*
X00175960Y01134752D01*
X00175960Y01100756D01*
X00165961Y01100756D01*
X00165961Y01134752D01*
X00124990Y01134752D01*
X00121175Y01133730D01*
X00117754Y01131755D01*
X00114962Y01128962D01*
X00112987Y01125542D01*
X00111965Y01121727D01*
X00111964Y01100756D01*
X00165960Y01100756D01*
X00165960Y01090756D01*
X00111965Y01090756D01*
X00111965Y01069785D01*
X00112987Y01065970D01*
X00114962Y01062550D01*
X00117754Y01059757D01*
X00121175Y01057782D01*
X00124990Y01056760D01*
X00165961Y01056760D01*
X00165961Y01090755D01*
X00175960Y01090755D01*
X00175960Y01056760D01*
X00216931Y01056760D01*
X00220746Y01057782D01*
X00224167Y01059757D01*
X00229957Y01069842D02*
X00316000Y01069842D01*
X00316000Y01079841D02*
X00229957Y01079841D01*
X00229957Y01089839D02*
X00316000Y01089839D01*
X00316000Y01099838D02*
X00175961Y01099838D01*
X00175960Y01109836D02*
X00165961Y01109836D01*
X00165960Y01099838D02*
X00087500Y01099838D01*
X00087500Y01109836D02*
X00111965Y01109836D01*
X00111965Y01119835D02*
X00087500Y01119835D01*
X00087500Y01129833D02*
X00115833Y01129833D01*
X00111965Y01089839D02*
X00087500Y01089839D01*
X00087500Y01079841D02*
X00111965Y01079841D01*
X00111965Y01069842D02*
X00087500Y01069842D01*
X00087500Y01059844D02*
X00117668Y01059844D01*
X00165961Y01059844D02*
X00175960Y01059844D01*
X00175960Y01069842D02*
X00165961Y01069842D01*
X00165961Y01079841D02*
X00175960Y01079841D01*
X00175960Y01089839D02*
X00165961Y01089839D01*
X00165961Y01119835D02*
X00175960Y01119835D01*
X00175960Y01129833D02*
X00165961Y01129833D01*
X00192887Y01183117D02*
X00196702Y01182094D01*
X00225173Y01182094D01*
X00225173Y01227527D01*
X00235173Y01227527D01*
X00235173Y01182094D01*
X00263644Y01182094D01*
X00267459Y01183117D01*
X00270879Y01185092D01*
X00273672Y01187884D01*
X00275647Y01191305D01*
X00276669Y01195120D01*
X00276669Y01227528D01*
X00235174Y01227528D01*
X00235174Y01237527D01*
X00276669Y01237527D01*
X00276669Y01269935D01*
X00275647Y01273750D01*
X00273672Y01277171D01*
X00270879Y01279963D01*
X00267459Y01281938D01*
X00263644Y01282961D01*
X00235173Y01282961D01*
X00235173Y01237528D01*
X00225173Y01237528D01*
X00225173Y01282961D01*
X00196702Y01282961D01*
X00192887Y01281938D01*
X00189467Y01279963D01*
X00186674Y01277171D01*
X00184699Y01273750D01*
X00183677Y01269935D01*
X00183677Y01237527D01*
X00225173Y01237527D01*
X00225173Y01227528D01*
X00183677Y01227528D01*
X00183677Y01195120D01*
X00184699Y01191305D01*
X00186674Y01187884D01*
X00189467Y01185092D01*
X00192887Y01183117D01*
X00185554Y01189824D02*
X00087500Y01189824D01*
X00087500Y01179826D02*
X00316000Y01179826D01*
X00316000Y01169827D02*
X00087500Y01169827D01*
X00087500Y01159829D02*
X00316000Y01159829D01*
X00316000Y01149830D02*
X00087500Y01149830D01*
X00087500Y01139832D02*
X00316000Y01139832D01*
X00316000Y01129833D02*
X00226088Y01129833D01*
X00229957Y01119835D02*
X00316000Y01119835D01*
X00316000Y01109836D02*
X00229957Y01109836D01*
X00225173Y01189824D02*
X00235173Y01189824D01*
X00235173Y01199823D02*
X00225173Y01199823D01*
X00225173Y01209821D02*
X00235173Y01209821D01*
X00235173Y01219820D02*
X00225173Y01219820D01*
X00225173Y01229818D02*
X00087500Y01229818D01*
X00087500Y01219820D02*
X00183677Y01219820D01*
X00183677Y01209821D02*
X00087500Y01209821D01*
X00087500Y01199823D02*
X00183677Y01199823D01*
X00183677Y01239817D02*
X00087500Y01239817D01*
X00087500Y01249815D02*
X00183677Y01249815D01*
X00183677Y01259814D02*
X00087500Y01259814D01*
X00087500Y01269813D02*
X00183677Y01269813D01*
X00189314Y01279811D02*
X00087500Y01279811D01*
X00087500Y01289810D02*
X00365165Y01289810D01*
X00375163Y01299808D02*
X00087500Y01299808D01*
X00087500Y01309807D02*
X00385162Y01309807D01*
X00395160Y01319805D02*
X00087500Y01319805D01*
X00087500Y01329804D02*
X00405159Y01329804D01*
X00415157Y01339802D02*
X00087500Y01339802D01*
X00087500Y01349801D02*
X00425156Y01349801D01*
X00435154Y01359799D02*
X00087500Y01359799D01*
X00087500Y01369798D02*
X00445153Y01369798D01*
X00455151Y01379796D02*
X00087500Y01379796D01*
X00087500Y01389795D02*
X00465150Y01389795D01*
X00475148Y01399793D02*
X00087500Y01399793D01*
X00087500Y01409792D02*
X00485147Y01409792D01*
X00495145Y01419790D02*
X00087500Y01419790D01*
X00087500Y01429789D02*
X00502627Y01429789D01*
X00502627Y01439787D02*
X00423681Y01439787D01*
X00439345Y01449786D02*
X00502627Y01449786D01*
X00502627Y01459784D02*
X00446041Y01459784D01*
X00449311Y01469783D02*
X00502627Y01469783D01*
X00502627Y01479781D02*
X00449311Y01479781D01*
X00446222Y01489780D02*
X00502627Y01489780D01*
X00502627Y01499779D02*
X00439780Y01499779D01*
X00434500Y01509777D02*
X00488098Y01509777D01*
X00485005Y01519776D02*
X00434500Y01519776D01*
X00434500Y01529774D02*
X00485005Y01529774D01*
X00486014Y01539773D02*
X00434500Y01539773D01*
X00434500Y01549771D02*
X00487005Y01549771D01*
X00485005Y01559770D02*
X00434500Y01559770D01*
X00434500Y01569768D02*
X00485005Y01569768D01*
X00485005Y01579767D02*
X00435879Y01579767D01*
X00445878Y01589765D02*
X00485005Y01589765D01*
X00486950Y01599764D02*
X00455876Y01599764D01*
X00449242Y01624242D02*
X00412500Y01587500D01*
X00412500Y01475000D01*
X00401319Y01439787D02*
X00361181Y01439787D01*
X00376845Y01449786D02*
X00385655Y01449786D01*
X00350000Y01475000D02*
X00350000Y01625000D01*
X00368927Y01643927D01*
X00525627Y01643927D01*
X00525627Y01624242D02*
X00449242Y01624242D01*
X00525627Y01604557D02*
X00576943Y01604557D01*
X00578500Y01603000D01*
X00587500Y01599500D02*
X00591000Y01603000D01*
X00587500Y01599500D02*
X00587500Y01562500D01*
X00570502Y01545502D01*
X00525627Y01545502D01*
X00560998Y01545502D01*
X00566000Y01540500D01*
X00572840Y01539773D02*
X00717194Y01539773D01*
X00717194Y01549771D02*
X00564249Y01549771D01*
X00564249Y01550240D02*
X00566249Y01552240D01*
X00566249Y01597819D01*
X00564249Y01599819D01*
X00564249Y01604557D01*
X00559512Y01604557D01*
X00559511Y01604557D01*
X00559512Y01604558D01*
X00564249Y01604558D01*
X00564249Y01609295D01*
X00566249Y01611295D01*
X00566249Y01796638D01*
X00619000Y01743887D01*
X00619000Y01692775D01*
X00611462Y01685237D01*
X00606157Y01672431D01*
X00606157Y01658569D01*
X00611462Y01645763D01*
X00621263Y01635962D01*
X00634069Y01630657D01*
X00647931Y01630657D01*
X00660737Y01635962D01*
X00670538Y01645763D01*
X00675842Y01658569D01*
X00675842Y01672431D01*
X00670538Y01685237D01*
X00663000Y01692775D01*
X00663000Y01762113D01*
X00655818Y01769294D01*
X00661852Y01771793D01*
X00672207Y01782148D01*
X00677811Y01795678D01*
X00677811Y01810322D01*
X00672207Y01823852D01*
X00663769Y01832290D01*
X00663769Y01857242D01*
X00910622Y01857242D01*
X00920580Y01867201D01*
X00920580Y01928528D01*
X00910622Y01938486D01*
X00825761Y01938486D01*
X00833038Y01945763D01*
X00838342Y01958569D01*
X00838342Y01972431D01*
X00833038Y01985237D01*
X00823237Y01995038D01*
X00810431Y02000342D01*
X00796569Y02000342D01*
X00783763Y01995038D01*
X00776225Y01987500D01*
X00755775Y01987500D01*
X00748237Y01995038D01*
X00735431Y02000342D01*
X00725842Y02000342D01*
X00725842Y02009931D01*
X00720538Y02022737D01*
X00710737Y02032538D01*
X00697931Y02037842D01*
X00684069Y02037842D01*
X00671263Y02032538D01*
X00666000Y02027275D01*
X00660737Y02032538D01*
X00647931Y02037842D01*
X00634069Y02037842D01*
X00621263Y02032538D01*
X00611462Y02022737D01*
X00606157Y02009931D01*
X00606157Y01996069D01*
X00611462Y01983263D01*
X00621263Y01973462D01*
X00634069Y01968157D01*
X00639454Y01968157D01*
X00639454Y01938486D01*
X00628822Y01938486D01*
X00626822Y01936486D01*
X00622085Y01936486D01*
X00622085Y01931749D01*
X00622084Y01931748D01*
X00622083Y01931749D01*
X00622083Y01936486D01*
X00617346Y01936486D01*
X00615346Y01938486D01*
X00609518Y01938486D01*
X00588342Y01954368D01*
X00588342Y01959931D01*
X00583038Y01972737D01*
X00573237Y01982538D01*
X00560431Y01987842D01*
X00546569Y01987842D01*
X00533763Y01982538D01*
X00523962Y01972737D01*
X00518657Y01959931D01*
X00518657Y01946069D01*
X00523962Y01933263D01*
X00533763Y01923462D01*
X00536323Y01922402D01*
X00531157Y01909931D01*
X00531157Y01896069D01*
X00536462Y01883263D01*
X00546263Y01873462D01*
X00559069Y01868157D01*
X00572931Y01868157D01*
X00579493Y01870876D01*
X00579493Y01867201D01*
X00589452Y01857242D01*
X00615346Y01857242D01*
X00617346Y01859242D01*
X00619769Y01859242D01*
X00619769Y01833828D01*
X00609793Y01823852D01*
X00607294Y01817818D01*
X00582020Y01843093D01*
X00557196Y01843093D01*
X00556291Y01843998D01*
X00494964Y01843998D01*
X00485005Y01834040D01*
X00485005Y01784038D01*
X00177925Y01784038D01*
X00090887Y01697000D01*
X00087500Y01693612D01*
X00087500Y02577145D01*
X00122855Y02612500D01*
X00177547Y02612500D01*
X00177547Y02554112D01*
X00187506Y02544154D01*
X00248833Y02544154D01*
X00258791Y02554112D01*
X00258791Y02561776D01*
X00699697Y02561776D01*
X00743000Y02518473D01*
X00743000Y02297166D01*
X00727748Y02303484D01*
X00709567Y02303484D01*
X00692770Y02296527D01*
X00679914Y02283671D01*
X00679287Y02282157D01*
X00678660Y02283671D01*
X00665805Y02296527D01*
X00649008Y02303484D01*
X00630827Y02303484D01*
X00614030Y02296527D01*
X00601174Y02283671D01*
X00594217Y02266874D01*
X00594217Y02191291D01*
X00601174Y02174494D01*
X00614030Y02161639D01*
X00630827Y02154681D01*
X00649008Y02154681D01*
X00665805Y02161639D01*
X00678660Y02174494D01*
X00679287Y02176008D01*
X00679914Y02174494D01*
X00692770Y02161639D01*
X00709567Y02154681D01*
X00727748Y02154681D01*
X00735489Y02157888D01*
X00731157Y02147431D01*
X00731157Y02133569D01*
X00736462Y02120763D01*
X00746263Y02110962D01*
X00759069Y02105657D01*
X00772931Y02105657D01*
X00785737Y02110962D01*
X00795538Y02120763D01*
X00800842Y02133569D01*
X00800842Y02147431D01*
X00795736Y02159758D01*
X00807992Y02154681D01*
X00826173Y02154681D01*
X00842970Y02161639D01*
X00855826Y02174494D01*
X00862783Y02191291D01*
X00862783Y02204083D01*
X01067062Y02204083D01*
X01141000Y02130145D01*
X01141000Y01803844D01*
X01130998Y01813846D01*
X01093719Y01813846D01*
X01067358Y01787486D01*
X01067358Y01750207D01*
X01093719Y01723846D01*
X01130998Y01723846D01*
X01141000Y01733849D01*
X01141000Y01703844D01*
X01130998Y01713846D01*
X01093719Y01713846D01*
X01067823Y01687951D01*
X01063000Y01692775D01*
X01063000Y01794387D01*
X01087613Y01819000D01*
X01100500Y01831887D01*
X01100500Y01875725D01*
X01108038Y01883263D01*
X01113342Y01896069D01*
X01113342Y01909931D01*
X01108038Y01922737D01*
X01098237Y01932538D01*
X01085431Y01937842D01*
X01071569Y01937842D01*
X01058763Y01932538D01*
X01048962Y01922737D01*
X01043657Y01909931D01*
X01043657Y01896069D01*
X01047065Y01887842D01*
X01034069Y01887842D01*
X01021263Y01882538D01*
X01011462Y01872737D01*
X01006157Y01859931D01*
X01006157Y01849270D01*
X01000886Y01843998D01*
X00943782Y01843998D01*
X00933824Y01834040D01*
X00933824Y01808146D01*
X00935824Y01806146D01*
X00935824Y01803773D01*
X00929870Y01803875D01*
X00929712Y01803723D01*
X00929492Y01803723D01*
X00923180Y01797411D01*
X00887604Y01763034D01*
X00886782Y01763034D01*
X00873253Y01757430D01*
X00862898Y01747074D01*
X00857294Y01733545D01*
X00857294Y01718900D01*
X00862898Y01705371D01*
X00873253Y01695016D01*
X00886782Y01689412D01*
X00901427Y01689412D01*
X00914956Y01695016D01*
X00925311Y01705371D01*
X00930915Y01718900D01*
X00930915Y01733545D01*
X00927911Y01740797D01*
X00933824Y01746511D01*
X00933824Y01588187D01*
X00880660Y01588187D01*
X00867187Y01574714D01*
X00815619Y01523146D01*
X00815619Y01487667D01*
X00814196Y01487667D01*
X00812196Y01489667D01*
X00763194Y01489667D01*
X00763194Y01788419D01*
X00770538Y01795763D01*
X00775842Y01808569D01*
X00775842Y01822431D01*
X00770538Y01835237D01*
X00760737Y01845038D01*
X00747931Y01850342D01*
X00734069Y01850342D01*
X00721263Y01845038D01*
X00711462Y01835237D01*
X00706157Y01822431D01*
X00706157Y01808569D01*
X00711462Y01795763D01*
X00717194Y01790031D01*
X00717194Y01489667D01*
X00589452Y01489667D01*
X00588000Y01488215D01*
X00588000Y01524613D01*
X00577683Y01534930D01*
X00564796Y01547817D01*
X00564249Y01547817D01*
X00564249Y01550240D01*
X00566249Y01559770D02*
X00717194Y01559770D01*
X00717194Y01569768D02*
X00566249Y01569768D01*
X00566249Y01579767D02*
X00717194Y01579767D01*
X00717194Y01589765D02*
X00566249Y01589765D01*
X00564305Y01599764D02*
X00717194Y01599764D01*
X00717194Y01609762D02*
X00564716Y01609762D01*
X00566249Y01619761D02*
X00717194Y01619761D01*
X00717194Y01629759D02*
X00566249Y01629759D01*
X00566249Y01639758D02*
X00617467Y01639758D01*
X00609808Y01649756D02*
X00566249Y01649756D01*
X00566249Y01659755D02*
X00606157Y01659755D01*
X00606157Y01669753D02*
X00566249Y01669753D01*
X00566249Y01679752D02*
X00609190Y01679752D01*
X00615976Y01689750D02*
X00566249Y01689750D01*
X00566249Y01699749D02*
X00619000Y01699749D01*
X00619000Y01709748D02*
X00566249Y01709748D01*
X00566249Y01719746D02*
X00619000Y01719746D01*
X00619000Y01729745D02*
X00566249Y01729745D01*
X00566249Y01739743D02*
X00619000Y01739743D01*
X00613146Y01749742D02*
X00566249Y01749742D01*
X00566249Y01759740D02*
X00603147Y01759740D01*
X00593148Y01769739D02*
X00566249Y01769739D01*
X00566249Y01779737D02*
X00583150Y01779737D01*
X00573151Y01789736D02*
X00566249Y01789736D01*
X00572907Y01821093D02*
X00641000Y01753000D01*
X00641000Y01665500D01*
X00666024Y01689750D02*
X00717194Y01689750D01*
X00717194Y01679752D02*
X00672810Y01679752D01*
X00675842Y01669753D02*
X00717194Y01669753D01*
X00717194Y01659755D02*
X00675842Y01659755D01*
X00672192Y01649756D02*
X00717194Y01649756D01*
X00717194Y01639758D02*
X00664533Y01639758D01*
X00663000Y01699749D02*
X00717194Y01699749D01*
X00717194Y01709748D02*
X00663000Y01709748D01*
X00663000Y01719746D02*
X00717194Y01719746D01*
X00717194Y01729745D02*
X00663000Y01729745D01*
X00663000Y01739743D02*
X00717194Y01739743D01*
X00717194Y01749742D02*
X00663000Y01749742D01*
X00663000Y01759740D02*
X00717194Y01759740D01*
X00717194Y01769739D02*
X00656892Y01769739D01*
X00669796Y01779737D02*
X00717194Y01779737D01*
X00717194Y01789736D02*
X00675350Y01789736D01*
X00677811Y01799734D02*
X00709817Y01799734D01*
X00706157Y01809733D02*
X00677811Y01809733D01*
X00673914Y01819731D02*
X00706157Y01819731D01*
X00709181Y01829730D02*
X00666329Y01829730D01*
X00663769Y01839728D02*
X00715954Y01839728D01*
X00732583Y01849727D02*
X00663769Y01849727D01*
X00641769Y01816269D02*
X00641769Y01897864D01*
X00622084Y01897864D02*
X00622084Y01859084D01*
X00603500Y01840500D01*
X00595383Y01829730D02*
X00615671Y01829730D01*
X00619769Y01839728D02*
X00585384Y01839728D01*
X00586969Y01859725D02*
X00087500Y01859725D01*
X00087500Y01849727D02*
X00619769Y01849727D01*
X00608086Y01819731D02*
X00605381Y01819731D01*
X00641769Y01816269D02*
X00641000Y01803000D01*
X00661454Y01897864D02*
X00661454Y01982546D01*
X00641000Y02003000D01*
X00618426Y02029700D02*
X00087500Y02029700D01*
X00087500Y02019702D02*
X00610205Y02019702D01*
X00606157Y02009703D02*
X00087500Y02009703D01*
X00087500Y01999705D02*
X00606157Y01999705D01*
X00608793Y01989706D02*
X00087500Y01989706D01*
X00087500Y01979708D02*
X00530933Y01979708D01*
X00522708Y01969709D02*
X00087500Y01969709D01*
X00087500Y01959711D02*
X00518657Y01959711D01*
X00518657Y01949712D02*
X00087500Y01949712D01*
X00087500Y01939714D02*
X00521290Y01939714D01*
X00527510Y01929715D02*
X00087500Y01929715D01*
X00087500Y01919717D02*
X00535211Y01919717D01*
X00531157Y01909718D02*
X00087500Y01909718D01*
X00087500Y01899719D02*
X00531157Y01899719D01*
X00533787Y01889721D02*
X00087500Y01889721D01*
X00087500Y01879722D02*
X00540003Y01879722D01*
X00555288Y01869724D02*
X00087500Y01869724D01*
X00087500Y01839728D02*
X00490694Y01839728D01*
X00485005Y01829730D02*
X00087500Y01829730D01*
X00087500Y01819731D02*
X00485005Y01819731D01*
X00485005Y01809733D02*
X00087500Y01809733D01*
X00087500Y01799734D02*
X00485005Y01799734D01*
X00485005Y01789736D02*
X00087500Y01789736D01*
X00087500Y01779737D02*
X00173625Y01779737D01*
X00163626Y01769739D02*
X00087500Y01769739D01*
X00087500Y01759740D02*
X00153627Y01759740D01*
X00143629Y01749742D02*
X00087500Y01749742D01*
X00087500Y01739743D02*
X00133630Y01739743D01*
X00123632Y01729745D02*
X00087500Y01729745D01*
X00087500Y01719746D02*
X00113633Y01719746D01*
X00103635Y01709748D02*
X00087500Y01709748D01*
X00087500Y01699749D02*
X00093636Y01699749D01*
X00100000Y01675000D02*
X00100000Y01475000D01*
X00111181Y01439787D02*
X00138819Y01439787D01*
X00150000Y01475000D02*
X00150000Y01675000D01*
X00217353Y01742353D01*
X00525627Y01742353D01*
X00525627Y01762038D02*
X00187038Y01762038D01*
X00100000Y01675000D01*
X00200000Y01650000D02*
X00200000Y01475000D01*
X00211181Y01439787D02*
X00238819Y01439787D01*
X00250000Y01475000D02*
X00250000Y01637500D01*
X00295797Y01683297D01*
X00525627Y01683297D01*
X00525627Y01663612D02*
X00326112Y01663612D01*
X00300000Y01637500D01*
X00300000Y01475000D01*
X00311181Y01439787D02*
X00338819Y01439787D01*
X00288819Y01439787D02*
X00261181Y01439787D01*
X00188819Y01439787D02*
X00161181Y01439787D01*
X00088819Y01439787D02*
X00087500Y01439787D01*
X00200000Y01650000D02*
X00252983Y01702983D01*
X00525627Y01702983D01*
X00525627Y01821093D02*
X00572907Y01821093D01*
X00576712Y01869724D02*
X00579493Y01869724D01*
X00566000Y01903000D02*
X00597263Y01903000D01*
X00602399Y01897864D01*
X00603500Y01896763D01*
X00603500Y01915500D01*
X00553500Y01953000D01*
X00576067Y01979708D02*
X00615017Y01979708D01*
X00630323Y01969709D02*
X00584292Y01969709D01*
X00588342Y01959711D02*
X00639454Y01959711D01*
X00639454Y01949712D02*
X00594550Y01949712D01*
X00607882Y01939714D02*
X00639454Y01939714D01*
X00681139Y01897864D02*
X00681139Y01993139D01*
X00691000Y02003000D01*
X00713574Y02029700D02*
X01141000Y02029700D01*
X01141000Y02019702D02*
X00721795Y02019702D01*
X00725842Y02009703D02*
X01141000Y02009703D01*
X01141000Y01999705D02*
X00811970Y01999705D01*
X00795030Y01999705D02*
X00736970Y01999705D01*
X00753568Y01989706D02*
X00778431Y01989706D01*
X00803500Y01965500D02*
X00728500Y01965500D01*
X00668426Y02029700D02*
X00663574Y02029700D01*
X00731157Y02139684D02*
X00087500Y02139684D01*
X00087500Y02149683D02*
X00732090Y02149683D01*
X00732766Y02129686D02*
X00087500Y02129686D01*
X00087500Y02119687D02*
X00737538Y02119687D01*
X00749337Y02109688D02*
X00087500Y02109688D01*
X00087500Y02099690D02*
X01141000Y02099690D01*
X01141000Y02109688D02*
X00782662Y02109688D01*
X00794462Y02119687D02*
X01141000Y02119687D01*
X01141000Y02129686D02*
X00799234Y02129686D01*
X00800842Y02139684D02*
X01131461Y02139684D01*
X01121462Y02149683D02*
X00799910Y02149683D01*
X00795921Y02159681D02*
X00795768Y02159681D01*
X00838244Y02159681D02*
X01111463Y02159681D01*
X01101465Y02169680D02*
X00851011Y02169680D01*
X00857973Y02179678D02*
X01091466Y02179678D01*
X01081468Y02189677D02*
X00862114Y02189677D01*
X00862783Y02199675D02*
X01071469Y02199675D01*
X01102186Y02239669D02*
X01208142Y02239669D01*
X01198144Y02249668D02*
X01092187Y02249668D01*
X01112184Y02229671D02*
X01218141Y02229671D01*
X01228139Y02219672D02*
X01122183Y02219672D01*
X01132181Y02209674D02*
X01238138Y02209674D01*
X01243000Y02199675D02*
X01142180Y02199675D01*
X01152179Y02189677D02*
X01243000Y02189677D01*
X01243000Y02179678D02*
X01162177Y02179678D01*
X01172176Y02169680D02*
X01243000Y02169680D01*
X01243000Y02159681D02*
X01182174Y02159681D01*
X01189256Y02149683D02*
X01243000Y02149683D01*
X01243000Y02139684D02*
X01191000Y02139684D01*
X01191000Y02129686D02*
X01243000Y02129686D01*
X01243000Y02119687D02*
X01191000Y02119687D01*
X01191000Y02109688D02*
X01243000Y02109688D01*
X01243000Y02099690D02*
X01191000Y02099690D01*
X01191000Y02089691D02*
X01243000Y02089691D01*
X01243000Y02079693D02*
X01191000Y02079693D01*
X01191000Y02069694D02*
X01243000Y02069694D01*
X01243000Y02059696D02*
X01191000Y02059696D01*
X01191000Y02049697D02*
X01243000Y02049697D01*
X01243000Y02039699D02*
X01191000Y02039699D01*
X01191000Y02029700D02*
X01243000Y02029700D01*
X01243000Y02019702D02*
X01191000Y02019702D01*
X01191000Y02009703D02*
X01243000Y02009703D01*
X01243000Y01999705D02*
X01191000Y01999705D01*
X01191000Y01989706D02*
X01243000Y01989706D01*
X01243000Y01979708D02*
X01191000Y01979708D01*
X01191000Y01969709D02*
X01243000Y01969709D01*
X01243000Y01959711D02*
X01191000Y01959711D01*
X01191000Y01949712D02*
X01243000Y01949712D01*
X01243000Y01939714D02*
X01191000Y01939714D01*
X01191000Y01929715D02*
X01243000Y01929715D01*
X01243000Y01919717D02*
X01191000Y01919717D01*
X01191000Y01909718D02*
X01243000Y01909718D01*
X01243000Y01899719D02*
X01191000Y01899719D01*
X01191000Y01889721D02*
X01243000Y01889721D01*
X01243000Y01879722D02*
X01191000Y01879722D01*
X01191000Y01869724D02*
X01243000Y01869724D01*
X01243000Y01859725D02*
X01191000Y01859725D01*
X01191000Y01849727D02*
X01243000Y01849727D01*
X01243000Y01839728D02*
X01191000Y01839728D01*
X01191000Y01829730D02*
X01243000Y01829730D01*
X01243000Y01819731D02*
X01191000Y01819731D01*
X01235111Y01809733D02*
X01243000Y01809733D01*
X01289000Y01809733D02*
X01350209Y01809733D01*
X01350209Y01819731D02*
X01289000Y01819731D01*
X01289000Y01829730D02*
X01350209Y01829730D01*
X01350209Y01839728D02*
X01289000Y01839728D01*
X01289000Y01849727D02*
X01350209Y01849727D01*
X01350209Y01859725D02*
X01289000Y01859725D01*
X01289000Y01869724D02*
X01350209Y01869724D01*
X01350209Y01879722D02*
X01289000Y01879722D01*
X01289000Y01889721D02*
X01350209Y01889721D01*
X01350209Y01899719D02*
X01289000Y01899719D01*
X01289000Y01909718D02*
X01350209Y01909718D01*
X01350209Y01919717D02*
X01289000Y01919717D01*
X01289000Y01929715D02*
X01350209Y01929715D01*
X01350209Y01939714D02*
X01289000Y01939714D01*
X01289000Y01949712D02*
X01350209Y01949712D01*
X01350209Y01959711D02*
X01289000Y01959711D01*
X01289000Y01969709D02*
X01350209Y01969709D01*
X01350209Y01979708D02*
X01289000Y01979708D01*
X01289000Y01989706D02*
X01350209Y01989706D01*
X01350209Y01999705D02*
X01289000Y01999705D01*
X01289000Y02009703D02*
X01350209Y02009703D01*
X01350209Y02019702D02*
X01289000Y02019702D01*
X01289000Y02029700D02*
X01350209Y02029700D01*
X01350209Y02039699D02*
X01289000Y02039699D01*
X01289000Y02049697D02*
X01350209Y02049697D01*
X01350209Y02059696D02*
X01289000Y02059696D01*
X01289000Y02069694D02*
X01350209Y02069694D01*
X01350209Y02079693D02*
X01289000Y02079693D01*
X01289000Y02089691D02*
X01350209Y02089691D01*
X01350209Y02099690D02*
X01289000Y02099690D01*
X01289000Y02109688D02*
X01350209Y02109688D01*
X01350209Y02119687D02*
X01289000Y02119687D01*
X01289000Y02129686D02*
X01350209Y02129686D01*
X01350209Y02139684D02*
X01289000Y02139684D01*
X01289000Y02149683D02*
X01350209Y02149683D01*
X01350209Y02159681D02*
X01289000Y02159681D01*
X01289000Y02169680D02*
X01350209Y02169680D01*
X01350209Y02179678D02*
X01289000Y02179678D01*
X01289000Y02189677D02*
X01350209Y02189677D01*
X01350209Y02199675D02*
X01289000Y02199675D01*
X01289000Y02209674D02*
X01350209Y02209674D01*
X01350209Y02219672D02*
X01289000Y02219672D01*
X01283195Y02229671D02*
X01350209Y02229671D01*
X01350209Y02239669D02*
X01273196Y02239669D01*
X01263197Y02249668D02*
X01350209Y02249668D01*
X01350209Y02259666D02*
X01253199Y02259666D01*
X01243200Y02269665D02*
X01350209Y02269665D01*
X01350209Y02279663D02*
X01233202Y02279663D01*
X01223203Y02289662D02*
X01350209Y02289662D01*
X01350209Y02299660D02*
X01213205Y02299660D01*
X01203206Y02309659D02*
X01350209Y02309659D01*
X01350209Y02319657D02*
X01193208Y02319657D01*
X01183209Y02329656D02*
X01350209Y02329656D01*
X01350209Y02339655D02*
X01181689Y02339655D01*
X01181689Y02349653D02*
X01350209Y02349653D01*
X01350209Y02359652D02*
X01181689Y02359652D01*
X01176069Y02369650D02*
X01350209Y02369650D01*
X01350209Y02379649D02*
X01181689Y02379649D01*
X01181689Y02389647D02*
X01350209Y02389647D01*
X01350209Y02399646D02*
X01181689Y02399646D01*
X01181689Y02409644D02*
X01350209Y02409644D01*
X01350209Y02419643D02*
X01181689Y02419643D01*
X01181689Y02429641D02*
X01350209Y02429641D01*
X01350209Y02439640D02*
X01173008Y02439640D01*
X01137890Y02469635D02*
X01350209Y02469635D01*
X01350209Y02459637D02*
X01121067Y02459637D01*
X01128742Y02449638D02*
X01350209Y02449638D01*
X01350209Y02479634D02*
X01139689Y02479634D01*
X01139689Y02489632D02*
X01350209Y02489632D01*
X01350209Y02499631D02*
X01139689Y02499631D01*
X01139689Y02509629D02*
X01350209Y02509629D01*
X01350209Y02519628D02*
X01139689Y02519628D01*
X01139689Y02529626D02*
X01350209Y02529626D01*
X01350209Y02539625D02*
X01132826Y02539625D01*
X01128479Y02547176D02*
X01131899Y02549151D01*
X01134692Y02551943D01*
X01136667Y02555364D01*
X01137689Y02559179D01*
X01137689Y02579776D01*
X01104067Y02579776D01*
X01104067Y02589775D01*
X01137689Y02589775D01*
X01137689Y02610372D01*
X01136667Y02614187D01*
X01134692Y02617608D01*
X01131899Y02620400D01*
X01128479Y02622375D01*
X01124664Y02623398D01*
X01104067Y02623398D01*
X01104067Y02589776D01*
X01094067Y02589776D01*
X01094067Y02623398D01*
X01073470Y02623398D01*
X01069655Y02622375D01*
X01066235Y02620400D01*
X01063442Y02617608D01*
X01061467Y02614187D01*
X01060445Y02610372D01*
X01060445Y02589775D01*
X01094066Y02589775D01*
X01094066Y02579776D01*
X01060445Y02579776D01*
X01060445Y02559179D01*
X01061467Y02555364D01*
X01063442Y02551943D01*
X01066235Y02549151D01*
X01069655Y02547176D01*
X01073470Y02546154D01*
X01094067Y02546154D01*
X01094067Y02579775D01*
X01104067Y02579775D01*
X01104067Y02546154D01*
X01124664Y02546154D01*
X01128479Y02547176D01*
X01132372Y02549624D02*
X01350209Y02549624D01*
X01350209Y02559622D02*
X01137689Y02559622D01*
X01137689Y02569621D02*
X01350209Y02569621D01*
X01350209Y02579619D02*
X01137689Y02579619D01*
X01137689Y02599616D02*
X01350209Y02599616D01*
X01350209Y02589618D02*
X01104067Y02589618D01*
X01104067Y02599616D02*
X01094067Y02599616D01*
X01094066Y02589618D02*
X00833238Y02589618D01*
X00840331Y02579619D02*
X01060445Y02579619D01*
X01060445Y02569621D02*
X00842083Y02569621D01*
X00842083Y02559622D02*
X01060445Y02559622D01*
X01065762Y02549624D02*
X00842083Y02549624D01*
X00842083Y02539625D02*
X01065308Y02539625D01*
X01058445Y02529626D02*
X00842083Y02529626D01*
X00842083Y02519628D02*
X01058445Y02519628D01*
X01058445Y02509629D02*
X00842083Y02509629D01*
X00842083Y02499631D02*
X01058445Y02499631D01*
X01058445Y02489632D02*
X00842083Y02489632D01*
X00842083Y02479634D02*
X01058445Y02479634D01*
X01060244Y02469635D02*
X00842083Y02469635D01*
X00842083Y02459637D02*
X01077067Y02459637D01*
X01077067Y02449638D02*
X00842083Y02449638D01*
X00842083Y02439640D02*
X01077067Y02439640D01*
X01086514Y02429641D02*
X00842083Y02429641D01*
X00842083Y02419643D02*
X01096512Y02419643D01*
X01104382Y02409644D02*
X00974610Y02409644D01*
X00990434Y02399646D02*
X01104382Y02399646D01*
X01104382Y02389647D02*
X01000432Y02389647D01*
X01008830Y02379649D02*
X01104382Y02379649D01*
X01110002Y02369650D02*
X01012972Y02369650D01*
X01017113Y02359652D02*
X01104382Y02359652D01*
X01104382Y02349653D02*
X01020224Y02349653D01*
X01020224Y02339655D02*
X01104382Y02339655D01*
X01104382Y02329656D02*
X01020224Y02329656D01*
X01020224Y02319657D02*
X01104382Y02319657D01*
X01105299Y02309659D02*
X01016185Y02309659D01*
X01012044Y02299660D02*
X01148151Y02299660D01*
X01158150Y02289662D02*
X01007902Y02289662D01*
X00998192Y02279663D02*
X01168148Y02279663D01*
X01178147Y02269665D02*
X00988193Y02269665D01*
X00969201Y02259666D02*
X01188145Y02259666D01*
X01143035Y02404232D02*
X01099067Y02448201D01*
X01099067Y02502098D01*
X01094067Y02549624D02*
X01104067Y02549624D01*
X01104067Y02559622D02*
X01094067Y02559622D01*
X01094067Y02569621D02*
X01104067Y02569621D01*
X01104067Y02579619D02*
X01094067Y02579619D01*
X01094067Y02609615D02*
X01104067Y02609615D01*
X01104067Y02619613D02*
X01094067Y02619613D01*
X01065447Y02619613D02*
X00803242Y02619613D01*
X00813241Y02609615D02*
X01060445Y02609615D01*
X01060445Y02599616D02*
X00823239Y02599616D01*
X00793243Y02629612D02*
X01350209Y02629612D01*
X01350209Y02639610D02*
X00783245Y02639610D01*
X00721848Y02539625D02*
X00251928Y02539625D01*
X00248833Y02542720D02*
X00258791Y02532762D01*
X00258791Y02471435D01*
X00248833Y02461476D01*
X00240169Y02461476D01*
X00240169Y02404127D01*
X00235264Y02399222D01*
X00235264Y02364954D01*
X00228526Y02358216D01*
X00235264Y02351479D01*
X00235264Y02337500D01*
X00251225Y02337500D01*
X00258763Y02345038D01*
X00271569Y02350342D01*
X00285431Y02350342D01*
X00298237Y02345038D01*
X00308038Y02335237D01*
X00313342Y02322431D01*
X00313342Y02308569D01*
X00308038Y02295763D01*
X00298237Y02285962D01*
X00285431Y02280657D01*
X00271569Y02280657D01*
X00258763Y02285962D01*
X00251225Y02293500D01*
X00230738Y02293500D01*
X00225305Y02288067D01*
X00167915Y02288067D01*
X00157957Y02298025D01*
X00157957Y02351479D01*
X00164695Y02358216D01*
X00157957Y02364954D01*
X00157957Y02418408D01*
X00167915Y02428366D01*
X00196169Y02428366D01*
X00196169Y02461476D01*
X00187506Y02461476D01*
X00177547Y02471435D01*
X00177547Y02532762D01*
X00187506Y02542720D01*
X00248833Y02542720D01*
X00254303Y02549624D02*
X00711850Y02549624D01*
X00701851Y02559622D02*
X00258791Y02559622D01*
X00258791Y02529626D02*
X00731847Y02529626D01*
X00741845Y02519628D02*
X00258791Y02519628D01*
X00258791Y02509629D02*
X00743000Y02509629D01*
X00743000Y02499631D02*
X00258791Y02499631D01*
X00258791Y02489632D02*
X00743000Y02489632D01*
X00743000Y02479634D02*
X00258791Y02479634D01*
X00256992Y02469635D02*
X00743000Y02469635D01*
X00743000Y02459637D02*
X00240169Y02459637D01*
X00240169Y02449638D02*
X00743000Y02449638D01*
X00743000Y02439640D02*
X00240169Y02439640D01*
X00240169Y02429641D02*
X00743000Y02429641D01*
X00743000Y02419643D02*
X00240169Y02419643D01*
X00240169Y02409644D02*
X00383964Y02409644D01*
X00374021Y02405525D02*
X00350876Y02382381D01*
X00338350Y02352141D01*
X00338350Y02319410D01*
X00350876Y02289170D01*
X00374021Y02266026D01*
X00404260Y02253500D01*
X00436992Y02253500D01*
X00467231Y02266026D01*
X00490376Y02289170D01*
X00502901Y02319410D01*
X00502901Y02352141D01*
X00490376Y02382381D01*
X00467231Y02405525D01*
X00436992Y02418051D01*
X00404260Y02418051D01*
X00374021Y02405525D01*
X00368141Y02399646D02*
X00235687Y02399646D01*
X00235264Y02389647D02*
X00358142Y02389647D01*
X00349744Y02379649D02*
X00235264Y02379649D01*
X00235264Y02369650D02*
X00345603Y02369650D01*
X00341461Y02359652D02*
X00229961Y02359652D01*
X00235264Y02349653D02*
X00269905Y02349653D01*
X00287095Y02349653D02*
X00338350Y02349653D01*
X00338350Y02339655D02*
X00303620Y02339655D01*
X00310350Y02329656D02*
X00338350Y02329656D01*
X00338350Y02319657D02*
X00313342Y02319657D01*
X00313342Y02309659D02*
X00342389Y02309659D01*
X00346531Y02299660D02*
X00309652Y02299660D01*
X00301937Y02289662D02*
X00350672Y02289662D01*
X00360383Y02279663D02*
X00087500Y02279663D01*
X00087500Y02269665D02*
X00370381Y02269665D01*
X00389373Y02259666D02*
X00087500Y02259666D01*
X00087500Y02249668D02*
X00497791Y02249668D01*
X00497791Y02259666D02*
X00451878Y02259666D01*
X00470870Y02269665D02*
X00499403Y02269665D01*
X00498867Y02268017D02*
X00497791Y02261223D01*
X00497791Y02233433D01*
X00537141Y02233433D01*
X00537141Y02224732D01*
X00497791Y02224732D01*
X00497791Y02196942D01*
X00498867Y02190148D01*
X00500993Y02183607D01*
X00504116Y02177478D01*
X00508159Y02171913D01*
X00513023Y02167049D01*
X00518588Y02163006D01*
X00524717Y02159883D01*
X00531259Y02157757D01*
X00537141Y02156825D01*
X00537141Y02224731D01*
X00545843Y02224731D01*
X00545843Y02156825D01*
X00551725Y02157757D01*
X00558267Y02159883D01*
X00564396Y02163006D01*
X00569961Y02167049D01*
X00574825Y02171913D01*
X00578868Y02177478D01*
X00581991Y02183607D01*
X00584117Y02190148D01*
X00585193Y02196942D01*
X00585193Y02224732D01*
X00545843Y02224732D01*
X00545843Y02233433D01*
X00585193Y02233433D01*
X00585193Y02261223D01*
X00584117Y02268017D01*
X00581991Y02274559D01*
X00578868Y02280688D01*
X00574825Y02286253D01*
X00569961Y02291117D01*
X00564396Y02295160D01*
X00558267Y02298282D01*
X00551725Y02300408D01*
X00545843Y02301340D01*
X00545843Y02233434D01*
X00537141Y02233434D01*
X00537141Y02301340D01*
X00531259Y02300408D01*
X00524717Y02298282D01*
X00518588Y02295160D01*
X00513023Y02291117D01*
X00508159Y02286253D01*
X00504116Y02280688D01*
X00500993Y02274559D01*
X00498867Y02268017D01*
X00503594Y02279663D02*
X00480869Y02279663D01*
X00490579Y02289662D02*
X00511568Y02289662D01*
X00494721Y02299660D02*
X00528958Y02299660D01*
X00537141Y02299660D02*
X00545843Y02299660D01*
X00554027Y02299660D02*
X00621596Y02299660D01*
X00607165Y02289662D02*
X00571416Y02289662D01*
X00579390Y02279663D02*
X00599514Y02279663D01*
X00595373Y02269665D02*
X00583581Y02269665D01*
X00585193Y02259666D02*
X00594217Y02259666D01*
X00594217Y02249668D02*
X00585193Y02249668D01*
X00585193Y02239669D02*
X00594217Y02239669D01*
X00594217Y02229671D02*
X00545843Y02229671D01*
X00537141Y02229671D02*
X00087500Y02229671D01*
X00087500Y02239669D02*
X00497791Y02239669D01*
X00497791Y02219672D02*
X00087500Y02219672D01*
X00087500Y02209674D02*
X00497791Y02209674D01*
X00497791Y02199675D02*
X00087500Y02199675D01*
X00087500Y02189677D02*
X00499021Y02189677D01*
X00502995Y02179678D02*
X00087500Y02179678D01*
X00087500Y02169680D02*
X00510392Y02169680D01*
X00525337Y02159681D02*
X00087500Y02159681D01*
X00087500Y02089691D02*
X01141000Y02089691D01*
X01141000Y02079693D02*
X00087500Y02079693D01*
X00087500Y02069694D02*
X01141000Y02069694D01*
X01141000Y02059696D02*
X00087500Y02059696D01*
X00087500Y02049697D02*
X01141000Y02049697D01*
X01141000Y02039699D02*
X00087500Y02039699D01*
X00087500Y02289662D02*
X00166320Y02289662D01*
X00157957Y02299660D02*
X00087500Y02299660D01*
X00087500Y02309659D02*
X00157957Y02309659D01*
X00157957Y02319657D02*
X00087500Y02319657D01*
X00087500Y02329656D02*
X00157957Y02329656D01*
X00157957Y02339655D02*
X00087500Y02339655D01*
X00087500Y02349653D02*
X00157957Y02349653D01*
X00163259Y02359652D02*
X00087500Y02359652D01*
X00087500Y02369650D02*
X00157957Y02369650D01*
X00157957Y02379649D02*
X00087500Y02379649D01*
X00087500Y02389647D02*
X00157957Y02389647D01*
X00157957Y02399646D02*
X00087500Y02399646D01*
X00087500Y02409644D02*
X00157957Y02409644D01*
X00159192Y02419643D02*
X00087500Y02419643D01*
X00087500Y02429641D02*
X00196169Y02429641D01*
X00196169Y02439640D02*
X00087500Y02439640D01*
X00087500Y02449638D02*
X00196169Y02449638D01*
X00196169Y02459637D02*
X00087500Y02459637D01*
X00087500Y02469635D02*
X00179347Y02469635D01*
X00177547Y02479634D02*
X00087500Y02479634D01*
X00087500Y02489632D02*
X00177547Y02489632D01*
X00177547Y02499631D02*
X00087500Y02499631D01*
X00087500Y02509629D02*
X00177547Y02509629D01*
X00177547Y02519628D02*
X00087500Y02519628D01*
X00087500Y02529626D02*
X00177547Y02529626D01*
X00184410Y02539625D02*
X00087500Y02539625D01*
X00087500Y02549624D02*
X00182036Y02549624D01*
X00177547Y02559622D02*
X00087500Y02559622D01*
X00087500Y02569621D02*
X00177547Y02569621D01*
X00177547Y02579619D02*
X00089974Y02579619D01*
X00099973Y02589618D02*
X00177547Y02589618D01*
X00177547Y02599616D02*
X00109971Y02599616D01*
X00119970Y02609615D02*
X00177547Y02609615D01*
X00218169Y02502098D02*
X00218169Y02413240D01*
X00196610Y02391681D01*
X00196610Y02324752D02*
X00205862Y02315500D01*
X00278500Y02315500D01*
X00253380Y02339655D02*
X00235264Y02339655D01*
X00226900Y02289662D02*
X00255063Y02289662D01*
X00457288Y02409644D02*
X00743000Y02409644D01*
X00743000Y02399646D02*
X00473111Y02399646D01*
X00483109Y02389647D02*
X00743000Y02389647D01*
X00743000Y02379649D02*
X00491508Y02379649D01*
X00495649Y02369650D02*
X00743000Y02369650D01*
X00743000Y02359652D02*
X00499791Y02359652D01*
X00502901Y02349653D02*
X00743000Y02349653D01*
X00743000Y02339655D02*
X00502901Y02339655D01*
X00502901Y02329656D02*
X00743000Y02329656D01*
X00743000Y02319657D02*
X00502901Y02319657D01*
X00498862Y02309659D02*
X00743000Y02309659D01*
X00743000Y02299660D02*
X00736979Y02299660D01*
X00700336Y02299660D02*
X00658239Y02299660D01*
X00672669Y02289662D02*
X00685905Y02289662D01*
X00684729Y02169680D02*
X00673846Y02169680D01*
X00661079Y02159681D02*
X00697496Y02159681D01*
X00618756Y02159681D02*
X00557647Y02159681D01*
X00545843Y02159681D02*
X00537141Y02159681D01*
X00537141Y02169680D02*
X00545843Y02169680D01*
X00545843Y02179678D02*
X00537141Y02179678D01*
X00537141Y02189677D02*
X00545843Y02189677D01*
X00545843Y02199675D02*
X00537141Y02199675D01*
X00537141Y02209674D02*
X00545843Y02209674D01*
X00545843Y02219672D02*
X00537141Y02219672D01*
X00537141Y02239669D02*
X00545843Y02239669D01*
X00545843Y02249668D02*
X00537141Y02249668D01*
X00537141Y02259666D02*
X00545843Y02259666D01*
X00545843Y02269665D02*
X00537141Y02269665D01*
X00537141Y02279663D02*
X00545843Y02279663D01*
X00545843Y02289662D02*
X00537141Y02289662D01*
X00585193Y02219672D02*
X00594217Y02219672D01*
X00594217Y02209674D02*
X00585193Y02209674D01*
X00585193Y02199675D02*
X00594217Y02199675D01*
X00594885Y02189677D02*
X00583963Y02189677D01*
X00579989Y02179678D02*
X00599027Y02179678D01*
X00605989Y02169680D02*
X00572592Y02169680D01*
X00749417Y01849727D02*
X01006157Y01849727D01*
X01006157Y01859725D02*
X00913105Y01859725D01*
X00920580Y01869724D02*
X01010214Y01869724D01*
X01018448Y01879722D02*
X00920580Y01879722D01*
X00920580Y01889721D02*
X01046287Y01889721D01*
X01043657Y01899719D02*
X00920580Y01899719D01*
X00920580Y01909718D02*
X01043657Y01909718D01*
X01047711Y01919717D02*
X00920580Y01919717D01*
X00919393Y01929715D02*
X01055940Y01929715D01*
X01078500Y01903000D02*
X01078500Y01841000D01*
X01041000Y01803500D01*
X01041000Y01665500D01*
X01066024Y01689750D02*
X01069623Y01689750D01*
X01063000Y01699749D02*
X01079621Y01699749D01*
X01089620Y01709748D02*
X01063000Y01709748D01*
X01063000Y01719746D02*
X01141000Y01719746D01*
X01141000Y01709748D02*
X01135097Y01709748D01*
X01136896Y01729745D02*
X01141000Y01729745D01*
X01141000Y01809733D02*
X01135111Y01809733D01*
X01141000Y01819731D02*
X01088344Y01819731D01*
X01087613Y01819000D02*
X01087613Y01819000D01*
X01089605Y01809733D02*
X01078345Y01809733D01*
X01079607Y01799734D02*
X01068347Y01799734D01*
X01069608Y01789736D02*
X01063000Y01789736D01*
X01063000Y01779737D02*
X01067358Y01779737D01*
X01067358Y01769739D02*
X01063000Y01769739D01*
X01063000Y01759740D02*
X01067358Y01759740D01*
X01067823Y01749742D02*
X01063000Y01749742D01*
X01063000Y01739743D02*
X01077822Y01739743D01*
X01087820Y01729745D02*
X01063000Y01729745D01*
X01064533Y01639758D02*
X01077807Y01639758D01*
X01087806Y01629759D02*
X01015068Y01629759D01*
X01015068Y01619761D02*
X01141000Y01619761D01*
X01141000Y01629759D02*
X01136911Y01629759D01*
X01130169Y01611846D02*
X01116358Y01611846D01*
X01116358Y01572847D01*
X01108358Y01572847D01*
X01108358Y01611846D01*
X01094547Y01611846D01*
X01069358Y01586657D01*
X01069358Y01572846D01*
X01108357Y01572846D01*
X01108357Y01564846D01*
X01069358Y01564846D01*
X01069358Y01551035D01*
X01094547Y01525846D01*
X01108358Y01525846D01*
X01108358Y01564846D01*
X01116358Y01564846D01*
X01116358Y01525846D01*
X01130169Y01525846D01*
X01155358Y01551035D01*
X01155358Y01564846D01*
X01116359Y01564846D01*
X01116359Y01572846D01*
X01155358Y01572846D01*
X01155358Y01586657D01*
X01130169Y01611846D01*
X01132253Y01609762D02*
X01141194Y01609762D01*
X01142252Y01599764D02*
X01146086Y01599764D01*
X01152250Y01589765D02*
X01156084Y01589765D01*
X01155358Y01579767D02*
X01166083Y01579767D01*
X01167358Y01569768D02*
X01116359Y01569768D01*
X01108357Y01569768D02*
X01015068Y01569768D01*
X01015068Y01559770D02*
X01069358Y01559770D01*
X01070622Y01549771D02*
X01013068Y01549771D01*
X01014060Y01539773D02*
X01080621Y01539773D01*
X01090619Y01529774D02*
X01015068Y01529774D01*
X01015068Y01519776D02*
X01350209Y01519776D01*
X01350209Y01529774D02*
X01236925Y01529774D01*
X01246924Y01539773D02*
X01350209Y01539773D01*
X01350209Y01549771D02*
X01256922Y01549771D01*
X01257358Y01559770D02*
X01350209Y01559770D01*
X01350209Y01569768D02*
X01257358Y01569768D01*
X01257358Y01579767D02*
X01350209Y01579767D01*
X01350209Y01589765D02*
X01255079Y01589765D01*
X01245080Y01599764D02*
X01350209Y01599764D01*
X01350209Y01609762D02*
X01235082Y01609762D01*
X01236911Y01629759D02*
X01350209Y01629759D01*
X01350209Y01619761D02*
X01196799Y01619761D01*
X01167358Y01559770D02*
X01155358Y01559770D01*
X01154094Y01549771D02*
X01167794Y01549771D01*
X01177792Y01539773D02*
X01144095Y01539773D01*
X01134097Y01529774D02*
X01187791Y01529774D01*
X01116358Y01529774D02*
X01108358Y01529774D01*
X01108358Y01539773D02*
X01116358Y01539773D01*
X01116358Y01549771D02*
X01108358Y01549771D01*
X01108358Y01559770D02*
X01116358Y01559770D01*
X01116358Y01579767D02*
X01108358Y01579767D01*
X01108358Y01589765D02*
X01116358Y01589765D01*
X01116358Y01599764D02*
X01108358Y01599764D01*
X01108358Y01609762D02*
X01116358Y01609762D01*
X01092463Y01609762D02*
X01015068Y01609762D01*
X01015068Y01599764D02*
X01082465Y01599764D01*
X01072466Y01589765D02*
X01015068Y01589765D01*
X01015068Y01579767D02*
X01069358Y01579767D01*
X01028500Y01545502D02*
X01028500Y01540500D01*
X01015500Y01459000D01*
X00965500Y01459000D01*
X00936917Y01509777D02*
X00867304Y01509777D01*
X00861619Y01499779D02*
X01350209Y01499779D01*
X01350209Y01509777D02*
X01011975Y01509777D01*
X01028500Y01545502D02*
X00974446Y01545502D01*
X00974446Y01565187D02*
X00974133Y01565500D01*
X00934833Y01539773D02*
X00897299Y01539773D01*
X00887301Y01529774D02*
X00933824Y01529774D01*
X00933824Y01519776D02*
X00877302Y01519776D01*
X00861619Y01489780D02*
X01350209Y01489780D01*
X01350209Y01479781D02*
X01088493Y01479781D01*
X01096761Y01469783D02*
X01350209Y01469783D01*
X01350209Y01459784D02*
X01100842Y01459784D01*
X01100842Y01449786D02*
X01350209Y01449786D01*
X01350209Y01439787D02*
X01098240Y01439787D01*
X01092064Y01429789D02*
X01350209Y01429789D01*
X01350209Y01419790D02*
X01076873Y01419790D01*
X01075500Y01409792D02*
X01350209Y01409792D01*
X01350209Y01399793D02*
X01075500Y01399793D01*
X01075500Y01389795D02*
X01350209Y01389795D01*
X01350209Y01379796D02*
X01075500Y01379796D01*
X01075500Y01369798D02*
X01350209Y01369798D01*
X01350209Y01359799D02*
X01075500Y01359799D01*
X01075500Y01349801D02*
X01350209Y01349801D01*
X01350209Y01339802D02*
X01075500Y01339802D01*
X01073916Y01329804D02*
X01350209Y01329804D01*
X01350209Y01319805D02*
X01063918Y01319805D01*
X01053919Y01309807D02*
X01350209Y01309807D01*
X01350209Y01299808D02*
X01043921Y01299808D01*
X01028500Y01315500D02*
X01053500Y01340500D01*
X01053500Y01440500D01*
X01066000Y01453000D01*
X01043507Y01479781D02*
X00916793Y01479781D01*
X00918580Y01469783D02*
X01035239Y01469783D01*
X01031157Y01459784D02*
X00918580Y01459784D01*
X00918580Y01449786D02*
X01031157Y01449786D01*
X01031500Y01439787D02*
X00918580Y01439787D01*
X00918580Y01429789D02*
X01031500Y01429789D01*
X01031500Y01419790D02*
X00917600Y01419790D01*
X00905981Y01399793D02*
X01031500Y01399793D01*
X01031500Y01389795D02*
X00911328Y01389795D01*
X00913342Y01379796D02*
X01031500Y01379796D01*
X01031500Y01369798D02*
X00912816Y01369798D01*
X00908674Y01359799D02*
X01031500Y01359799D01*
X01031500Y01349801D02*
X00899575Y01349801D01*
X00878500Y01378000D02*
X00838619Y01417881D01*
X00838619Y01449046D01*
X00818934Y01449046D02*
X00818934Y01487566D01*
X00816000Y01490500D01*
X00815619Y01489780D02*
X00763194Y01489780D01*
X00763194Y01499779D02*
X00815619Y01499779D01*
X00815619Y01509777D02*
X00763194Y01509777D01*
X00763194Y01519776D02*
X00815619Y01519776D01*
X00822247Y01529774D02*
X00763194Y01529774D01*
X00763194Y01539773D02*
X00832246Y01539773D01*
X00842244Y01549771D02*
X00763194Y01549771D01*
X00763194Y01559770D02*
X00852243Y01559770D01*
X00862241Y01569768D02*
X00763194Y01569768D01*
X00763194Y01579767D02*
X00872240Y01579767D01*
X00885964Y01689750D02*
X00763194Y01689750D01*
X00763194Y01679752D02*
X00933824Y01679752D01*
X00933824Y01689750D02*
X00902245Y01689750D01*
X00894105Y01726223D02*
X00894105Y01738723D01*
X00938605Y01781723D01*
X00974446Y01781723D01*
X00974446Y01801408D02*
X00930092Y01801408D01*
X00903500Y01828000D01*
X00925503Y01799734D02*
X00772183Y01799734D01*
X00775842Y01809733D02*
X00933824Y01809733D01*
X00933824Y01819731D02*
X00775842Y01819731D01*
X00772819Y01829730D02*
X00933824Y01829730D01*
X00939513Y01839728D02*
X00766046Y01839728D01*
X00764510Y01789736D02*
X00915237Y01789736D01*
X00904890Y01779737D02*
X00763194Y01779737D01*
X00763194Y01769739D02*
X00894543Y01769739D01*
X00878831Y01759740D02*
X00763194Y01759740D01*
X00763194Y01749742D02*
X00865565Y01749742D01*
X00859861Y01739743D02*
X00763194Y01739743D01*
X00763194Y01729745D02*
X00857294Y01729745D01*
X00857294Y01719746D02*
X00763194Y01719746D01*
X00763194Y01709748D02*
X00861085Y01709748D01*
X00868519Y01699749D02*
X00763194Y01699749D01*
X00763194Y01669753D02*
X00933824Y01669753D01*
X00933824Y01659755D02*
X00763194Y01659755D01*
X00763194Y01649756D02*
X00933824Y01649756D01*
X00933824Y01639758D02*
X00763194Y01639758D01*
X00763194Y01629759D02*
X00933824Y01629759D01*
X00933824Y01619761D02*
X00763194Y01619761D01*
X00763194Y01609762D02*
X00933824Y01609762D01*
X00933824Y01599764D02*
X00763194Y01599764D01*
X00763194Y01589765D02*
X00933824Y01589765D01*
X00933824Y01699749D02*
X00919690Y01699749D01*
X00927124Y01709748D02*
X00933824Y01709748D01*
X00933824Y01719746D02*
X00930915Y01719746D01*
X00930915Y01729745D02*
X00933824Y01729745D01*
X00933824Y01739743D02*
X00928348Y01739743D01*
X00974446Y01821093D02*
X01009093Y01821093D01*
X01041000Y01853000D01*
X01100500Y01849727D02*
X01141000Y01849727D01*
X01141000Y01859725D02*
X01100500Y01859725D01*
X01100500Y01869724D02*
X01141000Y01869724D01*
X01141000Y01879722D02*
X01104497Y01879722D01*
X01110713Y01889721D02*
X01141000Y01889721D01*
X01141000Y01899719D02*
X01113342Y01899719D01*
X01113342Y01909718D02*
X01141000Y01909718D01*
X01141000Y01919717D02*
X01109289Y01919717D01*
X01101060Y01929715D02*
X01141000Y01929715D01*
X01141000Y01939714D02*
X00826988Y01939714D01*
X00834674Y01949712D02*
X01141000Y01949712D01*
X01141000Y01959711D02*
X00838342Y01959711D01*
X00838342Y01969709D02*
X01141000Y01969709D01*
X01141000Y01979708D02*
X00835328Y01979708D01*
X00828568Y01989706D02*
X01141000Y01989706D01*
X01141000Y01839728D02*
X01100500Y01839728D01*
X01098343Y01829730D02*
X01141000Y01829730D01*
X01258282Y01659755D02*
X01350209Y01659755D01*
X01350209Y01669753D02*
X01268280Y01669753D01*
X01278279Y01679752D02*
X01350209Y01679752D01*
X01350209Y01689750D02*
X01288277Y01689750D01*
X01289000Y01699749D02*
X01350209Y01699749D01*
X01350209Y01709748D02*
X01289000Y01709748D01*
X01289000Y01719746D02*
X01350209Y01719746D01*
X01350209Y01729745D02*
X01289000Y01729745D01*
X01289000Y01739743D02*
X01350209Y01739743D01*
X01350209Y01749742D02*
X01289000Y01749742D01*
X01289000Y01759740D02*
X01350209Y01759740D01*
X01350209Y01769739D02*
X01289000Y01769739D01*
X01289000Y01779737D02*
X01350209Y01779737D01*
X01350209Y01789736D02*
X01289000Y01789736D01*
X01289000Y01799734D02*
X01350209Y01799734D01*
X01350209Y01649756D02*
X01256908Y01649756D01*
X01246909Y01639758D02*
X01350209Y01639758D01*
X01350209Y01289810D02*
X00727889Y01289810D01*
X00722824Y01299808D02*
X00775579Y01299808D01*
X00765581Y01309807D02*
X00722824Y01309807D01*
X00722824Y01319805D02*
X00755582Y01319805D01*
X00745584Y01329804D02*
X00722824Y01329804D01*
X00722824Y01339802D02*
X00735585Y01339802D01*
X00725586Y01349801D02*
X00722824Y01349801D01*
X00720509Y01385991D02*
X00720509Y01449046D01*
X00717194Y01489780D02*
X00588000Y01489780D01*
X00588000Y01499779D02*
X00717194Y01499779D01*
X00717194Y01509777D02*
X00588000Y01509777D01*
X00588000Y01519776D02*
X00717194Y01519776D01*
X00717194Y01529774D02*
X00582838Y01529774D01*
X00566000Y01515500D02*
X00555683Y01525817D01*
X00525627Y01525817D01*
X00566000Y01515500D02*
X00566000Y01453000D01*
X00598445Y01453000D01*
X00602399Y01449046D01*
X00579493Y01419790D02*
X00576873Y01419790D01*
X00588083Y01409792D02*
X00548627Y01409792D01*
X00548627Y01419790D02*
X00555127Y01419790D01*
X00540202Y01399793D02*
X00659139Y01399793D01*
X00659139Y01389795D02*
X00530203Y01389795D01*
X00520205Y01379796D02*
X00659139Y01379796D01*
X00659139Y01369798D02*
X00510206Y01369798D01*
X00500208Y01359799D02*
X00659139Y01359799D01*
X00659139Y01349801D02*
X00490209Y01349801D01*
X00480211Y01339802D02*
X00659139Y01339802D01*
X00659139Y01329804D02*
X00470212Y01329804D01*
X00460214Y01319805D02*
X00659139Y01319805D01*
X00659139Y01309807D02*
X00450215Y01309807D01*
X00440217Y01299808D02*
X00659139Y01299808D01*
X00659139Y01289810D02*
X00430218Y01289810D01*
X00420220Y01279811D02*
X00659139Y01279811D01*
X00659139Y01269813D02*
X00410221Y01269813D01*
X00400223Y01259814D02*
X00659139Y01259814D01*
X00659139Y01249815D02*
X00390224Y01249815D01*
X00388905Y01239817D02*
X00659139Y01239817D01*
X00659139Y01229818D02*
X00388905Y01229818D01*
X00388905Y01219820D02*
X00651895Y01219820D01*
X00647754Y01209821D02*
X00388905Y01209821D01*
X00388905Y01199823D02*
X00646730Y01199823D01*
X00646903Y01189824D02*
X00388677Y01189824D01*
X00366000Y01179826D02*
X00651045Y01179826D01*
X00657888Y01169827D02*
X00366000Y01169827D01*
X00366000Y01159829D02*
X00671441Y01159829D01*
X00681139Y01198796D02*
X00689730Y01198796D01*
X00681139Y01198796D02*
X00681139Y01449046D01*
X00700824Y01449046D02*
X00700824Y01277702D01*
X00879730Y01198796D01*
X00893061Y01239817D02*
X01350209Y01239817D01*
X01350209Y01249815D02*
X00818569Y01249815D01*
X00841239Y01239817D02*
X00866398Y01239817D01*
X00836903Y01189824D02*
X00732556Y01189824D01*
X00732730Y01199823D02*
X00822885Y01199823D01*
X00841045Y01179826D02*
X00728415Y01179826D01*
X00721572Y01169827D02*
X00847888Y01169827D01*
X00861441Y01159829D02*
X00708018Y01159829D01*
X00731706Y01209821D02*
X00800215Y01209821D01*
X00777545Y01219820D02*
X00727564Y01219820D01*
X00719519Y01229818D02*
X00754875Y01229818D01*
X00732205Y01239817D02*
X00703139Y01239817D01*
X00703139Y01249815D02*
X00709535Y01249815D01*
X00750559Y01279811D02*
X01350209Y01279811D01*
X01350209Y01269813D02*
X00773229Y01269813D01*
X00795899Y01259814D02*
X01350209Y01259814D01*
X01350209Y01229818D02*
X00909519Y01229818D01*
X00917564Y01219820D02*
X01350209Y01219820D01*
X01350209Y01209821D02*
X00921706Y01209821D01*
X00922730Y01199823D02*
X01350209Y01199823D01*
X01350209Y01189824D02*
X00922556Y01189824D01*
X00918415Y01179826D02*
X01350209Y01179826D01*
X01350209Y01169827D02*
X00911572Y01169827D01*
X00898018Y01159829D02*
X01350209Y01159829D01*
X01350209Y01149830D02*
X00366000Y01149830D01*
X00366000Y01139832D02*
X01350209Y01139832D01*
X01350209Y01129833D02*
X00366000Y01129833D01*
X00366000Y01119835D02*
X01350209Y01119835D01*
X01350209Y01109836D02*
X00366000Y01109836D01*
X00366000Y01099838D02*
X01350209Y01099838D01*
X01350209Y01089839D02*
X00468124Y01089839D01*
X00475283Y01079841D02*
X01350209Y01079841D01*
X01350209Y01069842D02*
X00475283Y01069842D01*
X00475283Y01059844D02*
X01350209Y01059844D01*
X01350209Y01049845D02*
X00475283Y01049845D01*
X00475283Y01039846D02*
X01350209Y01039846D01*
X01350209Y01029848D02*
X00475283Y01029848D01*
X00475283Y01019849D02*
X01350209Y01019849D01*
X01350209Y01009851D02*
X00475283Y01009851D01*
X00475283Y00999852D02*
X01350209Y00999852D01*
X01350209Y00989854D02*
X00475283Y00989854D01*
X00475283Y00979855D02*
X01350209Y00979855D01*
X01350209Y00969857D02*
X00475283Y00969857D01*
X00475283Y00959858D02*
X01350209Y00959858D01*
X01350209Y00949860D02*
X00475283Y00949860D01*
X00475283Y00939861D02*
X01350209Y00939861D01*
X01350209Y00929863D02*
X00475283Y00929863D01*
X00468284Y00919864D02*
X01350209Y00919864D01*
X01143335Y00579914D02*
X00253697Y00579914D01*
X00250676Y00581658D02*
X00220919Y00589632D01*
X00190113Y00589632D01*
X00160356Y00581658D01*
X00133676Y00566255D01*
X00111893Y00544471D01*
X00096489Y00517792D01*
X00088516Y00488035D01*
X00088516Y00457228D01*
X00096489Y00427471D01*
X00111893Y00400792D01*
X00133676Y00379009D01*
X00160356Y00363605D01*
X00190113Y00355632D01*
X00220919Y00355632D01*
X00250676Y00363605D01*
X00277356Y00379009D01*
X00299139Y00400792D01*
X00314543Y00427471D01*
X00322516Y00457228D01*
X00322516Y00488035D01*
X00314543Y00517792D01*
X00299139Y00544471D01*
X00277356Y00566255D01*
X00250676Y00581658D01*
X00271015Y00569916D02*
X01126017Y00569916D01*
X01113339Y00559917D02*
X00943698Y00559917D01*
X00953697Y00549919D02*
X01103340Y00549919D01*
X01095265Y00539920D02*
X00961516Y00539920D01*
X00961516Y00529922D02*
X01089492Y00529922D01*
X01083720Y00519923D02*
X00961516Y00519923D01*
X00961516Y00509925D02*
X01080381Y00509925D01*
X01077702Y00499926D02*
X00958278Y00499926D01*
X00948280Y00489928D02*
X01075023Y00489928D01*
X01074516Y00479929D02*
X00938281Y00479929D01*
X00880752Y00489928D02*
X00840280Y00489928D01*
X00850278Y00499926D02*
X00870754Y00499926D01*
X00867516Y00509925D02*
X00853516Y00509925D01*
X00853516Y00519923D02*
X00867516Y00519923D01*
X00867516Y00529922D02*
X00853516Y00529922D01*
X00853516Y00539920D02*
X00867516Y00539920D01*
X00875335Y00549919D02*
X00845697Y00549919D01*
X00835698Y00559917D02*
X00885334Y00559917D01*
X00821350Y00449934D02*
X00791682Y00449934D01*
X00799516Y00439935D02*
X00813516Y00439935D01*
X00813516Y00429937D02*
X00799516Y00429937D01*
X00799516Y00419938D02*
X00813516Y00419938D01*
X00813516Y00409939D02*
X00799516Y00409939D01*
X00796293Y00399941D02*
X00816739Y00399941D01*
X00826737Y00389942D02*
X00786294Y00389942D01*
X00776296Y00379944D02*
X00836736Y00379944D01*
X00775000Y00349948D02*
X01350209Y00349948D01*
X01350209Y00339950D02*
X00775000Y00339950D01*
X00775000Y00329951D02*
X01350209Y00329951D01*
X01350209Y00319953D02*
X00775000Y00319953D01*
X00775000Y00309954D02*
X01350209Y00309954D01*
X01350209Y00299956D02*
X00775000Y00299956D01*
X00772900Y00289957D02*
X01350209Y00289957D01*
X01350209Y00279959D02*
X00765314Y00279959D01*
X00755315Y00269960D02*
X01350209Y00269960D01*
X01350209Y00259962D02*
X00745317Y00259962D01*
X00735318Y00249963D02*
X01350209Y00249963D01*
X01350209Y00239965D02*
X00723423Y00239965D01*
X00718737Y00389942D02*
X00675466Y00389942D01*
X00685465Y00399941D02*
X00708739Y00399941D01*
X00705516Y00409939D02*
X00689516Y00409939D01*
X00649516Y00429937D02*
X00639516Y00429937D01*
X00639516Y00439935D02*
X00649516Y00439935D01*
X00649516Y00449934D02*
X00639516Y00449934D01*
X00639516Y00459932D02*
X00649516Y00459932D01*
X00664752Y00489928D02*
X00624280Y00489928D01*
X00634278Y00499926D02*
X00654754Y00499926D01*
X00651516Y00509925D02*
X00637516Y00509925D01*
X00637516Y00503164D02*
X00609984Y00475632D01*
X00571048Y00475632D01*
X00543516Y00503164D01*
X00543516Y00542100D01*
X00571048Y00569632D01*
X00609984Y00569632D01*
X00637516Y00542100D01*
X00637516Y00503164D01*
X00637516Y00519923D02*
X00651516Y00519923D01*
X00651516Y00529922D02*
X00637516Y00529922D01*
X00637516Y00539920D02*
X00651516Y00539920D01*
X00659335Y00549919D02*
X00629697Y00549919D01*
X00619698Y00559917D02*
X00669334Y00559917D01*
X00674751Y00479929D02*
X00614281Y00479929D01*
X00618177Y00459932D02*
X00565684Y00459932D01*
X00575682Y00449934D02*
X00608178Y00449934D01*
X00599516Y00439935D02*
X00583516Y00439935D01*
X00583516Y00429937D02*
X00599516Y00429937D01*
X00583516Y00419938D02*
X00639515Y00419938D01*
X00613566Y00389942D02*
X00570294Y00389942D01*
X00560296Y00379944D02*
X00623564Y00379944D01*
X00603567Y00399941D02*
X00580293Y00399941D01*
X00583516Y00409939D02*
X00599516Y00409939D01*
X00566751Y00479929D02*
X00506281Y00479929D01*
X00501984Y00475632D02*
X00529516Y00503164D01*
X00529516Y00542100D01*
X00501984Y00569632D01*
X00463048Y00569632D01*
X00435516Y00542100D01*
X00435516Y00503164D01*
X00463048Y00475632D01*
X00501984Y00475632D01*
X00507348Y00459932D02*
X00322516Y00459932D01*
X00322516Y00469931D02*
X01074516Y00469931D01*
X00777334Y00559917D02*
X00727698Y00559917D01*
X00737697Y00549919D02*
X00767335Y00549919D01*
X00759516Y00539920D02*
X00745516Y00539920D01*
X00745516Y00529922D02*
X00759516Y00529922D01*
X00759516Y00519923D02*
X00745516Y00519923D01*
X00745516Y00509925D02*
X00759516Y00509925D01*
X00762754Y00499926D02*
X00742278Y00499926D01*
X00732280Y00489928D02*
X00772752Y00489928D01*
X00561334Y00559917D02*
X00511698Y00559917D01*
X00521697Y00549919D02*
X00551335Y00549919D01*
X00543516Y00539920D02*
X00529516Y00539920D01*
X00529516Y00529922D02*
X00543516Y00529922D01*
X00543516Y00519923D02*
X00529516Y00519923D01*
X00529516Y00509925D02*
X00543516Y00509925D01*
X00546754Y00499926D02*
X00526278Y00499926D01*
X00516280Y00489928D02*
X00556752Y00489928D01*
X00536516Y00422632D02*
X00410132Y00422632D01*
X00312500Y00325000D01*
X00300678Y00359947D02*
X00237023Y00359947D01*
X00261658Y00369945D02*
X00326333Y00369945D01*
X00336331Y00379944D02*
X00278291Y00379944D01*
X00288289Y00389942D02*
X00346330Y00389942D01*
X00356328Y00399941D02*
X00298288Y00399941D01*
X00304420Y00409939D02*
X00366327Y00409939D01*
X00376325Y00419938D02*
X00310193Y00419938D01*
X00315203Y00429937D02*
X00386324Y00429937D01*
X00396322Y00439935D02*
X00317882Y00439935D01*
X00320561Y00449934D02*
X00497350Y00449934D01*
X00492739Y00399941D02*
X00418554Y00399941D01*
X00408555Y00389942D02*
X00502737Y00389942D01*
X00512736Y00379944D02*
X00398557Y00379944D01*
X00458751Y00479929D02*
X00322516Y00479929D01*
X00322009Y00489928D02*
X00448752Y00489928D01*
X00438754Y00499926D02*
X00319330Y00499926D01*
X00316651Y00509925D02*
X00435516Y00509925D01*
X00435516Y00519923D02*
X00313312Y00519923D01*
X00307540Y00529922D02*
X00435516Y00529922D01*
X00435516Y00539920D02*
X00301767Y00539920D01*
X00293692Y00549919D02*
X00443335Y00549919D01*
X00453334Y00559917D02*
X00283693Y00559917D01*
X00178233Y00689898D02*
X00137753Y00689898D01*
X00147752Y00699897D02*
X00177984Y00699897D01*
X00157335Y00579914D02*
X00087500Y00579914D01*
X00087500Y00569916D02*
X00140017Y00569916D01*
X00127339Y00559917D02*
X00087500Y00559917D01*
X00087500Y00549919D02*
X00117340Y00549919D01*
X00109265Y00539920D02*
X00087500Y00539920D01*
X00087500Y00529922D02*
X00103492Y00529922D01*
X00097720Y00519923D02*
X00087500Y00519923D01*
X00087500Y00509925D02*
X00094381Y00509925D01*
X00091702Y00499926D02*
X00087500Y00499926D01*
X00087500Y00489928D02*
X00089023Y00489928D01*
X00088516Y00479929D02*
X00087500Y00479929D01*
X00087500Y00469931D02*
X00088516Y00469931D01*
X00088516Y00459932D02*
X00087500Y00459932D01*
X00087500Y00449934D02*
X00090471Y00449934D01*
X00093150Y00439935D02*
X00087500Y00439935D01*
X00087500Y00429937D02*
X00095829Y00429937D01*
X00100839Y00419938D02*
X00087500Y00419938D01*
X00087500Y00409939D02*
X00106611Y00409939D01*
X00112744Y00399941D02*
X00087500Y00399941D01*
X00087500Y00389942D02*
X00122742Y00389942D01*
X00132741Y00379944D02*
X00092911Y00379944D01*
X00102910Y00369945D02*
X00149374Y00369945D01*
X00132905Y00339950D02*
X00278849Y00339950D01*
X00275689Y00329951D02*
X00142904Y00329951D01*
X00152902Y00319953D02*
X00275689Y00319953D01*
X00278888Y00309954D02*
X00162901Y00309954D01*
X00172899Y00299956D02*
X00285485Y00299956D01*
X00285390Y00349948D02*
X00122907Y00349948D01*
X00112908Y00359947D02*
X00174009Y00359947D01*
X00045866Y00229966D02*
X01350209Y00229966D01*
X01350209Y00219968D02*
X00045866Y00219968D01*
X00045866Y00209969D02*
X01350209Y00209969D01*
X01350209Y00199970D02*
X00045866Y00199970D01*
X00045866Y00189972D02*
X01350209Y00189972D01*
X01350209Y00179973D02*
X00045866Y00179973D01*
X00045866Y00169975D02*
X01350209Y00169975D01*
X01350209Y00159976D02*
X00045866Y00159976D01*
X00045866Y00149978D02*
X01350209Y00149978D01*
X01350209Y00139979D02*
X00045866Y00139979D01*
X00045866Y00129981D02*
X01350209Y00129981D01*
X01350209Y00119982D02*
X00045866Y00119982D01*
X00045866Y00109984D02*
X01350209Y00109984D01*
X01350209Y00099985D02*
X00045866Y00099985D01*
X00045866Y00089987D02*
X01350209Y00089987D01*
X01350209Y00079988D02*
X00045866Y00079988D01*
X00045866Y00069990D02*
X01350209Y00069990D01*
X01350209Y00059991D02*
X00045866Y00059991D01*
X00045866Y00049993D02*
X01350209Y00049993D01*
X01028500Y01315500D02*
X00791000Y01315500D01*
X00720509Y01385991D01*
X00742509Y01399793D02*
X00825594Y01399793D01*
X00816619Y01409792D02*
X00813565Y01409792D01*
X00835592Y01389795D02*
X00747818Y01389795D01*
X00757816Y01379796D02*
X00843657Y01379796D01*
X00844184Y01369798D02*
X00767815Y01369798D01*
X00777813Y01359799D02*
X00848326Y01359799D01*
X00857424Y01349801D02*
X00787812Y01349801D01*
X00797810Y01339802D02*
X01021689Y01339802D01*
X01031500Y01409792D02*
X00892795Y01409792D01*
X01015068Y01639758D02*
X01017467Y01639758D01*
X00906696Y02259666D02*
X00862783Y02259666D01*
X00861627Y02269665D02*
X00887704Y02269665D01*
X00877706Y02279663D02*
X00857486Y02279663D01*
X00849835Y02289662D02*
X00867995Y02289662D01*
X00863854Y02299660D02*
X00842083Y02299660D01*
X00842083Y02309659D02*
X00859712Y02309659D01*
X00855673Y02319657D02*
X00842083Y02319657D01*
X00842083Y02329656D02*
X00855673Y02329656D01*
X00855673Y02339655D02*
X00842083Y02339655D01*
X00842083Y02349653D02*
X00855673Y02349653D01*
X00858784Y02359652D02*
X00842083Y02359652D01*
X00842083Y02369650D02*
X00862926Y02369650D01*
X00867067Y02379649D02*
X00842083Y02379649D01*
X00842083Y02389647D02*
X00875465Y02389647D01*
X00885464Y02399646D02*
X00842083Y02399646D01*
X00842083Y02409644D02*
X00901287Y02409644D01*
X01137689Y02609615D02*
X01350209Y02609615D01*
X01350209Y02619613D02*
X01132686Y02619613D01*
X00316000Y01039846D02*
X00227919Y01039846D01*
X00231957Y01029848D02*
X00316000Y01029848D01*
X00292142Y01189824D02*
X00274792Y01189824D01*
X00276669Y01199823D02*
X00291913Y01199823D01*
X00291913Y01209821D02*
X00276669Y01209821D01*
X00276669Y01219820D02*
X00291913Y01219820D01*
X00291913Y01229818D02*
X00235174Y01229818D01*
X00235173Y01239817D02*
X00225173Y01239817D01*
X00225173Y01249815D02*
X00235173Y01249815D01*
X00235173Y01259814D02*
X00225173Y01259814D01*
X00225173Y01269813D02*
X00235173Y01269813D01*
X00235173Y01279811D02*
X00225173Y01279811D01*
X00271032Y01279811D02*
X00296722Y01279811D01*
X00291913Y01269813D02*
X00276669Y01269813D01*
X00276669Y01259814D02*
X00291913Y01259814D01*
X00291913Y01249815D02*
X00276669Y01249815D01*
X00276669Y01239817D02*
X00291913Y01239817D01*
X00114999Y00949860D02*
X00097995Y00949860D01*
X00107994Y00939861D02*
X00109965Y00939861D01*
D27*
X00566000Y01453000D03*
X00591000Y01603000D03*
X00641000Y01665500D03*
X00603500Y01840500D03*
X00566000Y01903000D03*
X00553500Y01953000D03*
X00641000Y02003000D03*
X00691000Y02003000D03*
X00728500Y01965500D03*
X00741000Y01815500D03*
X00803500Y01965500D03*
X00766000Y02140500D03*
X00903500Y01828000D03*
X01041000Y01853000D03*
X01078500Y01903000D03*
X01041000Y01665500D03*
X01066000Y01453000D03*
X00965500Y01459000D03*
X00878500Y01378000D03*
X00791000Y01528000D03*
X00428500Y01940500D03*
X00278500Y02315500D03*
X00916000Y02565500D03*
D28*
X00766000Y02528000D02*
X00766000Y02140500D01*
X00741000Y01815500D02*
X00740194Y01814694D01*
X00740194Y01449046D01*
X00791000Y01515500D02*
X00791000Y01528000D01*
X00791000Y01515500D02*
X00816000Y01490500D01*
X00838619Y01513619D02*
X00838619Y01449046D01*
X00838619Y01513619D02*
X00890187Y01565187D01*
X00974446Y01565187D01*
X01212358Y01668846D02*
X01234846Y01668846D01*
X01266000Y01700000D01*
X01266000Y02214339D01*
X01143035Y02337303D01*
X00766000Y02528000D02*
X00709224Y02584776D01*
X00218169Y02584776D01*
X00525627Y01525817D02*
X00525627Y01417745D01*
X00340409Y01232528D01*
D29*
X00341000Y01231937D01*
X00341000Y01004772D01*
X00414976Y01004772D01*
X00341000Y01004772D02*
X00170961Y01004772D01*
X00226480Y00913787D02*
X00098713Y00913787D01*
X00062500Y00950000D01*
X00062500Y02587500D01*
X00112500Y02637500D01*
X00750000Y02637500D01*
X00817083Y02570417D01*
X00817083Y02229083D01*
X01077417Y02229083D01*
X01166000Y02140500D01*
X01166000Y01615205D01*
X01212358Y01568846D01*
X00752516Y00422632D02*
X00750000Y00420116D01*
X00750000Y00300000D01*
X00712500Y00262500D01*
X00175000Y00262500D01*
X00062500Y00375000D01*
X00062500Y00650000D01*
X00145122Y00732622D01*
X00226480Y00732622D01*
D30*
X00226480Y00913787D01*
X00170961Y00913787D01*
D31*
X00150000Y01475000D03*
X00200000Y01475000D03*
X00250000Y01475000D03*
X00300000Y01475000D03*
X00350000Y01475000D03*
X00412500Y01475000D03*
X00641000Y01803000D03*
X00894105Y01726223D03*
X00312500Y00325000D03*
X00100000Y01475000D03*
M02*
