G75*
%MOIN*%
%OFA0B0*%
%FSLAX26Y26*%
%IPPOS*%
%LPD*%
%AMOC8*
5,1,8,0,0,1.08239X$1,22.5*
%
%ADD10C,0.060000*%
%ADD11R,0.019811X0.055244*%
%ADD12R,0.055244X0.019811*%
%ADD13R,0.095992X0.055992*%
%ADD14R,0.094614X0.149732*%
%ADD15R,0.070992X0.078866*%
%ADD16R,0.055244X0.055244*%
%ADD17R,0.051307X0.047370*%
%ADD18OC8,0.064000*%
%ADD19C,0.065402*%
%ADD20C,0.138551*%
%ADD21OC8,0.068000*%
%ADD22C,0.208000*%
%ADD23C,0.043685*%
%ADD24C,0.047622*%
D10*
X00689730Y01198796D03*
X00879730Y01198796D03*
D11*
X00877990Y01449046D03*
X00897675Y01449046D03*
X00858305Y01449046D03*
X00838619Y01449046D03*
X00818934Y01449046D03*
X00799249Y01449046D03*
X00779564Y01449046D03*
X00759879Y01449046D03*
X00740194Y01449046D03*
X00720509Y01449046D03*
X00700824Y01449046D03*
X00681139Y01449046D03*
X00661454Y01449046D03*
X00641769Y01449046D03*
X00622084Y01449046D03*
X00602399Y01449046D03*
X00602399Y01897864D03*
X00622084Y01897864D03*
X00641769Y01897864D03*
X00661454Y01897864D03*
X00681139Y01897864D03*
X00700824Y01897864D03*
X00720509Y01897864D03*
X00740194Y01897864D03*
X00759879Y01897864D03*
X00779564Y01897864D03*
X00799249Y01897864D03*
X00818934Y01897864D03*
X00838619Y01897864D03*
X00858305Y01897864D03*
X00877990Y01897864D03*
X00897675Y01897864D03*
D12*
X00974446Y01821093D03*
X00974446Y01801408D03*
X00974446Y01781723D03*
X00974446Y01762038D03*
X00974446Y01742353D03*
X00974446Y01722668D03*
X00974446Y01702983D03*
X00974446Y01683297D03*
X00974446Y01663612D03*
X00974446Y01643927D03*
X00974446Y01624242D03*
X00974446Y01604557D03*
X00974446Y01584872D03*
X00974446Y01565187D03*
X00974446Y01545502D03*
X00974446Y01525817D03*
X00525627Y01525817D03*
X00525627Y01545502D03*
X00525627Y01565187D03*
X00525627Y01584872D03*
X00525627Y01604557D03*
X00525627Y01624242D03*
X00525627Y01643927D03*
X00525627Y01663612D03*
X00525627Y01683297D03*
X00525627Y01702983D03*
X00525627Y01722668D03*
X00525627Y01742353D03*
X00525627Y01762038D03*
X00525627Y01781723D03*
X00525627Y01801408D03*
X00525627Y01821093D03*
D13*
X00170961Y01095756D03*
X00170961Y01004772D03*
X00170961Y00913787D03*
D14*
X00414976Y01004772D03*
D15*
X00340409Y01232528D03*
X00230173Y01232528D03*
X00226480Y00732622D03*
X00336717Y00732622D03*
D16*
X00218169Y02502098D03*
X00218169Y02584776D03*
X01099067Y02584776D03*
X01099067Y02502098D03*
D17*
X01143035Y02404232D03*
X01143035Y02337303D03*
X00196610Y02324752D03*
X00196610Y02391681D03*
D18*
X01112358Y01768846D03*
X01112358Y01668846D03*
X01112358Y01568846D03*
X01212358Y01568846D03*
X01212358Y01668846D03*
X01212358Y01768846D03*
D19*
X00817083Y02200382D02*
X00817083Y02257783D01*
X00718657Y02257783D02*
X00718657Y02200382D01*
X00639917Y02200382D02*
X00639917Y02257783D01*
X00541492Y02257783D02*
X00541492Y02200382D01*
D20*
X00420626Y02335776D03*
X00937949Y02335776D03*
D21*
X00914516Y00522632D03*
X00860516Y00422632D03*
X00806516Y00522632D03*
X00752516Y00422632D03*
X00698516Y00522632D03*
X00644516Y00422632D03*
X00590516Y00522632D03*
X00536516Y00422632D03*
X00482516Y00522632D03*
D22*
X00205516Y00472632D03*
X01191516Y00472632D03*
D23*
X00878500Y01378000D03*
X00965500Y01459000D03*
X01066000Y01453000D03*
X01041000Y01665500D03*
X01041000Y01853000D03*
X01078500Y01903000D03*
X00903500Y01828000D03*
X00803500Y01965500D03*
X00741000Y01815500D03*
X00728500Y01965500D03*
X00691000Y02003000D03*
X00641000Y02003000D03*
X00566000Y01903000D03*
X00553500Y01953000D03*
X00603500Y01840500D03*
X00641000Y01665500D03*
X00591000Y01603000D03*
X00566000Y01453000D03*
X00791000Y01528000D03*
X00766000Y02140500D03*
X00916000Y02565500D03*
X00428500Y01940500D03*
X00278500Y02315500D03*
D24*
X00641000Y01803000D03*
X00412500Y01475000D03*
X00350000Y01475000D03*
X00300000Y01475000D03*
X00250000Y01475000D03*
X00200000Y01475000D03*
X00150000Y01475000D03*
X00100000Y01475000D03*
X00312500Y00325000D03*
X00894105Y01726223D03*
M02*
