G75*
%MOIN*%
%OFA0B0*%
%FSLAX26Y26*%
%IPPOS*%
%LPD*%
%AMOC8*
5,1,8,0,0,1.08239X$1,22.5*
%
%ADD10R,0.039370X0.043307*%
%ADD11R,0.043307X0.039370*%
%ADD12C,0.052000*%
%ADD13OC8,0.056000*%
%ADD14C,0.057402*%
%ADD15C,0.130551*%
%ADD16R,0.070866X0.062992*%
%ADD17OC8,0.060000*%
%ADD18C,0.200000*%
%ADD19C,0.010000*%
%ADD20C,0.035685*%
%ADD21C,0.012000*%
%ADD22C,0.039622*%
D10*
X00521414Y01379913D03*
X00521414Y01446843D03*
X00484441Y01903673D03*
X00484441Y01970602D03*
X00970750Y01965745D03*
X00970750Y01898816D03*
X01132776Y01893966D03*
X01199705Y01893966D03*
X00975740Y01359516D03*
X00975740Y01292587D03*
D11*
X01050749Y01200720D03*
X01117679Y01200720D03*
X01127601Y01455879D03*
X01194530Y01455879D03*
X00567626Y01194805D03*
X00500697Y01194805D03*
D12*
X00689730Y01198796D03*
X00879730Y01198796D03*
D13*
X01112358Y01568846D03*
X01112358Y01668846D03*
X01112358Y01768846D03*
X01212358Y01768846D03*
X01212358Y01668846D03*
X01212358Y01568846D03*
D14*
X00817083Y02200382D02*
X00817083Y02257783D01*
X00718657Y02257783D02*
X00718657Y02200382D01*
X00639917Y02200382D02*
X00639917Y02257783D01*
X00541492Y02257783D02*
X00541492Y02200382D01*
D15*
X00420626Y02335776D03*
X00937949Y02335776D03*
D16*
X00816000Y01720618D03*
X00816000Y01610382D03*
D17*
X00806516Y00522632D03*
X00860516Y00422632D03*
X00914516Y00522632D03*
X00752516Y00422632D03*
X00698516Y00522632D03*
X00644516Y00422632D03*
X00590516Y00522632D03*
X00536516Y00422632D03*
X00482516Y00522632D03*
D18*
X00205516Y00472632D03*
X01191516Y00472632D03*
D19*
X00045866Y00049598D02*
X00045866Y02643606D01*
X01350209Y02643606D01*
X01350209Y00049598D01*
X00045866Y00049598D01*
X00045866Y00049993D02*
X01350209Y00049993D01*
X01350209Y00059991D02*
X00045866Y00059991D01*
X00045866Y00069990D02*
X01350209Y00069990D01*
X01350209Y00079988D02*
X00045866Y00079988D01*
X00045866Y00089987D02*
X01350209Y00089987D01*
X01350209Y00099985D02*
X00045866Y00099985D01*
X00045866Y00109984D02*
X01350209Y00109984D01*
X01350209Y00119982D02*
X00045866Y00119982D01*
X00045866Y00129981D02*
X01350209Y00129981D01*
X01350209Y00139979D02*
X00045866Y00139979D01*
X00045866Y00149978D02*
X01350209Y00149978D01*
X01350209Y00159976D02*
X00045866Y00159976D01*
X00045866Y00169975D02*
X01350209Y00169975D01*
X01350209Y00179973D02*
X00045866Y00179973D01*
X00045866Y00189972D02*
X01350209Y00189972D01*
X01350209Y00199970D02*
X00045866Y00199970D01*
X00045866Y00209969D02*
X01350209Y00209969D01*
X01350209Y00219968D02*
X00045866Y00219968D01*
X00045866Y00229966D02*
X01350209Y00229966D01*
X01350209Y00239965D02*
X00045866Y00239965D01*
X00045866Y00249963D02*
X01350209Y00249963D01*
X01350209Y00259962D02*
X00045866Y00259962D01*
X00045866Y00269960D02*
X01350209Y00269960D01*
X01350209Y00279959D02*
X00045866Y00279959D01*
X00045866Y00289957D02*
X00300909Y00289957D01*
X00305178Y00288189D02*
X00291648Y00293793D01*
X00282441Y00303000D01*
X00128387Y00303000D01*
X00115500Y00315887D01*
X00053000Y00378387D01*
X00053000Y00671613D01*
X00065887Y00684500D01*
X00078000Y00696613D01*
X00078000Y01444941D01*
X00068793Y01454148D01*
X00063189Y01467678D01*
X00063189Y01482322D01*
X00068793Y01495852D01*
X00079148Y01506207D01*
X00092678Y01511811D01*
X00107322Y01511811D01*
X00120852Y01506207D01*
X00125000Y01502059D01*
X00129148Y01506207D01*
X00142678Y01511811D01*
X00157322Y01511811D01*
X00170852Y01506207D01*
X00175000Y01502059D01*
X00179148Y01506207D01*
X00192678Y01511811D01*
X00207322Y01511811D01*
X00220852Y01506207D01*
X00225000Y01502059D01*
X00229148Y01506207D01*
X00242678Y01511811D01*
X00257322Y01511811D01*
X00270852Y01506207D01*
X00275000Y01502059D01*
X00279148Y01506207D01*
X00292678Y01511811D01*
X00307322Y01511811D01*
X00320852Y01506207D01*
X00325000Y01502059D01*
X00329148Y01506207D01*
X00342678Y01511811D01*
X00357322Y01511811D01*
X00370852Y01506207D01*
X00381207Y01495852D01*
X00381250Y01495748D01*
X00381293Y01495852D01*
X00391648Y01506207D01*
X00405178Y01511811D01*
X00419822Y01511811D01*
X00433352Y01506207D01*
X00443707Y01495852D01*
X00449311Y01482322D01*
X00449311Y01467678D01*
X00443707Y01454148D01*
X00435500Y01445941D01*
X00435500Y01034175D01*
X00900043Y00569632D01*
X00933984Y00569632D01*
X00961516Y00542100D01*
X00961516Y00503164D01*
X00933984Y00475632D01*
X00895048Y00475632D01*
X00867516Y00503164D01*
X00867516Y00537105D01*
X00402973Y01001648D01*
X00389500Y01015121D01*
X00389500Y01445941D01*
X00381293Y01454148D01*
X00381250Y01454252D01*
X00381207Y01454148D01*
X00373000Y01445941D01*
X00373000Y00988675D01*
X00792043Y00569632D01*
X00825984Y00569632D01*
X00853516Y00542100D01*
X00853516Y00503164D01*
X00825984Y00475632D01*
X00787048Y00475632D01*
X00759516Y00503164D01*
X00759516Y00537105D01*
X00340473Y00956148D01*
X00327000Y00969621D01*
X00327000Y01445941D01*
X00325000Y01447941D01*
X00323000Y01445941D01*
X00323000Y00930675D01*
X00684043Y00569632D01*
X00717984Y00569632D01*
X00745516Y00542100D01*
X00745516Y00503164D01*
X00717984Y00475632D01*
X00679048Y00475632D01*
X00651516Y00503164D01*
X00651516Y00537105D01*
X00290473Y00898148D01*
X00277000Y00911621D01*
X00277000Y01445941D01*
X00275000Y01447941D01*
X00273000Y01445941D01*
X00273000Y00872675D01*
X00576043Y00569632D01*
X00609984Y00569632D01*
X00637516Y00542100D01*
X00637516Y00503164D01*
X00609984Y00475632D01*
X00571048Y00475632D01*
X00543516Y00503164D01*
X00543516Y00537105D01*
X00240473Y00840148D01*
X00227000Y00853621D01*
X00227000Y01445941D01*
X00225000Y01447941D01*
X00223000Y01445941D01*
X00223000Y00814675D01*
X00468043Y00569632D01*
X00501984Y00569632D01*
X00529516Y00542100D01*
X00529516Y00503164D01*
X00501984Y00475632D01*
X00463048Y00475632D01*
X00435516Y00503164D01*
X00435516Y00537105D01*
X00190473Y00782148D01*
X00177000Y00795621D01*
X00177000Y01445941D01*
X00175000Y01447941D01*
X00172000Y01444941D01*
X00172000Y00734113D01*
X00489516Y00416596D01*
X00489516Y00442100D01*
X00517048Y00469632D01*
X00555984Y00469632D01*
X00583516Y00442100D01*
X00583516Y00403164D01*
X00555984Y00375632D01*
X00530481Y00375632D01*
X00559113Y00347000D01*
X00828387Y00347000D01*
X00840500Y00359113D01*
X00840500Y00376180D01*
X00813516Y00403164D01*
X00813516Y00442100D01*
X00841048Y00469632D01*
X00879984Y00469632D01*
X00907516Y00442100D01*
X00907516Y00403164D01*
X00884500Y00380148D01*
X00884500Y00340887D01*
X00871613Y00328000D01*
X00846613Y00303000D01*
X00540887Y00303000D01*
X00528000Y00315887D01*
X00128000Y00715887D01*
X00128000Y01444941D01*
X00125000Y01447941D01*
X00122000Y01444941D01*
X00122000Y00678387D01*
X00097000Y00653387D01*
X00097000Y00518676D01*
X00111893Y00544471D01*
X00133676Y00566255D01*
X00160356Y00581658D01*
X00190113Y00589632D01*
X00220919Y00589632D01*
X00250676Y00581658D01*
X00277356Y00566255D01*
X00299139Y00544471D01*
X00314543Y00517792D01*
X00322516Y00488035D01*
X00322516Y00457228D01*
X00314543Y00427471D01*
X00299139Y00400792D01*
X00277356Y00379009D01*
X00250676Y00363605D01*
X00220919Y00355632D01*
X00190113Y00355632D01*
X00160356Y00363605D01*
X00133676Y00379009D01*
X00111893Y00400792D01*
X00097000Y00426587D01*
X00097000Y00396613D01*
X00146613Y00347000D01*
X00282441Y00347000D01*
X00291648Y00356207D01*
X00305178Y00361811D01*
X00319822Y00361811D01*
X00333352Y00356207D01*
X00343707Y00345852D01*
X00349311Y00332322D01*
X00349311Y00317678D01*
X00343707Y00304148D01*
X00333352Y00293793D01*
X00319822Y00288189D01*
X00305178Y00288189D01*
X00324091Y00289957D02*
X01350209Y00289957D01*
X01350209Y00299956D02*
X00339514Y00299956D01*
X00346112Y00309954D02*
X00533933Y00309954D01*
X00523934Y00319953D02*
X00349311Y00319953D01*
X00349311Y00329951D02*
X00513936Y00329951D01*
X00503937Y00339950D02*
X00346151Y00339950D01*
X00339610Y00349948D02*
X00493939Y00349948D01*
X00483940Y00359947D02*
X00324322Y00359947D01*
X00312500Y00325000D02*
X00137500Y00325000D01*
X00075000Y00387500D01*
X00075000Y00662500D01*
X00100000Y00687500D01*
X00100000Y01475000D01*
X00087768Y01509777D02*
X00045866Y01509777D01*
X00045866Y01499779D02*
X00072720Y01499779D01*
X00066278Y01489780D02*
X00045866Y01489780D01*
X00045866Y01479781D02*
X00063189Y01479781D01*
X00063189Y01469783D02*
X00045866Y01469783D01*
X00045866Y01459784D02*
X00066458Y01459784D01*
X00073155Y01449786D02*
X00045866Y01449786D01*
X00045866Y01439787D02*
X00078000Y01439787D01*
X00078000Y01429789D02*
X00045866Y01429789D01*
X00045866Y01419790D02*
X00078000Y01419790D01*
X00078000Y01409792D02*
X00045866Y01409792D01*
X00045866Y01399793D02*
X00078000Y01399793D01*
X00078000Y01389795D02*
X00045866Y01389795D01*
X00045866Y01379796D02*
X00078000Y01379796D01*
X00078000Y01369798D02*
X00045866Y01369798D01*
X00045866Y01359799D02*
X00078000Y01359799D01*
X00078000Y01349801D02*
X00045866Y01349801D01*
X00045866Y01339802D02*
X00078000Y01339802D01*
X00078000Y01329804D02*
X00045866Y01329804D01*
X00045866Y01319805D02*
X00078000Y01319805D01*
X00078000Y01309807D02*
X00045866Y01309807D01*
X00045866Y01299808D02*
X00078000Y01299808D01*
X00078000Y01289810D02*
X00045866Y01289810D01*
X00045866Y01279811D02*
X00078000Y01279811D01*
X00078000Y01269813D02*
X00045866Y01269813D01*
X00045866Y01259814D02*
X00078000Y01259814D01*
X00078000Y01249815D02*
X00045866Y01249815D01*
X00045866Y01239817D02*
X00078000Y01239817D01*
X00078000Y01229818D02*
X00045866Y01229818D01*
X00045866Y01219820D02*
X00078000Y01219820D01*
X00078000Y01209821D02*
X00045866Y01209821D01*
X00045866Y01199823D02*
X00078000Y01199823D01*
X00078000Y01189824D02*
X00045866Y01189824D01*
X00045866Y01179826D02*
X00078000Y01179826D01*
X00078000Y01169827D02*
X00045866Y01169827D01*
X00045866Y01159829D02*
X00078000Y01159829D01*
X00078000Y01149830D02*
X00045866Y01149830D01*
X00045866Y01139832D02*
X00078000Y01139832D01*
X00078000Y01129833D02*
X00045866Y01129833D01*
X00045866Y01119835D02*
X00078000Y01119835D01*
X00078000Y01109836D02*
X00045866Y01109836D01*
X00045866Y01099838D02*
X00078000Y01099838D01*
X00078000Y01089839D02*
X00045866Y01089839D01*
X00045866Y01079841D02*
X00078000Y01079841D01*
X00078000Y01069842D02*
X00045866Y01069842D01*
X00045866Y01059844D02*
X00078000Y01059844D01*
X00078000Y01049845D02*
X00045866Y01049845D01*
X00045866Y01039846D02*
X00078000Y01039846D01*
X00078000Y01029848D02*
X00045866Y01029848D01*
X00045866Y01019849D02*
X00078000Y01019849D01*
X00078000Y01009851D02*
X00045866Y01009851D01*
X00045866Y00999852D02*
X00078000Y00999852D01*
X00078000Y00989854D02*
X00045866Y00989854D01*
X00045866Y00979855D02*
X00078000Y00979855D01*
X00078000Y00969857D02*
X00045866Y00969857D01*
X00045866Y00959858D02*
X00078000Y00959858D01*
X00078000Y00949860D02*
X00045866Y00949860D01*
X00045866Y00939861D02*
X00078000Y00939861D01*
X00078000Y00929863D02*
X00045866Y00929863D01*
X00045866Y00919864D02*
X00078000Y00919864D01*
X00078000Y00909866D02*
X00045866Y00909866D01*
X00045866Y00899867D02*
X00078000Y00899867D01*
X00078000Y00889869D02*
X00045866Y00889869D01*
X00045866Y00879870D02*
X00078000Y00879870D01*
X00078000Y00869872D02*
X00045866Y00869872D01*
X00045866Y00859873D02*
X00078000Y00859873D01*
X00078000Y00849875D02*
X00045866Y00849875D01*
X00045866Y00839876D02*
X00078000Y00839876D01*
X00078000Y00829877D02*
X00045866Y00829877D01*
X00045866Y00819879D02*
X00078000Y00819879D01*
X00078000Y00809880D02*
X00045866Y00809880D01*
X00045866Y00799882D02*
X00078000Y00799882D01*
X00078000Y00789883D02*
X00045866Y00789883D01*
X00045866Y00779885D02*
X00078000Y00779885D01*
X00078000Y00769886D02*
X00045866Y00769886D01*
X00045866Y00759888D02*
X00078000Y00759888D01*
X00078000Y00749889D02*
X00045866Y00749889D01*
X00045866Y00739891D02*
X00078000Y00739891D01*
X00078000Y00729892D02*
X00045866Y00729892D01*
X00045866Y00719894D02*
X00078000Y00719894D01*
X00078000Y00709895D02*
X00045866Y00709895D01*
X00045866Y00699897D02*
X00078000Y00699897D01*
X00071285Y00689898D02*
X00045866Y00689898D01*
X00045866Y00679900D02*
X00061287Y00679900D01*
X00053000Y00669901D02*
X00045866Y00669901D01*
X00045866Y00659903D02*
X00053000Y00659903D01*
X00053000Y00649904D02*
X00045866Y00649904D01*
X00045866Y00639906D02*
X00053000Y00639906D01*
X00053000Y00629907D02*
X00045866Y00629907D01*
X00045866Y00619908D02*
X00053000Y00619908D01*
X00053000Y00609910D02*
X00045866Y00609910D01*
X00045866Y00599911D02*
X00053000Y00599911D01*
X00053000Y00589913D02*
X00045866Y00589913D01*
X00045866Y00579914D02*
X00053000Y00579914D01*
X00053000Y00569916D02*
X00045866Y00569916D01*
X00045866Y00559917D02*
X00053000Y00559917D01*
X00053000Y00549919D02*
X00045866Y00549919D01*
X00045866Y00539920D02*
X00053000Y00539920D01*
X00053000Y00529922D02*
X00045866Y00529922D01*
X00045866Y00519923D02*
X00053000Y00519923D01*
X00053000Y00509925D02*
X00045866Y00509925D01*
X00045866Y00499926D02*
X00053000Y00499926D01*
X00053000Y00489928D02*
X00045866Y00489928D01*
X00045866Y00479929D02*
X00053000Y00479929D01*
X00053000Y00469931D02*
X00045866Y00469931D01*
X00045866Y00459932D02*
X00053000Y00459932D01*
X00053000Y00449934D02*
X00045866Y00449934D01*
X00045866Y00439935D02*
X00053000Y00439935D01*
X00053000Y00429937D02*
X00045866Y00429937D01*
X00045866Y00419938D02*
X00053000Y00419938D01*
X00053000Y00409939D02*
X00045866Y00409939D01*
X00045866Y00399941D02*
X00053000Y00399941D01*
X00053000Y00389942D02*
X00045866Y00389942D01*
X00045866Y00379944D02*
X00053000Y00379944D01*
X00045866Y00369945D02*
X00061442Y00369945D01*
X00071440Y00359947D02*
X00045866Y00359947D01*
X00045866Y00349948D02*
X00081439Y00349948D01*
X00091437Y00339950D02*
X00045866Y00339950D01*
X00045866Y00329951D02*
X00101436Y00329951D01*
X00111434Y00319953D02*
X00045866Y00319953D01*
X00045866Y00309954D02*
X00121433Y00309954D01*
X00143664Y00349948D02*
X00285390Y00349948D01*
X00300678Y00359947D02*
X00237023Y00359947D01*
X00261658Y00369945D02*
X00473942Y00369945D01*
X00463943Y00379944D02*
X00278291Y00379944D01*
X00288289Y00389942D02*
X00453945Y00389942D01*
X00443946Y00399941D02*
X00298288Y00399941D01*
X00304420Y00409939D02*
X00433948Y00409939D01*
X00423949Y00419938D02*
X00310193Y00419938D01*
X00315203Y00429937D02*
X00413951Y00429937D01*
X00403952Y00439935D02*
X00317882Y00439935D01*
X00320561Y00449934D02*
X00393954Y00449934D01*
X00383955Y00459932D02*
X00322516Y00459932D01*
X00322516Y00469931D02*
X00373957Y00469931D01*
X00363958Y00479929D02*
X00322516Y00479929D01*
X00322009Y00489928D02*
X00353960Y00489928D01*
X00343961Y00499926D02*
X00319330Y00499926D01*
X00316651Y00509925D02*
X00333962Y00509925D01*
X00323964Y00519923D02*
X00313312Y00519923D01*
X00313965Y00529922D02*
X00307540Y00529922D01*
X00303967Y00539920D02*
X00301767Y00539920D01*
X00293968Y00549919D02*
X00293692Y00549919D01*
X00283970Y00559917D02*
X00283693Y00559917D01*
X00273971Y00569916D02*
X00271015Y00569916D01*
X00263973Y00579914D02*
X00253697Y00579914D01*
X00253974Y00589913D02*
X00097000Y00589913D01*
X00097000Y00599911D02*
X00243976Y00599911D01*
X00233977Y00609910D02*
X00097000Y00609910D01*
X00097000Y00619908D02*
X00223979Y00619908D01*
X00213980Y00629907D02*
X00097000Y00629907D01*
X00097000Y00639906D02*
X00203982Y00639906D01*
X00193983Y00649904D02*
X00097000Y00649904D01*
X00103515Y00659903D02*
X00183985Y00659903D01*
X00173986Y00669901D02*
X00113514Y00669901D01*
X00122000Y00679900D02*
X00163988Y00679900D01*
X00153989Y00689898D02*
X00122000Y00689898D01*
X00122000Y00699897D02*
X00143991Y00699897D01*
X00133992Y00709895D02*
X00122000Y00709895D01*
X00122000Y00719894D02*
X00128000Y00719894D01*
X00128000Y00729892D02*
X00122000Y00729892D01*
X00122000Y00739891D02*
X00128000Y00739891D01*
X00128000Y00749889D02*
X00122000Y00749889D01*
X00122000Y00759888D02*
X00128000Y00759888D01*
X00128000Y00769886D02*
X00122000Y00769886D01*
X00122000Y00779885D02*
X00128000Y00779885D01*
X00128000Y00789883D02*
X00122000Y00789883D01*
X00122000Y00799882D02*
X00128000Y00799882D01*
X00128000Y00809880D02*
X00122000Y00809880D01*
X00122000Y00819879D02*
X00128000Y00819879D01*
X00128000Y00829877D02*
X00122000Y00829877D01*
X00122000Y00839876D02*
X00128000Y00839876D01*
X00128000Y00849875D02*
X00122000Y00849875D01*
X00122000Y00859873D02*
X00128000Y00859873D01*
X00128000Y00869872D02*
X00122000Y00869872D01*
X00122000Y00879870D02*
X00128000Y00879870D01*
X00128000Y00889869D02*
X00122000Y00889869D01*
X00122000Y00899867D02*
X00128000Y00899867D01*
X00128000Y00909866D02*
X00122000Y00909866D01*
X00122000Y00919864D02*
X00128000Y00919864D01*
X00128000Y00929863D02*
X00122000Y00929863D01*
X00122000Y00939861D02*
X00128000Y00939861D01*
X00128000Y00949860D02*
X00122000Y00949860D01*
X00122000Y00959858D02*
X00128000Y00959858D01*
X00128000Y00969857D02*
X00122000Y00969857D01*
X00122000Y00979855D02*
X00128000Y00979855D01*
X00128000Y00989854D02*
X00122000Y00989854D01*
X00122000Y00999852D02*
X00128000Y00999852D01*
X00128000Y01009851D02*
X00122000Y01009851D01*
X00122000Y01019849D02*
X00128000Y01019849D01*
X00128000Y01029848D02*
X00122000Y01029848D01*
X00122000Y01039846D02*
X00128000Y01039846D01*
X00128000Y01049845D02*
X00122000Y01049845D01*
X00122000Y01059844D02*
X00128000Y01059844D01*
X00128000Y01069842D02*
X00122000Y01069842D01*
X00122000Y01079841D02*
X00128000Y01079841D01*
X00128000Y01089839D02*
X00122000Y01089839D01*
X00122000Y01099838D02*
X00128000Y01099838D01*
X00128000Y01109836D02*
X00122000Y01109836D01*
X00122000Y01119835D02*
X00128000Y01119835D01*
X00128000Y01129833D02*
X00122000Y01129833D01*
X00122000Y01139832D02*
X00128000Y01139832D01*
X00128000Y01149830D02*
X00122000Y01149830D01*
X00122000Y01159829D02*
X00128000Y01159829D01*
X00128000Y01169827D02*
X00122000Y01169827D01*
X00122000Y01179826D02*
X00128000Y01179826D01*
X00128000Y01189824D02*
X00122000Y01189824D01*
X00122000Y01199823D02*
X00128000Y01199823D01*
X00128000Y01209821D02*
X00122000Y01209821D01*
X00122000Y01219820D02*
X00128000Y01219820D01*
X00128000Y01229818D02*
X00122000Y01229818D01*
X00122000Y01239817D02*
X00128000Y01239817D01*
X00128000Y01249815D02*
X00122000Y01249815D01*
X00122000Y01259814D02*
X00128000Y01259814D01*
X00128000Y01269813D02*
X00122000Y01269813D01*
X00122000Y01279811D02*
X00128000Y01279811D01*
X00128000Y01289810D02*
X00122000Y01289810D01*
X00122000Y01299808D02*
X00128000Y01299808D01*
X00128000Y01309807D02*
X00122000Y01309807D01*
X00122000Y01319805D02*
X00128000Y01319805D01*
X00128000Y01329804D02*
X00122000Y01329804D01*
X00122000Y01339802D02*
X00128000Y01339802D01*
X00128000Y01349801D02*
X00122000Y01349801D01*
X00122000Y01359799D02*
X00128000Y01359799D01*
X00128000Y01369798D02*
X00122000Y01369798D01*
X00122000Y01379796D02*
X00128000Y01379796D01*
X00128000Y01389795D02*
X00122000Y01389795D01*
X00122000Y01399793D02*
X00128000Y01399793D01*
X00128000Y01409792D02*
X00122000Y01409792D01*
X00122000Y01419790D02*
X00128000Y01419790D01*
X00128000Y01429789D02*
X00122000Y01429789D01*
X00122000Y01439787D02*
X00128000Y01439787D01*
X00150000Y01475000D02*
X00150000Y00725000D01*
X00550000Y00325000D01*
X00837500Y00325000D01*
X00862500Y00350000D01*
X00862500Y00420648D01*
X00860516Y00422632D01*
X00826737Y00389942D02*
X00786294Y00389942D01*
X00776296Y00379944D02*
X00836736Y00379944D01*
X00840500Y00369945D02*
X00536167Y00369945D01*
X00546166Y00359947D02*
X00840500Y00359947D01*
X00831336Y00349948D02*
X00556164Y00349948D01*
X00560296Y00379944D02*
X00623564Y00379944D01*
X00625876Y00377632D02*
X00639516Y00377632D01*
X00639516Y00417631D01*
X00649516Y00417631D01*
X00649516Y00377632D01*
X00663156Y00377632D01*
X00689516Y00403992D01*
X00689516Y00417632D01*
X00649516Y00417632D01*
X00649516Y00427632D01*
X00639516Y00427632D01*
X00639516Y00467632D01*
X00625876Y00467632D01*
X00599516Y00441271D01*
X00599516Y00427632D01*
X00639515Y00427632D01*
X00639515Y00417632D01*
X00599516Y00417632D01*
X00599516Y00403992D01*
X00625876Y00377632D01*
X00639516Y00379944D02*
X00649516Y00379944D01*
X00649516Y00389942D02*
X00639516Y00389942D01*
X00639516Y00399941D02*
X00649516Y00399941D01*
X00649516Y00409939D02*
X00639516Y00409939D01*
X00639515Y00419938D02*
X00583516Y00419938D01*
X00583516Y00429937D02*
X00599516Y00429937D01*
X00599516Y00439935D02*
X00583516Y00439935D01*
X00575682Y00449934D02*
X00608178Y00449934D01*
X00618177Y00459932D02*
X00565684Y00459932D01*
X00566751Y00479929D02*
X00506281Y00479929D01*
X00516280Y00489928D02*
X00556752Y00489928D01*
X00546754Y00499926D02*
X00526278Y00499926D01*
X00529516Y00509925D02*
X00543516Y00509925D01*
X00543516Y00519923D02*
X00529516Y00519923D01*
X00529516Y00529922D02*
X00543516Y00529922D01*
X00540701Y00539920D02*
X00529516Y00539920D01*
X00530702Y00549919D02*
X00521697Y00549919D01*
X00520704Y00559917D02*
X00511698Y00559917D01*
X00510705Y00569916D02*
X00467759Y00569916D01*
X00457760Y00579914D02*
X00500707Y00579914D01*
X00490708Y00589913D02*
X00447762Y00589913D01*
X00437763Y00599911D02*
X00480710Y00599911D01*
X00470711Y00609910D02*
X00427765Y00609910D01*
X00417766Y00619908D02*
X00460712Y00619908D01*
X00450714Y00629907D02*
X00407768Y00629907D01*
X00397769Y00639906D02*
X00440715Y00639906D01*
X00430717Y00649904D02*
X00387771Y00649904D01*
X00377772Y00659903D02*
X00420718Y00659903D01*
X00410720Y00669901D02*
X00367773Y00669901D01*
X00357775Y00679900D02*
X00400721Y00679900D01*
X00390723Y00689898D02*
X00347776Y00689898D01*
X00337778Y00699897D02*
X00380724Y00699897D01*
X00370726Y00709895D02*
X00327779Y00709895D01*
X00317781Y00719894D02*
X00360727Y00719894D01*
X00350729Y00729892D02*
X00307782Y00729892D01*
X00297784Y00739891D02*
X00340730Y00739891D01*
X00330732Y00749889D02*
X00287785Y00749889D01*
X00277787Y00759888D02*
X00320733Y00759888D01*
X00310735Y00769886D02*
X00267788Y00769886D01*
X00257790Y00779885D02*
X00300736Y00779885D01*
X00290738Y00789883D02*
X00247791Y00789883D01*
X00237793Y00799882D02*
X00280739Y00799882D01*
X00270741Y00809880D02*
X00227794Y00809880D01*
X00223000Y00819879D02*
X00260742Y00819879D01*
X00250743Y00829877D02*
X00223000Y00829877D01*
X00223000Y00839876D02*
X00240745Y00839876D01*
X00230746Y00849875D02*
X00223000Y00849875D01*
X00223000Y00859873D02*
X00227000Y00859873D01*
X00227000Y00869872D02*
X00223000Y00869872D01*
X00223000Y00879870D02*
X00227000Y00879870D01*
X00227000Y00889869D02*
X00223000Y00889869D01*
X00223000Y00899867D02*
X00227000Y00899867D01*
X00227000Y00909866D02*
X00223000Y00909866D01*
X00223000Y00919864D02*
X00227000Y00919864D01*
X00227000Y00929863D02*
X00223000Y00929863D01*
X00223000Y00939861D02*
X00227000Y00939861D01*
X00227000Y00949860D02*
X00223000Y00949860D01*
X00223000Y00959858D02*
X00227000Y00959858D01*
X00227000Y00969857D02*
X00223000Y00969857D01*
X00223000Y00979855D02*
X00227000Y00979855D01*
X00227000Y00989854D02*
X00223000Y00989854D01*
X00223000Y00999852D02*
X00227000Y00999852D01*
X00227000Y01009851D02*
X00223000Y01009851D01*
X00223000Y01019849D02*
X00227000Y01019849D01*
X00227000Y01029848D02*
X00223000Y01029848D01*
X00223000Y01039846D02*
X00227000Y01039846D01*
X00227000Y01049845D02*
X00223000Y01049845D01*
X00223000Y01059844D02*
X00227000Y01059844D01*
X00227000Y01069842D02*
X00223000Y01069842D01*
X00223000Y01079841D02*
X00227000Y01079841D01*
X00227000Y01089839D02*
X00223000Y01089839D01*
X00223000Y01099838D02*
X00227000Y01099838D01*
X00227000Y01109836D02*
X00223000Y01109836D01*
X00223000Y01119835D02*
X00227000Y01119835D01*
X00227000Y01129833D02*
X00223000Y01129833D01*
X00223000Y01139832D02*
X00227000Y01139832D01*
X00227000Y01149830D02*
X00223000Y01149830D01*
X00223000Y01159829D02*
X00227000Y01159829D01*
X00227000Y01169827D02*
X00223000Y01169827D01*
X00223000Y01179826D02*
X00227000Y01179826D01*
X00227000Y01189824D02*
X00223000Y01189824D01*
X00223000Y01199823D02*
X00227000Y01199823D01*
X00227000Y01209821D02*
X00223000Y01209821D01*
X00223000Y01219820D02*
X00227000Y01219820D01*
X00227000Y01229818D02*
X00223000Y01229818D01*
X00223000Y01239817D02*
X00227000Y01239817D01*
X00227000Y01249815D02*
X00223000Y01249815D01*
X00223000Y01259814D02*
X00227000Y01259814D01*
X00227000Y01269813D02*
X00223000Y01269813D01*
X00223000Y01279811D02*
X00227000Y01279811D01*
X00227000Y01289810D02*
X00223000Y01289810D01*
X00223000Y01299808D02*
X00227000Y01299808D01*
X00227000Y01309807D02*
X00223000Y01309807D01*
X00223000Y01319805D02*
X00227000Y01319805D01*
X00227000Y01329804D02*
X00223000Y01329804D01*
X00223000Y01339802D02*
X00227000Y01339802D01*
X00227000Y01349801D02*
X00223000Y01349801D01*
X00223000Y01359799D02*
X00227000Y01359799D01*
X00227000Y01369798D02*
X00223000Y01369798D01*
X00223000Y01379796D02*
X00227000Y01379796D01*
X00227000Y01389795D02*
X00223000Y01389795D01*
X00223000Y01399793D02*
X00227000Y01399793D01*
X00227000Y01409792D02*
X00223000Y01409792D01*
X00223000Y01419790D02*
X00227000Y01419790D01*
X00227000Y01429789D02*
X00223000Y01429789D01*
X00223000Y01439787D02*
X00227000Y01439787D01*
X00237768Y01509777D02*
X00212232Y01509777D01*
X00187768Y01509777D02*
X00162232Y01509777D01*
X00137768Y01509777D02*
X00112232Y01509777D01*
X00045866Y01519776D02*
X01144000Y01519776D01*
X01144000Y01529774D02*
X01134097Y01529774D01*
X01130169Y01525846D02*
X01144000Y01539677D01*
X01144000Y01503390D01*
X01133173Y01492563D01*
X01098906Y01492563D01*
X01088948Y01482605D01*
X01088948Y01479327D01*
X01085737Y01482538D01*
X01072931Y01487842D01*
X01059069Y01487842D01*
X01046263Y01482538D01*
X01036462Y01472737D01*
X01031157Y01459931D01*
X01031157Y01446069D01*
X01036462Y01433263D01*
X01046263Y01423462D01*
X01059069Y01418157D01*
X01072931Y01418157D01*
X01085737Y01423462D01*
X01090187Y01427913D01*
X01098906Y01419194D01*
X01156296Y01419194D01*
X01162480Y01425377D01*
X01163667Y01424191D01*
X01167087Y01422216D01*
X01170902Y01421194D01*
X01189688Y01421194D01*
X01189688Y01451035D01*
X01199373Y01451035D01*
X01199373Y01421194D01*
X01218159Y01421194D01*
X01221974Y01422216D01*
X01225394Y01424191D01*
X01228187Y01426983D01*
X01230162Y01430404D01*
X01231184Y01434219D01*
X01231184Y01451036D01*
X01199374Y01451036D01*
X01199374Y01460721D01*
X01231184Y01460721D01*
X01231184Y01477538D01*
X01230162Y01481353D01*
X01228187Y01484774D01*
X01225394Y01487566D01*
X01221974Y01489541D01*
X01218159Y01490563D01*
X01199373Y01490563D01*
X01199373Y01460722D01*
X01189688Y01460722D01*
X01189688Y01490563D01*
X01188000Y01490563D01*
X01188000Y01529565D01*
X01193719Y01523846D01*
X01230998Y01523846D01*
X01244000Y01536849D01*
X01244000Y01412113D01*
X01231887Y01400000D01*
X00963300Y01400000D01*
X00955785Y01401047D01*
X00955769Y01401034D01*
X00955728Y01401040D01*
X00954355Y01400000D01*
X00905775Y01400000D01*
X00898237Y01407538D01*
X00885431Y01412842D01*
X00871569Y01412842D01*
X00858763Y01407538D01*
X00851225Y01400000D01*
X00588000Y01400000D01*
X00588000Y01425725D01*
X00595538Y01433263D01*
X00600842Y01446069D01*
X00600842Y01459931D01*
X00595538Y01472737D01*
X00585737Y01482538D01*
X00572931Y01487842D01*
X00559069Y01487842D01*
X00549682Y01483954D01*
X00548141Y01485496D01*
X00494687Y01485496D01*
X00484729Y01475538D01*
X00484729Y01418147D01*
X00490913Y01411964D01*
X00489726Y01410777D01*
X00487751Y01407357D01*
X00486729Y01403542D01*
X00486729Y01384756D01*
X00516571Y01384756D01*
X00516571Y01375071D01*
X00486729Y01375071D01*
X00486729Y01356285D01*
X00487751Y01352470D01*
X00489726Y01349050D01*
X00492519Y01346257D01*
X00495939Y01344282D01*
X00499754Y01343260D01*
X00516571Y01343260D01*
X00516571Y01375070D01*
X00526257Y01375070D01*
X00526257Y01343260D01*
X00543074Y01343260D01*
X00546889Y01344282D01*
X00550309Y01346257D01*
X00553102Y01349050D01*
X00555077Y01352470D01*
X00556099Y01356285D01*
X00556099Y01356788D01*
X00556887Y01356000D01*
X00851225Y01356000D01*
X00858763Y01348462D01*
X00871569Y01343157D01*
X00885431Y01343157D01*
X00898237Y01348462D01*
X00905775Y01356000D01*
X00939055Y01356000D01*
X00939055Y01330820D01*
X00945239Y01324637D01*
X00944052Y01323450D01*
X00942077Y01320030D01*
X00941055Y01316215D01*
X00941055Y01297429D01*
X00970897Y01297429D01*
X00970897Y01287744D01*
X00941055Y01287744D01*
X00941055Y01268958D01*
X00942077Y01265143D01*
X00944052Y01261723D01*
X00946845Y01258930D01*
X00950265Y01256955D01*
X00954080Y01255933D01*
X00970897Y01255933D01*
X00970897Y01287743D01*
X00980583Y01287743D01*
X00980583Y01255933D01*
X00997400Y01255933D01*
X01001215Y01256955D01*
X01004635Y01258930D01*
X01007428Y01261723D01*
X01009403Y01265143D01*
X01010425Y01268958D01*
X01010425Y01287744D01*
X00980583Y01287744D01*
X00980583Y01297429D01*
X01010425Y01297429D01*
X01010425Y01316215D01*
X01009403Y01320030D01*
X01007428Y01323450D01*
X01006241Y01324637D01*
X01012425Y01330820D01*
X01012425Y01356000D01*
X01250113Y01356000D01*
X01263000Y01368887D01*
X01288000Y01393887D01*
X01288000Y01662113D01*
X01281266Y01668846D01*
X01288000Y01675580D01*
X01288000Y01874613D01*
X01275113Y01887500D01*
X01246647Y01915966D01*
X01236390Y01915966D01*
X01236390Y01922661D01*
X01226432Y01932619D01*
X01221705Y01932619D01*
X01221705Y01940907D01*
X01200500Y01962113D01*
X01187613Y01975000D01*
X01044387Y01975000D01*
X01041000Y01971613D01*
X01038000Y01974613D01*
X01025113Y01987500D01*
X01007435Y01987500D01*
X01007435Y01994440D01*
X00997477Y02004399D01*
X00944024Y02004399D01*
X00934065Y01994440D01*
X00934065Y01987500D01*
X00830775Y01987500D01*
X00823237Y01995038D01*
X00810431Y02000342D01*
X00796569Y02000342D01*
X00789000Y01997207D01*
X00789000Y02114225D01*
X00795538Y02120763D01*
X00800842Y02133569D01*
X00800842Y02147431D01*
X00795736Y02159758D01*
X00807992Y02154681D01*
X00826173Y02154681D01*
X00842970Y02161639D01*
X00855826Y02174494D01*
X00862783Y02191291D01*
X00862783Y02266874D01*
X00855826Y02283671D01*
X00842970Y02296527D01*
X00826173Y02303484D01*
X00807992Y02303484D01*
X00791195Y02296527D01*
X00778339Y02283671D01*
X00771382Y02266874D01*
X00771382Y02191291D01*
X00778339Y02174494D01*
X00780717Y02172117D01*
X00772931Y02175342D01*
X00759069Y02175342D01*
X00757479Y02174684D01*
X00764358Y02191291D01*
X00764358Y02266874D01*
X00757401Y02283671D01*
X00744545Y02296527D01*
X00727748Y02303484D01*
X00709567Y02303484D01*
X00692770Y02296527D01*
X00679914Y02283671D01*
X00679287Y02282157D01*
X00678660Y02283671D01*
X00665805Y02296527D01*
X00649008Y02303484D01*
X00630827Y02303484D01*
X00614030Y02296527D01*
X00601174Y02283671D01*
X00594217Y02266874D01*
X00594217Y02191291D01*
X00601174Y02174494D01*
X00614030Y02161639D01*
X00619000Y02159580D01*
X00619000Y02030275D01*
X00611462Y02022737D01*
X00606157Y02009931D01*
X00606157Y01996069D01*
X00611462Y01983263D01*
X00621263Y01973462D01*
X00634069Y01968157D01*
X00647931Y01968157D01*
X00660737Y01973462D01*
X00666000Y01978725D01*
X00671263Y01973462D01*
X00684069Y01968157D01*
X00693657Y01968157D01*
X00693657Y01962500D01*
X00587278Y01962500D01*
X00583038Y01972737D01*
X00573237Y01982538D01*
X00560431Y01987842D01*
X00546569Y01987842D01*
X00533763Y01982538D01*
X00523962Y01972737D01*
X00519126Y01961061D01*
X00519126Y01965760D01*
X00489284Y01965760D01*
X00489284Y01975445D01*
X00519126Y01975445D01*
X00519126Y01994231D01*
X00518104Y01998046D01*
X00516129Y02001466D01*
X00513336Y02004259D01*
X00509916Y02006234D01*
X00506101Y02007256D01*
X00489283Y02007256D01*
X00489283Y01975446D01*
X00479598Y01975446D01*
X00479598Y02007256D01*
X00462781Y02007256D01*
X00458966Y02006234D01*
X00455546Y02004259D01*
X00452753Y02001466D01*
X00450778Y01998046D01*
X00449756Y01994231D01*
X00449756Y01975445D01*
X00479598Y01975445D01*
X00479598Y01965760D01*
X00449756Y01965760D01*
X00449756Y01946974D01*
X00450778Y01943159D01*
X00452753Y01939739D01*
X00453940Y01938552D01*
X00447756Y01932368D01*
X00447756Y01925673D01*
X00424439Y01925673D01*
X00400500Y01949613D01*
X00400500Y02255058D01*
X00404260Y02253500D01*
X00436992Y02253500D01*
X00467231Y02266026D01*
X00490376Y02289170D01*
X00502901Y02319410D01*
X00502901Y02352141D01*
X00490376Y02382381D01*
X00467231Y02405525D01*
X00436992Y02418051D01*
X00404260Y02418051D01*
X00374021Y02405525D01*
X00350876Y02382381D01*
X00338350Y02352141D01*
X00338350Y02324262D01*
X00338000Y02324613D01*
X00325113Y02337500D01*
X00305775Y02337500D01*
X00298237Y02345038D01*
X00285431Y02350342D01*
X00271569Y02350342D01*
X00258763Y02345038D01*
X00248962Y02335237D01*
X00243657Y02322431D01*
X00243657Y02308569D01*
X00248962Y02295763D01*
X00258763Y02285962D01*
X00271569Y02280657D01*
X00285431Y02280657D01*
X00298237Y02285962D01*
X00305775Y02293500D01*
X00306887Y02293500D01*
X00356500Y02243887D01*
X00356500Y01931387D01*
X00369387Y01918500D01*
X00406214Y01881673D01*
X00447756Y01881673D01*
X00447756Y01874978D01*
X00457714Y01865020D01*
X00511168Y01865020D01*
X00521126Y01874978D01*
X00521126Y01881673D01*
X00538052Y01881673D01*
X00546263Y01873462D01*
X00559069Y01868157D01*
X00572931Y01868157D01*
X00585737Y01873462D01*
X00595538Y01883263D01*
X00600842Y01896069D01*
X00600842Y01909931D01*
X00597293Y01918500D01*
X00712613Y01918500D01*
X00724770Y01930657D01*
X00735431Y01930657D01*
X00743000Y01933793D01*
X00743000Y01850342D01*
X00734069Y01850342D01*
X00721263Y01845038D01*
X00711462Y01835237D01*
X00706157Y01822431D01*
X00706157Y01808569D01*
X00711462Y01795763D01*
X00716379Y01790846D01*
X00675810Y01790846D01*
X00677811Y01795678D01*
X00677811Y01810322D01*
X00672207Y01823852D01*
X00661852Y01834207D01*
X00648322Y01839811D01*
X00633678Y01839811D01*
X00620148Y01834207D01*
X00609793Y01823852D01*
X00604189Y01810322D01*
X00604189Y01795678D01*
X00609793Y01782148D01*
X00620148Y01771793D01*
X00633678Y01766189D01*
X00634198Y01766189D01*
X00640654Y01759734D01*
X00653541Y01746846D01*
X00763567Y01746846D01*
X00763567Y01684500D01*
X00670843Y01684500D01*
X00670538Y01685237D01*
X00660737Y01695038D01*
X00647931Y01700342D01*
X00634069Y01700342D01*
X00621263Y01695038D01*
X00611462Y01685237D01*
X00606157Y01672431D01*
X00606157Y01658569D01*
X00611462Y01645763D01*
X00621263Y01635962D01*
X00634069Y01630657D01*
X00647931Y01630657D01*
X00660737Y01635962D01*
X00665275Y01640500D01*
X00765567Y01640500D01*
X00765567Y01615382D01*
X00811000Y01615382D01*
X00811000Y01605382D01*
X00765567Y01605382D01*
X00765567Y01576911D01*
X00766589Y01573096D01*
X00768564Y01569676D01*
X00771357Y01566883D01*
X00774777Y01564908D01*
X00778592Y01563886D01*
X00811000Y01563886D01*
X00811000Y01605381D01*
X00821000Y01605381D01*
X00821000Y01563886D01*
X00853408Y01563886D01*
X00857223Y01564908D01*
X00860643Y01566883D01*
X00863436Y01569676D01*
X00865411Y01573096D01*
X00866433Y01576911D01*
X00866433Y01605382D01*
X00821000Y01605382D01*
X00821000Y01615382D01*
X00866433Y01615382D01*
X00866433Y01640500D01*
X00884113Y01640500D01*
X00937113Y01693500D01*
X01019725Y01693500D01*
X01011462Y01685237D01*
X01006157Y01672431D01*
X01006157Y01658569D01*
X01011462Y01645763D01*
X01021263Y01635962D01*
X01034069Y01630657D01*
X01047931Y01630657D01*
X01060737Y01635962D01*
X01068275Y01643500D01*
X01074065Y01643500D01*
X01093719Y01623846D01*
X01130998Y01623846D01*
X01135019Y01627868D01*
X01144000Y01618887D01*
X01144000Y01598016D01*
X01130169Y01611846D01*
X01116358Y01611846D01*
X01116358Y01572847D01*
X01108358Y01572847D01*
X01108358Y01611846D01*
X01094547Y01611846D01*
X01069358Y01586657D01*
X01069358Y01572846D01*
X01108357Y01572846D01*
X01108357Y01564846D01*
X01069358Y01564846D01*
X01069358Y01551035D01*
X01094547Y01525846D01*
X01108358Y01525846D01*
X01108358Y01564846D01*
X01116358Y01564846D01*
X01116358Y01525846D01*
X01130169Y01525846D01*
X01116358Y01529774D02*
X01108358Y01529774D01*
X01108358Y01539773D02*
X01116358Y01539773D01*
X01116358Y01549771D02*
X01108358Y01549771D01*
X01108358Y01559770D02*
X01116358Y01559770D01*
X01108357Y01569768D02*
X00863489Y01569768D01*
X00866433Y01579767D02*
X01069358Y01579767D01*
X01072466Y01589765D02*
X00866433Y01589765D01*
X00866433Y01599764D02*
X01082465Y01599764D01*
X01092463Y01609762D02*
X00821000Y01609762D01*
X00821000Y01599764D02*
X00811000Y01599764D01*
X00811000Y01609762D02*
X00045866Y01609762D01*
X00045866Y01599764D02*
X00765567Y01599764D01*
X00765567Y01589765D02*
X00045866Y01589765D01*
X00045866Y01579767D02*
X00765567Y01579767D01*
X00768510Y01569768D02*
X00045866Y01569768D01*
X00045866Y01559770D02*
X01069358Y01559770D01*
X01070622Y01549771D02*
X00045866Y01549771D01*
X00045866Y01539773D02*
X01080621Y01539773D01*
X01090619Y01529774D02*
X00045866Y01529774D01*
X00045866Y01619761D02*
X00765567Y01619761D01*
X00765567Y01629759D02*
X00045866Y01629759D01*
X00045866Y01639758D02*
X00617467Y01639758D01*
X00609808Y01649756D02*
X00045866Y01649756D01*
X00045866Y01659755D02*
X00606157Y01659755D01*
X00606157Y01669753D02*
X00045866Y01669753D01*
X00045866Y01679752D02*
X00609190Y01679752D01*
X00615976Y01689750D02*
X00045866Y01689750D01*
X00045866Y01699749D02*
X00632637Y01699749D01*
X00649363Y01699749D02*
X00763567Y01699749D01*
X00763567Y01689750D02*
X00666024Y01689750D01*
X00641000Y01665500D02*
X00644000Y01662500D01*
X00875000Y01662500D01*
X00928000Y01715500D01*
X01159012Y01715500D01*
X01212358Y01768846D01*
X01244000Y01800844D02*
X01230998Y01813846D01*
X01193719Y01813846D01*
X01167358Y01787486D01*
X01167358Y01754959D01*
X01149899Y01737500D01*
X01144651Y01737500D01*
X01157358Y01750207D01*
X01157358Y01787486D01*
X01130998Y01813846D01*
X01093719Y01813846D01*
X01070719Y01790846D01*
X00765621Y01790846D01*
X00770538Y01795763D01*
X00775842Y01808569D01*
X00775842Y01817816D01*
X00789000Y01830973D01*
X00789000Y01933793D01*
X00796569Y01930657D01*
X00810431Y01930657D01*
X00823237Y01935962D01*
X00830775Y01943500D01*
X00934065Y01943500D01*
X00934065Y01937050D01*
X00940249Y01930867D01*
X00939063Y01929680D01*
X00937088Y01926259D01*
X00936065Y01922445D01*
X00936065Y01903659D01*
X00965907Y01903659D01*
X00965907Y01893973D01*
X00936065Y01893973D01*
X00936065Y01875188D01*
X00937088Y01871373D01*
X00939063Y01867952D01*
X00941855Y01865160D01*
X00945276Y01863185D01*
X00949091Y01862163D01*
X00965908Y01862163D01*
X00965908Y01893973D01*
X00975593Y01893973D01*
X00975593Y01862163D01*
X00992410Y01862163D01*
X00996225Y01863185D01*
X00999646Y01865160D01*
X01002438Y01867952D01*
X01004413Y01871373D01*
X01005435Y01875188D01*
X01005435Y01893973D01*
X00975594Y01893973D01*
X00975594Y01903659D01*
X01005435Y01903659D01*
X01005435Y01922445D01*
X01004413Y01926259D01*
X01002438Y01929680D01*
X01001252Y01930867D01*
X01007435Y01937050D01*
X01007435Y01942952D01*
X01019000Y01931387D01*
X01019000Y01880275D01*
X01011462Y01872737D01*
X01006157Y01859931D01*
X01006157Y01846069D01*
X01011462Y01833263D01*
X01021263Y01823462D01*
X01034069Y01818157D01*
X01047931Y01818157D01*
X01060737Y01823462D01*
X01070538Y01833263D01*
X01075842Y01846069D01*
X01075842Y01859931D01*
X01072435Y01868157D01*
X01085431Y01868157D01*
X01096091Y01872573D01*
X01096091Y01865271D01*
X01106049Y01855312D01*
X01159503Y01855312D01*
X01166241Y01862050D01*
X01172979Y01855312D01*
X01226432Y01855312D01*
X01235753Y01864634D01*
X01244000Y01856387D01*
X01244000Y01800844D01*
X01244000Y01809733D02*
X01235111Y01809733D01*
X01244000Y01819731D02*
X01051730Y01819731D01*
X01067005Y01829730D02*
X01244000Y01829730D01*
X01244000Y01839728D02*
X01073216Y01839728D01*
X01075842Y01849727D02*
X01244000Y01849727D01*
X01240662Y01859725D02*
X01230845Y01859725D01*
X01237534Y01893966D02*
X01266000Y01865500D01*
X01266000Y01684693D01*
X01250154Y01668846D01*
X01266000Y01653000D01*
X01266000Y01403000D01*
X01241000Y01378000D01*
X00961776Y01378000D01*
X00975740Y01359516D01*
X00961744Y01378000D01*
X00878500Y01378000D01*
X00566000Y01378000D01*
X00566000Y01453000D01*
X00588493Y01479781D02*
X01043507Y01479781D01*
X01035239Y01469783D02*
X00596761Y01469783D01*
X00600842Y01459784D02*
X01031157Y01459784D01*
X01031157Y01449786D02*
X00600842Y01449786D01*
X00598240Y01439787D02*
X01033759Y01439787D01*
X01039936Y01429789D02*
X00592063Y01429789D01*
X00588000Y01419790D02*
X01055127Y01419790D01*
X01066000Y01453000D02*
X01124723Y01453000D01*
X01127601Y01455879D01*
X01166000Y01494277D01*
X01166000Y01628000D01*
X01131846Y01662154D01*
X01131846Y01668846D01*
X01112358Y01668846D01*
X01106846Y01668846D01*
X01103500Y01665500D01*
X01041000Y01665500D01*
X01015976Y01689750D02*
X00933363Y01689750D01*
X00923365Y01679752D02*
X01009190Y01679752D01*
X01006157Y01669753D02*
X00913366Y01669753D01*
X00903368Y01659755D02*
X01006157Y01659755D01*
X01009808Y01649756D02*
X00893369Y01649756D01*
X00866433Y01639758D02*
X01017467Y01639758D01*
X01064532Y01639758D02*
X01077807Y01639758D01*
X01087806Y01629759D02*
X00866433Y01629759D01*
X00866433Y01619761D02*
X01143126Y01619761D01*
X01144000Y01609762D02*
X01132253Y01609762D01*
X01142252Y01599764D02*
X01144000Y01599764D01*
X01116358Y01599764D02*
X01108358Y01599764D01*
X01108358Y01609762D02*
X01116358Y01609762D01*
X01116358Y01589765D02*
X01108358Y01589765D01*
X01108358Y01579767D02*
X01116358Y01579767D01*
X01144000Y01509777D02*
X00424732Y01509777D01*
X00439780Y01499779D02*
X01140389Y01499779D01*
X01096123Y01489780D02*
X00446222Y01489780D01*
X00449311Y01479781D02*
X00488973Y01479781D01*
X00484729Y01469783D02*
X00449311Y01469783D01*
X00446041Y01459784D02*
X00484729Y01459784D01*
X00484729Y01449786D02*
X00439345Y01449786D01*
X00435500Y01439787D02*
X00484729Y01439787D01*
X00484729Y01429789D02*
X00435500Y01429789D01*
X00435500Y01419790D02*
X00484729Y01419790D01*
X00489157Y01409792D02*
X00435500Y01409792D01*
X00435500Y01399793D02*
X00486729Y01399793D01*
X00486729Y01389795D02*
X00435500Y01389795D01*
X00435500Y01379796D02*
X00516571Y01379796D01*
X00516571Y01369798D02*
X00526257Y01369798D01*
X00526257Y01359799D02*
X00516571Y01359799D01*
X00516571Y01349801D02*
X00526257Y01349801D01*
X00553535Y01349801D02*
X00857424Y01349801D01*
X00864205Y01409792D02*
X00588000Y01409792D01*
X00489292Y01349801D02*
X00435500Y01349801D01*
X00435500Y01359799D02*
X00486729Y01359799D01*
X00486729Y01369798D02*
X00435500Y01369798D01*
X00435500Y01339802D02*
X00939055Y01339802D01*
X00939055Y01349801D02*
X00899575Y01349801D01*
X00892795Y01409792D02*
X01241679Y01409792D01*
X01244000Y01419790D02*
X01156893Y01419790D01*
X01189688Y01429789D02*
X01199373Y01429789D01*
X01199373Y01439787D02*
X01189688Y01439787D01*
X01189688Y01449786D02*
X01199373Y01449786D01*
X01199374Y01459784D02*
X01244000Y01459784D01*
X01244000Y01449786D02*
X01231184Y01449786D01*
X01231184Y01439787D02*
X01244000Y01439787D01*
X01244000Y01429789D02*
X01229806Y01429789D01*
X01231184Y01469783D02*
X01244000Y01469783D01*
X01244000Y01479781D02*
X01230583Y01479781D01*
X01221083Y01489780D02*
X01244000Y01489780D01*
X01244000Y01499779D02*
X01188000Y01499779D01*
X01188000Y01509777D02*
X01244000Y01509777D01*
X01244000Y01519776D02*
X01188000Y01519776D01*
X01189688Y01489780D02*
X01199373Y01489780D01*
X01199373Y01479781D02*
X01189688Y01479781D01*
X01189688Y01469783D02*
X01199373Y01469783D01*
X01236925Y01529774D02*
X01244000Y01529774D01*
X01288000Y01529774D02*
X01350209Y01529774D01*
X01350209Y01519776D02*
X01288000Y01519776D01*
X01288000Y01509777D02*
X01350209Y01509777D01*
X01350209Y01499779D02*
X01288000Y01499779D01*
X01288000Y01489780D02*
X01350209Y01489780D01*
X01350209Y01479781D02*
X01288000Y01479781D01*
X01288000Y01469783D02*
X01350209Y01469783D01*
X01350209Y01459784D02*
X01288000Y01459784D01*
X01288000Y01449786D02*
X01350209Y01449786D01*
X01350209Y01439787D02*
X01288000Y01439787D01*
X01288000Y01429789D02*
X01350209Y01429789D01*
X01350209Y01419790D02*
X01288000Y01419790D01*
X01288000Y01409792D02*
X01350209Y01409792D01*
X01350209Y01399793D02*
X01288000Y01399793D01*
X01283907Y01389795D02*
X01350209Y01389795D01*
X01350209Y01379796D02*
X01273909Y01379796D01*
X01263910Y01369798D02*
X01350209Y01369798D01*
X01350209Y01359799D02*
X01253912Y01359799D01*
X01288000Y01539773D02*
X01350209Y01539773D01*
X01350209Y01549771D02*
X01288000Y01549771D01*
X01288000Y01559770D02*
X01350209Y01559770D01*
X01350209Y01569768D02*
X01288000Y01569768D01*
X01288000Y01579767D02*
X01350209Y01579767D01*
X01350209Y01589765D02*
X01288000Y01589765D01*
X01288000Y01599764D02*
X01350209Y01599764D01*
X01350209Y01609762D02*
X01288000Y01609762D01*
X01288000Y01619761D02*
X01350209Y01619761D01*
X01350209Y01629759D02*
X01288000Y01629759D01*
X01288000Y01639758D02*
X01350209Y01639758D01*
X01350209Y01649756D02*
X01288000Y01649756D01*
X01288000Y01659755D02*
X01350209Y01659755D01*
X01350209Y01669753D02*
X01282173Y01669753D01*
X01288000Y01679752D02*
X01350209Y01679752D01*
X01350209Y01689750D02*
X01288000Y01689750D01*
X01288000Y01699749D02*
X01350209Y01699749D01*
X01350209Y01709748D02*
X01288000Y01709748D01*
X01288000Y01719746D02*
X01350209Y01719746D01*
X01350209Y01729745D02*
X01288000Y01729745D01*
X01288000Y01739743D02*
X01350209Y01739743D01*
X01350209Y01749742D02*
X01288000Y01749742D01*
X01288000Y01759740D02*
X01350209Y01759740D01*
X01350209Y01769739D02*
X01288000Y01769739D01*
X01288000Y01779737D02*
X01350209Y01779737D01*
X01350209Y01789736D02*
X01288000Y01789736D01*
X01288000Y01799734D02*
X01350209Y01799734D01*
X01350209Y01809733D02*
X01288000Y01809733D01*
X01288000Y01819731D02*
X01350209Y01819731D01*
X01350209Y01829730D02*
X01288000Y01829730D01*
X01288000Y01839728D02*
X01350209Y01839728D01*
X01350209Y01849727D02*
X01288000Y01849727D01*
X01288000Y01859725D02*
X01350209Y01859725D01*
X01350209Y01869724D02*
X01288000Y01869724D01*
X01282890Y01879722D02*
X01350209Y01879722D01*
X01350209Y01889721D02*
X01272892Y01889721D01*
X01262893Y01899719D02*
X01350209Y01899719D01*
X01350209Y01909718D02*
X01252895Y01909718D01*
X01236390Y01919717D02*
X01350209Y01919717D01*
X01350209Y01929715D02*
X01229336Y01929715D01*
X01221705Y01939714D02*
X01350209Y01939714D01*
X01350209Y01949712D02*
X01212900Y01949712D01*
X01202902Y01959711D02*
X01350209Y01959711D01*
X01350209Y01969709D02*
X01192903Y01969709D01*
X01178500Y01953000D02*
X01199705Y01931795D01*
X01199705Y01893966D01*
X01237534Y01893966D01*
X01189605Y01809733D02*
X01135111Y01809733D01*
X01145110Y01799734D02*
X01179607Y01799734D01*
X01169608Y01789736D02*
X01155108Y01789736D01*
X01157358Y01779737D02*
X01167358Y01779737D01*
X01167358Y01769739D02*
X01157358Y01769739D01*
X01157358Y01759740D02*
X01167358Y01759740D01*
X01162141Y01749742D02*
X01156893Y01749742D01*
X01152142Y01739743D02*
X01146894Y01739743D01*
X01112358Y01768846D02*
X00662654Y01768846D01*
X00641000Y01790500D01*
X00641000Y01803000D01*
X00625108Y01769739D02*
X00045866Y01769739D01*
X00045866Y01779737D02*
X00612204Y01779737D01*
X00606650Y01789736D02*
X00045866Y01789736D01*
X00045866Y01799734D02*
X00604189Y01799734D01*
X00604189Y01809733D02*
X00045866Y01809733D01*
X00045866Y01819731D02*
X00608086Y01819731D01*
X00615671Y01829730D02*
X00045866Y01829730D01*
X00045866Y01839728D02*
X00633479Y01839728D01*
X00648521Y01839728D02*
X00715954Y01839728D01*
X00709181Y01829730D02*
X00666329Y01829730D01*
X00673914Y01819731D02*
X00706157Y01819731D01*
X00706157Y01809733D02*
X00677811Y01809733D01*
X00677811Y01799734D02*
X00709817Y01799734D01*
X00732583Y01849727D02*
X00045866Y01849727D01*
X00045866Y01859725D02*
X00743000Y01859725D01*
X00743000Y01869724D02*
X00576712Y01869724D01*
X00591997Y01879722D02*
X00743000Y01879722D01*
X00743000Y01889721D02*
X00598213Y01889721D01*
X00600842Y01899719D02*
X00743000Y01899719D01*
X00743000Y01909718D02*
X00600842Y01909718D01*
X00566000Y01903000D02*
X00565327Y01903673D01*
X00484441Y01903673D01*
X00415327Y01903673D01*
X00378500Y01940500D01*
X00378500Y02253000D01*
X00316000Y02315500D01*
X00278500Y02315500D01*
X00301937Y02289662D02*
X00310725Y02289662D01*
X00320724Y02279663D02*
X00045866Y02279663D01*
X00045866Y02269665D02*
X00330722Y02269665D01*
X00340721Y02259666D02*
X00045866Y02259666D01*
X00045866Y02249668D02*
X00350719Y02249668D01*
X00356500Y02239669D02*
X00045866Y02239669D01*
X00045866Y02229671D02*
X00356500Y02229671D01*
X00356500Y02219672D02*
X00045866Y02219672D01*
X00045866Y02209674D02*
X00356500Y02209674D01*
X00356500Y02199675D02*
X00045866Y02199675D01*
X00045866Y02189677D02*
X00356500Y02189677D01*
X00356500Y02179678D02*
X00045866Y02179678D01*
X00045866Y02169680D02*
X00356500Y02169680D01*
X00356500Y02159681D02*
X00045866Y02159681D01*
X00045866Y02149683D02*
X00356500Y02149683D01*
X00356500Y02139684D02*
X00045866Y02139684D01*
X00045866Y02129686D02*
X00356500Y02129686D01*
X00356500Y02119687D02*
X00045866Y02119687D01*
X00045866Y02109688D02*
X00356500Y02109688D01*
X00356500Y02099690D02*
X00045866Y02099690D01*
X00045866Y02089691D02*
X00356500Y02089691D01*
X00356500Y02079693D02*
X00045866Y02079693D01*
X00045866Y02069694D02*
X00356500Y02069694D01*
X00356500Y02059696D02*
X00045866Y02059696D01*
X00045866Y02049697D02*
X00356500Y02049697D01*
X00356500Y02039699D02*
X00045866Y02039699D01*
X00045866Y02029700D02*
X00356500Y02029700D01*
X00356500Y02019702D02*
X00045866Y02019702D01*
X00045866Y02009703D02*
X00356500Y02009703D01*
X00356500Y01999705D02*
X00045866Y01999705D01*
X00045866Y01989706D02*
X00356500Y01989706D01*
X00356500Y01979708D02*
X00045866Y01979708D01*
X00045866Y01969709D02*
X00356500Y01969709D01*
X00356500Y01959711D02*
X00045866Y01959711D01*
X00045866Y01949712D02*
X00356500Y01949712D01*
X00356500Y01939714D02*
X00045866Y01939714D01*
X00045866Y01929715D02*
X00358172Y01929715D01*
X00368171Y01919717D02*
X00045866Y01919717D01*
X00045866Y01909718D02*
X00378169Y01909718D01*
X00388168Y01899719D02*
X00045866Y01899719D01*
X00045866Y01889721D02*
X00398166Y01889721D01*
X00410399Y01939714D02*
X00452778Y01939714D01*
X00449756Y01949712D02*
X00400500Y01949712D01*
X00400500Y01959711D02*
X00449756Y01959711D01*
X00449756Y01979708D02*
X00400500Y01979708D01*
X00400500Y01989706D02*
X00449756Y01989706D01*
X00451736Y01999705D02*
X00400500Y01999705D01*
X00400500Y02009703D02*
X00606157Y02009703D01*
X00606157Y01999705D02*
X00517146Y01999705D01*
X00519126Y01989706D02*
X00608793Y01989706D01*
X00615017Y01979708D02*
X00576067Y01979708D01*
X00584292Y01969709D02*
X00630323Y01969709D01*
X00651677Y01969709D02*
X00680323Y01969709D01*
X00691000Y02003000D02*
X00718657Y02030657D01*
X00718657Y02229083D01*
X00759548Y02179678D02*
X00776192Y02179678D01*
X00772051Y02189677D02*
X00763689Y02189677D01*
X00764358Y02199675D02*
X00771382Y02199675D01*
X00771382Y02209674D02*
X00764358Y02209674D01*
X00764358Y02219672D02*
X00771382Y02219672D01*
X00771382Y02229671D02*
X00764358Y02229671D01*
X00764358Y02239669D02*
X00771382Y02239669D01*
X00771382Y02249668D02*
X00764358Y02249668D01*
X00764358Y02259666D02*
X00771382Y02259666D01*
X00772538Y02269665D02*
X00763202Y02269665D01*
X00759061Y02279663D02*
X00776680Y02279663D01*
X00784331Y02289662D02*
X00751409Y02289662D01*
X00736979Y02299660D02*
X00798761Y02299660D01*
X00835404Y02299660D02*
X00863854Y02299660D01*
X00867995Y02289662D02*
X00849835Y02289662D01*
X00857486Y02279663D02*
X00877706Y02279663D01*
X00868199Y02289170D02*
X00891343Y02266026D01*
X00921583Y02253500D01*
X00954314Y02253500D01*
X00984554Y02266026D01*
X01007699Y02289170D01*
X01020224Y02319410D01*
X01020224Y02352141D01*
X01007699Y02382381D01*
X00984554Y02405525D01*
X00954314Y02418051D01*
X00921583Y02418051D01*
X00891343Y02405525D01*
X00868199Y02382381D01*
X00855673Y02352141D01*
X00855673Y02319410D01*
X00868199Y02289170D01*
X00861627Y02269665D02*
X00887704Y02269665D01*
X00906696Y02259666D02*
X00862783Y02259666D01*
X00862783Y02249668D02*
X01350209Y02249668D01*
X01350209Y02259666D02*
X00969201Y02259666D01*
X00988193Y02269665D02*
X01350209Y02269665D01*
X01350209Y02279663D02*
X00998192Y02279663D01*
X01007902Y02289662D02*
X01350209Y02289662D01*
X01350209Y02299660D02*
X01012044Y02299660D01*
X01016185Y02309659D02*
X01350209Y02309659D01*
X01350209Y02319657D02*
X01020224Y02319657D01*
X01020224Y02329656D02*
X01350209Y02329656D01*
X01350209Y02339655D02*
X01020224Y02339655D01*
X01020224Y02349653D02*
X01350209Y02349653D01*
X01350209Y02359652D02*
X01017113Y02359652D01*
X01012972Y02369650D02*
X01350209Y02369650D01*
X01350209Y02379649D02*
X01008830Y02379649D01*
X01000432Y02389647D02*
X01350209Y02389647D01*
X01350209Y02399646D02*
X00990434Y02399646D01*
X00974610Y02409644D02*
X01350209Y02409644D01*
X01350209Y02419643D02*
X00045866Y02419643D01*
X00045866Y02429641D02*
X01350209Y02429641D01*
X01350209Y02439640D02*
X00045866Y02439640D01*
X00045866Y02449638D02*
X01350209Y02449638D01*
X01350209Y02459637D02*
X00045866Y02459637D01*
X00045866Y02469635D02*
X01350209Y02469635D01*
X01350209Y02479634D02*
X00045866Y02479634D01*
X00045866Y02489632D02*
X01350209Y02489632D01*
X01350209Y02499631D02*
X00045866Y02499631D01*
X00045866Y02509629D02*
X01350209Y02509629D01*
X01350209Y02519628D02*
X00045866Y02519628D01*
X00045866Y02529626D02*
X01350209Y02529626D01*
X01350209Y02539625D02*
X00045866Y02539625D01*
X00045866Y02549624D02*
X01350209Y02549624D01*
X01350209Y02559622D02*
X00045866Y02559622D01*
X00045866Y02569621D02*
X01350209Y02569621D01*
X01350209Y02579619D02*
X00045866Y02579619D01*
X00045866Y02589618D02*
X01350209Y02589618D01*
X01350209Y02599616D02*
X00045866Y02599616D01*
X00045866Y02609615D02*
X01350209Y02609615D01*
X01350209Y02619613D02*
X00045866Y02619613D01*
X00045866Y02629612D02*
X01350209Y02629612D01*
X01350209Y02639610D02*
X00045866Y02639610D01*
X00045866Y02409644D02*
X00383964Y02409644D01*
X00368141Y02399646D02*
X00045866Y02399646D01*
X00045866Y02389647D02*
X00358142Y02389647D01*
X00349744Y02379649D02*
X00045866Y02379649D01*
X00045866Y02369650D02*
X00345603Y02369650D01*
X00341461Y02359652D02*
X00045866Y02359652D01*
X00045866Y02349653D02*
X00269905Y02349653D01*
X00287095Y02349653D02*
X00338350Y02349653D01*
X00338350Y02339655D02*
X00303620Y02339655D01*
X00332957Y02329656D02*
X00338350Y02329656D01*
X00400500Y02249668D02*
X00497791Y02249668D01*
X00497791Y02259666D02*
X00451878Y02259666D01*
X00470870Y02269665D02*
X00499403Y02269665D01*
X00498867Y02268017D02*
X00497791Y02261223D01*
X00497791Y02233433D01*
X00537141Y02233433D01*
X00537141Y02224732D01*
X00497791Y02224732D01*
X00497791Y02196942D01*
X00498867Y02190148D01*
X00500993Y02183607D01*
X00504116Y02177478D01*
X00508159Y02171913D01*
X00513023Y02167049D01*
X00518588Y02163006D01*
X00524717Y02159883D01*
X00531259Y02157757D01*
X00537141Y02156825D01*
X00537141Y02224731D01*
X00545843Y02224731D01*
X00545843Y02156825D01*
X00551725Y02157757D01*
X00558267Y02159883D01*
X00564396Y02163006D01*
X00569961Y02167049D01*
X00574825Y02171913D01*
X00578868Y02177478D01*
X00581991Y02183607D01*
X00584117Y02190148D01*
X00585193Y02196942D01*
X00585193Y02224732D01*
X00545843Y02224732D01*
X00545843Y02233433D01*
X00585193Y02233433D01*
X00585193Y02261223D01*
X00584117Y02268017D01*
X00581991Y02274559D01*
X00578868Y02280688D01*
X00574825Y02286253D01*
X00569961Y02291117D01*
X00564396Y02295160D01*
X00558267Y02298282D01*
X00551725Y02300408D01*
X00545843Y02301340D01*
X00545843Y02233434D01*
X00537141Y02233434D01*
X00537141Y02301340D01*
X00531259Y02300408D01*
X00524717Y02298282D01*
X00518588Y02295160D01*
X00513023Y02291117D01*
X00508159Y02286253D01*
X00504116Y02280688D01*
X00500993Y02274559D01*
X00498867Y02268017D01*
X00503594Y02279663D02*
X00480869Y02279663D01*
X00490579Y02289662D02*
X00511568Y02289662D01*
X00494721Y02299660D02*
X00528958Y02299660D01*
X00537141Y02299660D02*
X00545843Y02299660D01*
X00554027Y02299660D02*
X00621596Y02299660D01*
X00607165Y02289662D02*
X00571416Y02289662D01*
X00579390Y02279663D02*
X00599514Y02279663D01*
X00595373Y02269665D02*
X00583581Y02269665D01*
X00585193Y02259666D02*
X00594217Y02259666D01*
X00594217Y02249668D02*
X00585193Y02249668D01*
X00585193Y02239669D02*
X00594217Y02239669D01*
X00594217Y02229671D02*
X00545843Y02229671D01*
X00537141Y02229671D02*
X00400500Y02229671D01*
X00400500Y02239669D02*
X00497791Y02239669D01*
X00497791Y02219672D02*
X00400500Y02219672D01*
X00400500Y02209674D02*
X00497791Y02209674D01*
X00497791Y02199675D02*
X00400500Y02199675D01*
X00400500Y02189677D02*
X00499021Y02189677D01*
X00502995Y02179678D02*
X00400500Y02179678D01*
X00400500Y02169680D02*
X00510392Y02169680D01*
X00525337Y02159681D02*
X00400500Y02159681D01*
X00400500Y02149683D02*
X00619000Y02149683D01*
X00619000Y02139684D02*
X00400500Y02139684D01*
X00400500Y02129686D02*
X00619000Y02129686D01*
X00619000Y02119687D02*
X00400500Y02119687D01*
X00400500Y02109688D02*
X00619000Y02109688D01*
X00619000Y02099690D02*
X00400500Y02099690D01*
X00400500Y02089691D02*
X00619000Y02089691D01*
X00619000Y02079693D02*
X00400500Y02079693D01*
X00400500Y02069694D02*
X00619000Y02069694D01*
X00619000Y02059696D02*
X00400500Y02059696D01*
X00400500Y02049697D02*
X00619000Y02049697D01*
X00619000Y02039699D02*
X00400500Y02039699D01*
X00400500Y02029700D02*
X00618426Y02029700D01*
X00610205Y02019702D02*
X00400500Y02019702D01*
X00400500Y01969709D02*
X00479598Y01969709D01*
X00489284Y01969709D02*
X00522708Y01969709D01*
X00519126Y01979708D02*
X00530933Y01979708D01*
X00553500Y01953000D02*
X00566000Y01940500D01*
X00703500Y01940500D01*
X00728500Y01965500D01*
X00723828Y01929715D02*
X00743000Y01929715D01*
X00743000Y01919717D02*
X00713829Y01919717D01*
X00772183Y01799734D02*
X01079607Y01799734D01*
X01089605Y01809733D02*
X00775842Y01809733D01*
X00777758Y01819731D02*
X01030270Y01819731D01*
X01014995Y01829730D02*
X00787757Y01829730D01*
X00789000Y01839728D02*
X01008784Y01839728D01*
X01006157Y01849727D02*
X00789000Y01849727D01*
X00789000Y01859725D02*
X01006157Y01859725D01*
X01003461Y01869724D02*
X01010214Y01869724D01*
X01005435Y01879722D02*
X01018448Y01879722D01*
X01019000Y01889721D02*
X01005435Y01889721D01*
X01019000Y01899719D02*
X00975594Y01899719D01*
X00965907Y01899719D02*
X00789000Y01899719D01*
X00789000Y01889721D02*
X00936065Y01889721D01*
X00936065Y01879722D02*
X00789000Y01879722D01*
X00789000Y01869724D02*
X00938040Y01869724D01*
X00936065Y01909718D02*
X00789000Y01909718D01*
X00789000Y01919717D02*
X00936065Y01919717D01*
X00939098Y01929715D02*
X00789000Y01929715D01*
X00803500Y01965500D02*
X00970505Y01965500D01*
X00970750Y01965745D01*
X00970996Y01965500D01*
X01016000Y01965500D01*
X01041000Y01940500D01*
X01053500Y01953000D01*
X01178500Y01953000D01*
X01132776Y01893966D02*
X01132776Y01882276D01*
X01112052Y01903000D01*
X01078500Y01903000D01*
X01089212Y01869724D02*
X01096091Y01869724D01*
X01101636Y01859725D02*
X01075842Y01859725D01*
X01041000Y01853000D02*
X01041000Y01940500D01*
X01019000Y01929715D02*
X01002403Y01929715D01*
X01005435Y01919717D02*
X01019000Y01919717D01*
X01019000Y01909718D02*
X01005435Y01909718D01*
X01007435Y01939714D02*
X01010674Y01939714D01*
X01032905Y01979708D02*
X01350209Y01979708D01*
X01350209Y01989706D02*
X01007435Y01989706D01*
X01002171Y01999705D02*
X01350209Y01999705D01*
X01350209Y02009703D02*
X00789000Y02009703D01*
X00789000Y01999705D02*
X00795030Y01999705D01*
X00811970Y01999705D02*
X00939330Y01999705D01*
X00934065Y01989706D02*
X00828568Y01989706D01*
X00826988Y01939714D02*
X00934065Y01939714D01*
X00965908Y01889721D02*
X00975593Y01889721D01*
X00975593Y01879722D02*
X00965908Y01879722D01*
X00965908Y01869724D02*
X00975593Y01869724D01*
X00894105Y01726223D02*
X00821605Y01726223D01*
X00816000Y01720618D01*
X00763567Y01719746D02*
X00045866Y01719746D01*
X00045866Y01709748D02*
X00763567Y01709748D01*
X00763567Y01729745D02*
X00045866Y01729745D01*
X00045866Y01739743D02*
X00763567Y01739743D01*
X00765567Y01639758D02*
X00664533Y01639758D01*
X00650646Y01749742D02*
X00045866Y01749742D01*
X00045866Y01759740D02*
X00640647Y01759740D01*
X00555288Y01869724D02*
X00515872Y01869724D01*
X00521126Y01879722D02*
X00540003Y01879722D01*
X00489283Y01979708D02*
X00479598Y01979708D01*
X00479598Y01989706D02*
X00489283Y01989706D01*
X00489283Y01999705D02*
X00479598Y01999705D01*
X00447756Y01929715D02*
X00420398Y01929715D01*
X00447756Y01879722D02*
X00045866Y01879722D01*
X00045866Y01869724D02*
X00453010Y01869724D01*
X00537141Y02159681D02*
X00545843Y02159681D01*
X00545843Y02169680D02*
X00537141Y02169680D01*
X00537141Y02179678D02*
X00545843Y02179678D01*
X00545843Y02189677D02*
X00537141Y02189677D01*
X00537141Y02199675D02*
X00545843Y02199675D01*
X00545843Y02209674D02*
X00537141Y02209674D01*
X00537141Y02219672D02*
X00545843Y02219672D01*
X00545843Y02239669D02*
X00537141Y02239669D01*
X00537141Y02249668D02*
X00545843Y02249668D01*
X00545843Y02259666D02*
X00537141Y02259666D01*
X00537141Y02269665D02*
X00545843Y02269665D01*
X00545843Y02279663D02*
X00537141Y02279663D01*
X00537141Y02289662D02*
X00545843Y02289662D01*
X00585193Y02219672D02*
X00594217Y02219672D01*
X00594217Y02209674D02*
X00585193Y02209674D01*
X00585193Y02199675D02*
X00594217Y02199675D01*
X00594885Y02189677D02*
X00583963Y02189677D01*
X00579989Y02179678D02*
X00599027Y02179678D01*
X00605989Y02169680D02*
X00572592Y02169680D01*
X00557647Y02159681D02*
X00618756Y02159681D01*
X00641000Y02228000D02*
X00641000Y02003000D01*
X00641000Y02228000D02*
X00639917Y02229083D01*
X00672669Y02289662D02*
X00685905Y02289662D01*
X00700336Y02299660D02*
X00658239Y02299660D01*
X00789000Y02109688D02*
X01350209Y02109688D01*
X01350209Y02099690D02*
X00789000Y02099690D01*
X00789000Y02089691D02*
X01350209Y02089691D01*
X01350209Y02079693D02*
X00789000Y02079693D01*
X00789000Y02069694D02*
X01350209Y02069694D01*
X01350209Y02059696D02*
X00789000Y02059696D01*
X00789000Y02049697D02*
X01350209Y02049697D01*
X01350209Y02039699D02*
X00789000Y02039699D01*
X00789000Y02029700D02*
X01350209Y02029700D01*
X01350209Y02019702D02*
X00789000Y02019702D01*
X00794462Y02119687D02*
X01350209Y02119687D01*
X01350209Y02129686D02*
X00799234Y02129686D01*
X00800842Y02139684D02*
X01350209Y02139684D01*
X01350209Y02149683D02*
X00799910Y02149683D01*
X00795921Y02159681D02*
X00795768Y02159681D01*
X00838244Y02159681D02*
X01350209Y02159681D01*
X01350209Y02169680D02*
X00851011Y02169680D01*
X00857973Y02179678D02*
X01350209Y02179678D01*
X01350209Y02189677D02*
X00862114Y02189677D01*
X00862783Y02199675D02*
X01350209Y02199675D01*
X01350209Y02209674D02*
X00862783Y02209674D01*
X00862783Y02219672D02*
X01350209Y02219672D01*
X01350209Y02229671D02*
X00862783Y02229671D01*
X00862783Y02239669D02*
X01350209Y02239669D01*
X01168565Y01859725D02*
X01163916Y01859725D01*
X01212358Y01668846D02*
X01250154Y01668846D01*
X01350209Y01349801D02*
X01012425Y01349801D01*
X01012425Y01339802D02*
X01350209Y01339802D01*
X01350209Y01329804D02*
X01011408Y01329804D01*
X01009463Y01319805D02*
X01350209Y01319805D01*
X01350209Y01309807D02*
X01010425Y01309807D01*
X01010425Y01299808D02*
X01350209Y01299808D01*
X01350209Y01289810D02*
X00980583Y01289810D01*
X00970897Y01289810D02*
X00435500Y01289810D01*
X00435500Y01299808D02*
X00941055Y01299808D01*
X00941055Y01309807D02*
X00435500Y01309807D01*
X00435500Y01319805D02*
X00942017Y01319805D01*
X00940072Y01329804D02*
X00435500Y01329804D01*
X00435500Y01279811D02*
X00941055Y01279811D01*
X00941055Y01269813D02*
X00435500Y01269813D01*
X00435500Y01259814D02*
X00945961Y01259814D01*
X00970897Y01259814D02*
X00980583Y01259814D01*
X00980583Y01269813D02*
X00970897Y01269813D01*
X00970897Y01279811D02*
X00980583Y01279811D01*
X01010425Y01279811D02*
X01350209Y01279811D01*
X01350209Y01269813D02*
X01010425Y01269813D01*
X01005519Y01259814D02*
X01350209Y01259814D01*
X01350209Y01249815D02*
X00435500Y01249815D01*
X00435500Y01239817D02*
X00676398Y01239817D01*
X00681177Y01241796D02*
X00665372Y01235250D01*
X00653276Y01223154D01*
X00652714Y01221796D01*
X00606016Y01221796D01*
X00596321Y01231490D01*
X00538931Y01231490D01*
X00532748Y01225307D01*
X00531561Y01226493D01*
X00528141Y01228468D01*
X00524326Y01229490D01*
X00505540Y01229490D01*
X00505540Y01199649D01*
X00495854Y01199649D01*
X00495854Y01229490D01*
X00477069Y01229490D01*
X00473254Y01228468D01*
X00469833Y01226493D01*
X00467041Y01223701D01*
X00465066Y01220280D01*
X00464044Y01216465D01*
X00464044Y01199648D01*
X00495854Y01199648D01*
X00495854Y01189963D01*
X00464044Y01189963D01*
X00464044Y01173146D01*
X00465066Y01169331D01*
X00467041Y01165910D01*
X00469833Y01163117D01*
X00473254Y01161143D01*
X00477069Y01160120D01*
X00495854Y01160120D01*
X00495854Y01189962D01*
X00505540Y01189962D01*
X00505540Y01160120D01*
X00524326Y01160120D01*
X00528141Y01161143D01*
X00531561Y01163117D01*
X00532748Y01164304D01*
X00538931Y01158120D01*
X00596321Y01158120D01*
X00606280Y01168079D01*
X00606280Y01175796D01*
X00652714Y01175796D01*
X00653276Y01174439D01*
X00665372Y01162343D01*
X00681177Y01155796D01*
X00698283Y01155796D01*
X00714087Y01162343D01*
X00726183Y01174439D01*
X00732730Y01190243D01*
X00732730Y01207349D01*
X00726183Y01223154D01*
X00714087Y01235250D01*
X00698283Y01241796D01*
X00681177Y01241796D01*
X00703061Y01239817D02*
X00866398Y01239817D01*
X00871177Y01241796D02*
X00855372Y01235250D01*
X00843276Y01223154D01*
X00836730Y01207349D01*
X00836730Y01190243D01*
X00843276Y01174439D01*
X00855372Y01162343D01*
X00871177Y01155796D01*
X00888283Y01155796D01*
X00904087Y01162343D01*
X00916183Y01174439D01*
X00917160Y01176796D01*
X01012096Y01176796D01*
X01012096Y01173993D01*
X01022054Y01164035D01*
X01079445Y01164035D01*
X01085628Y01170219D01*
X01086815Y01169032D01*
X01090235Y01167057D01*
X01094050Y01166035D01*
X01112836Y01166035D01*
X01112836Y01195877D01*
X01122521Y01195877D01*
X01122521Y01166035D01*
X01141307Y01166035D01*
X01145122Y01167057D01*
X01148542Y01169032D01*
X01151335Y01171825D01*
X01153310Y01175245D01*
X01154332Y01179060D01*
X01154332Y01195877D01*
X01122522Y01195877D01*
X01122522Y01205563D01*
X01154332Y01205563D01*
X01154332Y01222380D01*
X01153310Y01226195D01*
X01151335Y01229615D01*
X01148542Y01232408D01*
X01145122Y01234383D01*
X01141307Y01235405D01*
X01122521Y01235405D01*
X01122521Y01205563D01*
X01112836Y01205563D01*
X01112836Y01235405D01*
X01094050Y01235405D01*
X01090235Y01234383D01*
X01086815Y01232408D01*
X01085628Y01231221D01*
X01079445Y01237405D01*
X01022054Y01237405D01*
X01012096Y01227447D01*
X01012096Y01220796D01*
X00917160Y01220796D01*
X00916183Y01223154D01*
X00904087Y01235250D01*
X00888283Y01241796D01*
X00871177Y01241796D01*
X00849941Y01229818D02*
X00719519Y01229818D01*
X00727564Y01219820D02*
X00841895Y01219820D01*
X00837754Y01209821D02*
X00731706Y01209821D01*
X00732730Y01199823D02*
X00836730Y01199823D01*
X00836903Y01189824D02*
X00732556Y01189824D01*
X00728415Y01179826D02*
X00841045Y01179826D01*
X00847888Y01169827D02*
X00721572Y01169827D01*
X00708018Y01159829D02*
X00861441Y01159829D01*
X00898018Y01159829D02*
X01350209Y01159829D01*
X01350209Y01169827D02*
X01149337Y01169827D01*
X01154332Y01179826D02*
X01350209Y01179826D01*
X01350209Y01189824D02*
X01154332Y01189824D01*
X01154332Y01209821D02*
X01350209Y01209821D01*
X01350209Y01199823D02*
X01122522Y01199823D01*
X01122521Y01209821D02*
X01112836Y01209821D01*
X01112836Y01219820D02*
X01122521Y01219820D01*
X01122521Y01229818D02*
X01112836Y01229818D01*
X01112836Y01189824D02*
X01122521Y01189824D01*
X01122521Y01179826D02*
X01112836Y01179826D01*
X01112836Y01169827D02*
X01122521Y01169827D01*
X01154332Y01219820D02*
X01350209Y01219820D01*
X01350209Y01229818D02*
X01151132Y01229818D01*
X01086019Y01169827D02*
X01085237Y01169827D01*
X01050749Y01200720D02*
X01048826Y01198796D01*
X00879730Y01198796D01*
X00893061Y01239817D02*
X01350209Y01239817D01*
X01350209Y01149830D02*
X00435500Y01149830D01*
X00435500Y01139832D02*
X01350209Y01139832D01*
X01350209Y01129833D02*
X00435500Y01129833D01*
X00435500Y01119835D02*
X01350209Y01119835D01*
X01350209Y01109836D02*
X00435500Y01109836D01*
X00435500Y01099838D02*
X01350209Y01099838D01*
X01350209Y01089839D02*
X00435500Y01089839D01*
X00435500Y01079841D02*
X01350209Y01079841D01*
X01350209Y01069842D02*
X00435500Y01069842D01*
X00435500Y01059844D02*
X01350209Y01059844D01*
X01350209Y01049845D02*
X00435500Y01049845D01*
X00435500Y01039846D02*
X01350209Y01039846D01*
X01350209Y01029848D02*
X00439827Y01029848D01*
X00449825Y01019849D02*
X01350209Y01019849D01*
X01350209Y01009851D02*
X00459824Y01009851D01*
X00469822Y00999852D02*
X01350209Y00999852D01*
X01350209Y00989854D02*
X00479821Y00989854D01*
X00489819Y00979855D02*
X01350209Y00979855D01*
X01350209Y00969857D02*
X00499818Y00969857D01*
X00509816Y00959858D02*
X01350209Y00959858D01*
X01350209Y00949860D02*
X00519815Y00949860D01*
X00529813Y00939861D02*
X01350209Y00939861D01*
X01350209Y00929863D02*
X00539812Y00929863D01*
X00549810Y00919864D02*
X01350209Y00919864D01*
X01350209Y00909866D02*
X00559809Y00909866D01*
X00569807Y00899867D02*
X01350209Y00899867D01*
X01350209Y00889869D02*
X00579806Y00889869D01*
X00589805Y00879870D02*
X01350209Y00879870D01*
X01350209Y00869872D02*
X00599803Y00869872D01*
X00609802Y00859873D02*
X01350209Y00859873D01*
X01350209Y00849875D02*
X00619800Y00849875D01*
X00629799Y00839876D02*
X01350209Y00839876D01*
X01350209Y00829877D02*
X00639797Y00829877D01*
X00649796Y00819879D02*
X01350209Y00819879D01*
X01350209Y00809880D02*
X00659794Y00809880D01*
X00669793Y00799882D02*
X01350209Y00799882D01*
X01350209Y00789883D02*
X00679791Y00789883D01*
X00689790Y00779885D02*
X01350209Y00779885D01*
X01350209Y00769886D02*
X00699788Y00769886D01*
X00709787Y00759888D02*
X01350209Y00759888D01*
X01350209Y00749889D02*
X00719785Y00749889D01*
X00729784Y00739891D02*
X01350209Y00739891D01*
X01350209Y00729892D02*
X00739782Y00729892D01*
X00749781Y00719894D02*
X01350209Y00719894D01*
X01350209Y00709895D02*
X00759779Y00709895D01*
X00769778Y00699897D02*
X01350209Y00699897D01*
X01350209Y00689898D02*
X00779776Y00689898D01*
X00789775Y00679900D02*
X01350209Y00679900D01*
X01350209Y00669901D02*
X00799773Y00669901D01*
X00809772Y00659903D02*
X01350209Y00659903D01*
X01350209Y00649904D02*
X00819771Y00649904D01*
X00829769Y00639906D02*
X01350209Y00639906D01*
X01350209Y00629907D02*
X00839768Y00629907D01*
X00849766Y00619908D02*
X01350209Y00619908D01*
X01350209Y00609910D02*
X00859765Y00609910D01*
X00869763Y00599911D02*
X01350209Y00599911D01*
X01350209Y00589913D02*
X00879762Y00589913D01*
X00889760Y00579914D02*
X01143335Y00579914D01*
X01146356Y00581658D02*
X01119676Y00566255D01*
X01097893Y00544471D01*
X01082489Y00517792D01*
X01074516Y00488035D01*
X01074516Y00457228D01*
X01082489Y00427471D01*
X01097893Y00400792D01*
X01119676Y00379009D01*
X01146356Y00363605D01*
X01176113Y00355632D01*
X01206919Y00355632D01*
X01236676Y00363605D01*
X01263356Y00379009D01*
X01285139Y00400792D01*
X01300543Y00427471D01*
X01308516Y00457228D01*
X01308516Y00488035D01*
X01300543Y00517792D01*
X01285139Y00544471D01*
X01263356Y00566255D01*
X01236676Y00581658D01*
X01206919Y00589632D01*
X01176113Y00589632D01*
X01146356Y00581658D01*
X01126017Y00569916D02*
X00899759Y00569916D01*
X00864701Y00539920D02*
X00853516Y00539920D01*
X00853516Y00529922D02*
X00867516Y00529922D01*
X00867516Y00519923D02*
X00853516Y00519923D01*
X00853516Y00509925D02*
X00867516Y00509925D01*
X00870754Y00499926D02*
X00850278Y00499926D01*
X00840280Y00489928D02*
X00880752Y00489928D01*
X00890751Y00479929D02*
X00830281Y00479929D01*
X00831348Y00459932D02*
X00781684Y00459932D01*
X00771984Y00469632D02*
X00799516Y00442100D01*
X00799516Y00403164D01*
X00771984Y00375632D01*
X00733048Y00375632D01*
X00705516Y00403164D01*
X00705516Y00442100D01*
X00733048Y00469632D01*
X00771984Y00469632D01*
X00782751Y00479929D02*
X00722281Y00479929D01*
X00732280Y00489928D02*
X00772752Y00489928D01*
X00762754Y00499926D02*
X00742278Y00499926D01*
X00745516Y00509925D02*
X00759516Y00509925D01*
X00759516Y00519923D02*
X00745516Y00519923D01*
X00745516Y00529922D02*
X00759516Y00529922D01*
X00756701Y00539920D02*
X00745516Y00539920D01*
X00746702Y00549919D02*
X00737697Y00549919D01*
X00736704Y00559917D02*
X00727698Y00559917D01*
X00726705Y00569916D02*
X00683759Y00569916D01*
X00673760Y00579914D02*
X00716707Y00579914D01*
X00706708Y00589913D02*
X00663762Y00589913D01*
X00653763Y00599911D02*
X00696710Y00599911D01*
X00686711Y00609910D02*
X00643765Y00609910D01*
X00633766Y00619908D02*
X00676712Y00619908D01*
X00666714Y00629907D02*
X00623768Y00629907D01*
X00613769Y00639906D02*
X00656715Y00639906D01*
X00646717Y00649904D02*
X00603771Y00649904D01*
X00593772Y00659903D02*
X00636718Y00659903D01*
X00626720Y00669901D02*
X00583773Y00669901D01*
X00573775Y00679900D02*
X00616721Y00679900D01*
X00606723Y00689898D02*
X00563776Y00689898D01*
X00553778Y00699897D02*
X00596724Y00699897D01*
X00586726Y00709895D02*
X00543779Y00709895D01*
X00533781Y00719894D02*
X00576727Y00719894D01*
X00566729Y00729892D02*
X00523782Y00729892D01*
X00513784Y00739891D02*
X00556730Y00739891D01*
X00546732Y00749889D02*
X00503785Y00749889D01*
X00493787Y00759888D02*
X00536733Y00759888D01*
X00526735Y00769886D02*
X00483788Y00769886D01*
X00473790Y00779885D02*
X00516736Y00779885D01*
X00506738Y00789883D02*
X00463791Y00789883D01*
X00453793Y00799882D02*
X00496739Y00799882D01*
X00486741Y00809880D02*
X00443794Y00809880D01*
X00433796Y00819879D02*
X00476742Y00819879D01*
X00466743Y00829877D02*
X00423797Y00829877D01*
X00413799Y00839876D02*
X00456745Y00839876D01*
X00446746Y00849875D02*
X00403800Y00849875D01*
X00393802Y00859873D02*
X00436748Y00859873D01*
X00426749Y00869872D02*
X00383803Y00869872D01*
X00373805Y00879870D02*
X00416751Y00879870D01*
X00406752Y00889869D02*
X00363806Y00889869D01*
X00353807Y00899867D02*
X00396754Y00899867D01*
X00386755Y00909866D02*
X00343809Y00909866D01*
X00333810Y00919864D02*
X00376757Y00919864D01*
X00366758Y00929863D02*
X00323812Y00929863D01*
X00323000Y00939861D02*
X00356760Y00939861D01*
X00346761Y00949860D02*
X00323000Y00949860D01*
X00323000Y00959858D02*
X00336763Y00959858D01*
X00327000Y00969857D02*
X00323000Y00969857D01*
X00323000Y00979855D02*
X00327000Y00979855D01*
X00327000Y00989854D02*
X00323000Y00989854D01*
X00323000Y00999852D02*
X00327000Y00999852D01*
X00327000Y01009851D02*
X00323000Y01009851D01*
X00323000Y01019849D02*
X00327000Y01019849D01*
X00327000Y01029848D02*
X00323000Y01029848D01*
X00323000Y01039846D02*
X00327000Y01039846D01*
X00327000Y01049845D02*
X00323000Y01049845D01*
X00323000Y01059844D02*
X00327000Y01059844D01*
X00327000Y01069842D02*
X00323000Y01069842D01*
X00323000Y01079841D02*
X00327000Y01079841D01*
X00327000Y01089839D02*
X00323000Y01089839D01*
X00323000Y01099838D02*
X00327000Y01099838D01*
X00327000Y01109836D02*
X00323000Y01109836D01*
X00323000Y01119835D02*
X00327000Y01119835D01*
X00327000Y01129833D02*
X00323000Y01129833D01*
X00323000Y01139832D02*
X00327000Y01139832D01*
X00327000Y01149830D02*
X00323000Y01149830D01*
X00323000Y01159829D02*
X00327000Y01159829D01*
X00327000Y01169827D02*
X00323000Y01169827D01*
X00323000Y01179826D02*
X00327000Y01179826D01*
X00327000Y01189824D02*
X00323000Y01189824D01*
X00323000Y01199823D02*
X00327000Y01199823D01*
X00327000Y01209821D02*
X00323000Y01209821D01*
X00323000Y01219820D02*
X00327000Y01219820D01*
X00327000Y01229818D02*
X00323000Y01229818D01*
X00323000Y01239817D02*
X00327000Y01239817D01*
X00327000Y01249815D02*
X00323000Y01249815D01*
X00323000Y01259814D02*
X00327000Y01259814D01*
X00327000Y01269813D02*
X00323000Y01269813D01*
X00323000Y01279811D02*
X00327000Y01279811D01*
X00327000Y01289810D02*
X00323000Y01289810D01*
X00323000Y01299808D02*
X00327000Y01299808D01*
X00327000Y01309807D02*
X00323000Y01309807D01*
X00323000Y01319805D02*
X00327000Y01319805D01*
X00327000Y01329804D02*
X00323000Y01329804D01*
X00323000Y01339802D02*
X00327000Y01339802D01*
X00327000Y01349801D02*
X00323000Y01349801D01*
X00323000Y01359799D02*
X00327000Y01359799D01*
X00327000Y01369798D02*
X00323000Y01369798D01*
X00323000Y01379796D02*
X00327000Y01379796D01*
X00327000Y01389795D02*
X00323000Y01389795D01*
X00323000Y01399793D02*
X00327000Y01399793D01*
X00327000Y01409792D02*
X00323000Y01409792D01*
X00323000Y01419790D02*
X00327000Y01419790D01*
X00327000Y01429789D02*
X00323000Y01429789D01*
X00323000Y01439787D02*
X00327000Y01439787D01*
X00337768Y01509777D02*
X00312232Y01509777D01*
X00287768Y01509777D02*
X00262232Y01509777D01*
X00273000Y01439787D02*
X00277000Y01439787D01*
X00277000Y01429789D02*
X00273000Y01429789D01*
X00273000Y01419790D02*
X00277000Y01419790D01*
X00277000Y01409792D02*
X00273000Y01409792D01*
X00273000Y01399793D02*
X00277000Y01399793D01*
X00277000Y01389795D02*
X00273000Y01389795D01*
X00273000Y01379796D02*
X00277000Y01379796D01*
X00277000Y01369798D02*
X00273000Y01369798D01*
X00273000Y01359799D02*
X00277000Y01359799D01*
X00277000Y01349801D02*
X00273000Y01349801D01*
X00273000Y01339802D02*
X00277000Y01339802D01*
X00277000Y01329804D02*
X00273000Y01329804D01*
X00273000Y01319805D02*
X00277000Y01319805D01*
X00277000Y01309807D02*
X00273000Y01309807D01*
X00273000Y01299808D02*
X00277000Y01299808D01*
X00277000Y01289810D02*
X00273000Y01289810D01*
X00273000Y01279811D02*
X00277000Y01279811D01*
X00277000Y01269813D02*
X00273000Y01269813D01*
X00273000Y01259814D02*
X00277000Y01259814D01*
X00277000Y01249815D02*
X00273000Y01249815D01*
X00273000Y01239817D02*
X00277000Y01239817D01*
X00277000Y01229818D02*
X00273000Y01229818D01*
X00273000Y01219820D02*
X00277000Y01219820D01*
X00277000Y01209821D02*
X00273000Y01209821D01*
X00273000Y01199823D02*
X00277000Y01199823D01*
X00277000Y01189824D02*
X00273000Y01189824D01*
X00273000Y01179826D02*
X00277000Y01179826D01*
X00277000Y01169827D02*
X00273000Y01169827D01*
X00273000Y01159829D02*
X00277000Y01159829D01*
X00277000Y01149830D02*
X00273000Y01149830D01*
X00273000Y01139832D02*
X00277000Y01139832D01*
X00277000Y01129833D02*
X00273000Y01129833D01*
X00273000Y01119835D02*
X00277000Y01119835D01*
X00277000Y01109836D02*
X00273000Y01109836D01*
X00273000Y01099838D02*
X00277000Y01099838D01*
X00277000Y01089839D02*
X00273000Y01089839D01*
X00273000Y01079841D02*
X00277000Y01079841D01*
X00277000Y01069842D02*
X00273000Y01069842D01*
X00273000Y01059844D02*
X00277000Y01059844D01*
X00277000Y01049845D02*
X00273000Y01049845D01*
X00273000Y01039846D02*
X00277000Y01039846D01*
X00277000Y01029848D02*
X00273000Y01029848D01*
X00273000Y01019849D02*
X00277000Y01019849D01*
X00277000Y01009851D02*
X00273000Y01009851D01*
X00273000Y00999852D02*
X00277000Y00999852D01*
X00277000Y00989854D02*
X00273000Y00989854D01*
X00273000Y00979855D02*
X00277000Y00979855D01*
X00277000Y00969857D02*
X00273000Y00969857D01*
X00273000Y00959858D02*
X00277000Y00959858D01*
X00277000Y00949860D02*
X00273000Y00949860D01*
X00273000Y00939861D02*
X00277000Y00939861D01*
X00277000Y00929863D02*
X00273000Y00929863D01*
X00273000Y00919864D02*
X00277000Y00919864D01*
X00278755Y00909866D02*
X00273000Y00909866D01*
X00273000Y00899867D02*
X00288754Y00899867D01*
X00298752Y00889869D02*
X00273000Y00889869D01*
X00273000Y00879870D02*
X00308751Y00879870D01*
X00318749Y00869872D02*
X00275803Y00869872D01*
X00285802Y00859873D02*
X00328748Y00859873D01*
X00338746Y00849875D02*
X00295800Y00849875D01*
X00305799Y00839876D02*
X00348745Y00839876D01*
X00358743Y00829877D02*
X00315797Y00829877D01*
X00325796Y00819879D02*
X00368742Y00819879D01*
X00378741Y00809880D02*
X00335794Y00809880D01*
X00345793Y00799882D02*
X00388739Y00799882D01*
X00398738Y00789883D02*
X00355791Y00789883D01*
X00365790Y00779885D02*
X00408736Y00779885D01*
X00418735Y00769886D02*
X00375788Y00769886D01*
X00385787Y00759888D02*
X00428733Y00759888D01*
X00438732Y00749889D02*
X00395785Y00749889D01*
X00405784Y00739891D02*
X00448730Y00739891D01*
X00458729Y00729892D02*
X00415782Y00729892D01*
X00425781Y00719894D02*
X00468727Y00719894D01*
X00478726Y00709895D02*
X00435779Y00709895D01*
X00445778Y00699897D02*
X00488724Y00699897D01*
X00498723Y00689898D02*
X00455776Y00689898D01*
X00465775Y00679900D02*
X00508721Y00679900D01*
X00518720Y00669901D02*
X00475773Y00669901D01*
X00485772Y00659903D02*
X00528718Y00659903D01*
X00538717Y00649904D02*
X00495771Y00649904D01*
X00505769Y00639906D02*
X00548715Y00639906D01*
X00558714Y00629907D02*
X00515768Y00629907D01*
X00525766Y00619908D02*
X00568712Y00619908D01*
X00578711Y00609910D02*
X00535765Y00609910D01*
X00545763Y00599911D02*
X00588710Y00599911D01*
X00598708Y00589913D02*
X00555762Y00589913D01*
X00565760Y00579914D02*
X00608707Y00579914D01*
X00618705Y00569916D02*
X00575759Y00569916D01*
X00619698Y00559917D02*
X00628704Y00559917D01*
X00629697Y00549919D02*
X00638702Y00549919D01*
X00637516Y00539920D02*
X00648701Y00539920D01*
X00651516Y00529922D02*
X00637516Y00529922D01*
X00637516Y00519923D02*
X00651516Y00519923D01*
X00651516Y00509925D02*
X00637516Y00509925D01*
X00634278Y00499926D02*
X00654754Y00499926D01*
X00664752Y00489928D02*
X00624280Y00489928D01*
X00614281Y00479929D02*
X00674751Y00479929D01*
X00663156Y00467632D02*
X00649516Y00467632D01*
X00649516Y00427632D01*
X00689516Y00427632D01*
X00689516Y00441271D01*
X00663156Y00467632D01*
X00670855Y00459932D02*
X00723348Y00459932D01*
X00713350Y00449934D02*
X00680854Y00449934D01*
X00689516Y00439935D02*
X00705516Y00439935D01*
X00705516Y00429937D02*
X00689516Y00429937D01*
X00705516Y00419938D02*
X00649516Y00419938D01*
X00649516Y00429937D02*
X00639516Y00429937D01*
X00639516Y00439935D02*
X00649516Y00439935D01*
X00649516Y00449934D02*
X00639516Y00449934D01*
X00639516Y00459932D02*
X00649516Y00459932D01*
X00685465Y00399941D02*
X00708739Y00399941D01*
X00705516Y00409939D02*
X00689516Y00409939D01*
X00675466Y00389942D02*
X00718737Y00389942D01*
X00728736Y00379944D02*
X00665468Y00379944D01*
X00613566Y00389942D02*
X00570294Y00389942D01*
X00580293Y00399941D02*
X00603567Y00399941D01*
X00599516Y00409939D02*
X00583516Y00409939D01*
X00507348Y00459932D02*
X00446180Y00459932D01*
X00436182Y00469931D02*
X01074516Y00469931D01*
X01074516Y00479929D02*
X00938281Y00479929D01*
X00948280Y00489928D02*
X01075023Y00489928D01*
X01077702Y00499926D02*
X00958278Y00499926D01*
X00961516Y00509925D02*
X01080381Y00509925D01*
X01083720Y00519923D02*
X00961516Y00519923D01*
X00961516Y00529922D02*
X01089492Y00529922D01*
X01095265Y00539920D02*
X00961516Y00539920D01*
X00953697Y00549919D02*
X01103340Y00549919D01*
X01113339Y00559917D02*
X00943698Y00559917D01*
X00889684Y00459932D02*
X01074516Y00459932D01*
X01076471Y00449934D02*
X00899682Y00449934D01*
X00907516Y00439935D02*
X01079150Y00439935D01*
X01081829Y00429937D02*
X00907516Y00429937D01*
X00907516Y00419938D02*
X01086839Y00419938D01*
X01092611Y00409939D02*
X00907516Y00409939D01*
X00904293Y00399941D02*
X01098744Y00399941D01*
X01108742Y00389942D02*
X00894294Y00389942D01*
X00884500Y00379944D02*
X01118741Y00379944D01*
X01135374Y00369945D02*
X00884500Y00369945D01*
X00884500Y00359947D02*
X01160009Y00359947D01*
X01223023Y00359947D02*
X01350209Y00359947D01*
X01350209Y00369945D02*
X01247658Y00369945D01*
X01264291Y00379944D02*
X01350209Y00379944D01*
X01350209Y00389942D02*
X01274289Y00389942D01*
X01284288Y00399941D02*
X01350209Y00399941D01*
X01350209Y00409939D02*
X01290420Y00409939D01*
X01296193Y00419938D02*
X01350209Y00419938D01*
X01350209Y00429937D02*
X01301203Y00429937D01*
X01303882Y00439935D02*
X01350209Y00439935D01*
X01350209Y00449934D02*
X01306561Y00449934D01*
X01308516Y00459932D02*
X01350209Y00459932D01*
X01350209Y00469931D02*
X01308516Y00469931D01*
X01308516Y00479929D02*
X01350209Y00479929D01*
X01350209Y00489928D02*
X01308009Y00489928D01*
X01305330Y00499926D02*
X01350209Y00499926D01*
X01350209Y00509925D02*
X01302651Y00509925D01*
X01299312Y00519923D02*
X01350209Y00519923D01*
X01350209Y00529922D02*
X01293540Y00529922D01*
X01287767Y00539920D02*
X01350209Y00539920D01*
X01350209Y00549919D02*
X01279692Y00549919D01*
X01269693Y00559917D02*
X01350209Y00559917D01*
X01350209Y00569916D02*
X01257015Y00569916D01*
X01239697Y00579914D02*
X01350209Y00579914D01*
X01350209Y00349948D02*
X00884500Y00349948D01*
X00883563Y00339950D02*
X01350209Y00339950D01*
X01350209Y00329951D02*
X00873564Y00329951D01*
X00863565Y00319953D02*
X01350209Y00319953D01*
X01350209Y00309954D02*
X00853567Y00309954D01*
X00816739Y00399941D02*
X00796293Y00399941D01*
X00799516Y00409939D02*
X00813516Y00409939D01*
X00813516Y00419938D02*
X00799516Y00419938D01*
X00799516Y00429937D02*
X00813516Y00429937D01*
X00813516Y00439935D02*
X00799516Y00439935D01*
X00791682Y00449934D02*
X00821350Y00449934D01*
X00845697Y00549919D02*
X00854702Y00549919D01*
X00844704Y00559917D02*
X00835698Y00559917D01*
X00834705Y00569916D02*
X00791759Y00569916D01*
X00781760Y00579914D02*
X00824707Y00579914D01*
X00814708Y00589913D02*
X00771762Y00589913D01*
X00761763Y00599911D02*
X00804710Y00599911D01*
X00794711Y00609910D02*
X00751765Y00609910D01*
X00741766Y00619908D02*
X00784712Y00619908D01*
X00774714Y00629907D02*
X00731768Y00629907D01*
X00721769Y00639906D02*
X00764715Y00639906D01*
X00754717Y00649904D02*
X00711771Y00649904D01*
X00701772Y00659903D02*
X00744718Y00659903D01*
X00734720Y00669901D02*
X00691773Y00669901D01*
X00681775Y00679900D02*
X00724721Y00679900D01*
X00714723Y00689898D02*
X00671776Y00689898D01*
X00661778Y00699897D02*
X00704724Y00699897D01*
X00694726Y00709895D02*
X00651779Y00709895D01*
X00641781Y00719894D02*
X00684727Y00719894D01*
X00674729Y00729892D02*
X00631782Y00729892D01*
X00621784Y00739891D02*
X00664730Y00739891D01*
X00654732Y00749889D02*
X00611785Y00749889D01*
X00601787Y00759888D02*
X00644733Y00759888D01*
X00634735Y00769886D02*
X00591788Y00769886D01*
X00581790Y00779885D02*
X00624736Y00779885D01*
X00614738Y00789883D02*
X00571791Y00789883D01*
X00561793Y00799882D02*
X00604739Y00799882D01*
X00594741Y00809880D02*
X00551794Y00809880D01*
X00541796Y00819879D02*
X00584742Y00819879D01*
X00574743Y00829877D02*
X00531797Y00829877D01*
X00521799Y00839876D02*
X00564745Y00839876D01*
X00554746Y00849875D02*
X00511800Y00849875D01*
X00501802Y00859873D02*
X00544748Y00859873D01*
X00534749Y00869872D02*
X00491803Y00869872D01*
X00481805Y00879870D02*
X00524751Y00879870D01*
X00514752Y00889869D02*
X00471806Y00889869D01*
X00461807Y00899867D02*
X00504754Y00899867D01*
X00494755Y00909866D02*
X00451809Y00909866D01*
X00441810Y00919864D02*
X00484757Y00919864D01*
X00474758Y00929863D02*
X00431812Y00929863D01*
X00421813Y00939861D02*
X00464760Y00939861D01*
X00454761Y00949860D02*
X00411815Y00949860D01*
X00401816Y00959858D02*
X00444763Y00959858D01*
X00434764Y00969857D02*
X00391818Y00969857D01*
X00381819Y00979855D02*
X00424766Y00979855D01*
X00414767Y00989854D02*
X00373000Y00989854D01*
X00373000Y00999852D02*
X00404769Y00999852D01*
X00394770Y01009851D02*
X00373000Y01009851D01*
X00373000Y01019849D02*
X00389500Y01019849D01*
X00389500Y01029848D02*
X00373000Y01029848D01*
X00373000Y01039846D02*
X00389500Y01039846D01*
X00389500Y01049845D02*
X00373000Y01049845D01*
X00373000Y01059844D02*
X00389500Y01059844D01*
X00389500Y01069842D02*
X00373000Y01069842D01*
X00373000Y01079841D02*
X00389500Y01079841D01*
X00389500Y01089839D02*
X00373000Y01089839D01*
X00373000Y01099838D02*
X00389500Y01099838D01*
X00389500Y01109836D02*
X00373000Y01109836D01*
X00373000Y01119835D02*
X00389500Y01119835D01*
X00389500Y01129833D02*
X00373000Y01129833D01*
X00373000Y01139832D02*
X00389500Y01139832D01*
X00389500Y01149830D02*
X00373000Y01149830D01*
X00373000Y01159829D02*
X00389500Y01159829D01*
X00389500Y01169827D02*
X00373000Y01169827D01*
X00373000Y01179826D02*
X00389500Y01179826D01*
X00389500Y01189824D02*
X00373000Y01189824D01*
X00373000Y01199823D02*
X00389500Y01199823D01*
X00389500Y01209821D02*
X00373000Y01209821D01*
X00373000Y01219820D02*
X00389500Y01219820D01*
X00389500Y01229818D02*
X00373000Y01229818D01*
X00373000Y01239817D02*
X00389500Y01239817D01*
X00389500Y01249815D02*
X00373000Y01249815D01*
X00373000Y01259814D02*
X00389500Y01259814D01*
X00389500Y01269813D02*
X00373000Y01269813D01*
X00373000Y01279811D02*
X00389500Y01279811D01*
X00389500Y01289810D02*
X00373000Y01289810D01*
X00373000Y01299808D02*
X00389500Y01299808D01*
X00389500Y01309807D02*
X00373000Y01309807D01*
X00373000Y01319805D02*
X00389500Y01319805D01*
X00389500Y01329804D02*
X00373000Y01329804D01*
X00373000Y01339802D02*
X00389500Y01339802D01*
X00389500Y01349801D02*
X00373000Y01349801D01*
X00373000Y01359799D02*
X00389500Y01359799D01*
X00389500Y01369798D02*
X00373000Y01369798D01*
X00373000Y01379796D02*
X00389500Y01379796D01*
X00389500Y01389795D02*
X00373000Y01389795D01*
X00373000Y01399793D02*
X00389500Y01399793D01*
X00389500Y01409792D02*
X00373000Y01409792D01*
X00373000Y01419790D02*
X00389500Y01419790D01*
X00389500Y01429789D02*
X00373000Y01429789D01*
X00373000Y01439787D02*
X00389500Y01439787D01*
X00385655Y01449786D02*
X00376845Y01449786D01*
X00377280Y01499779D02*
X00385220Y01499779D01*
X00400268Y01509777D02*
X00362232Y01509777D01*
X00435500Y01229818D02*
X00537259Y01229818D01*
X00505540Y01219820D02*
X00495854Y01219820D01*
X00495854Y01209821D02*
X00505540Y01209821D01*
X00505540Y01199823D02*
X00495854Y01199823D01*
X00495854Y01189824D02*
X00505540Y01189824D01*
X00505540Y01179826D02*
X00495854Y01179826D01*
X00495854Y01169827D02*
X00505540Y01169827D01*
X00537223Y01159829D02*
X00435500Y01159829D01*
X00435500Y01169827D02*
X00464933Y01169827D01*
X00464044Y01179826D02*
X00435500Y01179826D01*
X00435500Y01189824D02*
X00464044Y01189824D01*
X00464044Y01199823D02*
X00435500Y01199823D01*
X00435500Y01209821D02*
X00464044Y01209821D01*
X00464943Y01219820D02*
X00435500Y01219820D01*
X00597993Y01229818D02*
X00659941Y01229818D01*
X00657888Y01169827D02*
X00606280Y01169827D01*
X00598030Y01159829D02*
X00671441Y01159829D01*
X00811000Y01569768D02*
X00821000Y01569768D01*
X00821000Y01579767D02*
X00811000Y01579767D01*
X00811000Y01589765D02*
X00821000Y01589765D01*
X00909519Y01229818D02*
X01014468Y01229818D01*
X01016262Y01169827D02*
X00911572Y01169827D01*
X01076873Y01419790D02*
X01098309Y01419790D01*
X01088948Y01479781D02*
X01088493Y01479781D01*
X00859712Y02309659D02*
X00498862Y02309659D01*
X00502901Y02319657D02*
X00855673Y02319657D01*
X00855673Y02329656D02*
X00502901Y02329656D01*
X00502901Y02339655D02*
X00855673Y02339655D01*
X00855673Y02349653D02*
X00502901Y02349653D01*
X00499791Y02359652D02*
X00858784Y02359652D01*
X00862926Y02369650D02*
X00495649Y02369650D01*
X00491508Y02379649D02*
X00867067Y02379649D01*
X00875465Y02389647D02*
X00483109Y02389647D01*
X00473111Y02399646D02*
X00885464Y02399646D01*
X00901287Y02409644D02*
X00457288Y02409644D01*
X00253380Y02339655D02*
X00045866Y02339655D01*
X00045866Y02329656D02*
X00246650Y02329656D01*
X00243657Y02319657D02*
X00045866Y02319657D01*
X00045866Y02309659D02*
X00243657Y02309659D01*
X00247348Y02299660D02*
X00045866Y02299660D01*
X00045866Y02289662D02*
X00255063Y02289662D01*
X00177000Y01439787D02*
X00172000Y01439787D01*
X00172000Y01429789D02*
X00177000Y01429789D01*
X00177000Y01419790D02*
X00172000Y01419790D01*
X00172000Y01409792D02*
X00177000Y01409792D01*
X00177000Y01399793D02*
X00172000Y01399793D01*
X00172000Y01389795D02*
X00177000Y01389795D01*
X00177000Y01379796D02*
X00172000Y01379796D01*
X00172000Y01369798D02*
X00177000Y01369798D01*
X00177000Y01359799D02*
X00172000Y01359799D01*
X00172000Y01349801D02*
X00177000Y01349801D01*
X00177000Y01339802D02*
X00172000Y01339802D01*
X00172000Y01329804D02*
X00177000Y01329804D01*
X00177000Y01319805D02*
X00172000Y01319805D01*
X00172000Y01309807D02*
X00177000Y01309807D01*
X00177000Y01299808D02*
X00172000Y01299808D01*
X00172000Y01289810D02*
X00177000Y01289810D01*
X00177000Y01279811D02*
X00172000Y01279811D01*
X00172000Y01269813D02*
X00177000Y01269813D01*
X00177000Y01259814D02*
X00172000Y01259814D01*
X00172000Y01249815D02*
X00177000Y01249815D01*
X00177000Y01239817D02*
X00172000Y01239817D01*
X00172000Y01229818D02*
X00177000Y01229818D01*
X00177000Y01219820D02*
X00172000Y01219820D01*
X00172000Y01209821D02*
X00177000Y01209821D01*
X00177000Y01199823D02*
X00172000Y01199823D01*
X00172000Y01189824D02*
X00177000Y01189824D01*
X00177000Y01179826D02*
X00172000Y01179826D01*
X00172000Y01169827D02*
X00177000Y01169827D01*
X00177000Y01159829D02*
X00172000Y01159829D01*
X00172000Y01149830D02*
X00177000Y01149830D01*
X00177000Y01139832D02*
X00172000Y01139832D01*
X00172000Y01129833D02*
X00177000Y01129833D01*
X00177000Y01119835D02*
X00172000Y01119835D01*
X00172000Y01109836D02*
X00177000Y01109836D01*
X00177000Y01099838D02*
X00172000Y01099838D01*
X00172000Y01089839D02*
X00177000Y01089839D01*
X00177000Y01079841D02*
X00172000Y01079841D01*
X00172000Y01069842D02*
X00177000Y01069842D01*
X00177000Y01059844D02*
X00172000Y01059844D01*
X00172000Y01049845D02*
X00177000Y01049845D01*
X00177000Y01039846D02*
X00172000Y01039846D01*
X00172000Y01029848D02*
X00177000Y01029848D01*
X00177000Y01019849D02*
X00172000Y01019849D01*
X00172000Y01009851D02*
X00177000Y01009851D01*
X00177000Y00999852D02*
X00172000Y00999852D01*
X00172000Y00989854D02*
X00177000Y00989854D01*
X00177000Y00979855D02*
X00172000Y00979855D01*
X00172000Y00969857D02*
X00177000Y00969857D01*
X00177000Y00959858D02*
X00172000Y00959858D01*
X00172000Y00949860D02*
X00177000Y00949860D01*
X00177000Y00939861D02*
X00172000Y00939861D01*
X00172000Y00929863D02*
X00177000Y00929863D01*
X00177000Y00919864D02*
X00172000Y00919864D01*
X00172000Y00909866D02*
X00177000Y00909866D01*
X00177000Y00899867D02*
X00172000Y00899867D01*
X00172000Y00889869D02*
X00177000Y00889869D01*
X00177000Y00879870D02*
X00172000Y00879870D01*
X00172000Y00869872D02*
X00177000Y00869872D01*
X00177000Y00859873D02*
X00172000Y00859873D01*
X00172000Y00849875D02*
X00177000Y00849875D01*
X00177000Y00839876D02*
X00172000Y00839876D01*
X00172000Y00829877D02*
X00177000Y00829877D01*
X00177000Y00819879D02*
X00172000Y00819879D01*
X00172000Y00809880D02*
X00177000Y00809880D01*
X00177000Y00799882D02*
X00172000Y00799882D01*
X00172000Y00789883D02*
X00182738Y00789883D01*
X00192736Y00779885D02*
X00172000Y00779885D01*
X00172000Y00769886D02*
X00202735Y00769886D01*
X00212733Y00759888D02*
X00172000Y00759888D01*
X00172000Y00749889D02*
X00222732Y00749889D01*
X00232730Y00739891D02*
X00172000Y00739891D01*
X00176220Y00729892D02*
X00242729Y00729892D01*
X00252727Y00719894D02*
X00186219Y00719894D01*
X00196217Y00709895D02*
X00262726Y00709895D01*
X00272724Y00699897D02*
X00206216Y00699897D01*
X00216214Y00689898D02*
X00282723Y00689898D01*
X00292721Y00679900D02*
X00226213Y00679900D01*
X00236211Y00669901D02*
X00302720Y00669901D01*
X00312718Y00659903D02*
X00246210Y00659903D01*
X00256209Y00649904D02*
X00322717Y00649904D01*
X00332715Y00639906D02*
X00266207Y00639906D01*
X00276206Y00629907D02*
X00342714Y00629907D01*
X00352712Y00619908D02*
X00286204Y00619908D01*
X00296203Y00609910D02*
X00362711Y00609910D01*
X00372710Y00599911D02*
X00306201Y00599911D01*
X00316200Y00589913D02*
X00382708Y00589913D01*
X00392707Y00579914D02*
X00326198Y00579914D01*
X00336197Y00569916D02*
X00402705Y00569916D01*
X00412704Y00559917D02*
X00346195Y00559917D01*
X00356194Y00549919D02*
X00422702Y00549919D01*
X00432701Y00539920D02*
X00366192Y00539920D01*
X00376191Y00529922D02*
X00435516Y00529922D01*
X00435516Y00519923D02*
X00386189Y00519923D01*
X00396188Y00509925D02*
X00435516Y00509925D01*
X00438754Y00499926D02*
X00406186Y00499926D01*
X00416185Y00489928D02*
X00448752Y00489928D01*
X00458751Y00479929D02*
X00426183Y00479929D01*
X00456179Y00449934D02*
X00497350Y00449934D01*
X00489516Y00439935D02*
X00466178Y00439935D01*
X00476176Y00429937D02*
X00489516Y00429937D01*
X00489516Y00419938D02*
X00486175Y00419938D01*
X00285485Y00299956D02*
X00045866Y00299956D01*
X00097000Y00399941D02*
X00112744Y00399941D01*
X00106611Y00409939D02*
X00097000Y00409939D01*
X00097000Y00419938D02*
X00100839Y00419938D01*
X00103670Y00389942D02*
X00122742Y00389942D01*
X00113669Y00379944D02*
X00132741Y00379944D01*
X00123667Y00369945D02*
X00149374Y00369945D01*
X00133666Y00359947D02*
X00174009Y00359947D01*
X00103492Y00529922D02*
X00097000Y00529922D01*
X00097000Y00539920D02*
X00109265Y00539920D01*
X00117340Y00549919D02*
X00097000Y00549919D01*
X00097000Y00559917D02*
X00127339Y00559917D01*
X00140017Y00569916D02*
X00097000Y00569916D01*
X00097000Y00579914D02*
X00157335Y00579914D01*
X00097720Y00519923D02*
X00097000Y00519923D01*
D20*
X00566000Y01453000D03*
X00591000Y01603000D03*
X00641000Y01665500D03*
X00603500Y01840500D03*
X00566000Y01903000D03*
X00553500Y01953000D03*
X00641000Y02003000D03*
X00691000Y02003000D03*
X00728500Y01965500D03*
X00741000Y01815500D03*
X00803500Y01965500D03*
X00766000Y02140500D03*
X00903500Y01828000D03*
X01041000Y01853000D03*
X01078500Y01903000D03*
X01041000Y01665500D03*
X01066000Y01453000D03*
X00965500Y01459000D03*
X00878500Y01378000D03*
X00791000Y01528000D03*
X00428500Y01940500D03*
X00278500Y02315500D03*
X00916000Y02565500D03*
D21*
X00766000Y02140500D02*
X00766000Y01840500D01*
X00741000Y01815500D01*
X00566000Y01453000D02*
X00572343Y01446843D01*
X00521414Y01446843D01*
X00412500Y01475000D02*
X00412500Y01024648D01*
X00914516Y00522632D01*
X00806516Y00522632D02*
X00350000Y00979148D01*
X00350000Y01475000D01*
X00300000Y01475000D02*
X00300000Y00921148D01*
X00698516Y00522632D01*
X00590516Y00522632D02*
X00250000Y00863148D01*
X00250000Y01475000D01*
X00200000Y01475000D02*
X00200000Y00805148D01*
X00482516Y00522632D01*
X00567626Y01194805D02*
X00571617Y01198796D01*
X00689730Y01198796D01*
D22*
X00894105Y01726223D03*
X00641000Y01803000D03*
X00412500Y01475000D03*
X00350000Y01475000D03*
X00300000Y01475000D03*
X00250000Y01475000D03*
X00200000Y01475000D03*
X00150000Y01475000D03*
X00100000Y01475000D03*
X00312500Y00325000D03*
M02*
