G75*
%MOIN*%
%OFA0B0*%
%FSLAX26Y26*%
%IPPOS*%
%LPD*%
%AMOC8*
5,1,8,0,0,1.08239X$1,22.5*
%
%ADD10C,0.003000*%
%ADD11C,0.010000*%
%ADD12C,0.002000*%
%ADD13C,0.016000*%
%ADD14C,0.006000*%
%ADD15C,0.008000*%
%ADD16R,0.007874X0.047244*%
%ADD17R,0.047244X0.007874*%
%ADD18C,0.002496*%
%ADD19C,0.009843*%
%ADD20C,0.005000*%
%ADD21C,0.001000*%
%ADD22C,0.007000*%
%ADD23R,0.730000X0.030000*%
%ADD24R,1.220000X0.020000*%
%ADD25R,0.032000X0.285000*%
%ADD26R,0.032000X0.185000*%
D10*
X-00000634Y01253098D02*
X01396709Y01253098D01*
X01396709Y03940106D01*
X-00000634Y03940106D01*
X-00000634Y01253098D01*
X00170564Y02040122D02*
X00176236Y02040122D01*
X00179071Y02042958D01*
X00186144Y02042958D02*
X00188980Y02040122D01*
X00194651Y02040122D01*
X00197487Y02042958D01*
X00197487Y02045794D01*
X00194651Y02048629D01*
X00191816Y02048629D01*
X00194651Y02048629D02*
X00197487Y02051465D01*
X00197487Y02054301D01*
X00194651Y02057137D01*
X00188980Y02057137D01*
X00186144Y02054301D01*
X00179071Y02054301D02*
X00176236Y02057137D01*
X00170564Y02057137D01*
X00167728Y02054301D01*
X00167728Y02042958D01*
X00170564Y02040122D01*
X00305753Y02145319D02*
X00322768Y02145319D01*
X00322768Y02156662D01*
X00322768Y02163735D02*
X00305753Y02163735D01*
X00311425Y02169406D01*
X00305753Y02175078D01*
X00322768Y02175078D01*
X00322768Y02182150D02*
X00322768Y02193493D01*
X00322768Y02187822D02*
X00305753Y02187822D01*
X00311425Y02182150D01*
X00311425Y02200566D02*
X00305753Y02206238D01*
X00322768Y02206238D01*
X00322768Y02211909D02*
X00322768Y02200566D01*
X00322768Y02218982D02*
X00322768Y02230325D01*
X00322768Y02224653D02*
X00305753Y02224653D01*
X00311425Y02218982D01*
X00305753Y02237398D02*
X00305753Y02248741D01*
X00308589Y02248741D01*
X00319932Y02237398D01*
X00322768Y02237398D01*
X00322768Y02255813D02*
X00305753Y02255813D01*
X00311425Y02261485D01*
X00305753Y02267156D01*
X00322768Y02267156D01*
X00322768Y02274229D02*
X00305753Y02274229D01*
X00305753Y02282736D01*
X00308589Y02285572D01*
X00314260Y02285572D01*
X00317096Y02282736D01*
X00317096Y02274229D01*
X00322768Y02292645D02*
X00305753Y02303988D01*
X00314260Y02311060D02*
X00314260Y02322403D01*
X00308589Y02329476D02*
X00305753Y02332312D01*
X00305753Y02337983D01*
X00308589Y02340819D01*
X00311425Y02340819D01*
X00314260Y02337983D01*
X00317096Y02340819D01*
X00319932Y02340819D01*
X00322768Y02337983D01*
X00322768Y02332312D01*
X00319932Y02329476D01*
X00314260Y02335148D02*
X00314260Y02337983D01*
X00319932Y02347892D02*
X00319932Y02350728D01*
X00322768Y02350728D01*
X00322768Y02347892D01*
X00319932Y02347892D01*
X00319932Y02357100D02*
X00322768Y02359935D01*
X00322768Y02365607D01*
X00319932Y02368443D01*
X00317096Y02368443D01*
X00314260Y02365607D01*
X00314260Y02362771D01*
X00314260Y02365607D02*
X00311425Y02368443D01*
X00308589Y02368443D01*
X00305753Y02365607D01*
X00305753Y02359935D01*
X00308589Y02357100D01*
X00322768Y02303988D02*
X00305753Y02292645D01*
X00267098Y02277985D02*
X00267098Y02266642D01*
X00267098Y02272313D02*
X00250084Y02272313D01*
X00255755Y02266642D01*
X00252920Y02259569D02*
X00250084Y02256733D01*
X00250084Y02251062D01*
X00252920Y02248226D01*
X00264263Y02248226D01*
X00267098Y02251062D01*
X00267098Y02256733D01*
X00264263Y02259569D01*
X00267098Y02241620D02*
X00267098Y02235949D01*
X00267098Y02238785D02*
X00250084Y02238785D01*
X00250084Y02241620D02*
X00250084Y02235949D01*
X00350880Y02058932D02*
X00350880Y02041917D01*
X00345209Y02041917D02*
X00356552Y02041917D01*
X00363624Y02044753D02*
X00374967Y02056096D01*
X00374967Y02044753D01*
X00372132Y02041917D01*
X00366460Y02041917D01*
X00363624Y02044753D01*
X00363624Y02056096D01*
X00366460Y02058932D01*
X00372132Y02058932D01*
X00374967Y02056096D01*
X00382040Y02053260D02*
X00382040Y02044753D01*
X00384876Y02041917D01*
X00393383Y02041917D01*
X00393383Y02053260D01*
X00350880Y02058932D02*
X00345209Y02053260D01*
X00766768Y02325502D02*
X00769604Y02322666D01*
X00775276Y02322666D01*
X00778111Y02325502D01*
X00778111Y02336845D01*
X00775276Y02339681D01*
X00769604Y02339681D01*
X00766768Y02336845D01*
X00766768Y02325502D01*
X00772440Y02328338D02*
X00778111Y02322666D01*
X00785184Y02322666D02*
X00796527Y02322666D01*
X00790856Y02322666D02*
X00790856Y02339681D01*
X00785184Y02334009D01*
X00525071Y02715900D02*
X00510892Y02715900D01*
X00510892Y02727243D02*
X00525071Y02727243D01*
X00527907Y02724407D01*
X00527907Y02718735D01*
X00525071Y02715900D01*
X00527907Y02734315D02*
X00527907Y02745658D01*
X00527907Y02739987D02*
X00510892Y02739987D01*
X00516564Y02734315D01*
X00677211Y02809476D02*
X00680047Y02806640D01*
X00682883Y02806640D01*
X00685719Y02809476D01*
X00685719Y02815147D01*
X00688554Y02817983D01*
X00691390Y02817983D01*
X00694226Y02815147D01*
X00694226Y02809476D01*
X00691390Y02806640D01*
X00677211Y02809476D02*
X00677211Y02815147D01*
X00680047Y02817983D01*
X00677211Y02825056D02*
X00677211Y02836399D01*
X00677211Y02830727D02*
X00694226Y02830727D01*
X00694226Y02843471D02*
X00677211Y02843471D01*
X00682883Y02849143D01*
X00677211Y02854814D01*
X00694226Y02854814D01*
X00691390Y02861887D02*
X00694226Y02864723D01*
X00694226Y02870394D01*
X00691390Y02873230D01*
X00688554Y02873230D01*
X00685719Y02870394D01*
X00685719Y02867559D01*
X00685719Y02870394D02*
X00682883Y02873230D01*
X00680047Y02873230D01*
X00677211Y02870394D01*
X00677211Y02864723D01*
X00680047Y02861887D01*
X00680047Y02880303D02*
X00677211Y02883139D01*
X00677211Y02888810D01*
X00680047Y02891646D01*
X00682883Y02891646D01*
X00694226Y02880303D01*
X00694226Y02891646D01*
X00694226Y02898719D02*
X00677211Y02898719D01*
X00677211Y02910062D01*
X00682883Y02917134D02*
X00677211Y02922806D01*
X00694226Y02922806D01*
X00694226Y02928477D02*
X00694226Y02917134D01*
X00685719Y02904390D02*
X00685719Y02898719D01*
X00691390Y02935550D02*
X00680047Y02946893D01*
X00691390Y02946893D01*
X00694226Y02944057D01*
X00694226Y02938386D01*
X00691390Y02935550D01*
X00680047Y02935550D01*
X00677211Y02938386D01*
X00677211Y02944057D01*
X00680047Y02946893D01*
X00677211Y02953966D02*
X00694226Y02965309D01*
X00694226Y02972381D02*
X00677211Y02972381D01*
X00677211Y02980889D01*
X00680047Y02983724D01*
X00685719Y02983724D01*
X00688554Y02980889D01*
X00688554Y02972381D01*
X00688554Y02978053D02*
X00694226Y02983724D01*
X00694226Y02990797D02*
X00677211Y03002140D01*
X00677211Y03009213D02*
X00677211Y03020556D01*
X00677211Y03014884D02*
X00694226Y03014884D01*
X00694226Y03002140D02*
X00677211Y02990797D01*
X00677211Y02965309D02*
X00694226Y02953966D01*
X00691390Y03027629D02*
X00685719Y03027629D01*
X00685719Y03036136D01*
X00688554Y03038972D01*
X00691390Y03038972D01*
X00694226Y03036136D01*
X00694226Y03030464D01*
X00691390Y03027629D01*
X00685719Y03027629D02*
X00680047Y03033300D01*
X00677211Y03038972D01*
X00359404Y02548000D02*
X00359404Y02536657D01*
X00350896Y02536657D01*
X00348061Y02539493D01*
X00348061Y02548000D01*
X00340988Y02550836D02*
X00329645Y02539493D01*
X00332481Y02536657D01*
X00338152Y02536657D01*
X00340988Y02539493D01*
X00340988Y02550836D01*
X00338152Y02553672D01*
X00332481Y02553672D01*
X00329645Y02550836D01*
X00329645Y02539493D01*
X00322572Y02536657D02*
X00311229Y02536657D01*
X00316901Y02536657D02*
X00316901Y02553672D01*
X00311229Y02548000D01*
X00250978Y02546317D02*
X00250978Y02543481D01*
X00248143Y02540645D01*
X00250978Y02537809D01*
X00250978Y02534974D01*
X00248143Y02532138D01*
X00242471Y02532138D01*
X00239635Y02534974D01*
X00232563Y02532138D02*
X00221220Y02532138D01*
X00226891Y02532138D02*
X00226891Y02549152D01*
X00221220Y02543481D01*
X00214147Y02546317D02*
X00211311Y02549152D01*
X00205640Y02549152D01*
X00202804Y02546317D01*
X00202804Y02534974D01*
X00205640Y02532138D01*
X00211311Y02532138D01*
X00214147Y02534974D01*
X00239635Y02546317D02*
X00242471Y02549152D01*
X00248143Y02549152D01*
X00250978Y02546317D01*
X00248143Y02540645D02*
X00245307Y02540645D01*
X00147315Y03592142D02*
X00147315Y03603485D01*
X00147315Y03597813D02*
X00130300Y03597813D01*
X00135972Y03592142D01*
X00133136Y03610557D02*
X00130300Y03613393D01*
X00130300Y03619065D01*
X00133136Y03621900D01*
X00144479Y03610557D01*
X00147315Y03613393D01*
X00147315Y03619065D01*
X00144479Y03621900D01*
X00133136Y03621900D01*
X00130300Y03628973D02*
X00147315Y03628973D01*
X00141643Y03628973D02*
X00135972Y03637480D01*
X00141643Y03628973D02*
X00147315Y03637480D01*
X00144479Y03610557D02*
X00133136Y03610557D01*
X00238096Y03606539D02*
X00240931Y03609375D01*
X00246603Y03609375D01*
X00249439Y03606539D01*
X00249439Y03598031D01*
X00255110Y03598031D02*
X00238096Y03598031D01*
X00238096Y03606539D01*
X00249439Y03603703D02*
X00255110Y03609375D01*
X00246603Y03616447D02*
X00246603Y03627790D01*
X00238096Y03624954D02*
X00246603Y03616447D01*
X00255110Y03624954D02*
X00238096Y03624954D01*
X00168778Y03733397D02*
X00157435Y03733397D01*
X00154600Y03736233D01*
X00154600Y03741904D01*
X00157435Y03744740D01*
X00157435Y03751813D02*
X00168778Y03751813D01*
X00171614Y03754648D01*
X00171614Y03760320D01*
X00168778Y03763156D01*
X00157435Y03763156D01*
X00154600Y03760320D01*
X00154600Y03754648D01*
X00157435Y03751813D01*
X00168778Y03744740D02*
X00171614Y03741904D01*
X00171614Y03736233D01*
X00168778Y03733397D01*
X00171614Y03770228D02*
X00154600Y03770228D01*
X00171614Y03781571D01*
X00154600Y03781571D01*
X00154600Y03788644D02*
X00171614Y03799987D01*
X00154600Y03799987D01*
X00154600Y03807060D02*
X00171614Y03807060D01*
X00171614Y03818403D01*
X00168778Y03825476D02*
X00171614Y03828311D01*
X00171614Y03833983D01*
X00168778Y03836819D01*
X00157435Y03836819D02*
X00154600Y03833983D01*
X00154600Y03828311D01*
X00157435Y03825476D01*
X00168778Y03825476D01*
X00163107Y03812731D02*
X00163107Y03807060D01*
X00154600Y03807060D02*
X00154600Y03818403D01*
X00154600Y03843891D02*
X00154600Y03855234D01*
X00154600Y03849563D02*
X00171614Y03849563D01*
X00171614Y03788644D02*
X00154600Y03788644D01*
X01075151Y03641729D02*
X01092165Y03641729D01*
X01086494Y03641729D02*
X01080822Y03650236D01*
X01086494Y03641729D02*
X01092165Y03650236D01*
X01089330Y03634656D02*
X01092165Y03631821D01*
X01092165Y03626149D01*
X01089330Y03623313D01*
X01077987Y03634656D01*
X01089330Y03634656D01*
X01089330Y03623313D02*
X01077987Y03623313D01*
X01075151Y03626149D01*
X01075151Y03631821D01*
X01077987Y03634656D01*
X01092165Y03616241D02*
X01092165Y03604898D01*
X01092165Y03610569D02*
X01075151Y03610569D01*
X01080822Y03604898D01*
X01192631Y03627008D02*
X01192631Y03635515D01*
X01195467Y03638351D01*
X01201138Y03638351D01*
X01203974Y03635515D01*
X01203974Y03627008D01*
X01203974Y03632679D02*
X01209646Y03638351D01*
X01206810Y03645424D02*
X01209646Y03648259D01*
X01209646Y03653931D01*
X01206810Y03656767D01*
X01203974Y03656767D01*
X01201138Y03653931D01*
X01201138Y03651095D01*
X01201138Y03653931D02*
X01198303Y03656767D01*
X01195467Y03656767D01*
X01192631Y03653931D01*
X01192631Y03648259D01*
X01195467Y03645424D01*
X01192631Y03627008D02*
X01209646Y03627008D01*
X01155362Y03742228D02*
X01138348Y03742228D01*
X01138348Y03750736D01*
X01141183Y03753571D01*
X01146855Y03753571D01*
X01149691Y03750736D01*
X01149691Y03742228D01*
X01152526Y03760644D02*
X01141183Y03760644D01*
X01138348Y03763480D01*
X01138348Y03769151D01*
X01141183Y03771987D01*
X01152526Y03771987D01*
X01155362Y03769151D01*
X01155362Y03763480D01*
X01152526Y03760644D01*
X01155362Y03779060D02*
X01149691Y03784731D01*
X01155362Y03790403D01*
X01138348Y03790403D01*
X01138348Y03797476D02*
X01155362Y03797476D01*
X01155362Y03808819D01*
X01155362Y03815891D02*
X01138348Y03815891D01*
X01138348Y03824399D01*
X01141183Y03827234D01*
X01146855Y03827234D01*
X01149691Y03824399D01*
X01149691Y03815891D01*
X01149691Y03821563D02*
X01155362Y03827234D01*
X01138348Y03808819D02*
X01138348Y03797476D01*
X01146855Y03797476D02*
X01146855Y03803147D01*
X01138348Y03779060D02*
X01155362Y03779060D01*
D11*
X00970626Y03986957D02*
X00970626Y03423965D01*
X00387949Y03423965D01*
X00387949Y03986957D01*
X00970626Y03986957D01*
X00581426Y02765975D02*
X00581429Y02766248D01*
X00581439Y02766521D01*
X00581456Y02766794D01*
X00581480Y02767066D01*
X00581510Y02767337D01*
X00581546Y02767608D01*
X00581590Y02767878D01*
X00581640Y02768146D01*
X00581696Y02768414D01*
X00581760Y02768679D01*
X00581829Y02768944D01*
X00581905Y02769206D01*
X00581988Y02769466D01*
X00582077Y02769725D01*
X00582172Y02769981D01*
X00582273Y02770234D01*
X00582381Y02770485D01*
X00582495Y02770734D01*
X00582614Y02770979D01*
X00582740Y02771222D01*
X00582872Y02771461D01*
X00583009Y02771697D01*
X00583153Y02771930D01*
X00583302Y02772158D01*
X00583456Y02772384D01*
X00583616Y02772605D01*
X00583782Y02772823D01*
X00583952Y02773036D01*
X00584128Y02773245D01*
X00584309Y02773449D01*
X00584495Y02773650D01*
X00584686Y02773845D01*
X00584881Y02774036D01*
X00585082Y02774222D01*
X00585286Y02774403D01*
X00585495Y02774579D01*
X00585708Y02774749D01*
X00585926Y02774915D01*
X00586147Y02775075D01*
X00586373Y02775229D01*
X00586601Y02775378D01*
X00586834Y02775522D01*
X00587070Y02775659D01*
X00587309Y02775791D01*
X00587552Y02775917D01*
X00587797Y02776036D01*
X00588046Y02776150D01*
X00588297Y02776258D01*
X00588550Y02776359D01*
X00588806Y02776454D01*
X00589065Y02776543D01*
X00589325Y02776626D01*
X00589587Y02776702D01*
X00589852Y02776771D01*
X00590117Y02776835D01*
X00590385Y02776891D01*
X00590653Y02776941D01*
X00590923Y02776985D01*
X00591194Y02777021D01*
X00591465Y02777051D01*
X00591737Y02777075D01*
X00592010Y02777092D01*
X00592283Y02777102D01*
X00592556Y02777105D01*
X00592829Y02777102D01*
X00593102Y02777092D01*
X00593375Y02777075D01*
X00593647Y02777051D01*
X00593918Y02777021D01*
X00594189Y02776985D01*
X00594459Y02776941D01*
X00594727Y02776891D01*
X00594995Y02776835D01*
X00595260Y02776771D01*
X00595525Y02776702D01*
X00595787Y02776626D01*
X00596047Y02776543D01*
X00596306Y02776454D01*
X00596562Y02776359D01*
X00596815Y02776258D01*
X00597066Y02776150D01*
X00597315Y02776036D01*
X00597560Y02775917D01*
X00597803Y02775791D01*
X00598042Y02775659D01*
X00598278Y02775522D01*
X00598511Y02775378D01*
X00598739Y02775229D01*
X00598965Y02775075D01*
X00599186Y02774915D01*
X00599404Y02774749D01*
X00599617Y02774579D01*
X00599826Y02774403D01*
X00600030Y02774222D01*
X00600231Y02774036D01*
X00600426Y02773845D01*
X00600617Y02773650D01*
X00600803Y02773449D01*
X00600984Y02773245D01*
X00601160Y02773036D01*
X00601330Y02772823D01*
X00601496Y02772605D01*
X00601656Y02772384D01*
X00601810Y02772158D01*
X00601959Y02771930D01*
X00602103Y02771697D01*
X00602240Y02771461D01*
X00602372Y02771222D01*
X00602498Y02770979D01*
X00602617Y02770734D01*
X00602731Y02770485D01*
X00602839Y02770234D01*
X00602940Y02769981D01*
X00603035Y02769725D01*
X00603124Y02769466D01*
X00603207Y02769206D01*
X00603283Y02768944D01*
X00603352Y02768679D01*
X00603416Y02768414D01*
X00603472Y02768146D01*
X00603522Y02767878D01*
X00603566Y02767608D01*
X00603602Y02767337D01*
X00603632Y02767066D01*
X00603656Y02766794D01*
X00603673Y02766521D01*
X00603683Y02766248D01*
X00603686Y02765975D01*
X00603683Y02765702D01*
X00603673Y02765429D01*
X00603656Y02765156D01*
X00603632Y02764884D01*
X00603602Y02764613D01*
X00603566Y02764342D01*
X00603522Y02764072D01*
X00603472Y02763804D01*
X00603416Y02763536D01*
X00603352Y02763271D01*
X00603283Y02763006D01*
X00603207Y02762744D01*
X00603124Y02762484D01*
X00603035Y02762225D01*
X00602940Y02761969D01*
X00602839Y02761716D01*
X00602731Y02761465D01*
X00602617Y02761216D01*
X00602498Y02760971D01*
X00602372Y02760728D01*
X00602240Y02760489D01*
X00602103Y02760253D01*
X00601959Y02760020D01*
X00601810Y02759792D01*
X00601656Y02759566D01*
X00601496Y02759345D01*
X00601330Y02759127D01*
X00601160Y02758914D01*
X00600984Y02758705D01*
X00600803Y02758501D01*
X00600617Y02758300D01*
X00600426Y02758105D01*
X00600231Y02757914D01*
X00600030Y02757728D01*
X00599826Y02757547D01*
X00599617Y02757371D01*
X00599404Y02757201D01*
X00599186Y02757035D01*
X00598965Y02756875D01*
X00598739Y02756721D01*
X00598511Y02756572D01*
X00598278Y02756428D01*
X00598042Y02756291D01*
X00597803Y02756159D01*
X00597560Y02756033D01*
X00597315Y02755914D01*
X00597066Y02755800D01*
X00596815Y02755692D01*
X00596562Y02755591D01*
X00596306Y02755496D01*
X00596047Y02755407D01*
X00595787Y02755324D01*
X00595525Y02755248D01*
X00595260Y02755179D01*
X00594995Y02755115D01*
X00594727Y02755059D01*
X00594459Y02755009D01*
X00594189Y02754965D01*
X00593918Y02754929D01*
X00593647Y02754899D01*
X00593375Y02754875D01*
X00593102Y02754858D01*
X00592829Y02754848D01*
X00592556Y02754845D01*
X00592283Y02754848D01*
X00592010Y02754858D01*
X00591737Y02754875D01*
X00591465Y02754899D01*
X00591194Y02754929D01*
X00590923Y02754965D01*
X00590653Y02755009D01*
X00590385Y02755059D01*
X00590117Y02755115D01*
X00589852Y02755179D01*
X00589587Y02755248D01*
X00589325Y02755324D01*
X00589065Y02755407D01*
X00588806Y02755496D01*
X00588550Y02755591D01*
X00588297Y02755692D01*
X00588046Y02755800D01*
X00587797Y02755914D01*
X00587552Y02756033D01*
X00587309Y02756159D01*
X00587070Y02756291D01*
X00586834Y02756428D01*
X00586601Y02756572D01*
X00586373Y02756721D01*
X00586147Y02756875D01*
X00585926Y02757035D01*
X00585708Y02757201D01*
X00585495Y02757371D01*
X00585286Y02757547D01*
X00585082Y02757728D01*
X00584881Y02757914D01*
X00584686Y02758105D01*
X00584495Y02758300D01*
X00584309Y02758501D01*
X00584128Y02758705D01*
X00583952Y02758914D01*
X00583782Y02759127D01*
X00583616Y02759345D01*
X00583456Y02759566D01*
X00583302Y02759792D01*
X00583153Y02760020D01*
X00583009Y02760253D01*
X00582872Y02760489D01*
X00582740Y02760728D01*
X00582614Y02760971D01*
X00582495Y02761216D01*
X00582381Y02761465D01*
X00582273Y02761716D01*
X00582172Y02761969D01*
X00582077Y02762225D01*
X00581988Y02762484D01*
X00581905Y02762744D01*
X00581829Y02763006D01*
X00581760Y02763271D01*
X00581696Y02763536D01*
X00581640Y02763804D01*
X00581590Y02764072D01*
X00581546Y02764342D01*
X00581510Y02764613D01*
X00581480Y02764884D01*
X00581456Y02765156D01*
X00581439Y02765429D01*
X00581429Y02765702D01*
X00581426Y02765975D01*
X05624025Y00415559D02*
X05642374Y00415559D01*
X05679072Y00415559D02*
X05752468Y00415559D01*
X05752468Y00397210D02*
X05752468Y00433908D01*
X05734119Y00470873D02*
X05752468Y00489222D01*
X05752468Y00525920D01*
X05715770Y00544269D02*
X05715770Y00470873D01*
X05697421Y00470873D02*
X05679072Y00489222D01*
X05679072Y00525920D01*
X05697421Y00544269D01*
X05715770Y00544269D01*
X05734119Y00470873D02*
X05697421Y00470873D01*
X05679072Y00415559D02*
X05679072Y00397210D01*
X05734119Y00360312D02*
X05752468Y00360312D01*
X05752468Y00341963D01*
X05734119Y00341963D01*
X05734119Y00360312D01*
X05734119Y00304864D02*
X05697421Y00304864D01*
X05679072Y00286515D01*
X05679072Y00249817D01*
X05697421Y00231468D01*
X05734119Y00231468D01*
X05752468Y00249817D01*
X05752468Y00286515D01*
X05734119Y00304864D01*
X05734119Y00194370D02*
X05697421Y00194370D01*
X05679072Y00176021D01*
X05679072Y00139323D01*
X05697421Y00120974D01*
X05734119Y00120974D01*
X05752468Y00139323D01*
X05752468Y00176021D01*
X05734119Y00194370D01*
X05752468Y00083876D02*
X05697421Y00083876D01*
X05679072Y00065527D01*
X05679072Y00028828D01*
X05697421Y00010480D01*
X05697421Y-00026619D02*
X05679072Y-00044968D01*
X05679072Y-00081666D01*
X05715770Y-00081666D02*
X05715770Y-00026619D01*
X05697421Y-00026619D02*
X05752468Y-00026619D01*
X05752468Y-00081666D01*
X05734119Y-00100015D01*
X05715770Y-00081666D01*
X05752468Y-00137113D02*
X05752468Y-00192160D01*
X05734119Y-00210509D01*
X05679072Y-00210509D01*
X05660723Y-00247607D02*
X05697421Y-00247607D01*
X05715770Y-00265956D01*
X05679072Y-00265956D01*
X05679072Y-00302655D01*
X05715770Y-00302655D01*
X05715770Y-00265956D01*
X05734119Y-00247607D02*
X05752468Y-00265956D01*
X05752468Y-00302655D01*
X05734119Y-00321003D01*
X05660723Y-00321003D01*
X05642374Y-00302655D01*
X05642374Y-00265956D01*
X05660723Y-00247607D01*
X05679072Y-00137113D02*
X05770817Y-00137113D01*
X05789166Y-00155462D01*
X05789166Y-00173811D01*
X05734119Y-00358102D02*
X05697421Y-00358102D01*
X05679072Y-00376451D01*
X05679072Y-00413149D01*
X05697421Y-00431498D01*
X05734119Y-00431498D01*
X05752468Y-00413149D01*
X05752468Y-00376451D01*
X05734119Y-00358102D01*
X05752468Y-00468463D02*
X05752468Y-00505161D01*
X05752468Y-00486812D02*
X05679072Y-00486812D01*
X05679072Y-00505161D01*
X05679072Y-00542192D02*
X05679072Y-00560541D01*
X05715770Y-00597239D01*
X05752468Y-00597239D02*
X05679072Y-00597239D01*
X05697421Y-00634338D02*
X05679072Y-00652687D01*
X05679072Y-00689385D01*
X05715770Y-00689385D02*
X05715770Y-00634338D01*
X05697421Y-00634338D02*
X05752468Y-00634338D01*
X05752468Y-00689385D01*
X05734119Y-00707734D01*
X05715770Y-00689385D01*
X05697421Y-00744832D02*
X05679072Y-00763181D01*
X05697421Y-00781530D01*
X05752468Y-00781530D01*
X05752468Y-00818228D02*
X05679072Y-00818228D01*
X05679072Y-00799879D01*
X05697421Y-00781530D01*
X05697421Y-00744832D02*
X05752468Y-00744832D01*
X05752468Y-00855326D02*
X05697421Y-00855326D01*
X05679072Y-00873675D01*
X05679072Y-00910373D01*
X05715770Y-00910373D02*
X05715770Y-00855326D01*
X05752468Y-00855326D02*
X05752468Y-00910373D01*
X05734119Y-00928722D01*
X05715770Y-00910373D01*
X05752468Y-00965687D02*
X05752468Y-01002385D01*
X05752468Y-00984036D02*
X05642374Y-00984036D01*
X05642374Y-01002385D01*
X05679072Y-01039484D02*
X05752468Y-01039484D01*
X05752468Y-01094531D01*
X05734119Y-01112880D01*
X05679072Y-01112880D01*
X05679072Y-01149911D02*
X05715770Y-01204958D01*
X05752468Y-01149911D01*
X05752468Y-01204958D02*
X05642374Y-01204958D01*
X05642374Y-00486812D02*
X05624025Y-00486812D01*
X05642374Y00010480D02*
X05752468Y00010480D01*
D12*
X01243842Y02740002D02*
X01240839Y02737000D01*
X01234834Y02737000D01*
X01231831Y02740002D01*
X01231831Y02752013D01*
X01234834Y02755015D01*
X01240839Y02755015D01*
X01243842Y02752013D01*
X01225426Y02752013D02*
X01222423Y02755015D01*
X01216418Y02755015D01*
X01213416Y02752013D01*
X01213416Y02740002D01*
X01216418Y02737000D01*
X01222423Y02737000D01*
X01225426Y02740002D01*
X01207010Y02743005D02*
X01201005Y02737000D01*
X01195000Y02743005D01*
X01195000Y02755015D01*
X01207010Y02755015D02*
X01207010Y02743005D01*
X01172858Y02842346D02*
X01154843Y02842346D01*
X01154843Y02851354D01*
X01157845Y02854357D01*
X01163851Y02854357D01*
X01166853Y02851354D01*
X01166853Y02842346D01*
X01166853Y02860762D02*
X01166853Y02869770D01*
X01163851Y02872772D01*
X01157845Y02872772D01*
X01154843Y02869770D01*
X01154843Y02860762D01*
X01172858Y02860762D01*
X01166853Y02866767D02*
X01172858Y02872772D01*
X01169856Y02879178D02*
X01172858Y02882180D01*
X01172858Y02888186D01*
X01169856Y02891188D01*
X01157845Y02891188D01*
X01154843Y02888186D01*
X01154843Y02882180D01*
X01157845Y02879178D01*
X01169856Y02879178D01*
X01169856Y02897594D02*
X01172858Y02900596D01*
X01172858Y02906601D01*
X01169856Y02909604D01*
X01163851Y02909604D01*
X01163851Y02903599D01*
X01169856Y02897594D02*
X01157845Y02897594D01*
X01154843Y02900596D01*
X01154843Y02906601D01*
X01157845Y02909604D01*
X01154843Y02916009D02*
X01154843Y02925017D01*
X01157845Y02928020D01*
X01163851Y02928020D01*
X01166853Y02925017D01*
X01166853Y02916009D01*
X01172858Y02916009D02*
X01154843Y02916009D01*
X01166853Y02922014D02*
X01172858Y02928020D01*
X01172858Y02934425D02*
X01160848Y02934425D01*
X01154843Y02940430D01*
X01160848Y02946435D01*
X01172858Y02946435D01*
X01172858Y02952841D02*
X01154843Y02952841D01*
X01160848Y02958846D01*
X01154843Y02964851D01*
X01172858Y02964851D01*
X01172858Y02971257D02*
X01172858Y02983267D01*
X01172858Y02989672D02*
X01154843Y02989672D01*
X01154843Y02998680D01*
X01157845Y03001682D01*
X01163851Y03001682D01*
X01166853Y02998680D01*
X01166853Y02989672D01*
X01166853Y02995677D02*
X01172858Y03001682D01*
X01154843Y02983267D02*
X01154843Y02971257D01*
X01172858Y02971257D01*
X01163851Y02971257D02*
X01163851Y02977262D01*
X01163851Y02946435D02*
X01163851Y02934425D01*
X01041500Y02992502D02*
X01038498Y02989500D01*
X01041500Y02992502D02*
X01041500Y02998508D01*
X01038498Y03001510D01*
X01035495Y03001510D01*
X01032492Y02998508D01*
X01032492Y02992502D01*
X01029490Y02989500D01*
X01026487Y02989500D01*
X01023485Y02992502D01*
X01023485Y02998508D01*
X01026487Y03001510D01*
X01023485Y03007916D02*
X01041500Y03007916D01*
X01035495Y03013921D01*
X01041500Y03019926D01*
X01023485Y03019926D01*
X01023485Y03026331D02*
X01023485Y03035339D01*
X01026487Y03038342D01*
X01038498Y03038342D01*
X01041500Y03035339D01*
X01041500Y03026331D01*
X01023485Y03026331D01*
X01023485Y03044747D02*
X01023485Y03050752D01*
X01023485Y03047750D02*
X01041500Y03047750D01*
X01041500Y03050752D02*
X01041500Y03044747D01*
X01038498Y03057024D02*
X01026487Y03057024D01*
X01023485Y03060027D01*
X01023485Y03066032D01*
X01026487Y03069034D01*
X01038498Y03069034D01*
X01041500Y03066032D01*
X01041500Y03060027D01*
X01038498Y03057024D01*
X01000485Y02964257D02*
X01000485Y02952247D01*
X01000485Y02958252D02*
X01018500Y02958252D01*
X01015498Y02945842D02*
X01018500Y02942839D01*
X01018500Y02936834D01*
X01015498Y02933831D01*
X01009492Y02936834D02*
X01009492Y02942839D01*
X01012495Y02945842D01*
X01015498Y02945842D01*
X01009492Y02936834D02*
X01006490Y02933831D01*
X01003487Y02933831D01*
X01000485Y02936834D01*
X01000485Y02942839D01*
X01003487Y02945842D01*
X01003487Y02927426D02*
X01009492Y02927426D01*
X01012495Y02924423D01*
X01012495Y02915416D01*
X01012495Y02921421D02*
X01018500Y02927426D01*
X01018500Y02915416D02*
X01000485Y02915416D01*
X01000485Y02924423D01*
X01003487Y02927426D01*
X01000485Y02909010D02*
X01018500Y02909010D01*
X01000485Y02897000D01*
X01018500Y02897000D01*
X01019987Y02840342D02*
X01016985Y02837339D01*
X01016985Y02828331D01*
X01035000Y02828331D01*
X01035000Y02837339D01*
X01031998Y02840342D01*
X01019987Y02840342D01*
X01016985Y02821926D02*
X01035000Y02821926D01*
X01016985Y02809916D01*
X01035000Y02809916D01*
X01031998Y02803510D02*
X01025992Y02803510D01*
X01025992Y02797505D01*
X01019987Y02791500D02*
X01016985Y02794502D01*
X01016985Y02800508D01*
X01019987Y02803510D01*
X01019987Y02791500D02*
X01031998Y02791500D01*
X01035000Y02794502D01*
X01035000Y02800508D01*
X01031998Y02803510D01*
X01175002Y03083000D02*
X01172000Y03086002D01*
X01175002Y03083000D02*
X01181008Y03083000D01*
X01184010Y03086002D01*
X01184010Y03089005D01*
X01181008Y03092008D01*
X01175002Y03092008D01*
X01172000Y03095010D01*
X01172000Y03098013D01*
X01175002Y03101015D01*
X01181008Y03101015D01*
X01184010Y03098013D01*
X01190416Y03101015D02*
X01190416Y03083000D01*
X01196421Y03089005D01*
X01202426Y03083000D01*
X01202426Y03101015D01*
X01208831Y03098013D02*
X01208831Y03086002D01*
X01211834Y03083000D01*
X01217839Y03083000D01*
X01220842Y03086002D01*
X01227247Y03083000D02*
X01239257Y03083000D01*
X01245663Y03083000D02*
X01245663Y03101015D01*
X01248665Y03092008D02*
X01257673Y03083000D01*
X01245663Y03089005D02*
X01257673Y03101015D01*
X01227247Y03101015D02*
X01227247Y03083000D01*
X01220842Y03098013D02*
X01217839Y03101015D01*
X01211834Y03101015D01*
X01208831Y03098013D01*
X00830272Y03550343D02*
X00805665Y03550343D01*
X00776138Y03550343D01*
X00775659Y03550349D01*
X00775180Y03550366D01*
X00774701Y03550396D01*
X00774223Y03550436D01*
X00773747Y03550489D01*
X00773272Y03550553D01*
X00772798Y03550628D01*
X00772327Y03550715D01*
X00771858Y03550814D01*
X00771391Y03550924D01*
X00770927Y03551045D01*
X00770467Y03551178D01*
X00770009Y03551321D01*
X00769556Y03551476D01*
X00769106Y03551642D01*
X00768660Y03551819D01*
X00768219Y03552006D01*
X00767783Y03552204D01*
X00767351Y03552413D01*
X00766925Y03552632D01*
X00766504Y03552862D01*
X00766089Y03553101D01*
X00765679Y03553351D01*
X00765276Y03553611D01*
X00764880Y03553880D01*
X00764490Y03554159D01*
X00764107Y03554447D01*
X00763731Y03554745D01*
X00763363Y03555052D01*
X00763002Y03555367D01*
X00762649Y03555691D01*
X00762304Y03556024D01*
X00761967Y03556365D01*
X00761638Y03556714D01*
X00761318Y03557071D01*
X00761007Y03557436D01*
X00760705Y03557808D01*
X00760412Y03558188D01*
X00760128Y03558574D01*
X00759854Y03558967D01*
X00759590Y03559367D01*
X00759335Y03559773D01*
X00759090Y03560186D01*
X00758856Y03560604D01*
X00758631Y03561027D01*
X00758417Y03561456D01*
X00758214Y03561890D01*
X00758021Y03562329D01*
X00757839Y03562773D01*
X00757668Y03563220D01*
X00757507Y03563672D01*
X00757358Y03564128D01*
X00757220Y03564587D01*
X00757093Y03565049D01*
X00756977Y03565514D01*
X00756873Y03565982D01*
X00756780Y03566452D01*
X00756699Y03566925D01*
X00756629Y03567399D01*
X00756571Y03567875D01*
X00756524Y03568352D01*
X00756489Y03568830D01*
X00756466Y03569309D01*
X00756454Y03569788D01*
X00756454Y03570268D01*
X00756466Y03570747D01*
X00756489Y03571226D01*
X00756524Y03571704D01*
X00756571Y03572181D01*
X00756629Y03572657D01*
X00756699Y03573131D01*
X00756780Y03573604D01*
X00756873Y03574074D01*
X00756977Y03574542D01*
X00757093Y03575007D01*
X00757220Y03575469D01*
X00757358Y03575928D01*
X00757507Y03576384D01*
X00757668Y03576836D01*
X00757839Y03577283D01*
X00758021Y03577727D01*
X00758214Y03578166D01*
X00758417Y03578600D01*
X00758631Y03579029D01*
X00758856Y03579452D01*
X00759090Y03579871D01*
X00759335Y03580283D01*
X00759590Y03580689D01*
X00759854Y03581089D01*
X00760128Y03581482D01*
X00760412Y03581868D01*
X00760705Y03582248D01*
X00761007Y03582620D01*
X00761318Y03582985D01*
X00761638Y03583342D01*
X00761967Y03583691D01*
X00762304Y03584032D01*
X00762649Y03584365D01*
X00763002Y03584689D01*
X00763363Y03585004D01*
X00763731Y03585311D01*
X00764107Y03585609D01*
X00764490Y03585897D01*
X00764880Y03586176D01*
X00765276Y03586445D01*
X00765679Y03586705D01*
X00766089Y03586955D01*
X00766504Y03587194D01*
X00766925Y03587424D01*
X00767351Y03587643D01*
X00767783Y03587852D01*
X00768219Y03588050D01*
X00768660Y03588237D01*
X00769106Y03588414D01*
X00769556Y03588580D01*
X00770009Y03588735D01*
X00770467Y03588878D01*
X00770927Y03589011D01*
X00771391Y03589132D01*
X00771858Y03589242D01*
X00772327Y03589341D01*
X00772798Y03589428D01*
X00773272Y03589503D01*
X00773747Y03589567D01*
X00774223Y03589620D01*
X00774701Y03589660D01*
X00775180Y03589690D01*
X00775659Y03589707D01*
X00776138Y03589713D01*
X00775659Y03589719D01*
X00775180Y03589736D01*
X00774701Y03589766D01*
X00774223Y03589806D01*
X00773747Y03589859D01*
X00773272Y03589923D01*
X00772798Y03589998D01*
X00772327Y03590085D01*
X00771858Y03590184D01*
X00771391Y03590294D01*
X00770927Y03590415D01*
X00770467Y03590548D01*
X00770009Y03590691D01*
X00769556Y03590846D01*
X00769106Y03591012D01*
X00768660Y03591189D01*
X00768219Y03591376D01*
X00767783Y03591574D01*
X00767351Y03591783D01*
X00766925Y03592002D01*
X00766504Y03592232D01*
X00766089Y03592471D01*
X00765679Y03592721D01*
X00765276Y03592981D01*
X00764880Y03593250D01*
X00764490Y03593529D01*
X00764107Y03593817D01*
X00763731Y03594115D01*
X00763363Y03594422D01*
X00763002Y03594737D01*
X00762649Y03595061D01*
X00762304Y03595394D01*
X00761967Y03595735D01*
X00761638Y03596084D01*
X00761318Y03596441D01*
X00761007Y03596806D01*
X00760705Y03597178D01*
X00760412Y03597558D01*
X00760128Y03597944D01*
X00759854Y03598337D01*
X00759590Y03598737D01*
X00759335Y03599143D01*
X00759090Y03599556D01*
X00758856Y03599974D01*
X00758631Y03600397D01*
X00758417Y03600826D01*
X00758214Y03601260D01*
X00758021Y03601699D01*
X00757839Y03602143D01*
X00757668Y03602590D01*
X00757507Y03603042D01*
X00757358Y03603498D01*
X00757220Y03603957D01*
X00757093Y03604419D01*
X00756977Y03604884D01*
X00756873Y03605352D01*
X00756780Y03605822D01*
X00756699Y03606295D01*
X00756629Y03606769D01*
X00756571Y03607245D01*
X00756524Y03607722D01*
X00756489Y03608200D01*
X00756466Y03608679D01*
X00756454Y03609158D01*
X00756454Y03609638D01*
X00756466Y03610117D01*
X00756489Y03610596D01*
X00756524Y03611074D01*
X00756571Y03611551D01*
X00756629Y03612027D01*
X00756699Y03612501D01*
X00756780Y03612974D01*
X00756873Y03613444D01*
X00756977Y03613912D01*
X00757093Y03614377D01*
X00757220Y03614839D01*
X00757358Y03615298D01*
X00757507Y03615754D01*
X00757668Y03616206D01*
X00757839Y03616653D01*
X00758021Y03617097D01*
X00758214Y03617536D01*
X00758417Y03617970D01*
X00758631Y03618399D01*
X00758856Y03618822D01*
X00759090Y03619241D01*
X00759335Y03619653D01*
X00759590Y03620059D01*
X00759854Y03620459D01*
X00760128Y03620852D01*
X00760412Y03621238D01*
X00760705Y03621618D01*
X00761007Y03621990D01*
X00761318Y03622355D01*
X00761638Y03622712D01*
X00761967Y03623061D01*
X00762304Y03623402D01*
X00762649Y03623735D01*
X00763002Y03624059D01*
X00763363Y03624374D01*
X00763731Y03624681D01*
X00764107Y03624979D01*
X00764490Y03625267D01*
X00764880Y03625546D01*
X00765276Y03625815D01*
X00765679Y03626075D01*
X00766089Y03626325D01*
X00766504Y03626564D01*
X00766925Y03626794D01*
X00767351Y03627013D01*
X00767783Y03627222D01*
X00768219Y03627420D01*
X00768660Y03627607D01*
X00769106Y03627784D01*
X00769556Y03627950D01*
X00770009Y03628105D01*
X00770467Y03628248D01*
X00770927Y03628381D01*
X00771391Y03628502D01*
X00771858Y03628612D01*
X00772327Y03628711D01*
X00772798Y03628798D01*
X00773272Y03628873D01*
X00773747Y03628937D01*
X00774223Y03628990D01*
X00774701Y03629030D01*
X00775180Y03629060D01*
X00775659Y03629077D01*
X00776138Y03629083D01*
X00805665Y03629083D01*
X00776138Y03609398D01*
X00805665Y03589713D01*
X00776138Y03570028D01*
X00805665Y03550343D01*
X00805665Y03589713D01*
X00805665Y03629083D01*
X00830272Y03629083D01*
X00830272Y03550343D01*
X00746610Y03550343D02*
X00746610Y03629083D01*
X00677713Y03629083D01*
X00677713Y03609398D01*
X00722004Y03609398D01*
X00722004Y03599555D01*
X00677713Y03599555D01*
X00677713Y03579870D01*
X00722004Y03579870D01*
X00722004Y03570028D01*
X00677713Y03570028D01*
X00677713Y03550343D01*
X00746610Y03550343D01*
X00667870Y03550343D02*
X00613736Y03550343D01*
X00613137Y03550350D01*
X00612538Y03550372D01*
X00611940Y03550409D01*
X00611343Y03550460D01*
X00610747Y03550525D01*
X00610153Y03550605D01*
X00609562Y03550700D01*
X00608972Y03550809D01*
X00608386Y03550932D01*
X00607803Y03551069D01*
X00607223Y03551221D01*
X00606647Y03551386D01*
X00606075Y03551566D01*
X00605508Y03551759D01*
X00604946Y03551967D01*
X00604389Y03552187D01*
X00603837Y03552422D01*
X00603292Y03552670D01*
X00602752Y03552930D01*
X00602219Y03553204D01*
X00601693Y03553491D01*
X00601174Y03553791D01*
X00600663Y03554103D01*
X00600159Y03554428D01*
X00599664Y03554764D01*
X00599176Y03555113D01*
X00598697Y03555473D01*
X00598228Y03555845D01*
X00597767Y03556229D01*
X00597316Y03556623D01*
X00596875Y03557028D01*
X00596443Y03557444D01*
X00596022Y03557871D01*
X00595611Y03558307D01*
X00595212Y03558753D01*
X00594823Y03559209D01*
X00594445Y03559674D01*
X00594079Y03560149D01*
X00593724Y03560632D01*
X00593381Y03561123D01*
X00593051Y03561623D01*
X00592732Y03562131D01*
X00592427Y03562646D01*
X00592133Y03563169D01*
X00591853Y03563698D01*
X00591585Y03564234D01*
X00591331Y03564777D01*
X00591090Y03565325D01*
X00590862Y03565880D01*
X00590648Y03566439D01*
X00590448Y03567004D01*
X00590261Y03567574D01*
X00590089Y03568147D01*
X00589930Y03568725D01*
X00589786Y03569307D01*
X00589655Y03569892D01*
X00589539Y03570480D01*
X00589438Y03571070D01*
X00589350Y03571663D01*
X00589278Y03572258D01*
X00589219Y03572854D01*
X00589176Y03573452D01*
X00589146Y03574050D01*
X00589132Y03574649D01*
X00589132Y03575249D01*
X00589146Y03575848D01*
X00589176Y03576446D01*
X00589219Y03577044D01*
X00589278Y03577640D01*
X00589350Y03578235D01*
X00589438Y03578828D01*
X00589539Y03579418D01*
X00589655Y03580006D01*
X00589786Y03580591D01*
X00589930Y03581173D01*
X00590089Y03581751D01*
X00590261Y03582324D01*
X00590448Y03582894D01*
X00590648Y03583459D01*
X00590862Y03584018D01*
X00591090Y03584573D01*
X00591331Y03585121D01*
X00591585Y03585664D01*
X00591853Y03586200D01*
X00592133Y03586729D01*
X00592427Y03587252D01*
X00592732Y03587767D01*
X00593051Y03588275D01*
X00593381Y03588775D01*
X00593724Y03589266D01*
X00594079Y03589749D01*
X00594445Y03590224D01*
X00594823Y03590689D01*
X00595212Y03591145D01*
X00595611Y03591591D01*
X00596022Y03592027D01*
X00596443Y03592454D01*
X00596875Y03592870D01*
X00597316Y03593275D01*
X00597767Y03593669D01*
X00598228Y03594053D01*
X00598697Y03594425D01*
X00599176Y03594785D01*
X00599664Y03595134D01*
X00600159Y03595470D01*
X00600663Y03595795D01*
X00601174Y03596107D01*
X00601693Y03596407D01*
X00602219Y03596694D01*
X00602752Y03596968D01*
X00603292Y03597228D01*
X00603837Y03597476D01*
X00604389Y03597711D01*
X00604946Y03597931D01*
X00605508Y03598139D01*
X00606075Y03598332D01*
X00606647Y03598512D01*
X00607223Y03598677D01*
X00607803Y03598829D01*
X00608386Y03598966D01*
X00608972Y03599089D01*
X00609562Y03599198D01*
X00610153Y03599293D01*
X00610747Y03599373D01*
X00611343Y03599438D01*
X00611940Y03599489D01*
X00612538Y03599526D01*
X00613137Y03599548D01*
X00613736Y03599555D01*
X00594051Y03629083D01*
X00623579Y03629083D01*
X00643264Y03599555D01*
X00643264Y03629083D01*
X00667870Y03629083D01*
X00667870Y03550343D01*
X00643264Y03570028D02*
X00628500Y03570028D01*
X00628500Y03570027D02*
X00628320Y03570029D01*
X00628141Y03570036D01*
X00627961Y03570047D01*
X00627782Y03570062D01*
X00627603Y03570082D01*
X00627425Y03570106D01*
X00627248Y03570134D01*
X00627071Y03570167D01*
X00626895Y03570204D01*
X00626720Y03570245D01*
X00626546Y03570290D01*
X00626373Y03570340D01*
X00626202Y03570394D01*
X00626032Y03570452D01*
X00625863Y03570514D01*
X00625696Y03570580D01*
X00625530Y03570651D01*
X00625367Y03570725D01*
X00625205Y03570803D01*
X00625045Y03570885D01*
X00624887Y03570972D01*
X00624731Y03571061D01*
X00624578Y03571155D01*
X00624427Y03571252D01*
X00624278Y03571353D01*
X00624132Y03571458D01*
X00623988Y03571566D01*
X00623847Y03571678D01*
X00623709Y03571793D01*
X00623574Y03571911D01*
X00623441Y03572033D01*
X00623312Y03572157D01*
X00623186Y03572285D01*
X00623062Y03572416D01*
X00622943Y03572550D01*
X00622826Y03572687D01*
X00622713Y03572827D01*
X00622603Y03572969D01*
X00622496Y03573114D01*
X00622393Y03573261D01*
X00622294Y03573411D01*
X00622199Y03573563D01*
X00622107Y03573718D01*
X00622019Y03573875D01*
X00621935Y03574034D01*
X00621855Y03574195D01*
X00621778Y03574357D01*
X00621706Y03574522D01*
X00621638Y03574688D01*
X00621573Y03574856D01*
X00621513Y03575025D01*
X00621457Y03575196D01*
X00621406Y03575368D01*
X00621358Y03575542D01*
X00621315Y03575716D01*
X00621276Y03575892D01*
X00621241Y03576068D01*
X00621210Y03576245D01*
X00621184Y03576423D01*
X00621162Y03576602D01*
X00621145Y03576781D01*
X00621132Y03576960D01*
X00621123Y03577139D01*
X00621119Y03577319D01*
X00621119Y03577499D01*
X00621123Y03577679D01*
X00621132Y03577858D01*
X00621145Y03578037D01*
X00621162Y03578216D01*
X00621184Y03578395D01*
X00621210Y03578573D01*
X00621241Y03578750D01*
X00621276Y03578926D01*
X00621315Y03579102D01*
X00621358Y03579276D01*
X00621406Y03579450D01*
X00621457Y03579622D01*
X00621513Y03579793D01*
X00621573Y03579962D01*
X00621638Y03580130D01*
X00621706Y03580296D01*
X00621778Y03580461D01*
X00621855Y03580623D01*
X00621935Y03580784D01*
X00622019Y03580943D01*
X00622107Y03581100D01*
X00622199Y03581255D01*
X00622294Y03581407D01*
X00622393Y03581557D01*
X00622496Y03581704D01*
X00622603Y03581849D01*
X00622713Y03581991D01*
X00622826Y03582131D01*
X00622943Y03582268D01*
X00623062Y03582402D01*
X00623186Y03582533D01*
X00623312Y03582661D01*
X00623441Y03582785D01*
X00623574Y03582907D01*
X00623709Y03583025D01*
X00623847Y03583140D01*
X00623988Y03583252D01*
X00624132Y03583360D01*
X00624278Y03583465D01*
X00624427Y03583566D01*
X00624578Y03583663D01*
X00624731Y03583757D01*
X00624887Y03583846D01*
X00625045Y03583933D01*
X00625205Y03584015D01*
X00625367Y03584093D01*
X00625530Y03584167D01*
X00625696Y03584238D01*
X00625863Y03584304D01*
X00626032Y03584366D01*
X00626202Y03584424D01*
X00626373Y03584478D01*
X00626546Y03584528D01*
X00626720Y03584573D01*
X00626895Y03584614D01*
X00627071Y03584651D01*
X00627248Y03584684D01*
X00627425Y03584712D01*
X00627603Y03584736D01*
X00627782Y03584756D01*
X00627961Y03584771D01*
X00628141Y03584782D01*
X00628320Y03584789D01*
X00628500Y03584791D01*
X00643264Y03584791D01*
X00643264Y03570028D01*
X00544839Y03550343D02*
X00545798Y03550355D01*
X00546756Y03550390D01*
X00547713Y03550448D01*
X00548668Y03550530D01*
X00549621Y03550635D01*
X00550571Y03550763D01*
X00551518Y03550914D01*
X00552461Y03551088D01*
X00553399Y03551285D01*
X00554332Y03551505D01*
X00555260Y03551747D01*
X00556181Y03552012D01*
X00557096Y03552300D01*
X00558004Y03552609D01*
X00558903Y03552941D01*
X00559794Y03553294D01*
X00560677Y03553669D01*
X00561550Y03554066D01*
X00562413Y03554483D01*
X00563266Y03554921D01*
X00564107Y03555380D01*
X00564938Y03555860D01*
X00565756Y03556359D01*
X00566562Y03556879D01*
X00567355Y03557417D01*
X00568135Y03557975D01*
X00568901Y03558552D01*
X00569653Y03559147D01*
X00570390Y03559760D01*
X00571111Y03560391D01*
X00571818Y03561040D01*
X00572508Y03561705D01*
X00573182Y03562387D01*
X00573839Y03563086D01*
X00574478Y03563800D01*
X00575101Y03564529D01*
X00575705Y03565273D01*
X00576291Y03566032D01*
X00576858Y03566805D01*
X00577407Y03567592D01*
X00577936Y03568391D01*
X00578445Y03569204D01*
X00578934Y03570028D01*
X00579404Y03570864D01*
X00579852Y03571711D01*
X00580280Y03572569D01*
X00580687Y03573437D01*
X00581073Y03574315D01*
X00581437Y03575202D01*
X00581780Y03576098D01*
X00582100Y03577001D01*
X00582399Y03577912D01*
X00582675Y03578830D01*
X00582929Y03579755D01*
X00583160Y03580685D01*
X00583368Y03581621D01*
X00583554Y03582562D01*
X00583717Y03583507D01*
X00583856Y03584455D01*
X00583973Y03585407D01*
X00584066Y03586361D01*
X00584136Y03587317D01*
X00584183Y03588275D01*
X00584206Y03589234D01*
X00584206Y03590192D01*
X00584183Y03591151D01*
X00584136Y03592109D01*
X00584066Y03593065D01*
X00583973Y03594019D01*
X00583856Y03594971D01*
X00583717Y03595919D01*
X00583554Y03596864D01*
X00583368Y03597805D01*
X00583160Y03598741D01*
X00582929Y03599671D01*
X00582675Y03600596D01*
X00582399Y03601514D01*
X00582100Y03602425D01*
X00581780Y03603328D01*
X00581437Y03604224D01*
X00581073Y03605111D01*
X00580687Y03605989D01*
X00580280Y03606857D01*
X00579852Y03607715D01*
X00579404Y03608562D01*
X00578934Y03609398D01*
X00578445Y03610222D01*
X00577936Y03611035D01*
X00577407Y03611834D01*
X00576858Y03612621D01*
X00576291Y03613394D01*
X00575705Y03614153D01*
X00575101Y03614897D01*
X00574478Y03615626D01*
X00573839Y03616340D01*
X00573182Y03617039D01*
X00572508Y03617721D01*
X00571818Y03618386D01*
X00571111Y03619035D01*
X00570390Y03619666D01*
X00569653Y03620279D01*
X00568901Y03620874D01*
X00568135Y03621451D01*
X00567355Y03622009D01*
X00566562Y03622547D01*
X00565756Y03623067D01*
X00564938Y03623566D01*
X00564107Y03624046D01*
X00563266Y03624505D01*
X00562413Y03624943D01*
X00561550Y03625360D01*
X00560677Y03625757D01*
X00559794Y03626132D01*
X00558903Y03626485D01*
X00558004Y03626817D01*
X00557096Y03627126D01*
X00556181Y03627414D01*
X00555260Y03627679D01*
X00554332Y03627921D01*
X00553399Y03628141D01*
X00552461Y03628338D01*
X00551518Y03628512D01*
X00550571Y03628663D01*
X00549621Y03628791D01*
X00548668Y03628896D01*
X00547713Y03628978D01*
X00546756Y03629036D01*
X00545798Y03629071D01*
X00544839Y03629083D01*
X00534996Y03609398D02*
X00534996Y03589713D01*
X00534996Y03570028D02*
X00535475Y03570034D01*
X00535954Y03570051D01*
X00536433Y03570081D01*
X00536911Y03570121D01*
X00537387Y03570174D01*
X00537862Y03570238D01*
X00538336Y03570313D01*
X00538807Y03570400D01*
X00539276Y03570499D01*
X00539743Y03570609D01*
X00540207Y03570730D01*
X00540667Y03570863D01*
X00541125Y03571006D01*
X00541578Y03571161D01*
X00542028Y03571327D01*
X00542474Y03571504D01*
X00542915Y03571691D01*
X00543351Y03571889D01*
X00543783Y03572098D01*
X00544209Y03572317D01*
X00544630Y03572547D01*
X00545045Y03572786D01*
X00545455Y03573036D01*
X00545858Y03573296D01*
X00546254Y03573565D01*
X00546644Y03573844D01*
X00547027Y03574132D01*
X00547403Y03574430D01*
X00547771Y03574737D01*
X00548132Y03575052D01*
X00548485Y03575376D01*
X00548830Y03575709D01*
X00549167Y03576050D01*
X00549496Y03576399D01*
X00549816Y03576756D01*
X00550127Y03577121D01*
X00550429Y03577493D01*
X00550722Y03577873D01*
X00551006Y03578259D01*
X00551280Y03578652D01*
X00551544Y03579052D01*
X00551799Y03579458D01*
X00552044Y03579871D01*
X00552278Y03580289D01*
X00552503Y03580712D01*
X00552717Y03581141D01*
X00552920Y03581575D01*
X00553113Y03582014D01*
X00553295Y03582458D01*
X00553466Y03582905D01*
X00553627Y03583357D01*
X00553776Y03583813D01*
X00553914Y03584272D01*
X00554041Y03584734D01*
X00554157Y03585199D01*
X00554261Y03585667D01*
X00554354Y03586137D01*
X00554435Y03586610D01*
X00554505Y03587084D01*
X00554563Y03587560D01*
X00554610Y03588037D01*
X00554645Y03588515D01*
X00554668Y03588994D01*
X00554680Y03589473D01*
X00554680Y03589953D01*
X00554668Y03590432D01*
X00554645Y03590911D01*
X00554610Y03591389D01*
X00554563Y03591866D01*
X00554505Y03592342D01*
X00554435Y03592816D01*
X00554354Y03593289D01*
X00554261Y03593759D01*
X00554157Y03594227D01*
X00554041Y03594692D01*
X00553914Y03595154D01*
X00553776Y03595613D01*
X00553627Y03596069D01*
X00553466Y03596521D01*
X00553295Y03596968D01*
X00553113Y03597412D01*
X00552920Y03597851D01*
X00552717Y03598285D01*
X00552503Y03598714D01*
X00552278Y03599137D01*
X00552044Y03599556D01*
X00551799Y03599968D01*
X00551544Y03600374D01*
X00551280Y03600774D01*
X00551006Y03601167D01*
X00550722Y03601553D01*
X00550429Y03601933D01*
X00550127Y03602305D01*
X00549816Y03602670D01*
X00549496Y03603027D01*
X00549167Y03603376D01*
X00548830Y03603717D01*
X00548485Y03604050D01*
X00548132Y03604374D01*
X00547771Y03604689D01*
X00547403Y03604996D01*
X00547027Y03605294D01*
X00546644Y03605582D01*
X00546254Y03605861D01*
X00545858Y03606130D01*
X00545455Y03606390D01*
X00545045Y03606640D01*
X00544630Y03606879D01*
X00544209Y03607109D01*
X00543783Y03607328D01*
X00543351Y03607537D01*
X00542915Y03607735D01*
X00542474Y03607922D01*
X00542028Y03608099D01*
X00541578Y03608265D01*
X00541125Y03608420D01*
X00540667Y03608563D01*
X00540207Y03608696D01*
X00539743Y03608817D01*
X00539276Y03608927D01*
X00538807Y03609026D01*
X00538336Y03609113D01*
X00537862Y03609188D01*
X00537387Y03609252D01*
X00536911Y03609305D01*
X00536433Y03609345D01*
X00535954Y03609375D01*
X00535475Y03609392D01*
X00534996Y03609398D01*
X00534996Y03589713D02*
X00515311Y03589713D01*
X00515311Y03624161D01*
X00515312Y03570027D02*
X00517093Y03569812D01*
X00518880Y03569639D01*
X00520670Y03569509D01*
X00522462Y03569423D01*
X00524257Y03569379D01*
X00526051Y03569379D01*
X00527846Y03569423D01*
X00529638Y03569509D01*
X00531428Y03569639D01*
X00533215Y03569812D01*
X00534996Y03570027D01*
X00515508Y03570028D02*
X00515508Y03552508D01*
X00515311Y03624162D02*
X00517353Y03624826D01*
X00519410Y03625443D01*
X00521480Y03626013D01*
X00523563Y03626535D01*
X00525658Y03627009D01*
X00527763Y03627434D01*
X00529877Y03627812D01*
X00531999Y03628141D01*
X00534128Y03628420D01*
X00536263Y03628651D01*
X00538402Y03628833D01*
X00540546Y03628966D01*
X00542691Y03629049D01*
X00544839Y03629083D01*
X00544839Y03550343D02*
X00541500Y03550272D01*
X00538161Y03550279D01*
X00534823Y03550364D01*
X00531487Y03550527D01*
X00528157Y03550768D01*
X00524832Y03551087D01*
X00521517Y03551483D01*
X00518211Y03551957D01*
X00514918Y03552508D01*
X00918507Y02107638D02*
X00913836Y02102968D01*
X00918507Y02107638D02*
X00927848Y02107638D01*
X00932519Y02102968D01*
X00932519Y02098297D01*
X00913836Y02079615D01*
X00932519Y02079615D01*
X00941460Y02079615D02*
X00941460Y02084285D01*
X00960142Y02102968D01*
X00960142Y02107638D01*
X00941460Y02107638D01*
X00969083Y02079615D02*
X00987766Y02107638D01*
X00996707Y02102968D02*
X00996707Y02098297D01*
X01001377Y02093626D01*
X01010719Y02093626D01*
X01015389Y02088956D01*
X01015389Y02084285D01*
X01010719Y02079615D01*
X01001377Y02079615D01*
X00996707Y02084285D01*
X00996707Y02088956D01*
X01001377Y02093626D01*
X01010719Y02093626D02*
X01015389Y02098297D01*
X01015389Y02102968D01*
X01010719Y02107638D01*
X01001377Y02107638D01*
X00996707Y02102968D01*
X01024330Y02079615D02*
X01043013Y02107638D01*
X01051954Y02102968D02*
X01056624Y02107638D01*
X01065966Y02107638D01*
X01070636Y02102968D01*
X01070636Y02098297D01*
X01051954Y02079615D01*
X01070636Y02079615D01*
X01079577Y02084285D02*
X01098260Y02102968D01*
X01098260Y02084285D01*
X01093589Y02079615D01*
X01084248Y02079615D01*
X01079577Y02084285D01*
X01079577Y02102968D01*
X01084248Y02107638D01*
X01093589Y02107638D01*
X01098260Y02102968D01*
X01107201Y02102968D02*
X01111871Y02107638D01*
X01121213Y02107638D01*
X01125883Y02102968D01*
X01125883Y02098297D01*
X01107201Y02079615D01*
X01125883Y02079615D01*
X01134824Y02079615D02*
X01153507Y02098297D01*
X01153507Y02102968D01*
X01148836Y02107638D01*
X01139495Y02107638D01*
X01134824Y02102968D01*
X01134824Y02079615D02*
X01153507Y02079615D01*
D13*
X00904730Y02363796D02*
X00664730Y02363796D01*
X00662660Y02363821D01*
X00660592Y02363897D01*
X00658525Y02364023D01*
X00656463Y02364199D01*
X00654405Y02364425D01*
X00652354Y02364702D01*
X00650310Y02365028D01*
X00648274Y02365404D01*
X00646248Y02365830D01*
X00644234Y02366304D01*
X00642231Y02366828D01*
X00640242Y02367400D01*
X00638267Y02368020D01*
X00636308Y02368689D01*
X00634365Y02369405D01*
X00632441Y02370168D01*
X00630536Y02370977D01*
X00628651Y02371833D01*
X00626788Y02372734D01*
X00624947Y02373681D01*
X00623129Y02374672D01*
X00621337Y02375707D01*
X00619570Y02376785D01*
X00617830Y02377906D01*
X00616117Y02379069D01*
X00614434Y02380274D01*
X00612780Y02381519D01*
X00611157Y02382804D01*
X00609566Y02384128D01*
X00608008Y02385490D01*
X00606483Y02386890D01*
X00604993Y02388327D01*
X00603538Y02389800D01*
X00602120Y02391307D01*
X00600738Y02392849D01*
X00599395Y02394424D01*
X00598090Y02396031D01*
X00596825Y02397669D01*
X00595600Y02399338D01*
X00594417Y02401036D01*
X00593274Y02402762D01*
X00592175Y02404516D01*
X00591118Y02406296D01*
X00590105Y02408101D01*
X00589136Y02409930D01*
X00588212Y02411783D01*
X00587333Y02413657D01*
X00586501Y02415552D01*
X00585714Y02417467D01*
X00584975Y02419400D01*
X00584283Y02421351D01*
X00583638Y02423318D01*
X00583042Y02425301D01*
X00582494Y02427297D01*
X00581995Y02429306D01*
X00581545Y02431326D01*
X00581144Y02433357D01*
X00580793Y02435397D01*
X00580491Y02437445D01*
X00580240Y02439499D01*
X00580039Y02441560D01*
X00579887Y02443624D01*
X00579787Y02445692D01*
X00579736Y02447761D01*
X00579736Y02449831D01*
X00579787Y02451900D01*
X00579887Y02453968D01*
X00580039Y02456032D01*
X00580240Y02458093D01*
X00580491Y02460147D01*
X00580793Y02462195D01*
X00581144Y02464235D01*
X00581545Y02466266D01*
X00581995Y02468286D01*
X00582494Y02470295D01*
X00583042Y02472291D01*
X00583638Y02474274D01*
X00584283Y02476241D01*
X00584975Y02478192D01*
X00585714Y02480125D01*
X00586501Y02482040D01*
X00587333Y02483935D01*
X00588212Y02485809D01*
X00589136Y02487662D01*
X00590105Y02489491D01*
X00591118Y02491296D01*
X00592175Y02493076D01*
X00593274Y02494830D01*
X00594417Y02496556D01*
X00595600Y02498254D01*
X00596825Y02499923D01*
X00598090Y02501561D01*
X00599395Y02503168D01*
X00600738Y02504743D01*
X00602120Y02506285D01*
X00603538Y02507792D01*
X00604993Y02509265D01*
X00606483Y02510702D01*
X00608008Y02512102D01*
X00609566Y02513464D01*
X00611157Y02514788D01*
X00612780Y02516073D01*
X00614434Y02517318D01*
X00616117Y02518523D01*
X00617830Y02519686D01*
X00619570Y02520807D01*
X00621337Y02521885D01*
X00623129Y02522920D01*
X00624947Y02523911D01*
X00626788Y02524858D01*
X00628651Y02525759D01*
X00630536Y02526615D01*
X00632441Y02527424D01*
X00634365Y02528187D01*
X00636308Y02528903D01*
X00638267Y02529572D01*
X00640242Y02530192D01*
X00642231Y02530764D01*
X00644234Y02531288D01*
X00646248Y02531762D01*
X00648274Y02532188D01*
X00650310Y02532564D01*
X00652354Y02532890D01*
X00654405Y02533167D01*
X00656463Y02533393D01*
X00658525Y02533569D01*
X00660592Y02533695D01*
X00662660Y02533771D01*
X00664730Y02533796D01*
X00904730Y02533796D01*
X00906800Y02533771D01*
X00908868Y02533695D01*
X00910935Y02533569D01*
X00912997Y02533393D01*
X00915055Y02533167D01*
X00917106Y02532890D01*
X00919150Y02532564D01*
X00921186Y02532188D01*
X00923212Y02531762D01*
X00925226Y02531288D01*
X00927229Y02530764D01*
X00929218Y02530192D01*
X00931193Y02529572D01*
X00933152Y02528903D01*
X00935095Y02528187D01*
X00937019Y02527424D01*
X00938924Y02526615D01*
X00940809Y02525759D01*
X00942672Y02524858D01*
X00944513Y02523911D01*
X00946331Y02522920D01*
X00948123Y02521885D01*
X00949890Y02520807D01*
X00951630Y02519686D01*
X00953343Y02518523D01*
X00955026Y02517318D01*
X00956680Y02516073D01*
X00958303Y02514788D01*
X00959894Y02513464D01*
X00961452Y02512102D01*
X00962977Y02510702D01*
X00964467Y02509265D01*
X00965922Y02507792D01*
X00967340Y02506285D01*
X00968722Y02504743D01*
X00970065Y02503168D01*
X00971370Y02501561D01*
X00972635Y02499923D01*
X00973860Y02498254D01*
X00975043Y02496556D01*
X00976186Y02494830D01*
X00977285Y02493076D01*
X00978342Y02491296D01*
X00979355Y02489491D01*
X00980324Y02487662D01*
X00981248Y02485809D01*
X00982127Y02483935D01*
X00982959Y02482040D01*
X00983746Y02480125D01*
X00984485Y02478192D01*
X00985177Y02476241D01*
X00985822Y02474274D01*
X00986418Y02472291D01*
X00986966Y02470295D01*
X00987465Y02468286D01*
X00987915Y02466266D01*
X00988316Y02464235D01*
X00988667Y02462195D01*
X00988969Y02460147D01*
X00989220Y02458093D01*
X00989421Y02456032D01*
X00989573Y02453968D01*
X00989673Y02451900D01*
X00989724Y02449831D01*
X00989724Y02447761D01*
X00989673Y02445692D01*
X00989573Y02443624D01*
X00989421Y02441560D01*
X00989220Y02439499D01*
X00988969Y02437445D01*
X00988667Y02435397D01*
X00988316Y02433357D01*
X00987915Y02431326D01*
X00987465Y02429306D01*
X00986966Y02427297D01*
X00986418Y02425301D01*
X00985822Y02423318D01*
X00985177Y02421351D01*
X00984485Y02419400D01*
X00983746Y02417467D01*
X00982959Y02415552D01*
X00982127Y02413657D01*
X00981248Y02411783D01*
X00980324Y02409930D01*
X00979355Y02408101D01*
X00978342Y02406296D01*
X00977285Y02404516D01*
X00976186Y02402762D01*
X00975043Y02401036D01*
X00973860Y02399338D01*
X00972635Y02397669D01*
X00971370Y02396031D01*
X00970065Y02394424D01*
X00968722Y02392849D01*
X00967340Y02391307D01*
X00965922Y02389800D01*
X00964467Y02388327D01*
X00962977Y02386890D01*
X00961452Y02385490D01*
X00959894Y02384128D01*
X00958303Y02382804D01*
X00956680Y02381519D01*
X00955026Y02380274D01*
X00953343Y02379069D01*
X00951630Y02377906D01*
X00949890Y02376785D01*
X00948123Y02375707D01*
X00946331Y02374672D01*
X00944513Y02373681D01*
X00942672Y02372734D01*
X00940809Y02371833D01*
X00938924Y02370977D01*
X00937019Y02370168D01*
X00935095Y02369405D01*
X00933152Y02368689D01*
X00931193Y02368020D01*
X00929218Y02367400D01*
X00927229Y02366828D01*
X00925226Y02366304D01*
X00923212Y02365830D01*
X00921186Y02365404D01*
X00919150Y02365028D01*
X00917106Y02364702D01*
X00915055Y02364425D01*
X00912997Y02364199D01*
X00910935Y02364023D01*
X00908868Y02363897D01*
X00906800Y02363821D01*
X00904730Y02363796D01*
D14*
X00408516Y01017632D02*
X00398516Y01017632D01*
X00408516Y01017632D02*
X00988516Y01017632D01*
X00998516Y01017632D01*
X00998999Y01017638D01*
X00999482Y01017655D01*
X00999965Y01017685D01*
X01000446Y01017725D01*
X01000927Y01017778D01*
X01001406Y01017842D01*
X01001883Y01017917D01*
X01002359Y01018005D01*
X01002832Y01018103D01*
X01003302Y01018213D01*
X01003770Y01018334D01*
X01004235Y01018467D01*
X01004696Y01018611D01*
X01005154Y01018766D01*
X01005608Y01018932D01*
X01006058Y01019109D01*
X01006503Y01019296D01*
X01006944Y01019495D01*
X01007380Y01019703D01*
X01007810Y01019923D01*
X01008236Y01020153D01*
X01008655Y01020393D01*
X01009069Y01020643D01*
X01009476Y01020903D01*
X01009877Y01021172D01*
X01010272Y01021452D01*
X01010659Y01021740D01*
X01011040Y01022039D01*
X01011413Y01022346D01*
X01011778Y01022662D01*
X01012136Y01022987D01*
X01012486Y01023320D01*
X01012828Y01023662D01*
X01013161Y01024012D01*
X01013486Y01024370D01*
X01013802Y01024735D01*
X01014109Y01025108D01*
X01014408Y01025489D01*
X01014696Y01025876D01*
X01014976Y01026271D01*
X01015245Y01026672D01*
X01015505Y01027079D01*
X01015755Y01027493D01*
X01015995Y01027912D01*
X01016225Y01028338D01*
X01016445Y01028768D01*
X01016653Y01029204D01*
X01016852Y01029645D01*
X01017039Y01030090D01*
X01017216Y01030540D01*
X01017382Y01030994D01*
X01017537Y01031452D01*
X01017681Y01031913D01*
X01017814Y01032378D01*
X01017935Y01032846D01*
X01018045Y01033316D01*
X01018143Y01033789D01*
X01018231Y01034265D01*
X01018306Y01034742D01*
X01018370Y01035221D01*
X01018423Y01035702D01*
X01018463Y01036183D01*
X01018493Y01036666D01*
X01018510Y01037149D01*
X01018516Y01037632D01*
X01018516Y01237632D01*
X01018523Y01238236D01*
X01018545Y01238840D01*
X01018582Y01239443D01*
X01018633Y01240045D01*
X01018698Y01240645D01*
X01018778Y01241244D01*
X01018873Y01241841D01*
X01018982Y01242435D01*
X01019105Y01243027D01*
X01019242Y01243615D01*
X01019394Y01244200D01*
X01019560Y01244781D01*
X01019740Y01245357D01*
X01019933Y01245930D01*
X01020141Y01246497D01*
X01020362Y01247059D01*
X01020596Y01247616D01*
X01020844Y01248167D01*
X01021105Y01248712D01*
X01021380Y01249250D01*
X01021667Y01249782D01*
X01021967Y01250306D01*
X01022279Y01250823D01*
X01022604Y01251332D01*
X01022941Y01251834D01*
X01023291Y01252327D01*
X01023652Y01252811D01*
X01024024Y01253287D01*
X01024408Y01253753D01*
X01024803Y01254210D01*
X01025209Y01254657D01*
X01025626Y01255095D01*
X01026053Y01255522D01*
X01026491Y01255939D01*
X01026938Y01256345D01*
X01027395Y01256740D01*
X01027861Y01257124D01*
X01028337Y01257496D01*
X01028821Y01257857D01*
X01029314Y01258207D01*
X01029816Y01258544D01*
X01030325Y01258869D01*
X01030842Y01259181D01*
X01031366Y01259481D01*
X01031898Y01259768D01*
X01032436Y01260043D01*
X01032981Y01260304D01*
X01033532Y01260552D01*
X01034089Y01260786D01*
X01034651Y01261007D01*
X01035218Y01261215D01*
X01035791Y01261408D01*
X01036367Y01261588D01*
X01036948Y01261754D01*
X01037533Y01261906D01*
X01038121Y01262043D01*
X01038713Y01262166D01*
X01039307Y01262275D01*
X01039904Y01262370D01*
X01040503Y01262450D01*
X01041103Y01262515D01*
X01041705Y01262566D01*
X01042308Y01262603D01*
X01042912Y01262625D01*
X01043516Y01262632D01*
X01003516Y01262632D02*
X01308516Y01262632D01*
X01308516Y01282632D01*
X01208516Y01282632D01*
X01108516Y01282632D01*
X00288516Y01282632D01*
X00288516Y01302632D01*
X00293516Y01302632D01*
X00293516Y01397632D01*
X00293523Y01398236D01*
X00293545Y01398840D01*
X00293582Y01399443D01*
X00293633Y01400045D01*
X00293698Y01400645D01*
X00293778Y01401244D01*
X00293873Y01401841D01*
X00293982Y01402435D01*
X00294105Y01403027D01*
X00294242Y01403615D01*
X00294394Y01404200D01*
X00294560Y01404781D01*
X00294740Y01405357D01*
X00294933Y01405930D01*
X00295141Y01406497D01*
X00295362Y01407059D01*
X00295596Y01407616D01*
X00295844Y01408167D01*
X00296105Y01408712D01*
X00296380Y01409250D01*
X00296667Y01409782D01*
X00296967Y01410306D01*
X00297279Y01410823D01*
X00297604Y01411332D01*
X00297941Y01411834D01*
X00298291Y01412327D01*
X00298652Y01412811D01*
X00299024Y01413287D01*
X00299408Y01413753D01*
X00299803Y01414210D01*
X00300209Y01414657D01*
X00300626Y01415095D01*
X00301053Y01415522D01*
X00301491Y01415939D01*
X00301938Y01416345D01*
X00302395Y01416740D01*
X00302861Y01417124D01*
X00303337Y01417496D01*
X00303821Y01417857D01*
X00304314Y01418207D01*
X00304816Y01418544D01*
X00305325Y01418869D01*
X00305842Y01419181D01*
X00306366Y01419481D01*
X00306898Y01419768D01*
X00307436Y01420043D01*
X00307981Y01420304D01*
X00308532Y01420552D01*
X00309089Y01420786D01*
X00309651Y01421007D01*
X00310218Y01421215D01*
X00310791Y01421408D01*
X00311367Y01421588D01*
X00311948Y01421754D01*
X00312533Y01421906D01*
X00313121Y01422043D01*
X00313713Y01422166D01*
X00314307Y01422275D01*
X00314904Y01422370D01*
X00315503Y01422450D01*
X00316103Y01422515D01*
X00316705Y01422566D01*
X00317308Y01422603D01*
X00317912Y01422625D01*
X00318516Y01422632D01*
X00323516Y01422632D02*
X00323516Y01827632D01*
X00303516Y01847632D01*
X00108516Y01847632D01*
X00088516Y01827632D01*
X00088516Y01427632D01*
X00088516Y01422632D01*
X00288516Y01422632D01*
X00323516Y01422632D01*
X00333516Y01422632D01*
X00333516Y01452632D01*
X01063516Y01452632D01*
X01063516Y01422632D01*
X00333516Y01422632D01*
X00288516Y01282632D02*
X00188516Y01282632D01*
X00088516Y01282632D01*
X00088516Y01302632D01*
X00088516Y01422632D01*
X00088516Y01282632D02*
X00088516Y01262632D01*
X00393516Y01262632D01*
X01003516Y01262632D01*
X01108516Y01282632D02*
X01108516Y01302632D01*
X01103516Y01302632D01*
X01103516Y01397632D01*
X01103509Y01398236D01*
X01103487Y01398840D01*
X01103450Y01399443D01*
X01103399Y01400045D01*
X01103334Y01400645D01*
X01103254Y01401244D01*
X01103159Y01401841D01*
X01103050Y01402435D01*
X01102927Y01403027D01*
X01102790Y01403615D01*
X01102638Y01404200D01*
X01102472Y01404781D01*
X01102292Y01405357D01*
X01102099Y01405930D01*
X01101891Y01406497D01*
X01101670Y01407059D01*
X01101436Y01407616D01*
X01101188Y01408167D01*
X01100927Y01408712D01*
X01100652Y01409250D01*
X01100365Y01409782D01*
X01100065Y01410306D01*
X01099753Y01410823D01*
X01099428Y01411332D01*
X01099091Y01411834D01*
X01098741Y01412327D01*
X01098380Y01412811D01*
X01098008Y01413287D01*
X01097624Y01413753D01*
X01097229Y01414210D01*
X01096823Y01414657D01*
X01096406Y01415095D01*
X01095979Y01415522D01*
X01095541Y01415939D01*
X01095094Y01416345D01*
X01094637Y01416740D01*
X01094171Y01417124D01*
X01093695Y01417496D01*
X01093211Y01417857D01*
X01092718Y01418207D01*
X01092216Y01418544D01*
X01091707Y01418869D01*
X01091190Y01419181D01*
X01090666Y01419481D01*
X01090134Y01419768D01*
X01089596Y01420043D01*
X01089051Y01420304D01*
X01088500Y01420552D01*
X01087943Y01420786D01*
X01087381Y01421007D01*
X01086814Y01421215D01*
X01086241Y01421408D01*
X01085665Y01421588D01*
X01085084Y01421754D01*
X01084499Y01421906D01*
X01083911Y01422043D01*
X01083319Y01422166D01*
X01082725Y01422275D01*
X01082128Y01422370D01*
X01081529Y01422450D01*
X01080929Y01422515D01*
X01080327Y01422566D01*
X01079724Y01422603D01*
X01079120Y01422625D01*
X01078516Y01422632D01*
X01073516Y01422632D02*
X01073516Y01827632D01*
X01093516Y01847632D01*
X01283516Y01847632D01*
X01308516Y01822632D01*
X01308516Y01427632D01*
X01308516Y01422632D01*
X01308516Y01302632D01*
X01308516Y01282632D01*
X01308516Y01422632D02*
X01108516Y01422632D01*
X01073516Y01422632D01*
X01063516Y01422632D01*
X01126516Y01722632D02*
X01126536Y01724227D01*
X01126594Y01725821D01*
X01126692Y01727414D01*
X01126829Y01729003D01*
X01127005Y01730589D01*
X01127220Y01732169D01*
X01127473Y01733745D01*
X01127765Y01735313D01*
X01128095Y01736874D01*
X01128464Y01738426D01*
X01128871Y01739968D01*
X01129315Y01741501D01*
X01129797Y01743021D01*
X01130316Y01744530D01*
X01130871Y01746025D01*
X01131464Y01747506D01*
X01132092Y01748973D01*
X01132757Y01750423D01*
X01133456Y01751857D01*
X01134191Y01753273D01*
X01134960Y01754670D01*
X01135764Y01756049D01*
X01136601Y01757407D01*
X01137470Y01758744D01*
X01138373Y01760060D01*
X01139308Y01761352D01*
X01140273Y01762622D01*
X01141270Y01763868D01*
X01142297Y01765088D01*
X01143354Y01766283D01*
X01144440Y01767452D01*
X01145554Y01768594D01*
X01146696Y01769708D01*
X01147865Y01770794D01*
X01149060Y01771851D01*
X01150280Y01772878D01*
X01151526Y01773875D01*
X01152796Y01774840D01*
X01154088Y01775775D01*
X01155404Y01776678D01*
X01156741Y01777547D01*
X01158099Y01778384D01*
X01159478Y01779188D01*
X01160875Y01779957D01*
X01162291Y01780692D01*
X01163725Y01781391D01*
X01165175Y01782056D01*
X01166642Y01782684D01*
X01168123Y01783277D01*
X01169618Y01783832D01*
X01171127Y01784351D01*
X01172647Y01784833D01*
X01174180Y01785277D01*
X01175722Y01785684D01*
X01177274Y01786053D01*
X01178835Y01786383D01*
X01180403Y01786675D01*
X01181979Y01786928D01*
X01183559Y01787143D01*
X01185145Y01787319D01*
X01186734Y01787456D01*
X01188327Y01787554D01*
X01189921Y01787612D01*
X01191516Y01787632D01*
X01193111Y01787612D01*
X01194705Y01787554D01*
X01196298Y01787456D01*
X01197887Y01787319D01*
X01199473Y01787143D01*
X01201053Y01786928D01*
X01202629Y01786675D01*
X01204197Y01786383D01*
X01205758Y01786053D01*
X01207310Y01785684D01*
X01208852Y01785277D01*
X01210385Y01784833D01*
X01211905Y01784351D01*
X01213414Y01783832D01*
X01214909Y01783277D01*
X01216390Y01782684D01*
X01217857Y01782056D01*
X01219307Y01781391D01*
X01220741Y01780692D01*
X01222157Y01779957D01*
X01223554Y01779188D01*
X01224933Y01778384D01*
X01226291Y01777547D01*
X01227628Y01776678D01*
X01228944Y01775775D01*
X01230236Y01774840D01*
X01231506Y01773875D01*
X01232752Y01772878D01*
X01233972Y01771851D01*
X01235167Y01770794D01*
X01236336Y01769708D01*
X01237478Y01768594D01*
X01238592Y01767452D01*
X01239678Y01766283D01*
X01240735Y01765088D01*
X01241762Y01763868D01*
X01242759Y01762622D01*
X01243724Y01761352D01*
X01244659Y01760060D01*
X01245562Y01758744D01*
X01246431Y01757407D01*
X01247268Y01756049D01*
X01248072Y01754670D01*
X01248841Y01753273D01*
X01249576Y01751857D01*
X01250275Y01750423D01*
X01250940Y01748973D01*
X01251568Y01747506D01*
X01252161Y01746025D01*
X01252716Y01744530D01*
X01253235Y01743021D01*
X01253717Y01741501D01*
X01254161Y01739968D01*
X01254568Y01738426D01*
X01254937Y01736874D01*
X01255267Y01735313D01*
X01255559Y01733745D01*
X01255812Y01732169D01*
X01256027Y01730589D01*
X01256203Y01729003D01*
X01256340Y01727414D01*
X01256438Y01725821D01*
X01256496Y01724227D01*
X01256516Y01722632D01*
X01256496Y01721037D01*
X01256438Y01719443D01*
X01256340Y01717850D01*
X01256203Y01716261D01*
X01256027Y01714675D01*
X01255812Y01713095D01*
X01255559Y01711519D01*
X01255267Y01709951D01*
X01254937Y01708390D01*
X01254568Y01706838D01*
X01254161Y01705296D01*
X01253717Y01703763D01*
X01253235Y01702243D01*
X01252716Y01700734D01*
X01252161Y01699239D01*
X01251568Y01697758D01*
X01250940Y01696291D01*
X01250275Y01694841D01*
X01249576Y01693407D01*
X01248841Y01691991D01*
X01248072Y01690594D01*
X01247268Y01689215D01*
X01246431Y01687857D01*
X01245562Y01686520D01*
X01244659Y01685204D01*
X01243724Y01683912D01*
X01242759Y01682642D01*
X01241762Y01681396D01*
X01240735Y01680176D01*
X01239678Y01678981D01*
X01238592Y01677812D01*
X01237478Y01676670D01*
X01236336Y01675556D01*
X01235167Y01674470D01*
X01233972Y01673413D01*
X01232752Y01672386D01*
X01231506Y01671389D01*
X01230236Y01670424D01*
X01228944Y01669489D01*
X01227628Y01668586D01*
X01226291Y01667717D01*
X01224933Y01666880D01*
X01223554Y01666076D01*
X01222157Y01665307D01*
X01220741Y01664572D01*
X01219307Y01663873D01*
X01217857Y01663208D01*
X01216390Y01662580D01*
X01214909Y01661987D01*
X01213414Y01661432D01*
X01211905Y01660913D01*
X01210385Y01660431D01*
X01208852Y01659987D01*
X01207310Y01659580D01*
X01205758Y01659211D01*
X01204197Y01658881D01*
X01202629Y01658589D01*
X01201053Y01658336D01*
X01199473Y01658121D01*
X01197887Y01657945D01*
X01196298Y01657808D01*
X01194705Y01657710D01*
X01193111Y01657652D01*
X01191516Y01657632D01*
X01189921Y01657652D01*
X01188327Y01657710D01*
X01186734Y01657808D01*
X01185145Y01657945D01*
X01183559Y01658121D01*
X01181979Y01658336D01*
X01180403Y01658589D01*
X01178835Y01658881D01*
X01177274Y01659211D01*
X01175722Y01659580D01*
X01174180Y01659987D01*
X01172647Y01660431D01*
X01171127Y01660913D01*
X01169618Y01661432D01*
X01168123Y01661987D01*
X01166642Y01662580D01*
X01165175Y01663208D01*
X01163725Y01663873D01*
X01162291Y01664572D01*
X01160875Y01665307D01*
X01159478Y01666076D01*
X01158099Y01666880D01*
X01156741Y01667717D01*
X01155404Y01668586D01*
X01154088Y01669489D01*
X01152796Y01670424D01*
X01151526Y01671389D01*
X01150280Y01672386D01*
X01149060Y01673413D01*
X01147865Y01674470D01*
X01146696Y01675556D01*
X01145554Y01676670D01*
X01144440Y01677812D01*
X01143354Y01678981D01*
X01142297Y01680176D01*
X01141270Y01681396D01*
X01140273Y01682642D01*
X01139308Y01683912D01*
X01138373Y01685204D01*
X01137470Y01686520D01*
X01136601Y01687857D01*
X01135764Y01689215D01*
X01134960Y01690594D01*
X01134191Y01691991D01*
X01133456Y01693407D01*
X01132757Y01694841D01*
X01132092Y01696291D01*
X01131464Y01697758D01*
X01130871Y01699239D01*
X01130316Y01700734D01*
X01129797Y01702243D01*
X01129315Y01703763D01*
X01128871Y01705296D01*
X01128464Y01706838D01*
X01128095Y01708390D01*
X01127765Y01709951D01*
X01127473Y01711519D01*
X01127220Y01713095D01*
X01127005Y01714675D01*
X01126829Y01716261D01*
X01126692Y01717850D01*
X01126594Y01719443D01*
X01126536Y01721037D01*
X01126516Y01722632D01*
X00904730Y02383796D02*
X00664730Y02383796D01*
X00663147Y02383815D01*
X00661565Y02383873D01*
X00659985Y02383969D01*
X00658408Y02384104D01*
X00656835Y02384277D01*
X00655266Y02384489D01*
X00653703Y02384738D01*
X00652146Y02385026D01*
X00650597Y02385351D01*
X00649056Y02385714D01*
X00647525Y02386114D01*
X00646004Y02386552D01*
X00644493Y02387026D01*
X00642995Y02387538D01*
X00641510Y02388085D01*
X00640039Y02388668D01*
X00638582Y02389287D01*
X00637140Y02389942D01*
X00635715Y02390631D01*
X00634308Y02391355D01*
X00632918Y02392113D01*
X00631547Y02392904D01*
X00630196Y02393729D01*
X00628865Y02394586D01*
X00627556Y02395476D01*
X00626268Y02396397D01*
X00625004Y02397349D01*
X00623763Y02398331D01*
X00622546Y02399344D01*
X00621354Y02400386D01*
X00620188Y02401456D01*
X00619049Y02402555D01*
X00617936Y02403681D01*
X00616852Y02404834D01*
X00615795Y02406013D01*
X00614768Y02407217D01*
X00613770Y02408446D01*
X00612803Y02409699D01*
X00611866Y02410975D01*
X00610961Y02412274D01*
X00610087Y02413594D01*
X00609246Y02414935D01*
X00608438Y02416296D01*
X00607664Y02417676D01*
X00606923Y02419075D01*
X00606216Y02420492D01*
X00605544Y02421925D01*
X00604907Y02423374D01*
X00604306Y02424838D01*
X00603741Y02426317D01*
X00603211Y02427809D01*
X00602719Y02429313D01*
X00602263Y02430829D01*
X00601844Y02432355D01*
X00601462Y02433892D01*
X00601118Y02435437D01*
X00600811Y02436990D01*
X00600543Y02438550D01*
X00600312Y02440116D01*
X00600120Y02441687D01*
X00599966Y02443262D01*
X00599850Y02444841D01*
X00599773Y02446422D01*
X00599735Y02448005D01*
X00599735Y02449587D01*
X00599773Y02451170D01*
X00599850Y02452751D01*
X00599966Y02454330D01*
X00600120Y02455905D01*
X00600312Y02457476D01*
X00600543Y02459042D01*
X00600811Y02460602D01*
X00601118Y02462155D01*
X00601462Y02463700D01*
X00601844Y02465237D01*
X00602263Y02466763D01*
X00602719Y02468279D01*
X00603211Y02469783D01*
X00603741Y02471275D01*
X00604306Y02472754D01*
X00604907Y02474218D01*
X00605544Y02475667D01*
X00606216Y02477100D01*
X00606923Y02478517D01*
X00607664Y02479916D01*
X00608438Y02481296D01*
X00609246Y02482657D01*
X00610087Y02483998D01*
X00610961Y02485318D01*
X00611866Y02486617D01*
X00612803Y02487893D01*
X00613770Y02489146D01*
X00614768Y02490375D01*
X00615795Y02491579D01*
X00616852Y02492758D01*
X00617936Y02493911D01*
X00619049Y02495037D01*
X00620188Y02496136D01*
X00621354Y02497206D01*
X00622546Y02498248D01*
X00623763Y02499261D01*
X00625004Y02500243D01*
X00626268Y02501195D01*
X00627556Y02502116D01*
X00628865Y02503006D01*
X00630196Y02503863D01*
X00631547Y02504688D01*
X00632918Y02505479D01*
X00634308Y02506237D01*
X00635715Y02506961D01*
X00637140Y02507650D01*
X00638582Y02508305D01*
X00640039Y02508924D01*
X00641510Y02509507D01*
X00642995Y02510054D01*
X00644493Y02510566D01*
X00646004Y02511040D01*
X00647525Y02511478D01*
X00649056Y02511878D01*
X00650597Y02512241D01*
X00652146Y02512566D01*
X00653703Y02512854D01*
X00655266Y02513103D01*
X00656835Y02513315D01*
X00658408Y02513488D01*
X00659985Y02513623D01*
X00661565Y02513719D01*
X00663147Y02513777D01*
X00664730Y02513796D01*
X00904730Y02513796D01*
X00906313Y02513777D01*
X00907895Y02513719D01*
X00909475Y02513623D01*
X00911052Y02513488D01*
X00912625Y02513315D01*
X00914194Y02513103D01*
X00915757Y02512854D01*
X00917314Y02512566D01*
X00918863Y02512241D01*
X00920404Y02511878D01*
X00921935Y02511478D01*
X00923456Y02511040D01*
X00924967Y02510566D01*
X00926465Y02510054D01*
X00927950Y02509507D01*
X00929421Y02508924D01*
X00930878Y02508305D01*
X00932320Y02507650D01*
X00933745Y02506961D01*
X00935152Y02506237D01*
X00936542Y02505479D01*
X00937913Y02504688D01*
X00939264Y02503863D01*
X00940595Y02503006D01*
X00941904Y02502116D01*
X00943192Y02501195D01*
X00944456Y02500243D01*
X00945697Y02499261D01*
X00946914Y02498248D01*
X00948106Y02497206D01*
X00949272Y02496136D01*
X00950411Y02495037D01*
X00951524Y02493911D01*
X00952608Y02492758D01*
X00953665Y02491579D01*
X00954692Y02490375D01*
X00955690Y02489146D01*
X00956657Y02487893D01*
X00957594Y02486617D01*
X00958499Y02485318D01*
X00959373Y02483998D01*
X00960214Y02482657D01*
X00961022Y02481296D01*
X00961796Y02479916D01*
X00962537Y02478517D01*
X00963244Y02477100D01*
X00963916Y02475667D01*
X00964553Y02474218D01*
X00965154Y02472754D01*
X00965719Y02471275D01*
X00966249Y02469783D01*
X00966741Y02468279D01*
X00967197Y02466763D01*
X00967616Y02465237D01*
X00967998Y02463700D01*
X00968342Y02462155D01*
X00968649Y02460602D01*
X00968917Y02459042D01*
X00969148Y02457476D01*
X00969340Y02455905D01*
X00969494Y02454330D01*
X00969610Y02452751D01*
X00969687Y02451170D01*
X00969725Y02449587D01*
X00969725Y02448005D01*
X00969687Y02446422D01*
X00969610Y02444841D01*
X00969494Y02443262D01*
X00969340Y02441687D01*
X00969148Y02440116D01*
X00968917Y02438550D01*
X00968649Y02436990D01*
X00968342Y02435437D01*
X00967998Y02433892D01*
X00967616Y02432355D01*
X00967197Y02430829D01*
X00966741Y02429313D01*
X00966249Y02427809D01*
X00965719Y02426317D01*
X00965154Y02424838D01*
X00964553Y02423374D01*
X00963916Y02421925D01*
X00963244Y02420492D01*
X00962537Y02419075D01*
X00961796Y02417676D01*
X00961022Y02416296D01*
X00960214Y02414935D01*
X00959373Y02413594D01*
X00958499Y02412274D01*
X00957594Y02410975D01*
X00956657Y02409699D01*
X00955690Y02408446D01*
X00954692Y02407217D01*
X00953665Y02406013D01*
X00952608Y02404834D01*
X00951524Y02403681D01*
X00950411Y02402555D01*
X00949272Y02401456D01*
X00948106Y02400386D01*
X00946914Y02399344D01*
X00945697Y02398331D01*
X00944456Y02397349D01*
X00943192Y02396397D01*
X00941904Y02395476D01*
X00940595Y02394586D01*
X00939264Y02393729D01*
X00937913Y02392904D01*
X00936542Y02392113D01*
X00935152Y02391355D01*
X00933745Y02390631D01*
X00932320Y02389942D01*
X00930878Y02389287D01*
X00929421Y02388668D01*
X00927950Y02388085D01*
X00926465Y02387538D01*
X00924967Y02387026D01*
X00923456Y02386552D01*
X00921935Y02386114D01*
X00920404Y02385714D01*
X00918863Y02385351D01*
X00917314Y02385026D01*
X00915757Y02384738D01*
X00914194Y02384489D01*
X00912625Y02384277D01*
X00911052Y02384104D01*
X00909475Y02383969D01*
X00907895Y02383873D01*
X00906313Y02383815D01*
X00904730Y02383796D01*
X00834730Y02448796D02*
X00809730Y02448796D01*
X00809730Y02478796D01*
X00794730Y02478796D02*
X00794730Y02418796D01*
X00774730Y02418796D01*
X00774730Y02478796D01*
X00794730Y02478796D01*
X00809730Y02448796D02*
X00809730Y02418796D01*
X00759730Y02418796D02*
X00759730Y02448796D01*
X00734730Y02448796D01*
X00759730Y02448796D02*
X00759730Y02478796D01*
X01062358Y02783846D02*
X01062358Y02853846D01*
X01077358Y02868846D01*
X01062358Y02883846D01*
X01062358Y02953846D01*
X01077358Y02968846D01*
X01062358Y02983846D01*
X01062358Y03053846D01*
X01077358Y03068846D01*
X01247358Y03068846D01*
X01262358Y03053846D01*
X01262358Y02983846D01*
X01247358Y02968846D01*
X01262358Y02953846D01*
X01262358Y02883846D01*
X01247358Y02868846D01*
X01262358Y02853846D01*
X01262358Y02783846D01*
X01247358Y02768846D01*
X01077358Y02768846D01*
X01062358Y02783846D01*
X00879287Y03698768D02*
X00829287Y03929083D01*
X00779287Y03929083D01*
X00729287Y03698768D01*
X00629287Y03698768D02*
X00579287Y03929083D01*
X00529287Y03929083D01*
X00479287Y03698768D01*
X00140516Y01722632D02*
X00140536Y01724227D01*
X00140594Y01725821D01*
X00140692Y01727414D01*
X00140829Y01729003D01*
X00141005Y01730589D01*
X00141220Y01732169D01*
X00141473Y01733745D01*
X00141765Y01735313D01*
X00142095Y01736874D01*
X00142464Y01738426D01*
X00142871Y01739968D01*
X00143315Y01741501D01*
X00143797Y01743021D01*
X00144316Y01744530D01*
X00144871Y01746025D01*
X00145464Y01747506D01*
X00146092Y01748973D01*
X00146757Y01750423D01*
X00147456Y01751857D01*
X00148191Y01753273D01*
X00148960Y01754670D01*
X00149764Y01756049D01*
X00150601Y01757407D01*
X00151470Y01758744D01*
X00152373Y01760060D01*
X00153308Y01761352D01*
X00154273Y01762622D01*
X00155270Y01763868D01*
X00156297Y01765088D01*
X00157354Y01766283D01*
X00158440Y01767452D01*
X00159554Y01768594D01*
X00160696Y01769708D01*
X00161865Y01770794D01*
X00163060Y01771851D01*
X00164280Y01772878D01*
X00165526Y01773875D01*
X00166796Y01774840D01*
X00168088Y01775775D01*
X00169404Y01776678D01*
X00170741Y01777547D01*
X00172099Y01778384D01*
X00173478Y01779188D01*
X00174875Y01779957D01*
X00176291Y01780692D01*
X00177725Y01781391D01*
X00179175Y01782056D01*
X00180642Y01782684D01*
X00182123Y01783277D01*
X00183618Y01783832D01*
X00185127Y01784351D01*
X00186647Y01784833D01*
X00188180Y01785277D01*
X00189722Y01785684D01*
X00191274Y01786053D01*
X00192835Y01786383D01*
X00194403Y01786675D01*
X00195979Y01786928D01*
X00197559Y01787143D01*
X00199145Y01787319D01*
X00200734Y01787456D01*
X00202327Y01787554D01*
X00203921Y01787612D01*
X00205516Y01787632D01*
X00207111Y01787612D01*
X00208705Y01787554D01*
X00210298Y01787456D01*
X00211887Y01787319D01*
X00213473Y01787143D01*
X00215053Y01786928D01*
X00216629Y01786675D01*
X00218197Y01786383D01*
X00219758Y01786053D01*
X00221310Y01785684D01*
X00222852Y01785277D01*
X00224385Y01784833D01*
X00225905Y01784351D01*
X00227414Y01783832D01*
X00228909Y01783277D01*
X00230390Y01782684D01*
X00231857Y01782056D01*
X00233307Y01781391D01*
X00234741Y01780692D01*
X00236157Y01779957D01*
X00237554Y01779188D01*
X00238933Y01778384D01*
X00240291Y01777547D01*
X00241628Y01776678D01*
X00242944Y01775775D01*
X00244236Y01774840D01*
X00245506Y01773875D01*
X00246752Y01772878D01*
X00247972Y01771851D01*
X00249167Y01770794D01*
X00250336Y01769708D01*
X00251478Y01768594D01*
X00252592Y01767452D01*
X00253678Y01766283D01*
X00254735Y01765088D01*
X00255762Y01763868D01*
X00256759Y01762622D01*
X00257724Y01761352D01*
X00258659Y01760060D01*
X00259562Y01758744D01*
X00260431Y01757407D01*
X00261268Y01756049D01*
X00262072Y01754670D01*
X00262841Y01753273D01*
X00263576Y01751857D01*
X00264275Y01750423D01*
X00264940Y01748973D01*
X00265568Y01747506D01*
X00266161Y01746025D01*
X00266716Y01744530D01*
X00267235Y01743021D01*
X00267717Y01741501D01*
X00268161Y01739968D01*
X00268568Y01738426D01*
X00268937Y01736874D01*
X00269267Y01735313D01*
X00269559Y01733745D01*
X00269812Y01732169D01*
X00270027Y01730589D01*
X00270203Y01729003D01*
X00270340Y01727414D01*
X00270438Y01725821D01*
X00270496Y01724227D01*
X00270516Y01722632D01*
X00270496Y01721037D01*
X00270438Y01719443D01*
X00270340Y01717850D01*
X00270203Y01716261D01*
X00270027Y01714675D01*
X00269812Y01713095D01*
X00269559Y01711519D01*
X00269267Y01709951D01*
X00268937Y01708390D01*
X00268568Y01706838D01*
X00268161Y01705296D01*
X00267717Y01703763D01*
X00267235Y01702243D01*
X00266716Y01700734D01*
X00266161Y01699239D01*
X00265568Y01697758D01*
X00264940Y01696291D01*
X00264275Y01694841D01*
X00263576Y01693407D01*
X00262841Y01691991D01*
X00262072Y01690594D01*
X00261268Y01689215D01*
X00260431Y01687857D01*
X00259562Y01686520D01*
X00258659Y01685204D01*
X00257724Y01683912D01*
X00256759Y01682642D01*
X00255762Y01681396D01*
X00254735Y01680176D01*
X00253678Y01678981D01*
X00252592Y01677812D01*
X00251478Y01676670D01*
X00250336Y01675556D01*
X00249167Y01674470D01*
X00247972Y01673413D01*
X00246752Y01672386D01*
X00245506Y01671389D01*
X00244236Y01670424D01*
X00242944Y01669489D01*
X00241628Y01668586D01*
X00240291Y01667717D01*
X00238933Y01666880D01*
X00237554Y01666076D01*
X00236157Y01665307D01*
X00234741Y01664572D01*
X00233307Y01663873D01*
X00231857Y01663208D01*
X00230390Y01662580D01*
X00228909Y01661987D01*
X00227414Y01661432D01*
X00225905Y01660913D01*
X00224385Y01660431D01*
X00222852Y01659987D01*
X00221310Y01659580D01*
X00219758Y01659211D01*
X00218197Y01658881D01*
X00216629Y01658589D01*
X00215053Y01658336D01*
X00213473Y01658121D01*
X00211887Y01657945D01*
X00210298Y01657808D01*
X00208705Y01657710D01*
X00207111Y01657652D01*
X00205516Y01657632D01*
X00203921Y01657652D01*
X00202327Y01657710D01*
X00200734Y01657808D01*
X00199145Y01657945D01*
X00197559Y01658121D01*
X00195979Y01658336D01*
X00194403Y01658589D01*
X00192835Y01658881D01*
X00191274Y01659211D01*
X00189722Y01659580D01*
X00188180Y01659987D01*
X00186647Y01660431D01*
X00185127Y01660913D01*
X00183618Y01661432D01*
X00182123Y01661987D01*
X00180642Y01662580D01*
X00179175Y01663208D01*
X00177725Y01663873D01*
X00176291Y01664572D01*
X00174875Y01665307D01*
X00173478Y01666076D01*
X00172099Y01666880D01*
X00170741Y01667717D01*
X00169404Y01668586D01*
X00168088Y01669489D01*
X00166796Y01670424D01*
X00165526Y01671389D01*
X00164280Y01672386D01*
X00163060Y01673413D01*
X00161865Y01674470D01*
X00160696Y01675556D01*
X00159554Y01676670D01*
X00158440Y01677812D01*
X00157354Y01678981D01*
X00156297Y01680176D01*
X00155270Y01681396D01*
X00154273Y01682642D01*
X00153308Y01683912D01*
X00152373Y01685204D01*
X00151470Y01686520D01*
X00150601Y01687857D01*
X00149764Y01689215D01*
X00148960Y01690594D01*
X00148191Y01691991D01*
X00147456Y01693407D01*
X00146757Y01694841D01*
X00146092Y01696291D01*
X00145464Y01697758D01*
X00144871Y01699239D01*
X00144316Y01700734D01*
X00143797Y01702243D01*
X00143315Y01703763D01*
X00142871Y01705296D01*
X00142464Y01706838D01*
X00142095Y01708390D01*
X00141765Y01709951D01*
X00141473Y01711519D01*
X00141220Y01713095D01*
X00141005Y01714675D01*
X00140829Y01716261D01*
X00140692Y01717850D01*
X00140594Y01719443D01*
X00140536Y01721037D01*
X00140516Y01722632D01*
X00353516Y01262632D02*
X00354120Y01262625D01*
X00354724Y01262603D01*
X00355327Y01262566D01*
X00355929Y01262515D01*
X00356529Y01262450D01*
X00357128Y01262370D01*
X00357725Y01262275D01*
X00358319Y01262166D01*
X00358911Y01262043D01*
X00359499Y01261906D01*
X00360084Y01261754D01*
X00360665Y01261588D01*
X00361241Y01261408D01*
X00361814Y01261215D01*
X00362381Y01261007D01*
X00362943Y01260786D01*
X00363500Y01260552D01*
X00364051Y01260304D01*
X00364596Y01260043D01*
X00365134Y01259768D01*
X00365666Y01259481D01*
X00366190Y01259181D01*
X00366707Y01258869D01*
X00367216Y01258544D01*
X00367718Y01258207D01*
X00368211Y01257857D01*
X00368695Y01257496D01*
X00369171Y01257124D01*
X00369637Y01256740D01*
X00370094Y01256345D01*
X00370541Y01255939D01*
X00370979Y01255522D01*
X00371406Y01255095D01*
X00371823Y01254657D01*
X00372229Y01254210D01*
X00372624Y01253753D01*
X00373008Y01253287D01*
X00373380Y01252811D01*
X00373741Y01252327D01*
X00374091Y01251834D01*
X00374428Y01251332D01*
X00374753Y01250823D01*
X00375065Y01250306D01*
X00375365Y01249782D01*
X00375652Y01249250D01*
X00375927Y01248712D01*
X00376188Y01248167D01*
X00376436Y01247616D01*
X00376670Y01247059D01*
X00376891Y01246497D01*
X00377099Y01245930D01*
X00377292Y01245357D01*
X00377472Y01244781D01*
X00377638Y01244200D01*
X00377790Y01243615D01*
X00377927Y01243027D01*
X00378050Y01242435D01*
X00378159Y01241841D01*
X00378254Y01241244D01*
X00378334Y01240645D01*
X00378399Y01240045D01*
X00378450Y01239443D01*
X00378487Y01238840D01*
X00378509Y01238236D01*
X00378516Y01237632D01*
X00378516Y01037632D01*
X00378522Y01037149D01*
X00378539Y01036666D01*
X00378569Y01036183D01*
X00378609Y01035702D01*
X00378662Y01035221D01*
X00378726Y01034742D01*
X00378801Y01034265D01*
X00378889Y01033789D01*
X00378987Y01033316D01*
X00379097Y01032846D01*
X00379218Y01032378D01*
X00379351Y01031913D01*
X00379495Y01031452D01*
X00379650Y01030994D01*
X00379816Y01030540D01*
X00379993Y01030090D01*
X00380180Y01029645D01*
X00380379Y01029204D01*
X00380587Y01028768D01*
X00380807Y01028338D01*
X00381037Y01027912D01*
X00381277Y01027493D01*
X00381527Y01027079D01*
X00381787Y01026672D01*
X00382056Y01026271D01*
X00382336Y01025876D01*
X00382624Y01025489D01*
X00382923Y01025108D01*
X00383230Y01024735D01*
X00383546Y01024370D01*
X00383871Y01024012D01*
X00384204Y01023662D01*
X00384546Y01023320D01*
X00384896Y01022987D01*
X00385254Y01022662D01*
X00385619Y01022346D01*
X00385992Y01022039D01*
X00386373Y01021740D01*
X00386760Y01021452D01*
X00387155Y01021172D01*
X00387556Y01020903D01*
X00387963Y01020643D01*
X00388377Y01020393D01*
X00388796Y01020153D01*
X00389222Y01019923D01*
X00389652Y01019703D01*
X00390088Y01019495D01*
X00390529Y01019296D01*
X00390974Y01019109D01*
X00391424Y01018932D01*
X00391878Y01018766D01*
X00392336Y01018611D01*
X00392797Y01018467D01*
X00393262Y01018334D01*
X00393730Y01018213D01*
X00394200Y01018103D01*
X00394673Y01018005D01*
X00395149Y01017917D01*
X00395626Y01017842D01*
X00396105Y01017778D01*
X00396586Y01017725D01*
X00397067Y01017685D01*
X00397550Y01017655D01*
X00398033Y01017638D01*
X00398516Y01017632D01*
D15*
X00362969Y02125756D02*
X00222969Y02125756D01*
X00222969Y02383787D01*
X00362969Y02383787D01*
X00362969Y02125756D01*
X00576808Y02734479D02*
X00923265Y02734479D01*
X00939013Y02750227D01*
X00939013Y03096683D01*
X00923265Y03112431D01*
X00576808Y03112431D01*
X00561060Y03096683D01*
X00561060Y02750227D01*
X00576808Y02734479D01*
D16*
X00602399Y02710857D03*
X00622084Y02710857D03*
X00641769Y02710857D03*
X00661454Y02710857D03*
X00681139Y02710857D03*
X00700824Y02710857D03*
X00720509Y02710857D03*
X00740194Y02710857D03*
X00759879Y02710857D03*
X00779564Y02710857D03*
X00799249Y02710857D03*
X00818934Y02710857D03*
X00838619Y02710857D03*
X00858305Y02710857D03*
X00877990Y02710857D03*
X00897675Y02710857D03*
X00897675Y03136053D03*
X00877990Y03136053D03*
X00858305Y03136053D03*
X00838619Y03136053D03*
X00818934Y03136053D03*
X00799249Y03136053D03*
X00779564Y03136053D03*
X00759879Y03136053D03*
X00740194Y03136053D03*
X00720509Y03136053D03*
X00700824Y03136053D03*
X00681139Y03136053D03*
X00661454Y03136053D03*
X00641769Y03136053D03*
X00622084Y03136053D03*
X00602399Y03136053D03*
D17*
X00537438Y03071093D03*
X00537438Y03051408D03*
X00537438Y03031723D03*
X00537438Y03012038D03*
X00537438Y02992353D03*
X00537438Y02972668D03*
X00537438Y02952983D03*
X00537438Y02933297D03*
X00537438Y02913612D03*
X00537438Y02893927D03*
X00537438Y02874242D03*
X00537438Y02854557D03*
X00537438Y02834872D03*
X00537438Y02815187D03*
X00537438Y02795502D03*
X00537438Y02775817D03*
X00962635Y02775817D03*
X00962635Y02795502D03*
X00962635Y02815187D03*
X00962635Y02834872D03*
X00962635Y02854557D03*
X00962635Y02874242D03*
X00962635Y02893927D03*
X00962635Y02913612D03*
X00962635Y02933297D03*
X00962635Y02952983D03*
X00962635Y02972668D03*
X00962635Y02992353D03*
X00962635Y03012038D03*
X00962635Y03031723D03*
X00962635Y03051408D03*
X00962635Y03071093D03*
D18*
X01099067Y03787531D02*
X01092177Y03794421D01*
X01098083Y03800327D01*
X01104972Y03793437D01*
X01099067Y03787531D01*
X00224075Y03793437D02*
X00218169Y03787531D01*
X00211280Y03794421D01*
X00217185Y03800327D01*
X00224075Y03793437D01*
D19*
X00233917Y03804264D03*
X01114815Y03804264D03*
D20*
X01287326Y03031372D02*
X01294833Y03031372D01*
X01302339Y03023866D01*
X01309845Y03031372D01*
X01317352Y03031372D01*
X01324858Y03023866D01*
X01324858Y03008853D01*
X01317352Y03001346D01*
X01302339Y03016359D02*
X01302339Y03023866D01*
X01287326Y03031372D02*
X01279820Y03023866D01*
X01279820Y03008853D01*
X01287326Y03001346D01*
X01287326Y02931372D02*
X01279820Y02923866D01*
X01279820Y02908853D01*
X01287326Y02901346D01*
X01287326Y02931372D02*
X01294833Y02931372D01*
X01324858Y02901346D01*
X01324858Y02931372D01*
X01324858Y02831372D02*
X01324858Y02801346D01*
X01324858Y02816359D02*
X01279820Y02816359D01*
X01294833Y02801346D01*
X00969990Y01795170D02*
X00969990Y01750132D01*
X00985002Y01750132D02*
X00954977Y01750132D01*
X00954977Y01780157D02*
X00969990Y01795170D01*
X00985002Y01695170D02*
X00969990Y01687664D01*
X00954977Y01672651D01*
X00977496Y01672651D01*
X00985002Y01665145D01*
X00985002Y01657638D01*
X00977496Y01650132D01*
X00962483Y01650132D01*
X00954977Y01657638D01*
X00954977Y01672651D01*
X00962483Y01385170D02*
X00954977Y01377664D01*
X00954977Y01370157D01*
X00962483Y01362651D01*
X00985002Y01362651D01*
X00985002Y01347638D02*
X00985002Y01377664D01*
X00977496Y01385170D01*
X00962483Y01385170D01*
X00938963Y01377664D02*
X00908937Y01347638D01*
X00916444Y01340132D01*
X00931456Y01340132D01*
X00938963Y01347638D01*
X00938963Y01377664D01*
X00931456Y01385170D01*
X00916444Y01385170D01*
X00908937Y01377664D01*
X00908937Y01347638D01*
X00877911Y01362651D02*
X00862898Y01362651D01*
X00862898Y01340132D02*
X00862898Y01385170D01*
X00892924Y01385170D01*
X00954977Y01347638D02*
X00962483Y01340132D01*
X00977496Y01340132D01*
X00985002Y01347638D01*
X00410002Y01657638D02*
X00410002Y01687664D01*
X00402496Y01695170D01*
X00387483Y01695170D01*
X00379977Y01687664D01*
X00379977Y01680157D01*
X00387483Y01672651D01*
X00410002Y01672651D01*
X00410002Y01657638D02*
X00402496Y01650132D01*
X00387483Y01650132D01*
X00379977Y01657638D01*
X00387483Y01750132D02*
X00379977Y01757638D01*
X00387483Y01750132D02*
X00402496Y01750132D01*
X00410002Y01757638D01*
X00410002Y01772651D01*
X00402496Y01780157D01*
X00394990Y01780157D01*
X00379977Y01772651D01*
X00379977Y01795170D01*
X00410002Y01795170D01*
X00156016Y01601611D02*
X00110978Y01601611D01*
X00133497Y01579092D01*
X00133497Y01609118D01*
X00133497Y01563079D02*
X00148510Y01563079D01*
X00156016Y01555572D01*
X00156016Y01540559D01*
X00148510Y01533053D01*
X00133497Y01533053D02*
X00125990Y01548066D01*
X00125990Y01555572D01*
X00133497Y01563079D01*
X00110978Y01563079D02*
X00110978Y01533053D01*
X00133497Y01533053D01*
X00148510Y01517373D02*
X00148510Y01509867D01*
X00156016Y01509867D01*
X00156016Y01517373D01*
X00148510Y01517373D01*
X00156016Y01517373D02*
X00171029Y01502360D01*
X00156016Y01486347D02*
X00156016Y01456321D01*
X00125990Y01486347D01*
X00118484Y01486347D01*
X00110978Y01478840D01*
X00110978Y01463827D01*
X00118484Y01456321D01*
D21*
X00525314Y03650591D02*
X00535322Y03650591D01*
X00530318Y03658097D02*
X00525314Y03658097D01*
X00525314Y03665603D02*
X00525314Y03650591D01*
X00525314Y03665603D02*
X00535322Y03665603D01*
X00554779Y03665603D02*
X00554779Y03650591D01*
X00564787Y03650591D01*
X00584244Y03650591D02*
X00594252Y03650591D01*
X00589248Y03658097D02*
X00584244Y03658097D01*
X00584244Y03665603D02*
X00584244Y03650591D01*
X00584244Y03665603D02*
X00594252Y03665603D01*
X00613709Y03663101D02*
X00613709Y03653093D01*
X00616211Y03650591D01*
X00621215Y03650591D01*
X00623718Y03653093D01*
X00623718Y03663101D02*
X00621215Y03665603D01*
X00616211Y03665603D01*
X00613709Y03663101D01*
X00643174Y03665603D02*
X00653183Y03665603D01*
X00648178Y03665603D02*
X00648178Y03650591D01*
X00672639Y03650591D02*
X00672639Y03665603D01*
X00680146Y03665603D01*
X00682648Y03663101D01*
X00682648Y03658097D01*
X00680146Y03655595D01*
X00672639Y03655595D01*
X00677643Y03655595D02*
X00682648Y03650591D01*
X00702104Y03653093D02*
X00704606Y03650591D01*
X00709611Y03650591D01*
X00712113Y03653093D01*
X00712113Y03663101D01*
X00709611Y03665603D01*
X00704606Y03665603D01*
X00702104Y03663101D01*
X00702104Y03653093D01*
X00731569Y03650591D02*
X00731569Y03665603D01*
X00741578Y03650591D01*
X00741578Y03665603D01*
X00761034Y03665603D02*
X00766039Y03665603D01*
X00763536Y03665603D02*
X00763536Y03650591D01*
X00761034Y03650591D02*
X00766039Y03650591D01*
X00785589Y03653093D02*
X00788091Y03650591D01*
X00793095Y03650591D01*
X00795597Y03653093D01*
X00795597Y03663101D02*
X00793095Y03665603D01*
X00788091Y03665603D01*
X00785589Y03663101D01*
X00785589Y03653093D01*
X00815054Y03653093D02*
X00817556Y03650591D01*
X00822560Y03650591D01*
X00825062Y03653093D01*
X00825062Y03655595D01*
X00822560Y03658097D01*
X00817556Y03658097D01*
X00815054Y03660599D01*
X00815054Y03663101D01*
X00817556Y03665603D01*
X00822560Y03665603D01*
X00825062Y03663101D01*
D22*
X01173106Y01969186D02*
X01215142Y01906132D01*
X01237561Y01906132D02*
X01279597Y01948168D01*
X01279597Y01958677D01*
X01269088Y01969186D01*
X01248070Y01969186D01*
X01237561Y01958677D01*
X01215142Y01969186D02*
X01173106Y01906132D01*
X01237561Y01906132D02*
X01279597Y01906132D01*
D23*
X00698516Y01437632D03*
D24*
X00698516Y01272632D03*
D25*
X00699516Y01595132D03*
X00806516Y01595132D03*
X00914516Y01595132D03*
X00590516Y01595132D03*
X00482516Y01595132D03*
D26*
X00536516Y01545132D03*
X00645516Y01545132D03*
X00752516Y01545132D03*
X00860516Y01545132D03*
M02*
