G75*
%MOIN*%
%OFA0B0*%
%FSLAX26Y26*%
%IPPOS*%
%LPD*%
%AMOC8*
5,1,8,0,0,1.08239X$1,22.5*
%
%ADD10R,0.011811X0.047244*%
%ADD11R,0.047244X0.011811*%
%ADD12R,0.087992X0.047992*%
%ADD13R,0.086614X0.141732*%
%ADD14R,0.062992X0.070866*%
%ADD15R,0.047244X0.047244*%
%ADD16R,0.043307X0.039370*%
D10*
X00602399Y02699046D03*
X00622084Y02699046D03*
X00641769Y02699046D03*
X00661454Y02699046D03*
X00681139Y02699046D03*
X00700824Y02699046D03*
X00720509Y02699046D03*
X00740194Y02699046D03*
X00759879Y02699046D03*
X00779564Y02699046D03*
X00799249Y02699046D03*
X00818934Y02699046D03*
X00838619Y02699046D03*
X00858305Y02699046D03*
X00877990Y02699046D03*
X00897675Y02699046D03*
X00897675Y03147864D03*
X00877990Y03147864D03*
X00858305Y03147864D03*
X00838619Y03147864D03*
X00818934Y03147864D03*
X00799249Y03147864D03*
X00779564Y03147864D03*
X00759879Y03147864D03*
X00740194Y03147864D03*
X00720509Y03147864D03*
X00700824Y03147864D03*
X00681139Y03147864D03*
X00661454Y03147864D03*
X00641769Y03147864D03*
X00622084Y03147864D03*
X00602399Y03147864D03*
D11*
X00525627Y03071093D03*
X00525627Y03051408D03*
X00525627Y03031723D03*
X00525627Y03012038D03*
X00525627Y02992353D03*
X00525627Y02972668D03*
X00525627Y02952983D03*
X00525627Y02933297D03*
X00525627Y02913612D03*
X00525627Y02893927D03*
X00525627Y02874242D03*
X00525627Y02854557D03*
X00525627Y02834872D03*
X00525627Y02815187D03*
X00525627Y02795502D03*
X00525627Y02775817D03*
X00974446Y02775817D03*
X00974446Y02795502D03*
X00974446Y02815187D03*
X00974446Y02834872D03*
X00974446Y02854557D03*
X00974446Y02874242D03*
X00974446Y02893927D03*
X00974446Y02913612D03*
X00974446Y02933297D03*
X00974446Y02952983D03*
X00974446Y02972668D03*
X00974446Y02992353D03*
X00974446Y03012038D03*
X00974446Y03031723D03*
X00974446Y03051408D03*
X00974446Y03071093D03*
D12*
X00170961Y02345756D03*
X00170961Y02254772D03*
X00170961Y02163787D03*
D13*
X00414976Y02254772D03*
D14*
X00226480Y01982622D03*
X00336717Y01982622D03*
X00340409Y02482528D03*
X00230173Y02482528D03*
D15*
X00218169Y03752098D03*
X00218169Y03834776D03*
X01099067Y03834776D03*
X01099067Y03752098D03*
D16*
X01143035Y03654232D03*
X01143035Y03587303D03*
X00196610Y03574752D03*
X00196610Y03641681D03*
M02*
