G75*
%MOIN*%
%OFA0B0*%
%FSLAX26Y26*%
%IPPOS*%
%LPD*%
%AMOC8*
5,1,8,0,0,1.08239X$1,22.5*
%
%ADD10C,0.060000*%
%ADD11R,0.019811X0.055244*%
%ADD12R,0.055244X0.019811*%
%ADD13R,0.095992X0.055992*%
%ADD14R,0.094614X0.149732*%
%ADD15R,0.070992X0.078866*%
%ADD16R,0.055244X0.055244*%
%ADD17R,0.051307X0.047370*%
%ADD18OC8,0.064000*%
%ADD19C,0.065402*%
%ADD20C,0.138551*%
%ADD21OC8,0.068000*%
%ADD22C,0.208000*%
%ADD23C,0.043685*%
%ADD24C,0.047622*%
D10*
X00689730Y02448796D03*
X00879730Y02448796D03*
D11*
X00877990Y02699046D03*
X00897675Y02699046D03*
X00858305Y02699046D03*
X00838619Y02699046D03*
X00818934Y02699046D03*
X00799249Y02699046D03*
X00779564Y02699046D03*
X00759879Y02699046D03*
X00740194Y02699046D03*
X00720509Y02699046D03*
X00700824Y02699046D03*
X00681139Y02699046D03*
X00661454Y02699046D03*
X00641769Y02699046D03*
X00622084Y02699046D03*
X00602399Y02699046D03*
X00602399Y03147864D03*
X00622084Y03147864D03*
X00641769Y03147864D03*
X00661454Y03147864D03*
X00681139Y03147864D03*
X00700824Y03147864D03*
X00720509Y03147864D03*
X00740194Y03147864D03*
X00759879Y03147864D03*
X00779564Y03147864D03*
X00799249Y03147864D03*
X00818934Y03147864D03*
X00838619Y03147864D03*
X00858305Y03147864D03*
X00877990Y03147864D03*
X00897675Y03147864D03*
D12*
X00974446Y03071093D03*
X00974446Y03051408D03*
X00974446Y03031723D03*
X00974446Y03012038D03*
X00974446Y02992353D03*
X00974446Y02972668D03*
X00974446Y02952983D03*
X00974446Y02933297D03*
X00974446Y02913612D03*
X00974446Y02893927D03*
X00974446Y02874242D03*
X00974446Y02854557D03*
X00974446Y02834872D03*
X00974446Y02815187D03*
X00974446Y02795502D03*
X00974446Y02775817D03*
X00525627Y02775817D03*
X00525627Y02795502D03*
X00525627Y02815187D03*
X00525627Y02834872D03*
X00525627Y02854557D03*
X00525627Y02874242D03*
X00525627Y02893927D03*
X00525627Y02913612D03*
X00525627Y02933297D03*
X00525627Y02952983D03*
X00525627Y02972668D03*
X00525627Y02992353D03*
X00525627Y03012038D03*
X00525627Y03031723D03*
X00525627Y03051408D03*
X00525627Y03071093D03*
D13*
X00170961Y02345756D03*
X00170961Y02254772D03*
X00170961Y02163787D03*
D14*
X00414976Y02254772D03*
D15*
X00340409Y02482528D03*
X00230173Y02482528D03*
X00226480Y01982622D03*
X00336717Y01982622D03*
D16*
X00218169Y03752098D03*
X00218169Y03834776D03*
X01099067Y03834776D03*
X01099067Y03752098D03*
D17*
X01143035Y03654232D03*
X01143035Y03587303D03*
X00196610Y03574752D03*
X00196610Y03641681D03*
D18*
X01112358Y03018846D03*
X01112358Y02918846D03*
X01112358Y02818846D03*
X01212358Y02818846D03*
X01212358Y02918846D03*
X01212358Y03018846D03*
D19*
X00817083Y03450382D02*
X00817083Y03507783D01*
X00718657Y03507783D02*
X00718657Y03450382D01*
X00639917Y03450382D02*
X00639917Y03507783D01*
X00541492Y03507783D02*
X00541492Y03450382D01*
D20*
X00420626Y03585776D03*
X00937949Y03585776D03*
D21*
X00914516Y01772632D03*
X00806516Y01772632D03*
X00698516Y01772632D03*
X00590516Y01772632D03*
X00482516Y01772632D03*
X00536516Y01672632D03*
X00644516Y01672632D03*
X00752516Y01672632D03*
X00860516Y01672632D03*
D22*
X01191516Y01722632D03*
X00205516Y01722632D03*
D23*
X00878500Y02628000D03*
X00965500Y02709000D03*
X01066000Y02703000D03*
X01041000Y02915500D03*
X01041000Y03103000D03*
X01078500Y03153000D03*
X00903500Y03078000D03*
X00741000Y03065500D03*
X00603500Y03090500D03*
X00566000Y03153000D03*
X00553500Y03203000D03*
X00591000Y03228000D03*
X00641000Y03253000D03*
X00691000Y03253000D03*
X00728500Y03215500D03*
X00803500Y03215500D03*
X00766000Y03390500D03*
X00428500Y03190500D03*
X00641000Y02915500D03*
X00591000Y02853000D03*
X00566000Y02703000D03*
X00791000Y02778000D03*
X00278500Y03565500D03*
X00916000Y03815500D03*
D24*
X01225000Y01500000D03*
X00412500Y02725000D03*
X00350000Y02725000D03*
X00300000Y02725000D03*
X00250000Y02725000D03*
X00200000Y02725000D03*
X00641000Y03053000D03*
X00894105Y02976223D03*
X01100000Y03275000D03*
X01087500Y03337500D03*
X01312500Y03275000D03*
X01350000Y03337500D03*
M02*
